<?xml version="1.0" encoding="UTF-8"?>
<svg width="57px" height="56px" viewBox="0 0 57 56" version="1.1" xmlns="http://www.w3.org/2000/svg" xmlns:xlink="http://www.w3.org/1999/xlink">
    <!-- Generator: sketchtool 52.5 (67469) - http://www.bohemiancoding.com/sketch -->
    <title>F2F001AB-69B2-4229-862B-C938E1E39A1A</title>
    <desc>Created with sketchtool.</desc>
    <defs>
        <linearGradient x1="3.39466337e-06%" y1="50.0002378%" x2="99.9999948%" y2="50.0002378%" id="linearGradient-1">
            <stop stop-color="#FF5404" offset="0%"></stop>
            <stop stop-color="#FF5404" offset="1%"></stop>
            <stop stop-color="#FF8500" offset="100%"></stop>
        </linearGradient>
    </defs>
    <g id="Work" stroke="none" stroke-width="1" fill="none" fill-rule="evenodd">
        <g id="1.0-A4S-Home_Page" transform="translate(-692.000000, -2951.000000)" fill-rule="nonzero">
            <g id="Group-10" transform="translate(65.000000, 2830.000000)">
                <g id="Group-11" transform="translate(555.000000, 121.000000)">
                    <g id="Group-9" transform="translate(72.000000, 0.000000)">
                        <g id="Group-15">
                            <path d="M56.1230788,27.9878435 C56.1300942,43.4517185 43.5708019,55.9930935 28.0729404,55.9992185 C12.5750788,56.0053435 0.00614036673,43.4753435 1.90518975e-06,28.0105935 C-0.00262886404,20.8819685 2.71934037,14.0202185 7.61169421,8.82534354 L6.64707883,7.86284354 L4.38461729,7.86284354 C4.24343267,7.86196854 4.10487883,7.82609354 3.98123267,7.75784354 C3.91283267,7.73771854 3.85232498,7.69834354 3.80584806,7.64409354 L3.76200191,7.60909354 L0.254309597,4.10909354 C-0.0850596333,3.76346854 -0.0789211717,3.21046854 0.266586521,2.87184354 C0.427063444,2.71434354 0.642786521,2.62509354 0.868155751,2.62159354 L2.63077114,2.62159354 L2.63077114,0.862843543 C2.63778652,0.379843543 3.0359096,-0.00690645666 3.51997114,9.35433366e-05 C3.74534037,0.00271854334 3.96018652,0.0928435433 4.12154037,0.250343543 L7.67307883,3.77659354 C7.72569421,3.82734354 7.76515575,3.89034354 7.78707883,3.96034354 C7.84846344,4.08284354 7.8923096,4.22284354 7.8923096,4.36284354 L7.8923096,6.62909354 L8.85692498,7.59159354 C20.1569558,-2.99153146 37.915525,-2.43065646 48.5219096,8.84459354 C53.4011096,14.0307185 56.1178173,20.8749685 56.1230788,27.9878435 Z M6.13846344,4.72159354 L4.39338652,2.98909354 L4.38461729,4.36284354 L2.99907883,4.36284354 L4.75292498,6.11284354 L6.13846344,6.11284354 L6.13846344,4.72159354 Z M54.3692327,27.9878435 C54.3630942,13.4908435 42.5807558,1.74309354 28.0501404,1.74921854 C21.3820173,1.75184354 14.9638173,4.28146854 10.0933865,8.82534354 L12.5750788,11.2928435 C21.8143404,2.75546854 36.239725,3.30759354 44.7949865,12.5265935 C53.3520019,21.7455935 52.7986634,36.1393435 43.5594019,44.6767185 C34.3201404,53.2140935 19.8956327,52.6610935 11.3386173,43.4429685 C3.24374037,34.7209685 3.24286344,21.2503435 11.3386173,12.5274685 L8.85692498,10.0599685 C-1.07335194,20.6430935 -0.525275018,37.2549685 10.0811096,47.1634685 C20.6874942,57.0710935 37.3358788,56.5233435 47.2661558,45.9410935 C51.8322942,41.0734685 54.3727404,34.6544685 54.3692327,27.9878435 Z M12.5750788,13.7690935 C4.70469421,22.3038435 5.2589096,35.5889685 13.8124173,43.4420935 C22.365925,51.2952185 35.6802481,50.7430935 43.5506327,42.2083435 C51.4210173,33.6735935 50.8676788,20.3875935 42.3141711,12.5353435 C34.2587558,5.13984354 21.8678327,5.13984354 13.8124173,12.5353435 L16.3116481,15.0203435 C23.4936481,8.53571854 34.5840942,9.08784354 41.084725,16.2540935 C47.5836019,23.4203435 47.0293865,34.4873435 39.8482634,40.9719685 C32.6671404,47.4565935 21.5749404,46.9044685 15.0760634,39.7390935 C9.03055575,33.0724685 9.03055575,22.9207185 15.0760634,16.2540935 L12.5750788,13.7690935 Z M16.3107711,17.4965935 C10.4976481,23.9785935 11.0509865,33.9360935 17.5472327,39.7364685 C24.0434788,45.5368435 34.0228634,44.9847185 39.8359865,38.5027185 C45.6491096,32.0207185 45.0948942,22.0632185 38.5986481,16.2628435 C32.6066327,10.9122185 23.5392481,10.9122185 17.5472327,16.2628435 L20.028925,18.7390935 C25.1527865,14.3080935 32.9065404,14.8602185 37.3472788,19.9728435 C41.7871404,25.0854685 41.2346788,32.8222185 36.1108173,37.2523435 C30.9869558,41.6833435 23.2332019,41.1320935 18.7924634,36.0194685 C14.7928173,31.4143435 14.7928173,24.5770935 18.7924634,19.9728435 L16.3107711,17.4965935 Z M20.028925,21.2153435 C16.2748173,25.6428435 16.8290327,32.2674685 21.2653865,36.0133435 C25.7026173,39.7592185 32.3418019,39.2062185 36.0959096,34.7795935 C39.8500173,30.3529685 39.2958019,23.7274685 34.8594481,19.9815935 C30.9352173,16.6697185 25.1887404,16.6697185 21.2653865,19.9815935 L23.7646173,22.4665935 C26.8242019,20.0953435 31.2316173,20.6474685 33.6089558,23.7003435 C35.9854173,26.7532185 35.4312019,31.1518435 32.3724942,33.5230935 C29.3120327,35.8952185 24.9046173,35.3422185 22.5281558,32.2902185 C20.5612173,29.7632185 20.5612173,26.2273435 22.5281558,23.7012185 L20.028925,21.2153435 Z M23.7733865,24.9515935 C22.0888173,27.3140935 22.6421558,30.5918435 25.0098481,32.2727185 C27.3775404,33.9535935 30.6633711,33.4014685 32.3470634,31.0389685 C34.0325096,28.6764685 33.4791711,25.3987185 31.1106019,23.7178435 C29.2848481,22.4210935 26.8364788,22.4210935 25.0098481,23.7178435 L28.6841558,27.3665935 C29.0279096,27.7095935 29.0279096,28.2660935 28.6841558,28.6090935 C28.3404019,28.9520935 27.7826788,28.9520935 27.438925,28.6090935 L23.7733865,24.9515935 Z" id="a" fill="#FFFFFF"></path>
                            <path d="M56.1230788,27.9878435 C56.1300942,43.4517185 43.5708019,55.9930935 28.0729404,55.9992185 C12.5750788,56.0053435 0.00614036673,43.4753435 1.90518975e-06,28.0105935 C-0.00262886404,20.8819685 2.71934037,14.0202185 7.61169421,8.82534354 L6.64707883,7.86284354 L4.38461729,7.86284354 C4.24343267,7.86196854 4.10487883,7.82609354 3.98123267,7.75784354 C3.91283267,7.73771854 3.85232498,7.69834354 3.80584806,7.64409354 L3.76200191,7.60909354 L0.254309597,4.10909354 C-0.0850596333,3.76346854 -0.0789211717,3.21046854 0.266586521,2.87184354 C0.427063444,2.71434354 0.642786521,2.62509354 0.868155751,2.62159354 L2.63077114,2.62159354 L2.63077114,0.862843543 C2.63778652,0.379843543 3.0359096,-0.00690645666 3.51997114,9.35433366e-05 C3.74534037,0.00271854334 3.96018652,0.0928435433 4.12154037,0.250343543 L7.67307883,3.77659354 C7.72569421,3.82734354 7.76515575,3.89034354 7.78707883,3.96034354 C7.84846344,4.08284354 7.8923096,4.22284354 7.8923096,4.36284354 L7.8923096,6.62909354 L8.85692498,7.59159354 C20.1569558,-2.99153146 37.915525,-2.43065646 48.5219096,8.84459354 C53.4011096,14.0307185 56.1178173,20.8749685 56.1230788,27.9878435 Z M6.13846344,4.72159354 L4.39338652,2.98909354 L4.38461729,4.36284354 L2.99907883,4.36284354 L4.75292498,6.11284354 L6.13846344,6.11284354 L6.13846344,4.72159354 Z M54.3692327,27.9878435 C54.3630942,13.4908435 42.5807558,1.74309354 28.0501404,1.74921854 C21.3820173,1.75184354 14.9638173,4.28146854 10.0933865,8.82534354 L12.5750788,11.2928435 C21.8143404,2.75546854 36.239725,3.30759354 44.7949865,12.5265935 C53.3520019,21.7455935 52.7986634,36.1393435 43.5594019,44.6767185 C34.3201404,53.2140935 19.8956327,52.6610935 11.3386173,43.4429685 C3.24374037,34.7209685 3.24286344,21.2503435 11.3386173,12.5274685 L8.85692498,10.0599685 C-1.07335194,20.6430935 -0.525275018,37.2549685 10.0811096,47.1634685 C20.6874942,57.0710935 37.3358788,56.5233435 47.2661558,45.9410935 C51.8322942,41.0734685 54.3727404,34.6544685 54.3692327,27.9878435 Z M12.5750788,13.7690935 C4.70469421,22.3038435 5.2589096,35.5889685 13.8124173,43.4420935 C22.365925,51.2952185 35.6802481,50.7430935 43.5506327,42.2083435 C51.4210173,33.6735935 50.8676788,20.3875935 42.3141711,12.5353435 C34.2587558,5.13984354 21.8678327,5.13984354 13.8124173,12.5353435 L16.3116481,15.0203435 C23.4936481,8.53571854 34.5840942,9.08784354 41.084725,16.2540935 C47.5836019,23.4203435 47.0293865,34.4873435 39.8482634,40.9719685 C32.6671404,47.4565935 21.5749404,46.9044685 15.0760634,39.7390935 C9.03055575,33.0724685 9.03055575,22.9207185 15.0760634,16.2540935 L12.5750788,13.7690935 Z M16.3107711,17.4965935 C10.4976481,23.9785935 11.0509865,33.9360935 17.5472327,39.7364685 C24.0434788,45.5368435 34.0228634,44.9847185 39.8359865,38.5027185 C45.6491096,32.0207185 45.0948942,22.0632185 38.5986481,16.2628435 C32.6066327,10.9122185 23.5392481,10.9122185 17.5472327,16.2628435 L20.028925,18.7390935 C25.1527865,14.3080935 32.9065404,14.8602185 37.3472788,19.9728435 C41.7871404,25.0854685 41.2346788,32.8222185 36.1108173,37.2523435 C30.9869558,41.6833435 23.2332019,41.1320935 18.7924634,36.0194685 C14.7928173,31.4143435 14.7928173,24.5770935 18.7924634,19.9728435 L16.3107711,17.4965935 Z M20.028925,21.2153435 C16.2748173,25.6428435 16.8290327,32.2674685 21.2653865,36.0133435 C25.7026173,39.7592185 32.3418019,39.2062185 36.0959096,34.7795935 C39.8500173,30.3529685 39.2958019,23.7274685 34.8594481,19.9815935 C30.9352173,16.6697185 25.1887404,16.6697185 21.2653865,19.9815935 L23.7646173,22.4665935 C26.8242019,20.0953435 31.2316173,20.6474685 33.6089558,23.7003435 C35.9854173,26.7532185 35.4312019,31.1518435 32.3724942,33.5230935 C29.3120327,35.8952185 24.9046173,35.3422185 22.5281558,32.2902185 C20.5612173,29.7632185 20.5612173,26.2273435 22.5281558,23.7012185 L20.028925,21.2153435 Z M23.7733865,24.9515935 C22.0888173,27.3140935 22.6421558,30.5918435 25.0098481,32.2727185 C27.3775404,33.9535935 30.6633711,33.4014685 32.3470634,31.0389685 C34.0325096,28.6764685 33.4791711,25.3987185 31.1106019,23.7178435 C29.2848481,22.4210935 26.8364788,22.4210935 25.0098481,23.7178435 L28.6841558,27.3665935 C29.0279096,27.7095935 29.0279096,28.2660935 28.6841558,28.6090935 C28.3404019,28.9520935 27.7826788,28.9520935 27.438925,28.6090935 L23.7733865,24.9515935 Z" id="a_1_" fill="url(#linearGradient-1)"></path>
                        </g>
                    </g>
                </g>
            </g>
        </g>
    </g>
</svg>