<?xml version="1.0" encoding="UTF-8"?>
<svg width="51px" height="19px" viewBox="0 0 51 19" version="1.1" xmlns="http://www.w3.org/2000/svg" xmlns:xlink="http://www.w3.org/1999/xlink">
    <!-- Generator: sketchtool 52.5 (67469) - http://www.bohemiancoding.com/sketch -->
    <title>46B24B3F-0086-4B30-8B04-35254A45F2C3</title>
    <desc>Created with sketchtool.</desc>
    <g id="Work" stroke="none" stroke-width="1" fill="none" fill-rule="evenodd" opacity="0.600000024">
        <g id="1.0-A4S-Home_Page" transform="translate(-829.000000, -5012.000000)" fill="#FFFFFF">
            <g id="Group-36" transform="translate(535.000000, 4960.000000)">
                <g id="Group-47" transform="translate(280.000000, 0.000000)">
                    <g id="Group-45" transform="translate(14.000000, 52.000000)">
                        <g id="Group-48">
                            <polygon id="Star" points="25.5 17.2 22.2212604 18.9304952 22.8474439 15.2652476 20.1948879 12.6695048 23.8606302 12.1347524 25.5 8.8 27.1393698 12.1347524 30.8051121 12.6695048 28.1525561 15.2652476 28.7787396 18.9304952"></polygon>
                            <polygon id="Star-Copy" points="38.6484375 13.8 36.0722849 15.1596748 36.5642863 12.2798374 34.4801351 10.2403252 37.3603612 9.82016261 38.6484375 7.2 39.9365138 9.82016261 42.8167399 10.2403252 40.7325887 12.2798374 41.2245901 15.1596748"></polygon>
                            <polygon id="Star-Copy-2" points="47.4140625 5.4 45.3063013 6.51246118 45.7088479 4.15623059 44.0036333 2.48753882 46.3601819 2.14376941 47.4140625 -9.1038288e-14 48.4679431 2.14376941 50.8244917 2.48753882 49.1192771 4.15623059 49.5218237 6.51246118"></polygon>
                            <polygon id="Star-Copy-4" transform="translate(12.351562, 11.600000) scale(-1, 1) translate(-12.351562, -11.600000) " points="12.3515625 13.8 9.77540995 15.1596748 10.2674113 12.2798374 8.18326011 10.2403252 11.0634862 9.82016261 12.3515625 7.2 13.6396388 9.82016261 16.5198649 10.2403252 14.4357137 12.2798374 14.9277151 15.1596748"></polygon>
                            <polygon id="Star-Copy-3" transform="translate(3.585938, 3.600000) scale(-1, 1) translate(-3.585938, -3.600000) " points="3.5859375 5.4 1.47817632 6.51246118 1.88072289 4.15623059 0.175508274 2.48753882 2.53205691 2.14376941 3.5859375 -9.1038288e-14 4.63981809 2.14376941 6.99636673 2.48753882 5.29115211 4.15623059 5.69369868 6.51246118"></polygon>
                        </g>
                    </g>
                </g>
            </g>
        </g>
    </g>
</svg>