<?xml version="1.0" encoding="UTF-8"?>
<svg width="40px" height="40px" viewBox="0 0 40 40" version="1.1" xmlns="http://www.w3.org/2000/svg" xmlns:xlink="http://www.w3.org/1999/xlink">
    <!-- Generator: sketchtool 52.5 (67469) - http://www.bohemiancoding.com/sketch -->
    <title>4ABA08FC-1F26-4662-A2A7-CA0654668540</title>
    <desc>Created with sketchtool.</desc>
    <defs>
        <path d="M22.6397488,5.08783502 L7.6340354,19.7081638 C7.10001472,20.2284694 7.08889652,21.0831698 7.6092022,21.6171905 C7.86331098,21.8779975 8.21200096,22.0250937 8.57613217,22.0250937 L14.8867023,22.0250937 C15.3837586,22.0250937 15.7867023,22.4280374 15.7867023,22.9250937 C15.7867023,23.0169135 15.7726513,23.1081925 15.7450373,23.1957615 L13.0057932,31.8823869 C12.7815647,32.5934549 13.1762261,33.3516624 13.8872941,33.5758909 C14.3614084,33.7253983 14.8793269,33.6022393 15.2353924,33.2553184 L25.0572559,23.6857052 L30.6219969,18.2638808 C31.1560176,17.7435751 31.1671358,16.8888747 30.6468301,16.354854 C30.3927214,16.0940471 30.0440314,15.9469508 29.6799002,15.9469508 L23.4413407,15.9469508 C22.9442844,15.9469508 22.5413406,15.5440071 22.5413406,15.0469508 C22.5413406,14.9564782 22.5549824,14.8665228 22.5818058,14.780118 L25.1190811,6.60692307 C25.364694,5.81574305 24.9224244,4.97525636 24.1312444,4.72964352 C23.6060082,4.56658993 23.0336568,4.7040435 22.6397488,5.08783502 Z" id="path-1"></path>
    </defs>
    <g id="Symbols" stroke="none" stroke-width="1" fill="none" fill-rule="evenodd">
        <g id="Icons-/-Order">
            <mask id="mask-2" fill="white">
                <use xlink:href="#path-1"></use>
            </mask>
            <use id="Path-2" fill="#FFFFFF" xlink:href="#path-1"></use>
            <g id="Colors-/-White" mask="url(#mask-2)" fill="#FFFFFF">
                <rect id="Rectangle-Copy" x="0" y="0" width="40" height="40"></rect>
            </g>
        </g>
    </g>
</svg>