<svg xmlns="http://www.w3.org/2000/svg" width="64" height="64" viewBox="0 0 64 64">
    <defs>
        <linearGradient id="a" x1="0%" y1="0%" y2="100%">
            <stop offset="0%" stop-color="#FF5404"/>
            <stop offset="100%" stop-color="#FFA424"/>
        </linearGradient>
    </defs>
    <path fill="none" fill-rule="nonzero" stroke="url(#a)" stroke-width="3.651" d="M9.263 37.692c4.436 7.605 10.266 14.01 17.33 19.051 3.78 2.65 6.878 4.288 10.33 5.121.189.042.268.06.363.079.145.03.267.054.383.075 2.483.433 4.552-.026 6.528-1.468l.049-.04c.593-.498 1.21-.949 2.075-1.535.216-.146.43-.289.867-.581a55.042 55.042 0 0 0 1.95-1.337c2.263-1.633 2.66-3.889 1.092-6.098l-6.045-8.518c-.745-1.094-1.686-1.738-2.74-1.922-1.06-.185-2.195.102-3.322.88L31.87 45.72l-1.064-.88c-.125-.103-.26-.21-.412-.325a35.774 35.774 0 0 0-.597-.444c-.621-.455-.987-.74-1.353-1.07-3.667-3.307-6.812-7.328-9.625-12.293-1.436-2.629-2.33-4.797-2.851-6.953l-.31-1.285 1.123-.696c1.091-.676 2.092-1.357 3.704-2.498.358-.256.667-.472 1.286-.9l.056-.038c1.167-.806 1.848-1.774 2.028-2.786.181-1.02-.12-2.15-.941-3.297l-2.988-4.21a83.81 83.81 0 0 1-.561-.801l-.159-.23-.314-.456a64.018 64.018 0 0 0-2.013-2.806c-.767-1.059-1.715-1.682-2.787-1.87-1.07-.186-2.201.082-3.31.808L5.436 6.385c-1.591 1.099-2.62 2.552-3.108 4.38-.668 2.546-.674 5.423.011 9.104 1.074 5.859 3.268 11.517 6.925 17.823zm35.032 22.786a10.846 10.846 0 0 0 .011-.01zM9.263 37.692l.001.002-.002-.004.001.002z" transform="translate(5)"/>
</svg>
