<?xml version="1.0" encoding="UTF-8"?>
<svg width="1286px" height="1286px" viewBox="0 0 1286 1286" version="1.1" xmlns="http://www.w3.org/2000/svg" xmlns:xlink="http://www.w3.org/1999/xlink">
    <!-- Generator: sketchtool 52.5 (67469) - http://www.bohemiancoding.com/sketch -->
    <title>8B0F238B-5C60-427B-85AF-CDC3F66C622C</title>
    <desc>Created with sketchtool.</desc>
    <defs>
        <circle id="path-1" cx="115" cy="115" r="115"></circle>
        <filter x="-65.2%" y="-65.2%" width="230.4%" height="230.4%" filterUnits="objectBoundingBox" id="filter-3">
            <feMorphology radius="12.5" operator="dilate" in="SourceAlpha" result="shadowSpreadOuter1"></feMorphology>
            <feOffset dx="0" dy="0" in="shadowSpreadOuter1" result="shadowOffsetOuter1"></feOffset>
            <feColorMatrix values="0 0 0 0 1   0 0 0 0 1   0 0 0 0 1  0 0 0 0.1 0" type="matrix" in="shadowOffsetOuter1" result="shadowMatrixOuter1"></feColorMatrix>
            <feMorphology radius="50" operator="dilate" in="SourceAlpha" result="shadowSpreadOuter2"></feMorphology>
            <feOffset dx="0" dy="0" in="shadowSpreadOuter2" result="shadowOffsetOuter2"></feOffset>
            <feColorMatrix values="0 0 0 0 1   0 0 0 0 1   0 0 0 0 1  0 0 0 0.1 0" type="matrix" in="shadowOffsetOuter2" result="shadowMatrixOuter2"></feColorMatrix>
            <feMerge>
                <feMergeNode in="shadowMatrixOuter1"></feMergeNode>
                <feMergeNode in="shadowMatrixOuter2"></feMergeNode>
            </feMerge>
        </filter>
        <linearGradient x1="50%" y1="74.4860784%" x2="50%" y2="0%" id="linearGradient-4">
            <stop stop-color="#FFFFFF" stop-opacity="0" offset="0%"></stop>
            <stop stop-color="#FFFFFF" offset="100%"></stop>
        </linearGradient>
        <rect id="path-5" x="0" y="0" width="310" height="155"></rect>
    </defs>
    <g id="Work" stroke="none" stroke-width="1" fill="none" fill-rule="evenodd">
        <g id="1.0-A4S-Home_Page" transform="translate(-88.000000, -3267.000000)">
            <g id="Group-26" transform="translate(0.000000, 3256.000000)">
                <g id="Group-42" transform="translate(730.699103, 654.314998) rotate(-1.000000) translate(-730.699103, -654.314998) translate(88.199103, 11.814998)">
                    <g id="round_bg">
                        <circle id="Oval-Copy-16" fill-opacity="0.1" fill="#FFFFFF" opacity="0.6" cx="642.911136" cy="642.298812" r="377"></circle>
                        <circle id="Oval-Copy-17" fill-opacity="0.1" fill="#FFFFFF" opacity="0.6" cx="642.911136" cy="642.298812" r="543"></circle>
                        <circle id="Oval" fill-opacity="0.1" fill="#FFFFFF" opacity="0.6" cx="642.911136" cy="642.298812" r="265"></circle>
                        <circle id="Oval-Copy-2" fill-opacity="0.1" fill="#FFFFFF" opacity="0.200000003" cx="642.911136" cy="642.298812" r="33"></circle>
                        <circle id="Oval-Copy-9" fill-opacity="0.1" fill="#FFFFFF" opacity="0.6" cx="642.911136" cy="642.298812" r="606"></circle>
                        <g id="Group-41" transform="translate(518.954487, 518.023930)">
                            <mask id="mask-2" fill="white">
                                <use xlink:href="#path-1"></use>
                            </mask>
                            <g id="Mask">
                                <use fill="black" fill-opacity="1" filter="url(#filter-3)" xlink:href="#path-1"></use>
                                <use fill="#FFFFFF" fill-rule="evenodd" xlink:href="#path-1"></use>
                            </g>
                            <g mask="url(#mask-2)">
                                <g transform="translate(-60.000000, 0.000000)">
                                    <g id="Rectangle" fill="none">
                                        <use fill-opacity="0.980129076" fill="#E6F5FF" xlink:href="#path-5"></use>
                                        <use fill="url(#linearGradient-4)" xlink:href="#path-5"></use>
                                    </g>
                                    <path d="M294.952083,98.5472603 C286.846875,98.5472603 279.823437,102.619521 276.368229,108.558904 C273.478125,106.563014 269.829167,105.355822 265.857292,105.355822 C258.785417,105.355822 252.714583,109.154452 250.13125,114.562671 C247.886979,114.820205 245.804167,115.528425 244.028125,116.590753 C243.140104,110.265068 237.036979,105.355822 229.609896,105.355822 C228.721875,105.355822 227.866146,105.436301 227.026562,105.565068 C224.959896,100.269521 219.276562,96.4708904 212.576042,96.4708904 C204.454688,96.4708904 197.834896,102.056164 197.334375,109.106164 C194.702604,106.788356 191.069792,105.355822 187.065625,105.355822 C181.592187,105.355822 176.813021,108.02774 174.342708,111.971233 C172.792708,111.456164 171.129687,111.150342 169.369792,111.150342 C166.447396,111.150342 163.734896,111.939041 161.490625,113.291096 C159.423958,105.227055 151.238021,99.2071918 141.469792,99.2071918 C132.024479,99.2071918 124.080729,104.824658 121.675,112.45411 C120.625521,111.987329 119.511458,111.633219 118.348958,111.423973 C113.489062,107.818493 107.208333,105.661644 100.3625,105.661644 C87.671875,105.661644 76.9671875,113.097945 73.528125,123.30274 C72.946875,124.075342 72.4625,124.896233 72.075,125.765411 C72.0911458,125.540068 72.1072917,125.314726 72.1072917,125.089384 C72.1072917,119.214384 66.7145833,114.466096 60.0463542,114.466096 C56.76875,114.466096 53.7817708,115.625 51.6182292,117.508219 C51.8442708,116.52637 51.9572917,115.512329 51.9572917,114.466096 C51.9572917,106.047945 44.2072917,99.2232877 34.6651042,99.2232877 C29.8375,99.2232877 25.4619792,100.97774 22.3296875,103.794521 C22.9432292,102.378082 23.2822917,100.832877 23.2822917,99.2232877 C23.2822917,92.0606164 16.6947917,86.25 8.55729167,86.25 C5.36041667,86.25 2.40572917,87.1513699 0,88.6643836 L0,145 L310,145 L310,104.164726 C306.173437,100.70411 300.845312,98.5472603 294.952083,98.5472603 Z" id="Path" fill="#F5FAFE" transform="translate(155.000000, 115.625000) scale(-1, 1) translate(-155.000000, -115.625000) "></path>
                                    <polygon id="check-a" fill="#27D93A" opacity="0.100000001" points="157.605884 56.8344519 152.864554 52.1700224 151.25 53.7472036 157.605884 60 171.25 46.5771812 169.646816 45"></polygon>
                                    <polygon id="check-a-copy" fill="#27D93A" opacity="0.200000003" points="185.222428 95.6534303 182.259096 92.932513 181.25 93.8525354 185.222428 97.5 193.75 89.6700224 192.74801 88.75"></polygon>
                                    <polygon id="check-a-copy-3" fill="#27D93A" opacity="0.200000003" points="148.516913 87.8896346 144.960915 84.7800149 143.75 85.8314691 148.516913 90 158.75 81.0514541 157.547612 80"></polygon>
                                    <polygon id="check-a-copy-5" fill="#27D93A" opacity="0.200000003" points="201.414156 60.1258389 197.561825 56.6275168 196.25 57.8104027 201.414156 62.5 212.5 52.4328859 211.197413 51.25"></polygon>
                                    <polygon id="check-a-copy-7" fill="#27D93A" opacity="0.100000001" points="106.414156 81.3758389 102.561825 77.8775168 101.25 79.0604027 106.414156 83.75 117.5 73.6828859 116.197413 72.5"></polygon>
                                    <polygon id="check-a-copy-8" fill="#27D93A" opacity="0.100000001" points="182.722428 114.40343 179.759096 111.682513 178.75 112.602535 182.722428 116.25 191.25 108.420022 190.24801 107.5"></polygon>
                                    <path d="M293.482813,142.851898 C288.138542,142.851898 283.246354,144.726846 279.419792,147.85176 C277.627604,140.111589 270.652604,134.326493 262.321354,134.326493 C260.755208,134.326493 259.2375,134.53482 257.784375,134.919425 C253.570313,127.275405 245.400521,122.083241 236.003646,122.083241 C224.007292,122.083241 213.996875,130.528521 211.688021,141.77821 C208.394271,138.557145 203.857292,136.553995 198.868229,136.553995 C193.443229,136.553995 188.583333,138.893674 185.241146,142.61152 C181.592188,136.329642 174.778646,132.09899 166.964063,132.09899 C159.924479,132.09899 153.676042,135.544408 149.849479,140.816698 C146.442708,138.156515 142.147917,136.553995 137.481771,136.553995 C136.319271,136.553995 135.172917,136.666172 134.075,136.842449 C130.958854,129.887513 123.967708,125.047903 115.814063,125.047903 C107.805729,125.047903 100.911458,129.727261 97.7145833,136.489894 C94.7760417,133.765611 90.8364583,132.09899 86.509375,132.09899 C84.9916667,132.09899 83.5385417,132.307318 82.15,132.691922 C79.4859375,124.599197 71.8328125,118.75 62.8072917,118.75 C53.765625,118.75 46.1125,124.599197 43.4645833,132.707948 C41.2041667,131.393881 38.55625,130.624672 35.746875,130.624672 C27.8677083,130.624672 21.3770833,136.53797 20.5375,144.149939 C18.4869792,143.332654 16.2588542,142.867923 13.9015625,142.867923 C8.26666667,142.867923 3.2453125,145.480031 0,149.550431 L0,155 L310,155 L310,150.159389 C305.915104,145.672333 300.038021,142.851898 293.482813,142.851898 Z" id="Path" fill="#FFFFFF" transform="translate(155.000000, 136.875000) scale(-1, 1) translate(-155.000000, -136.875000) "></path>
                                </g>
                            </g>
                        </g>
                        <circle id="Oval-Copy-3" stroke="#FFFFFF" stroke-width="0.5" opacity="0.200000003" cx="642.911136" cy="642.298812" r="275"></circle>
                        <circle id="Oval-Copy-10" stroke="#FFFFFF" stroke-width="0.5" opacity="0.600000024" cx="642.911136" cy="642.298812" r="569"></circle>
                        <circle id="Oval-Copy-13" stroke="#FFFFFF" stroke-width="0.5" opacity="0.400000006" cx="642.911136" cy="642.298812" r="642"></circle>
                        <circle id="Oval-Copy-11" stroke="#FFFFFF" stroke-width="0.5" opacity="0.300000012" cx="643.411136" cy="642.798812" r="313.5"></circle>
                        <path d="M632,1138 C912.008368,1138 1139,911.008368 1139,631 C1139,523.067775 1105.27359,423.012775 1047.78462,340.798844 C956.130064,209.725328 804.076144,124 632,124 C351.991632,124 125,350.991632 125,631 C125,911.008368 351.991632,1138 632,1138 Z" id="Oval-Copy-15" stroke="#FFFFFF" stroke-width="0.5"></path>
                    </g>
                </g>
            </g>
        </g>
    </g>
</svg>