<svg xmlns="http://www.w3.org/2000/svg" width="345" height="267" viewBox="0 0 345 267">
    <defs>
        <linearGradient id="a" x1="-.007%" x2="99.991%" y1="50.01%" y2="50.01%">
            <stop offset="0%" stop-color="#F4F4F4"/>
            <stop offset="100%" stop-color="#F4F4F4"/>
        </linearGradient>
        <linearGradient id="b" x1="-15.986%" x2="174.455%" y1="50.002%" y2="50.002%">
            <stop offset="0%" stop-color="#ED452F"/>
            <stop offset="3.83%" stop-color="#F46C54"/>
            <stop offset="8.547%" stop-color="#FC967C"/>
            <stop offset="10.96%" stop-color="#FFA68C"/>
            <stop offset="14.34%" stop-color="#F18570"/>
            <stop offset="21.72%" stop-color="#D54338"/>
            <stop offset="27.08%" stop-color="#C31A14"/>
            <stop offset="29.82%" stop-color="#BC0A07"/>
            <stop offset="34.75%" stop-color="#C61710"/>
            <stop offset="48.1%" stop-color="#DF3423"/>
            <stop offset="55.7%" stop-color="#E83F2B"/>
            <stop offset="70.24%" stop-color="#E63C29"/>
            <stop offset="80.02%" stop-color="#DE3323"/>
            <stop offset="88.4%" stop-color="#D12419"/>
            <stop offset="95.94%" stop-color="#C00F0A"/>
            <stop offset="100%" stop-color="#B30000"/>
        </linearGradient>
        <linearGradient id="c" x1="-29.016%" x2="96.502%" y1="49.987%" y2="49.987%">
            <stop offset="0%" stop-color="#ED452F"/>
            <stop offset="3.83%" stop-color="#F46C54"/>
            <stop offset="8.547%" stop-color="#FC967C"/>
            <stop offset="10.96%" stop-color="#FFA68C"/>
            <stop offset="14.34%" stop-color="#F18570"/>
            <stop offset="21.72%" stop-color="#D54338"/>
            <stop offset="27.08%" stop-color="#C31A14"/>
            <stop offset="29.82%" stop-color="#BC0A07"/>
            <stop offset="34.75%" stop-color="#C61710"/>
            <stop offset="48.1%" stop-color="#DF3423"/>
            <stop offset="55.7%" stop-color="#E83F2B"/>
            <stop offset="70.24%" stop-color="#E63C29"/>
            <stop offset="80.02%" stop-color="#DE3323"/>
            <stop offset="88.4%" stop-color="#D12419"/>
            <stop offset="95.94%" stop-color="#C00F0A"/>
            <stop offset="100%" stop-color="#B30000"/>
        </linearGradient>
        <linearGradient id="d" x1="40.027%" x2="59.981%" y1="84.562%" y2="-11.506%">
            <stop offset="0%" stop-color="#ED452F"/>
            <stop offset="3.83%" stop-color="#F46C54"/>
            <stop offset="8.547%" stop-color="#FC967C"/>
            <stop offset="10.96%" stop-color="#FFA68C"/>
            <stop offset="14.34%" stop-color="#F18570"/>
            <stop offset="21.72%" stop-color="#D54338"/>
            <stop offset="27.08%" stop-color="#C31A14"/>
            <stop offset="29.82%" stop-color="#BC0A07"/>
            <stop offset="34.75%" stop-color="#C61710"/>
            <stop offset="48.1%" stop-color="#DF3423"/>
            <stop offset="55.7%" stop-color="#E83F2B"/>
            <stop offset="70.24%" stop-color="#E63C29"/>
            <stop offset="80.02%" stop-color="#DE3323"/>
            <stop offset="88.4%" stop-color="#D12419"/>
            <stop offset="95.94%" stop-color="#C00F0A"/>
            <stop offset="100%" stop-color="#B30000"/>
        </linearGradient>
        <linearGradient id="e" x1="111.104%" x2=".022%" y1="71.133%" y2="27.982%">
            <stop offset="0%" stop-color="#700000"/>
            <stop offset="34.44%" stop-color="#760403"/>
            <stop offset="100%" stop-color="#790605"/>
        </linearGradient>
        <linearGradient id="f" x1="6.274%" x2="109.348%" y1="50.159%" y2="44.946%">
            <stop offset="0%" stop-color="maroon"/>
            <stop offset="7.56%" stop-color="#8C0201"/>
            <stop offset="24.9%" stop-color="#A10604"/>
            <stop offset="44.15%" stop-color="#B00806"/>
            <stop offset="66.61%" stop-color="#B90A07"/>
            <stop offset="100%" stop-color="#BC0A07"/>
        </linearGradient>
        <linearGradient id="g" x1="-7.875%" x2="102.256%" y1="67.436%" y2="43.132%">
            <stop offset="0%" stop-color="#B30000"/>
            <stop offset="1.253%" stop-color="#B60302"/>
            <stop offset="15.06%" stop-color="#D62217"/>
            <stop offset="28.44%" stop-color="#ED3827"/>
            <stop offset="41.07%" stop-color="#FA4530"/>
            <stop offset="52.19%" stop-color="#FF4A33"/>
            <stop offset="63.78%" stop-color="#FB4630"/>
            <stop offset="75.54%" stop-color="#EF3A28"/>
            <stop offset="87.39%" stop-color="#DA271B"/>
            <stop offset="99.22%" stop-color="#BE0C08"/>
            <stop offset="100%" stop-color="#BC0A07"/>
        </linearGradient>
        <linearGradient id="h" x1="-5.644%" x2="204.44%" y1="46.367%" y2="59.463%">
            <stop offset="0%" stop-color="#B30000"/>
            <stop offset="36.86%" stop-color="#BA0705"/>
            <stop offset="100%" stop-color="#BC0A07"/>
        </linearGradient>
        <linearGradient id="i" x1="-22.103%" x2="245.217%" y1="44.987%" y2="59.121%">
            <stop offset="0%" stop-color="#B30000"/>
            <stop offset="4.056%" stop-color="#C00F0A"/>
            <stop offset="11.6%" stop-color="#D12419"/>
            <stop offset="19.98%" stop-color="#DE3323"/>
            <stop offset="29.76%" stop-color="#E63C29"/>
            <stop offset="44.3%" stop-color="#E83F2B"/>
            <stop offset="51.9%" stop-color="#DF3423"/>
            <stop offset="65.25%" stop-color="#C61710"/>
            <stop offset="70.18%" stop-color="#BC0A07"/>
            <stop offset="71.11%" stop-color="#CE2016"/>
            <stop offset="72.19%" stop-color="#DC3121"/>
            <stop offset="73.54%" stop-color="#E63C29"/>
            <stop offset="75.44%" stop-color="#EB432E"/>
            <stop offset="80.7%" stop-color="#ED452F"/>
            <stop offset="100%" stop-color="#ED452F"/>
        </linearGradient>
        <linearGradient id="j" x1="75.588%" x2="45.679%" y1="94.658%" y2="55.554%">
            <stop offset="0%" stop-color="#8C0000"/>
            <stop offset="29.95%" stop-color="#9F0100"/>
            <stop offset="72.25%" stop-color="#B40300"/>
            <stop offset="100%" stop-color="#BC0300"/>
        </linearGradient>
        <linearGradient id="k" x1="61.465%" x2="37.145%" y1="96.448%" y2="31.882%">
            <stop offset="0%" stop-color="#B30000"/>
            <stop offset="3.963%" stop-color="#C5150E"/>
            <stop offset="9.388%" stop-color="#D62A1D"/>
            <stop offset="15.41%" stop-color="#E33927"/>
            <stop offset="22.44%" stop-color="#EB422D"/>
            <stop offset="32.89%" stop-color="#ED452F"/>
            <stop offset="42.95%" stop-color="#E9402C"/>
            <stop offset="44.3%" stop-color="#E83F2B"/>
            <stop offset="48.82%" stop-color="#E13725"/>
            <stop offset="72.09%" stop-color="#C00F0A"/>
            <stop offset="84.21%" stop-color="#B30000"/>
        </linearGradient>
        <linearGradient id="l" x1="98.073%" x2="9.434%" y1="8.395%" y2="110.417%">
            <stop offset="0%" stop-color="#6B0000"/>
            <stop offset="93.51%" stop-color="#B70300"/>
            <stop offset="100%" stop-color="#BC0300"/>
        </linearGradient>
        <linearGradient id="m" x1="-4.695%" x2="93.451%" y1="92.313%" y2="13.701%">
            <stop offset="0%" stop-color="#B30000"/>
            <stop offset="4.056%" stop-color="#C00F0A"/>
            <stop offset="11.6%" stop-color="#D12419"/>
            <stop offset="19.98%" stop-color="#DE3323"/>
            <stop offset="29.76%" stop-color="#E63C29"/>
            <stop offset="44.3%" stop-color="#E83F2B"/>
            <stop offset="51.9%" stop-color="#DF3423"/>
            <stop offset="65.25%" stop-color="#C61710"/>
            <stop offset="70.18%" stop-color="#BC0A07"/>
            <stop offset="71.11%" stop-color="#CE2016"/>
            <stop offset="72.19%" stop-color="#DC3121"/>
            <stop offset="73.54%" stop-color="#E63C29"/>
            <stop offset="75.44%" stop-color="#EB432E"/>
            <stop offset="80.7%" stop-color="#ED452F"/>
            <stop offset="100%" stop-color="#ED452F"/>
        </linearGradient>
        <linearGradient id="n" x1="40.573%" x2="63.379%" y1="23.185%" y2="64.971%">
            <stop offset="0%" stop-color="#6B0000"/>
            <stop offset="93.51%" stop-color="#B70300"/>
            <stop offset="100%" stop-color="#BC0300"/>
        </linearGradient>
        <linearGradient id="o" x1="11.485%" x2="70.096%" y1="95.864%" y2="2.737%">
            <stop offset="0%" stop-color="#B30000"/>
            <stop offset="4.056%" stop-color="#C00F0A"/>
            <stop offset="11.6%" stop-color="#D12419"/>
            <stop offset="19.98%" stop-color="#DE3323"/>
            <stop offset="29.76%" stop-color="#E63C29"/>
            <stop offset="44.3%" stop-color="#E83F2B"/>
            <stop offset="51.9%" stop-color="#DF3423"/>
            <stop offset="65.25%" stop-color="#C61710"/>
            <stop offset="70.18%" stop-color="#BC0A07"/>
            <stop offset="72.92%" stop-color="#C31A14"/>
            <stop offset="78.28%" stop-color="#D54338"/>
            <stop offset="85.66%" stop-color="#F18570"/>
            <stop offset="89.04%" stop-color="#FFA68C"/>
            <stop offset="91.45%" stop-color="#FC967C"/>
            <stop offset="96.17%" stop-color="#F46C54"/>
            <stop offset="100%" stop-color="#ED452F"/>
        </linearGradient>
        <linearGradient id="p" x1="28.131%" x2="62.908%" y1="10.786%" y2="85.006%">
            <stop offset="0%" stop-color="#B30000"/>
            <stop offset="36.86%" stop-color="#BA0705"/>
            <stop offset="100%" stop-color="#BC0A07"/>
        </linearGradient>
        <linearGradient id="q" x1="18.747%" x2="65.246%" y1="80.156%" y2="39.951%">
            <stop offset="0%" stop-color="#8C0000"/>
            <stop offset="29.95%" stop-color="#9F0100"/>
            <stop offset="72.25%" stop-color="#B40300"/>
            <stop offset="100%" stop-color="#BC0300"/>
        </linearGradient>
        <linearGradient id="r" x1="42.26%" x2="75.448%" y1="92.361%" y2="-20.242%">
            <stop offset="0%" stop-color="#B30000"/>
            <stop offset="5.396%" stop-color="#B80604"/>
            <stop offset="12.47%" stop-color="#C71611"/>
            <stop offset="20.47%" stop-color="#E03126"/>
            <stop offset="28.51%" stop-color="#FF5440"/>
            <stop offset="30.07%" stop-color="#FE6B54"/>
            <stop offset="32.44%" stop-color="#FD876E"/>
            <stop offset="34.81%" stop-color="#FD9C80"/>
            <stop offset="37.16%" stop-color="#FCA88A"/>
            <stop offset="39.47%" stop-color="#FCAC8E"/>
            <stop offset="40.8%" stop-color="#FCA184"/>
            <stop offset="46.43%" stop-color="#FE775F"/>
            <stop offset="50.86%" stop-color="#FF5E48"/>
            <stop offset="53.51%" stop-color="#FF5440"/>
            <stop offset="57.28%" stop-color="#F54937"/>
            <stop offset="63.9%" stop-color="#DA2C21"/>
            <stop offset="70.18%" stop-color="#BC0A07"/>
            <stop offset="71.11%" stop-color="#CE2016"/>
            <stop offset="72.19%" stop-color="#DC3121"/>
            <stop offset="73.54%" stop-color="#E63C29"/>
            <stop offset="75.44%" stop-color="#EB432E"/>
            <stop offset="80.7%" stop-color="#ED452F"/>
            <stop offset="100%" stop-color="#ED452F"/>
        </linearGradient>
        <linearGradient id="s" x1="67.093%" x2="24.397%" y1="90.247%" y2="-5.026%">
            <stop offset="0%" stop-color="#6B0000"/>
            <stop offset="93.51%" stop-color="#B70300"/>
            <stop offset="100%" stop-color="#BC0300"/>
        </linearGradient>
        <linearGradient id="t" x1="71.266%" x2="36.597%" y1="79.873%" y2="-6.586%">
            <stop offset="0%" stop-color="#ED452F"/>
            <stop offset="7.025%" stop-color="#E73E2B"/>
            <stop offset="16.98%" stop-color="#D82C1E"/>
            <stop offset="28.63%" stop-color="#BF0E09"/>
            <stop offset="29.82%" stop-color="#BC0A07"/>
            <stop offset="33.75%" stop-color="#BE0E0A"/>
            <stop offset="37.59%" stop-color="#C21A14"/>
            <stop offset="41.4%" stop-color="#CA2D25"/>
            <stop offset="45.19%" stop-color="#D6493D"/>
            <stop offset="48.96%" stop-color="#E46D5C"/>
            <stop offset="52.68%" stop-color="#F59881"/>
            <stop offset="53.95%" stop-color="#FCA88F"/>
            <stop offset="57.25%" stop-color="#FBA188"/>
            <stop offset="62.1%" stop-color="#F78D75"/>
            <stop offset="67.92%" stop-color="#F16D57"/>
            <stop offset="74.43%" stop-color="#E8402C"/>
            <stop offset="74.56%" stop-color="#E83F2B"/>
            <stop offset="82.91%" stop-color="#E63C29"/>
            <stop offset="88.53%" stop-color="#DE3323"/>
            <stop offset="93.34%" stop-color="#D12419"/>
            <stop offset="97.67%" stop-color="#C00F0A"/>
            <stop offset="100%" stop-color="#B30000"/>
        </linearGradient>
        <linearGradient id="u" x1="52.643%" x2="47.719%" y1="9.45%" y2="101.775%">
            <stop offset="0%" stop-color="#B30000"/>
            <stop offset="6.751%" stop-color="#C62B24"/>
            <stop offset="27.19%" stop-color="#FFAB90"/>
            <stop offset="32.36%" stop-color="#F38973"/>
            <stop offset="41.82%" stop-color="#E05141"/>
            <stop offset="48.85%" stop-color="#D42E23"/>
            <stop offset="52.63%" stop-color="#CF2117"/>
            <stop offset="67.27%" stop-color="#EF3C2A"/>
            <stop offset="76.75%" stop-color="#FF4A33"/>
            <stop offset="82.22%" stop-color="#FB4630"/>
            <stop offset="87.49%" stop-color="#F03B29"/>
            <stop offset="92.69%" stop-color="#DC281C"/>
            <stop offset="97.81%" stop-color="#C10E09"/>
            <stop offset="100%" stop-color="#B30000"/>
        </linearGradient>
        <linearGradient id="v" x1="8.677%" x2="91.554%" y1="-4.791%" y2="108.506%">
            <stop offset="0%" stop-color="#6B0000"/>
            <stop offset="93.51%" stop-color="#B70300"/>
            <stop offset="100%" stop-color="#BC0300"/>
        </linearGradient>
        <linearGradient id="w" x1="102.979%" x2="9.643%" y1="92.962%" y2="26.351%">
            <stop offset="0%" stop-color="#B30000"/>
            <stop offset="4.056%" stop-color="#C00F0A"/>
            <stop offset="11.6%" stop-color="#D12419"/>
            <stop offset="19.98%" stop-color="#DE3323"/>
            <stop offset="29.76%" stop-color="#E63C29"/>
            <stop offset="44.3%" stop-color="#E83F2B"/>
            <stop offset="51.9%" stop-color="#DF3423"/>
            <stop offset="65.25%" stop-color="#C61710"/>
            <stop offset="70.18%" stop-color="#BC0A07"/>
            <stop offset="72.92%" stop-color="#C31A14"/>
            <stop offset="78.28%" stop-color="#D54338"/>
            <stop offset="85.66%" stop-color="#F18570"/>
            <stop offset="89.04%" stop-color="#FFA68C"/>
            <stop offset="91.45%" stop-color="#FC967C"/>
            <stop offset="96.17%" stop-color="#F46C54"/>
            <stop offset="100%" stop-color="#ED452F"/>
        </linearGradient>
        <linearGradient id="x" x1="14.571%" x2="62.62%" y1="-3.091%" y2="62.677%">
            <stop offset="0%" stop-color="#6B0000"/>
            <stop offset="93.51%" stop-color="#B70300"/>
            <stop offset="100%" stop-color="#BC0300"/>
        </linearGradient>
        <linearGradient id="y" x1="41.112%" x2="64.459%" y1=".128%" y2="89.895%">
            <stop offset="0%" stop-color="#ED452F"/>
            <stop offset="3.83%" stop-color="#F46C54"/>
            <stop offset="8.547%" stop-color="#FC967C"/>
            <stop offset="10.96%" stop-color="#FFA68C"/>
            <stop offset="14.34%" stop-color="#F18570"/>
            <stop offset="21.72%" stop-color="#D54338"/>
            <stop offset="27.08%" stop-color="#C31A14"/>
            <stop offset="29.82%" stop-color="#BC0A07"/>
            <stop offset="34.75%" stop-color="#C61710"/>
            <stop offset="48.1%" stop-color="#DF3423"/>
            <stop offset="55.7%" stop-color="#E83F2B"/>
            <stop offset="70.24%" stop-color="#E63C29"/>
            <stop offset="80.02%" stop-color="#DE3323"/>
            <stop offset="88.4%" stop-color="#D12419"/>
            <stop offset="95.94%" stop-color="#C00F0A"/>
            <stop offset="100%" stop-color="#B30000"/>
        </linearGradient>
        <linearGradient id="z" x1="30.868%" x2="79.552%" y1="-4.894%" y2="116.799%">
            <stop offset="0%" stop-color="#6B0000"/>
            <stop offset="93.51%" stop-color="#B70300"/>
            <stop offset="100%" stop-color="#BC0300"/>
        </linearGradient>
        <linearGradient id="A" x1="30.178%" x2="93.875%" y1="9.507%" y2="93.15%">
            <stop offset="0%" stop-color="#ED452F"/>
            <stop offset="3.83%" stop-color="#F46C54"/>
            <stop offset="8.547%" stop-color="#FC967C"/>
            <stop offset="10.96%" stop-color="#FFA68C"/>
            <stop offset="14.34%" stop-color="#F18570"/>
            <stop offset="21.72%" stop-color="#D54338"/>
            <stop offset="27.08%" stop-color="#C31A14"/>
            <stop offset="29.82%" stop-color="#BC0A07"/>
            <stop offset="34.75%" stop-color="#C61710"/>
            <stop offset="48.1%" stop-color="#DF3423"/>
            <stop offset="55.7%" stop-color="#E83F2B"/>
            <stop offset="70.24%" stop-color="#E63C29"/>
            <stop offset="80.02%" stop-color="#DE3323"/>
            <stop offset="88.4%" stop-color="#D12419"/>
            <stop offset="95.94%" stop-color="#C00F0A"/>
            <stop offset="100%" stop-color="#B30000"/>
        </linearGradient>
        <linearGradient id="B" x1="52.889%" x2="49.41%" y1="101.323%" y2="-.969%">
            <stop offset="0%" stop-color="#940400"/>
            <stop offset="63.16%" stop-color="#BC0A07"/>
            <stop offset="66.03%" stop-color="#C31A14"/>
            <stop offset="71.64%" stop-color="#D54338"/>
            <stop offset="79.36%" stop-color="#F18570"/>
            <stop offset="82.89%" stop-color="#FFA68C"/>
            <stop offset="86.67%" stop-color="#FC967C"/>
            <stop offset="94.02%" stop-color="#F46C54"/>
            <stop offset="100%" stop-color="#ED452F"/>
        </linearGradient>
        <linearGradient id="C" x1="47.061%" x2="52.558%" y1="4.137%" y2="110.947%">
            <stop offset="0%" stop-color="#8C0000"/>
            <stop offset="29.95%" stop-color="#9F0100"/>
            <stop offset="72.25%" stop-color="#B40300"/>
            <stop offset="100%" stop-color="#BC0300"/>
        </linearGradient>
        <linearGradient id="D" x1="53.575%" x2="42.949%" y1="7.52%" y2="86.936%">
            <stop offset="0%" stop-color="#E83F2B"/>
            <stop offset=".176%" stop-color="#E8402C"/>
            <stop offset="8.763%" stop-color="#F16D57"/>
            <stop offset="16.43%" stop-color="#F78D75"/>
            <stop offset="22.84%" stop-color="#FBA188"/>
            <stop offset="27.19%" stop-color="#FCA88F"/>
            <stop offset="29.45%" stop-color="#F59881"/>
            <stop offset="36.08%" stop-color="#E46D5C"/>
            <stop offset="42.8%" stop-color="#D6493D"/>
            <stop offset="49.55%" stop-color="#CA2D25"/>
            <stop offset="56.34%" stop-color="#C21A14"/>
            <stop offset="63.18%" stop-color="#BE0E0A"/>
            <stop offset="70.18%" stop-color="#BC0A07"/>
            <stop offset="71.37%" stop-color="#BF0E09"/>
            <stop offset="83.02%" stop-color="#D82C1E"/>
            <stop offset="92.98%" stop-color="#E73E2B"/>
            <stop offset="100%" stop-color="#ED452F"/>
        </linearGradient>
        <linearGradient id="E" x1="52.602%" x2="47.135%" y1="4.25%" y2="110.524%">
            <stop offset="0%" stop-color="#8C0000"/>
            <stop offset="29.95%" stop-color="#9F0100"/>
            <stop offset="72.25%" stop-color="#B40300"/>
            <stop offset="100%" stop-color="#BC0300"/>
        </linearGradient>
        <linearGradient id="F" x1="46.232%" x2="56.855%" y1="7.505%" y2="86.579%">
            <stop offset="0%" stop-color="#E83F2B"/>
            <stop offset=".176%" stop-color="#E8402C"/>
            <stop offset="8.763%" stop-color="#F16D57"/>
            <stop offset="16.43%" stop-color="#F78D75"/>
            <stop offset="22.84%" stop-color="#FBA188"/>
            <stop offset="27.19%" stop-color="#FCA88F"/>
            <stop offset="29.45%" stop-color="#F59881"/>
            <stop offset="36.08%" stop-color="#E46D5C"/>
            <stop offset="42.8%" stop-color="#D6493D"/>
            <stop offset="49.55%" stop-color="#CA2D25"/>
            <stop offset="56.34%" stop-color="#C21A14"/>
            <stop offset="63.18%" stop-color="#BE0E0A"/>
            <stop offset="70.18%" stop-color="#BC0A07"/>
            <stop offset="71.37%" stop-color="#BF0E09"/>
            <stop offset="83.02%" stop-color="#D82C1E"/>
            <stop offset="92.98%" stop-color="#E73E2B"/>
            <stop offset="100%" stop-color="#ED452F"/>
        </linearGradient>
        <filter id="G" width="132.2%" height="340%" x="-16.1%" y="-120%" filterUnits="objectBoundingBox">
            <feGaussianBlur in="SourceGraphic" stdDeviation="9.66"/>
        </filter>
        <filter id="H" width="138%" height="971.5%" x="-19%" y="-435.8%" filterUnits="objectBoundingBox">
            <feGaussianBlur in="SourceGraphic" stdDeviation="9.66"/>
        </filter>
        <linearGradient id="I" x1="98.283%" x2="2.071%" y1="36.767%" y2="63.564%">
            <stop offset="0%" stop-color="#6A0500"/>
            <stop offset="100%" stop-color="#FFA424"/>
        </linearGradient>
        <linearGradient id="J" x1="98.219%" x2="2.008%" y1="36.636%" y2="63.433%">
            <stop offset="0%" stop-color="#6A0500"/>
            <stop offset="100%" stop-color="#FFA424"/>
        </linearGradient>
        <linearGradient id="K" x1="-13.32%" x2="115.467%" y1="92.262%" y2="6.801%">
            <stop offset="0%" stop-color="#FFF"/>
            <stop offset="100%" stop-color="#FFF" stop-opacity="0"/>
        </linearGradient>
        <linearGradient id="L" x1="-16.075%" x2="117.428%" y1="96.06%" y2="4.882%">
            <stop offset="0%" stop-color="#FFF"/>
            <stop offset="100%" stop-color="#FFF" stop-opacity="0"/>
        </linearGradient>
        <linearGradient id="M" x1="-8.946%" x2="116.808%" y1="94.275%" y2="-.418%">
            <stop offset="0%" stop-color="#FFF"/>
            <stop offset="100%" stop-color="#FFF" stop-opacity="0"/>
        </linearGradient>
        <linearGradient id="N" x1="-13.501%" x2="118.688%" y1="90.96%" y2="-4.241%">
            <stop offset="0%" stop-color="#FFF"/>
            <stop offset="100%" stop-color="#FFF" stop-opacity="0"/>
        </linearGradient>
    </defs>
    <g fill="none" fill-rule="evenodd">
        <path fill="url(#a)" d="M8.101 89.228l89.474-74.806 113.055 2.454v25.257l-73.466 78.472-125.991-4.909z" transform="rotate(5 -1496.094 169.422)"/>
        <path fill="#E2E2E2" d="M9.575 220.732l.76 26.489 124.845 15.822.137-.08.264-27.795z"/>
        <path fill="#D8D8D8" d="M217.216 166.672l-81.635 68.496-.264 27.794 79.71-71.269z"/>
        <path fill="#CECECE" d="M13.01 225.463l64.328 8.327s-33.044-5.38-41.817-6.148c-8.773-.767-22.511-2.179-22.511-2.179zM11.43 228.024l84.622 8.752s-39.64-3.982-50.436-5.247c-10.795-1.266-34.185-3.505-34.185-3.505zM12.416 232.253l37.553 4.54s-15.172-2.369-20.915-3.085c-5.742-.716-16.638-1.455-16.638-1.455zM13.408 236.408l58.958 7.74s-28.377-4.803-35.51-5.688c-7.132-.886-23.448-2.052-23.448-2.052zM13.066 240.31l85.85 10.21s-41.57-4.881-51.791-6.199c-10.221-1.317-34.059-4.011-34.059-4.011zM15.404 244.575l53.569 7.372s-25.98-5.185-33.463-5.613c-7.484-.429-20.106-1.76-20.106-1.76zM89.444 234.849l42.924 5.105s-19.771-2.737-23.464-3.231c-3.65-.49-19.46-1.874-19.46-1.874zM85.049 238.607l46.968 5.364s-20.552-2.84-27.066-3.623c-6.514-.783-19.902-1.74-19.902-1.74zM77.863 243.28l53.802 4.707s-19.314-2.856-28.834-3.858c-9.52-1.003-24.968-.849-24.968-.849zM129.969 251.887l-28.129-3.81 15.654 1.37c5.775.546 12.475 2.44 12.475 2.44zM129.5 257.243l-44.27-5.22s20.341 1.751 26.878 2.438c6.493.682 17.392 2.782 17.392 2.782z"/>
        <path fill="#BABABA" d="M137.983 237.746l46.79-39.081s-22.54 17.498-27.343 21.566c-4.802 4.068-19.447 17.515-19.447 17.515zM138.976 241.881l26.437-23.322s-12.386 10-15.35 12.458c-2.878 2.465-11.087 10.864-11.087 10.864zM139.853 247.355l13.16-10.992s-6.879 4.747-8.067 5.842c-1.143 1.1-5.093 5.15-5.093 5.15zM140.964 250.15l36.672-31.871s-18.597 14.913-22.332 18.078c-3.738 3.197-14.34 13.793-14.34 13.793zM143.302 254.402l23.513-20.88s-10.958 8.917-14.985 12.252c-4.028 3.335-8.528 8.628-8.528 8.628zM166.055 226.71l26.437-23.322s-13.972 10.592-16.524 13.14c-2.55 2.515-9.913 10.182-9.913 10.182zM189.099 211.186l23.512-20.88s-12.331 9.41-15.339 12.37c-2.921 2.967-8.173 8.51-8.173 8.51zM195.534 199.606l17.546-14.655s-6.487 4.498-10.862 7.898c-4.377 3.433-6.684 6.757-6.684 6.757zM182.842 205.242l30.59-24.308s-13.32 9.437-18.56 13.513c-5.195 4.08-12.03 10.795-12.03 10.795z"/>
        <path fill="#8C8C8C" d="M205.035 168.461l-92.764-9.87-2.746 1.649 92.686 10.268zM197.724 174.568l-94.054-9.983-2.801 1.644 94.019 10.384zM190.53 179.335l-95.323-10.094-2.877 1.638 95.288 10.495zM183.218 185.457L86.551 175.23l-2.876 1.625 96.632 10.625zM175.908 191.548l-97.961-10.324-2.93 1.632 97.927 10.726zM168.597 197.655l-99.263-10.439-2.972 1.629 99.228 10.84zM162.749 202.54L62.173 191.987l-3.005 1.626 100.54 10.954zM155.436 208.661l-101.91-10.685-3.013 1.613 101.875 11.084zM148.127 214.753l-103.171-10.78-3.1 1.617 103.179 11.186zM140.816 220.86L36.29 209.96l-3.09 1.619 104.49 11.3zM133.622 225.627L27.794 214.614l-3.133 1.615 105.793 11.414z"/>
        <path fill="url(#b)" d="M51.42 24.377l-36.451-.124-8.844 7.419 37.357.654z" transform="rotate(5 -1688.258 780.7)"/>
        <path fill="url(#c)" d="M67.855 24.44l-8.067 8.167 65.913 1.122-.905 28.368 9.964-10.755-.086-26.715z" transform="rotate(5 -1688.258 780.7)"/>
        <path fill="url(#d)" d="M75.835.031L51.419 24.377l-7.937 7.95-43.18 43.05 2.545 27.338 15.745.624-1.64-27.277 42.836-43.455 8.067-8.167L91.58.374z" transform="rotate(5 -1688.258 780.7)"/>
        <path fill="url(#e)" d="M55.936 38.511c.43-.061 9.122-3.156 9.122-3.156l-8.863-11.12-1.894-4.811s-9.81-1.348-10.197-1.348c-.43 0-7.66 4.994-7.66 4.994l8.65 10.355 10.842 5.086z" transform="rotate(5 -1745.236 1026.08)"/>
        <path fill="url(#f)" d="M15.963 8.977c-1.936.184-5.206.398-8.261-.03-4.088-.583-5.077-2.513-5.077-2.513l.688 3.952c.732 2.145 3.571 2.757 5.723 2.788 8.562.092 17.426-2.85 17.426-2.85S21.3 8.488 15.963 8.978z" transform="rotate(5 -2033.152 1018.446)"/>
        <path fill="url(#g)" d="M6.454.214c.387 2.635.344 2.39.646 5.025-2.754 1.164-4.174 4.013-3.184 6.25-.947-1.226-2.41-2.543-3.658-5.852-.301-.919.215-3.921 6.196-5.423z" transform="rotate(5 -2033.152 1018.446)"/>
        <path fill="url(#h)" d="M3.356 7.445c9.208-.245 7.702-3.462 7.702-3.462l1.721 3.033c.775 2.053-.688 3.34-2.581 4.075-4.647 1.838-9.08 1.072-9.08 1.072s-2.624-4.596 2.238-4.718z" transform="rotate(5 -2056.685 1718.46)"/>
        <path fill="url(#i)" d="M3.141 1.072C4.346 3.064 5.335 2.82 6.583 4.81c3.055-.214 5.938 1.256 6.411 3.217.087-1.226.259-2.696-.731-5.545-.301-.797-3.313-3.554-9.122-1.41z" transform="rotate(5 -2056.685 1718.46)"/>
        <path fill="url(#j)" d="M12.521 11.642c.215-.092.387-.153.603-.153l.043-.03.258-.093c.602-.245 1.248-.49 1.85-.735-2.151-.705-9.122-2.45-8.434-8.578 0 0-5.68.184-6.497.46.56 3.645 2.41 9.252 8.305 9.773l3.184-.276c.215-.123.473-.245.688-.368z" transform="rotate(5 -2019.299 1586.796)"/>
        <path fill="url(#k)" d="M16.78.153L7.875 1.746c8.39 5.454 4.991 9.222.947 9.988-.043.153-.043.276-.086.429 3.356.184 9.079-.398 11.746-2.574 4.303-4.105-3.7-9.436-3.7-9.436z" transform="rotate(5 -2019.299 1586.796)"/>
        <path fill="url(#l)" d="M29.431 3.707c1.764 1.348 1.893 5.668-7.788 7.353-12.22 2.114-16.05-.858-16.006-.766 0 .061-1.937-3.186 4.432-2.573 15.705 1.47 15.705-5.852 15.705-5.852s3.399 1.654 3.657 1.838z" transform="rotate(5 -1923.493 1566.295)"/>
        <path fill="url(#m)" d="M5.422 7.537S15.447.03 22.59.307c3.14.122 4.69 1.102 6.11 2.481 1.205 1.134 1.463 1.96 1.463 1.96-1.334-1.807-7.66-6.464-23.967 5.944-13.124-.337-.774-3.155-.774-3.155z" transform="rotate(5 -1923.493 1566.295)"/>
        <path fill="url(#n)" d="M66.435 8.21c.258-1.255-.43-2.297-1.936-2.205l-.99-.03c-1.549.091-3.399.612-3.399.612-.043-.03-12.134 12.714-12.005 12.714.13 0 3.959 4.841 3.959 4.841s13.597-12.04 14.371-15.931z" transform="rotate(5 -1745.236 1026.08)"/>
        <path fill="url(#o)" d="M65.403 6.127c-1.678-.214-4.26.337-5.981 2.697-3.658 5.024-6.885 14-6.885 14l-4.475-.03-6.497-4.595C44.19 8.885 47.288 4.38 51.031 2.94c3.615-1.195 14.716 3.248 14.372 3.186z" transform="rotate(5 -1745.236 1026.08)"/>
        <path fill="url(#p)" d="M32.486 16.881c.043-.46.043-.95.172-1.41.13-.459.388-.918.904-1.194.215-.123.43-.184.645-.276 1.894-.613 4.217-.735 5.981.092l.99.092c.688.184 1.248.582 1.721 1.011.774.643 1.549 1.348 2.065 2.145.517.796.732 1.746.345 2.573a1.118 1.118 0 0 1-.474.582c-.215.154-.473.245-.731.368-.732.337-1.334.827-2.066 1.195-1.42.704-3.227.858-4.948.858-.645 0-1.334-.062-1.85-.307-.258-.122-.473-.306-.688-.49-.43-.398-.904-.796-1.334-1.195-.215-.184-.43-.367-.603-.582a2.153 2.153 0 0 1-.43-1.317c0-.766.215-1.44.301-2.145z" transform="rotate(5 -1745.236 1026.08)"/>
        <g>
            <path fill="url(#q)" d="M31.798 26.317c-.13-.704-.775-1.194-.947-1.9v-.091l-5.68-1.44c.086.184-.473.95-5.163 4.075-6.626 4.442-14.371.827-14.371.827l9.423 6.066c6.196 2.39 13.382-2.144 17.426-5.392-.473-.643-.56-1.41-.688-2.145z" transform="rotate(5 -1745.236 1026.08)"/>
            <path fill="url(#r)" d="M14.759 24.203l-10.37-2.481s-6.756 3.492-2.625 7.965c3.615 3.922 16.222 5.209 17.383 4.81-4.69.46-10.67-5.33-4.388-10.294z" transform="rotate(5 -1745.236 1026.08)"/>
            <path fill="url(#s)" d="M21.686 12.102C17.642 10.876 9.208 10.263 6.11 2.298l-2.28-.766-3.142.276S0 3.89.344 4.81c0 0 4.518 10.325 15.06 10.325a75.086 75.086 0 0 0 4.432-.858c.516-.735 1.162-1.47 1.85-2.175z" transform="rotate(5 -2059.532 1461.617)"/>
            <path fill="url(#t)" d="M.258 1.808c2.238-.062-.688 2.236 2.195 1.44 5.206-1.44 12.22 1.102 14.156 3.676 2.84 3.83.56 6.832-1.205 8.21 1.506-.03 3.141-.367 4.604-.765 4.389-1.164 7.358-4.228 6.712-7.537-.688-3.309-4.604-6.28-14.07-6.77-.172 0-4.733.06-8.175.55C1.979.98.258 1.87.258 1.809z" transform="rotate(5 -2059.532 1461.617)"/>
            <path fill="url(#u)" d="M42.985 30.27c-.043-.184-.387-2.635-.516-2.758-.172-.122-7.401-.49-12.694-.061-.258.03-3.399-.245-3.57-.123-4.26 3.095-5.25 4.81-5.465 8.487-.13 1.808 1.72 4.534 2.753 4.933 1.463.551 15.103.857 17.814.704.947-.061 2.754-3.155 2.323-6.679-.215-1.532-.473-3.217-.645-4.503z" transform="rotate(5 -1745.236 1026.08)"/>
            <path fill="url(#v)" d="M.731 5.576c-.43.613-3.485 5.453 8.262 7.322 13.597 2.176 10.327-.888 10.327-.827 0 .061 5.937-4.871-.216-3.462C8.65 11 2.022 4.167 2.022 4.167S.904 5.362.732 5.576z" transform="rotate(5 -1879.637 1044.896)"/>
            <path fill="url(#w)" d="M18.416 3.554S12.048-.858 6.712.214c-.86.184-1.592.521-2.28.92-2.71 1.685-4.13 5.27-4.13 5.27C1.806 4.656 7.056-.369 18.587 9.405c13.124-.337-.172-5.852-.172-5.852z" transform="rotate(5 -1879.637 1044.896)"/>
            <path fill="url(#x)" d="M19.277.153c-1.937.49-3.055 2.512-3.055 2.512L12.994 14.89l1.55 3.707 2.108.122C22.632 5.27 21.256-.337 19.277.153z" transform="rotate(5 -1765.162 1321.425)"/>
            <path fill="url(#y)" d="M2.754 2.053L19.406.123s-3.529.95-3.4 18.81l-6.712 9.008L.387 19.21 2.754 2.053z" transform="rotate(5 -1765.162 1321.425)"/>
            <path fill="url(#z)" d="M12.478 5.699s1.635-.552 3.098-.521c1.076.03 2.152.612 2.152.582.043-.061 8.304 10.63 8.218 10.63-.13 0-1.334 4.382-1.334 4.382s-2.797-2.573-5.852-5.361c-4.001-3.616-8.261-7.905-6.282-9.712z" transform="rotate(5 -1745.236 1026.08)"/>
            <path fill="url(#A)" d="M23.493.49C20.137 1.87 13.898 4.534 12.478 5.7 19.148 4.626 24.57 20.74 24.57 20.74l7.444 1.685 4.948-5.667C35.025 6.434 31.626 2.45 28.4.674c-1.42-.735-3.357-.827-4.906-.184z" transform="rotate(5 -1745.236 1026.08)"/>
            <path fill="url(#B)" d="M28.226 11.275s-.258 9.252 2.711 12.928c1.721 2.114 8.563 3.064 13.898 2.605 3.787-.399 7.014-1.011 7.014-1.011s1.29-5.025 1.592-14.4c.043-2.39-25.3-2.39-25.215-.122z" transform="rotate(5 -1745.236 1026.08)"/>
            <g>
                <path fill="url(#C)" d="M16.437 8.67c.344.215.774.368 1.161.552 2.152 1.01 8.95-2.36 9.596-2.666-3.572-2.297-4.948-3.83-7.229-3.982-2.237-.215-4.69 2.267-4.905 2.267-.473 0-.517.766-.517 1.01 0 .705.345 1.41.904 1.992.215.337.602.613.99.827z" transform="rotate(5 -1985.62 1217.998)"/>
                <path fill="url(#D)" d="M6.024.245c-1.29-.276-3.27-.03-4.26.643-1.678 1.226-2.108 4.228.43 6.005 1.205.828 16.394 2.543 16.394 2.543s-3.313-.95-2.108-4.35c.172-.46.43-.92.86-1.287 1.205-1.134 2.97-1.195 2.97-1.195L6.023.245z" transform="rotate(5 -1985.62 1217.998)"/>
            </g>
            <g>
                <path fill="url(#E)" d="M10.198 8.027a6.456 6.456 0 0 1-1.076.52c-1.98.95-8.304-2.174-8.907-2.48C3.528 3.921 4.82 2.511 6.928 2.358c2.065-.214 4.345 2.083 4.56 2.083.43 0 .517.736.517.95 0 .644-.301 1.318-.818 1.838-.3.337-.645.582-.99.797z" transform="rotate(5 -2003.544 1547.989)"/>
                <path fill="url(#F)" d="M19.836.214c1.205-.275 3.055-.03 3.959.613 1.592 1.134 1.979 3.922-.388 5.576-1.118.766-15.189 2.36-15.189 2.36s3.098-.859 1.937-4.045c-.172-.429-.388-.858-.775-1.195C8.261 2.482 6.626 2.42 6.626 2.42L19.836.214z" transform="rotate(5 -2003.544 1547.989)"/>
            </g>
        </g>
        <path fill="#FFF" d="M133.802 227.81l2.893-14.462-1.73 13.905 6.169-8.34-4.502 8.863 15.858-6.489-15.052 7.563 16.27-.427-16.159 1.598 8.49 3.316-8.672-2.704 5.825 9.797-6.524-9.639.489 14.978-2.2-15.002-13.237 12.271 11.431-12.68-21.43-2.283 20.6 1.489-12.643-9.202 13.27 7.907-3.07-7.987zM177.07 181.196l10.6-7.785-9.541 7.845 8.945-2.964-8.212 3.83 14.011 1.417-14.18-.471 10.66 5.192-11.275-4.478 3.363 4.875-3.858-4.566-2.267 7.905 1.726-8.048-8.77 9.226 7.713-9.799-15.885 2.966 14.98-3.814-12.234-8.597 12.17 7.855-2.418-9.82 3.62 9.22 2.898-5.864zM17.468 223.9l10.602-7.785-9.543 7.845 8.948-2.996-8.214 3.861 14.014 1.386-14.137-.468 10.613 5.22-11.274-4.477 3.363 4.875-3.859-4.566-2.264 7.873 1.723-8.016-8.769 9.226 7.713-9.8-15.885 2.967L15.48 225.2l-12.236-8.565 12.173 7.823-2.422-9.788 3.622 9.22 2.897-5.864zM107.613 155.36l2.85-14.467-1.73 13.906 6.168-8.34-4.459 8.866 15.816-6.492-15.01 7.567 16.27-.428-16.201 1.595 8.49 3.315-8.672-2.704 5.824 9.797-6.523-9.638.488 14.978-2.2-15.003-13.234 12.24 11.429-12.649-21.387-2.279 20.557 1.485-12.601-9.198 13.228 7.904-3.028-7.984z"/>
        <g transform="translate(116.29)">
            <path fill="#ACE63A" d="M173.692 110.525s8.639 25.44 41.553 34.937c0 0-31.359 19.853-69.629 5.07l17.926-38.288 10.15-1.719z"/>
            <path fill="#A9DB2E" d="M163.542 112.244l4.967-.86c1.425 6.49 4.708 17.534 11.49 23.98 6.479 6.145 10.107 13.02 9.502 19.294-12.008 2.192-27.298 2.278-43.885-4.125l17.926-38.289z"/>
            <path fill="#494949" d="M163.542 112.244l6.004-1.031c-.303 5.93-1.08 15.9-.26 23.42 1.685 14.911-10.539 17.662-19.177 17.49a71.716 71.716 0 0 1-4.536-1.59l17.969-38.289z" opacity=".09"/>
            <path fill="#48515E" d="M98.19 215.25a5.777 5.777 0 0 1-5.27-3.438c-.95-2.192-2.203-4.641-3.585-7.22-5.874-11.344-13.952-26.858-3.37-40.824 6.523-8.551 19.05-11.172 20.432-11.473a5.704 5.704 0 0 1 6.695 4.512c.604 3.094-1.426 6.059-4.493 6.66-2.634.516-10.237 2.837-13.52 7.134-5.787 7.65-1.857 16.716 4.407 28.749 1.425 2.793 2.807 5.414 3.93 7.993 1.253 2.879-.086 6.23-2.98 7.477-.734.258-1.469.43-2.246.43z"/>
            <path fill="#48515E" d="M98.19 215.25a5.777 5.777 0 0 1-5.27-3.438c-.95-2.192-2.203-4.641-3.585-7.22-5.874-11.344-13.952-26.858-3.37-40.824 6.523-8.551 19.05-11.172 20.432-11.473a5.704 5.704 0 0 1 6.695 4.512c.604 3.094-1.426 6.059-4.493 6.66-2.634.516-10.237 2.837-13.52 7.134-5.787 7.65-1.857 16.716 4.407 28.749 1.425 2.793 2.807 5.414 3.93 7.993 1.253 2.879-.086 6.23-2.98 7.477-.734.258-1.469.43-2.246.43z"/>
            <path fill="#161616" fill-rule="nonzero" d="M113.178 156.764a5.704 5.704 0 0 0-6.695-4.512c-1.425.258-13.952 2.922-20.43 11.473-10.583 13.924-2.55 29.48 3.368 40.824 1.34 2.579 2.635 5.028 3.585 7.22a5.732 5.732 0 0 0 5.27 3.438c.734 0 1.512-.13 2.246-.473 2.894-1.246 4.233-4.598 2.98-7.477-1.122-2.579-2.461-5.2-3.93-7.993-6.22-11.99-10.194-21.1-4.406-28.749 3.283-4.297 10.885-6.618 13.52-7.133 3.067-.559 5.097-3.524 4.492-6.618zM95.77 198.79c1.555 2.922-2.937 5.543-4.45 2.578-3.282-6.274-8.163-13.15-6.996-20.583.216-1.376 1.943-2.15 3.153-1.805 1.468.43 2.03 1.762 1.814 3.137-.432 2.75.95 5.844 2.073 8.293 1.296 2.88 2.937 5.587 4.406 8.38z" opacity=".28"/>
            <ellipse cx="118.275" cy="229.86" fill="#494949" filter="url(#G)" opacity=".2" rx="90.059" ry="12.075"/>
            <ellipse cx="104.525" cy="233.61" fill="#494949" filter="url(#H)" opacity=".5" rx="76.309" ry="3.325"/>
            <path fill="#161616" d="M130.671 175.156c.648.043 1.253.086 1.9.086.52-3.223 1.167-5.371 1.297-5.672 1.425-4.34-.907-8.982-5.27-10.443-4.362-1.46-9.07.903-10.54 5.243-.086.3-1.77 5.372-2.418 12.634 4.88-1.074 9.762-2.063 15.031-1.848z" opacity=".28"/>
            <path fill="#ACE63A" d="M105.878 203.647s8.077 6.145 8.077 19.724c0 0-8.984 13.236-45.569 4.641 0 0-1.857-18.478 6.177-21.572 8.034-3.094 12.396 2.45 12.396 2.45s2.462-4.298 6.177-2.45a485.54 485.54 0 0 0 4.967 2.45s5.616-1.204 7.775-5.243z"/>
            <path fill="#494949" d="M104.323 227.626c-.604-.086-1.166-.43-1.512-1.204-.043-.086-.086-.214-.13-.3-7.904 1.203-16.413 1.847-23.108-3.18-5.615-4.212-6.522-11.775-2.764-17.19-.691.13-1.426.344-2.203.645-8.077 3.094-6.177 21.572-6.177 21.572 18.487 4.384 29.89 3.137 36.715.86-.432-.258-.691-.688-.82-1.203zM105.878 203.647c-.475.86-1.123 1.59-1.814 2.235 4.233 6.274 6.004 13.579 4.881 21.357 3.671-1.934 5.01-3.868 5.01-3.868 0-13.536-8.077-19.724-8.077-19.724z" opacity=".28"/>
            <path fill="#E1E5EA" d="M68.257 221.223c-.173 3.781.13 6.79.13 6.79 36.584 8.637 45.568-4.642 45.568-4.642a34.21 34.21 0 0 0-.518-5.844c-15.722 9.712-36.412 5.973-45.18 3.696z"/>
            <g fill="#494949" opacity=".1">
                <path d="M72.835 222.297c-1.77-.344-3.283-.73-4.578-1.031-.173 3.781.13 6.79.13 6.79 1.684.386 3.325.773 4.923 1.074-.259-2.32-.432-4.555-.475-6.833zM104.41 221.566a60.96 60.96 0 0 1-4.622 1.204c.475 2.363.993 4.77 1.555 7.133 1.512-.344 2.85-.687 4.06-1.117-.216-2.407-.518-4.813-.993-7.22zM113.394 217.527a40.883 40.883 0 0 1-4.492 2.364c.475 2.234.82 4.512 1.036 6.79 2.894-1.72 3.974-3.31 3.974-3.31a27.776 27.776 0 0 0-.518-5.844zM90.89 223.801c-3.196.129-6.35 0-9.243-.258.086 2.32.388 4.641.777 6.919 3.715.387 7.04.515 9.978.43a291.19 291.19 0 0 1-1.512-7.09z"/>
            </g>
            <path d="M87.089 208.76c-.173-.085-.302-.128-.346-.128.173.172.26.3.26.3s0-.085.086-.171z"/>
            <path fill="#494949" d="M93.482 216.625s.561-5.157-4.363-9.927c-1.08.688-1.77 1.676-2.03 2.063 1.21.43 4.88 2.234 6.393 7.864z" opacity=".28"/>
            <path fill="#ACE63A" d="M86.7 208.632l-.043-.043v.043c0-.043.043-.043.043 0z"/>
            <path fill="#E1E5EA" d="M95.9 205.495s7.43-4.47 9.546-2.665c2.117 1.805 2.376 7.306-.734 8.251-3.11.989-8.639-3.48-8.639-3.48l.043-.43s6.825 2.406 7.084-.774c.26-3.18-6.954-.129-6.954-.129l-.346-.773z"/>
            <path fill="#494949" d="M103.2 206.44c.087-.988-.518-1.375-1.425-1.418 1.339-.129 2.419.172 2.29 1.418-.13 1.375-1.47 1.72-2.938 1.633 1.08-.129 1.987-.559 2.073-1.633z" opacity=".1"/>
            <path fill="#494949" d="M102.941 210.265c2.894-.903 2.85-5.716 1.123-7.864.562 0 1.037.129 1.382.43 2.117 1.804 2.376 7.305-.734 8.25-1.512.473-3.628-.344-5.4-1.332 1.297.559 2.592.86 3.629.516z" opacity=".1"/>
            <path fill="#494949" d="M104.107 202.4c.519 0 .994.13 1.296.43 1.857 1.59 2.29 6.017.26 7.736 1.597-2.88.604-6.103-1.556-8.165z" opacity=".1"/>
            <path fill="#E1E5EA" d="M94.605 205.108s-6.695-4.985-8.64-2.492c-1.943 2.492-.301 5.285 1.47 5.629 1.77.344 6.306-.387 6.306-.387l.086-.344s-5.183.043-5.313-1.246c-.13-1.289 1.555-2.406 4.924-.687l1.167-.473z"/>
            <path fill="#494949" d="M91.452 207.686c.086-.086.172-.172.259-.3 1.123.085 2.116.085 2.116.085l-.086.344s-1.34.215-2.894.344c.216-.129.432-.3.605-.473z" opacity=".2"/>
            <path fill="#494949" d="M92.186 207.429c.907.042 1.641.042 1.641.042l-.086.344s-.691.13-1.685.215a.53.53 0 0 0 .13-.601zM92.963 204.034a32.4 32.4 0 0 1 1.598 1.074l-1.123.473c-.216-.086-.388-.215-.604-.301.13-.43.172-.86.13-1.246z" opacity=".2"/>
            <path fill="#494949" d="M86.83 203.475c-1.253 1.59-1.037 3.309-.26 4.426-1.382-.86-2.289-3.18-.647-5.285 1.943-2.493 8.638 2.492 8.638 2.492l-.216.086c-1.986-1.29-6.047-3.567-7.515-1.719z" opacity=".2"/>
            <path fill="#E1E5EA" d="M94.518 207.471c2.808 2.45 3.067 6.49 3.067 6.49h4.147c-1.037-4.77-6.177-6.618-6.177-6.618l-1.037.128z"/>
            <path fill="#494949" d="M94.864 207.429l.69-.086s5.141 1.847 6.178 6.617h-.864c-.95-4.254-5.097-6.188-6.004-6.531z" opacity=".2"/>
            <path fill="#E1E5EA" d="M95.512 207.987s1.77.043 1.382-1.719c-.389-1.762-1.685-1.976-3.24-1.332-1.555.645-1.295 2.45-.69 2.793.604.344 2.548.258 2.548.258z"/>
            <path fill="#494949" d="M93.395 205.065c-.302.73 1.296 1.504 1.685 1.762.648.344 1.21.3 1.21.3s.302 0 .604-.085c-.173 1.031-1.425.988-1.425.988s-1.901.086-2.549-.258c-.561-.386-.82-1.976.475-2.707z" opacity=".2"/>
            <path fill="#494949" d="M93.395 205.065c-.302.73-.475 1.547-.043 1.762.648.344 2.98.3 2.98.3s.303 0 .605-.085c-.173 1.031-1.425.988-1.425.988s-1.9.086-2.549-.258c-.604-.386-.864-1.976.432-2.707z" opacity=".08"/>
            <path fill="#C7CDD3" d="M64.24 161.663s-.692 7.563 1.036 9.669c1.728 2.105 19.049 8.594 45.008 7.563 25.96-1.032 47.124-13.107 48.852-17.232 1.728-4.126 0-14.826 0-14.826s-35.29 20.67-94.897 14.826z"/>
            <path fill="#E8ECF3" d="M159.18 146.837s-17.365 10.142-48.205 14.224c.691 5.93 1.21 11.86.907 17.748 25.268-1.418 45.613-13.107 47.297-17.146 1.728-4.169 0-14.826 0-14.826z"/>
            <path fill="#D7DCE2" d="M111.537 178.809c.604-5.2.95-10.4 1.036-15.6v-2.406a198.3 198.3 0 0 1-23.41 1.848c.215 3.91.647 7.821 1.08 11.689l.388 3.867c5.788.645 12.396.946 19.696.645.389 0 .82 0 1.21-.043zM128.253 176.445c5.615-1.289 10.668-3.008 15.03-4.77-.042-.343-.042-.73-.085-1.074a73.554 73.554 0 0 0-.648-5.543 77.329 77.329 0 0 0-2.42-10.4c-3.325 1.075-7.04 2.106-11.186 3.094.043 1.848.043 3.653.043 5.5-.043 4.384-.303 8.767-.734 13.193z"/>
            <path fill="#C7CDD3" d="M159.18 146.837s-3.024 1.762-8.856 4.126c1.167 3.867 2.117 7.82 2.765 11.817.173 1.246.345 2.492.518 3.696 3.153-1.977 5.097-3.696 5.572-4.856 1.728-4.126 0-14.783 0-14.783z"/>
            <path fill="#D7DCE2" d="M73.785 174.34c-.432-3.954-.864-7.993-1.08-12.033a203.783 203.783 0 0 1-8.466-.687s-.69 7.563 1.037 9.669c.648.816 3.672 2.277 8.552 3.695 0-.215 0-.43-.043-.644z"/>
            <path fill="#F8FAFD" d="M61.26 53.544L95.295 4.942c4.017-5.716 7.861-5.844 12.742-1.418l42.675 38.847s-20.474 12.505-43.755 17.146c-23.368 4.684-45.699-5.973-45.699-5.973z"/>
            <path fill="#616E7A" d="M116.85 11.603l-8.812-8.036C103.2-.86 99.313-.731 95.296 4.985l-5.097 7.22c5.226 2.964 14.945 6.316 26.65-.602z"/>
            <path fill="#D7DCE2" d="M140.65 47.743c6.219-3.009 10.02-5.33 10.02-5.33l-33.82-30.81c-.735.43-1.426.816-2.117 1.16 7.17 7.348 16.37 18.564 25.916 34.98zM90.199 12.204l5.054-7.22-33.994 48.56s3.628 1.719 9.546 3.524c3.671-13.279 13.822-31.241 21.51-43.79-.777-.343-1.468-.73-2.116-1.074z"/>
            <path fill="#F8FAFD" d="M98.103 1.848c.087-.086.216-.172.303-.258a1.876 1.876 0 0 1-.303.258z"/>
            <path fill="#E8ECF3" d="M114.69 12.763c-2.506 1.246-4.924 2.063-7.214 2.492 4.968 11.388 10.54 27.546 9.935 41.684 9.114-2.708 17.277-6.274 23.238-9.154-9.546-16.458-18.746-27.674-25.96-35.022z"/>
            <path fill="#D7DCE2" d="M107.476 15.255c-3.973.774-7.515.473-10.582-.3-2.85 13.235-6.306 32.788-5.054 45.722 4.795.172 9.892-.086 15.032-1.117a134.73 134.73 0 0 0 10.539-2.621c.605-14.138-4.967-30.339-9.935-41.684z"/>
            <path fill="#C7CDD3" d="M96.937 14.911a24.099 24.099 0 0 1-4.622-1.675c-7.688 12.505-17.795 30.51-21.51 43.789 5.486 1.633 12.872 3.308 21.078 3.61-1.295-12.892 2.16-32.488 5.054-45.724z"/>
            <path fill="#616E7A" d="M104.107.902c.432.172.82.387 1.253.645a6.896 6.896 0 0 0-1.253-.645zM102.898.559c.389.086.82.215 1.21.386-.39-.214-.821-.3-1.21-.386zM116.85 11.603l-8.855-8.036zM105.792 1.805c.302.172.561.387.864.601-.26-.214-.562-.386-.864-.601zM98.449 1.59c.216-.129.389-.258.605-.387a7.374 7.374 0 0 0-.605.387zM95.296 4.942c.259-.344.518-.688.734-.989-.26.301-.518.645-.734.989zM99.01 1.203l.778-.387-.778.387zM97.542 2.32c.216-.171.389-.343.605-.472a3.26 3.26 0 0 0-.605.473zM97.542 2.32zM102.12.43c-.388-.043-.777 0-1.166.043.389-.043.778-.043 1.166-.043zM100.393.645c-.044 0-.087.043-.173.043l.086.043c.043-.043.043-.086.087-.086z"/>
            <path fill="#454F59" d="M92.272 13.279c1.34.644 2.894 1.203 4.622 1.675 1.814-8.38 3.412-14.223 3.412-14.223-1.684 2.492-4.622 7.004-8.034 12.548z"/>
            <path fill="#535E6B" d="M92.272 13.279A429.835 429.835 0 0 1 100.306.73h-.216c-.086.043-.216.085-.302.128-.26.086-.518.215-.778.387-.216.13-.388.258-.604.387-.087.086-.216.172-.303.258-.216.172-.388.3-.604.472-.26.215-.519.473-.735.731-.259.258-.518.559-.734.86-.26.3-.518.644-.734.988l-5.097 7.262c.648.344 1.339.73 2.073 1.075z"/>
            <path fill="#616E7A" d="M100.479.602c-.043 0-.086 0-.086.043s-.044.043-.044.086l.13-.13zM100.22.688c-.043 0-.087.043-.13.043h.216l-.086-.043z"/>
            <path fill="#535E6B" d="M96.937 14.911a23.944 23.944 0 0 0 10.583.301c-3.758-8.68-7.17-14.524-7.17-14.524S98.75 6.575 96.936 14.91z"/>
            <path fill="#768893" d="M114.69 12.763c.69-.344 1.425-.73 2.116-1.16l-8.811-8.036c-.475-.43-.907-.774-1.34-1.118-.302-.214-.56-.43-.863-.601-.13-.086-.303-.172-.432-.258a8.667 8.667 0 0 0-1.253-.645c-.432-.171-.82-.3-1.21-.386-.258-.043-.517-.086-.777-.086-.388-.043-.777 0-1.166.043-.173.043-.302.043-.475.086l-.173.129s5.745 3.222 14.384 12.032z"/>
            <path fill="#616E7A" d="M100.306.73s3.413 5.845 7.17 14.525c2.29-.43 4.708-1.246 7.214-2.492C106.05 3.953 100.306.73 100.306.73z"/>
            <path fill="#F98C32" d="M146.567 38.332s-14.989 11.043-40.602 14.74c-25.614 3.695-37.708-4.17-39.566-5.115-1.857-.945-7.43 1.848-7.43 1.848 2.463 1.848 4.968 40.523 5.14 52.813 0 0-5.571 3.223-1.856 9.283 0 0-1.858 5.113.95 8.336 0 0-2.808 27.33-.475 42.156 0 0 64.747 23.635 98.74-12.977 0 0-1.857-85.688-9.33-110.268-.086.043-.863-2.621-5.571-.816z"/>
            <path fill="#F27F0C" d="M141.21 155.776c-.734-12.033-1.727-24.022-3.153-35.969-.215-1.632-.388-3.265-.604-4.898 0-.13-.043-.215-.043-.258-.044-.172-.044-.344-.087-.602-.086-.516-.13-1.074-.216-1.59l-1.166-8.766c-.216-1.461-.389-2.965-.605-4.426-.043-.301-.086-.602-.13-.946.087.645-.086-.601-.129-.988-.345-2.407-.648-4.813-.993-7.22-1.512-10.442-3.283-20.841-5.875-31.069-.907-3.523-1.9-7.047-2.98-10.485-3.671 1.203-7.732 2.363-12.224 3.309a370.242 370.242 0 0 1 2.678 18.22 362.013 362.013 0 0 1 2.549 31.284c.388 10.572.086 21.1-.087 31.628-.173 12.118-.13 24.237.087 36.355 7.904-.817 15.852-2.664 23.367-5.973l-.388-7.606zM83.72 167.722c5.27.945 11.273 1.719 17.623 2.02l-.13-8.423c-.216-21.014.95-42.113-.043-63.127a362.043 362.043 0 0 0-2.721-30.51c-.043-.258-.216-1.676-.216-1.676-.086-.602-.173-1.203-.26-1.762a101.854 101.854 0 0 0-.56-3.567 365.977 365.977 0 0 0-1.124-6.746c-5.313.214-9.891-.086-13.735-.688.69 8.895 1.209 17.79 2.202 26.643l.26 2.192c-.044-.172.172 1.203.216 1.633.043.343.13.859.13.945.086.602.172 1.16.258 1.762.39 2.492.864 4.942 1.383 7.391a161.842 161.842 0 0 1 2.85 16.974c1.21 10.786.691 21.744-1.382 32.402-1.555 8.207-3.24 16.372-4.751 24.537z"/>
            <path fill="#E6EAED" d="M90.372 156.85c-2.333-7.864-3.715-45.852-3.715-45.852 6.997 6.962 21.424 16.2 21.424 16.2 11.662-8.336 19.567-20.368 19.567-20.368 2.332 6.961 1.382 49.117 1.382 49.117l21.424-4.64c3.715-30.597-5.14-93.595-5.14-93.595-15.377 7.391-21.9 6.016-21.9 6.016-5.14 18.049-16.758 29.651-16.758 29.651-11.663-3.223-20.042-26.857-20.042-26.857-9.762.945-22.331-5.544-22.331-5.544 2.332 6.016 2.807 42.629 2.807 42.629l-.777 2.148c-.778 2.15 1.252 6.661 1.252 6.661l-1.382 1.848c-1.382 1.848 1.382 4.641 1.382 4.641-1.857 7.391 1.858 35.366 1.858 35.366l20.949 2.579z"/>
            <g>
                <path d="M88.514 143.142a108.3 108.3 0 0 0 1.685-28.92c-1.296-1.118-2.505-2.193-3.542-3.224 0 0 .648 18.306 1.857 32.144z"/>
                <path fill="#F27F0C" d="M127.605 106.83s-3.5 5.328-9.244 11.345c-.043 4.941-.173 9.883-.216 14.868-.173 12.118-.13 24.237.087 36.355 7.904-.817 15.852-2.664 23.367-5.973l-.388-7.607a51.86 51.86 0 0 0-.173-2.492l-12.051 2.621c.043-.043.95-42.199-1.382-49.117zM129.203 63.385c-.346-1.462-.691-2.923-1.037-4.34-.907-3.524-1.9-7.048-2.98-10.486-3.672 1.203-7.732 2.363-12.224 3.309a370.242 370.242 0 0 1 2.678 18.22c.389 3.18.734 6.317 1.08 9.497 2.505-4.426 4.967-9.755 6.695-15.857 0 0 1.814.387 5.788-.343zM86.657 66.522s5.615 15.856 14.081 23.377a350.353 350.353 0 0 0-2.246-22.174 94.984 94.984 0 0 1-.216-1.676c-.086-.602-.173-1.203-.259-1.762a101.855 101.855 0 0 0-.562-3.567 365.978 365.978 0 0 0-1.123-6.746c-5.312.214-9.891-.086-13.735-.688.345 4.426.648 8.852.993 13.236.994.085 2.03.085 3.067 0zM88.514 143.142c.519 6.102 1.167 11.301 1.858 13.708l-4.45-.559-2.202 11.474c5.27.945 11.273 1.719 17.623 2.02l-.13-8.423c-.13-12.849.216-25.655.346-38.503-3.499-2.45-7.775-5.587-11.403-8.638.777 9.626.172 19.38-1.642 28.92z"/>
                <path fill="#E6EAED" d="M145.314 57.712c-7.257 3.48-12.526 5.028-16.111 5.673 2.03 8.809 3.498 17.747 4.794 26.728.346 2.407.691 4.813.994 7.22.043.344.216 1.59.13.988.043.301.086.602.129.946.216 1.46.389 2.965.605 4.426l1.166 8.766c.086.516.13 1.074.216 1.59.043.258.043.473.086.602 0 .086 0 .172.043.258.216 1.633.432 3.266.605 4.898 1.34 11.13 2.29 22.303 3.024 33.52l9.373-2.02c3.8-30.597-5.054-93.595-5.054-93.595zM88.514 143.142c-1.21-13.838-1.857-32.144-1.857-32.144 1.037 1.031 2.246 2.106 3.542 3.223a87.77 87.77 0 0 0-.302-3.352 159.98 159.98 0 0 0-2.851-16.974c-.519-2.45-.994-4.899-1.382-7.391-.087-.602-.173-1.16-.26-1.762 0-.086-.086-.559-.13-.946-.042-.43-.215-1.804-.215-1.632l-.26-2.192c-.518-4.47-.863-8.895-1.209-13.365-9.157-.386-19.264-5.629-19.264-5.629 2.332 6.016 2.807 42.629 2.807 42.629l-.777 2.148c-.778 2.15 1.253 6.661 1.253 6.661l-1.383 1.848c-1.382 1.848 1.383 4.641 1.383 4.641-1.858 7.391 1.857 35.366 1.857 35.366l16.5 2.063c.864-4.34 1.728-8.723 2.548-13.064-.043-.085 0-.128 0-.128zM118.232 101.372c-.26-7.262-.778-14.524-1.469-21.787-4.924 8.724-10.064 13.794-10.064 13.794-2.117-.601-4.104-1.847-5.96-3.48.172 2.793.345 5.543.474 8.336.389 8.208.432 16.373.346 24.58a306.178 306.178 0 0 0 6.479 4.384c3.887-2.793 7.386-6.016 10.323-9.067.043-5.587.043-11.173-.13-16.76z"/>
                <path fill="#DDE2E8" d="M137.41 114.909c0-.13-.044-.215-.044-.258-.043-.172-.043-.344-.086-.602-.086-.516-.13-1.074-.216-1.59l-1.166-8.766c-.216-1.461-.389-2.965-.605-4.426-.043-.301-.086-.602-.13-.946.087.645-.086-.601-.13-.988-.345-2.407-.647-4.813-.993-7.22-1.295-8.938-2.807-17.876-4.794-26.728-3.974.73-5.788.343-5.788.343-1.728 6.102-4.19 11.431-6.695 15.857a335.376 335.376 0 0 1 1.469 21.787c.216 5.587.216 11.173.13 16.803 5.744-6.017 9.243-11.345 9.243-11.345 2.332 6.961 1.382 49.117 1.382 49.117l12.05-2.62c-.69-11.174-1.64-22.39-3.023-33.52a189.461 189.461 0 0 0-.604-4.898zM101.213 98.235c-.13-2.793-.302-5.543-.475-8.336-8.423-7.52-14.081-23.377-14.081-23.377-.993.085-2.03.128-3.11.042.346 4.47.691 8.939 1.21 13.365l.259 2.192c-.044-.172.172 1.203.216 1.633.043.343.13.859.13.945.086.602.172 1.16.258 1.762.39 2.492.864 4.942 1.383 7.391a161.842 161.842 0 0 1 2.85 16.974 87.77 87.77 0 0 1 .303 3.352c3.585 3.051 7.904 6.188 11.403 8.638.043-8.208 0-16.416-.346-24.58z"/>
                <path fill="#E6EAED" d="M88.514 143.142v.128c-.864 4.34-1.727 8.724-2.548 13.064l4.449.559c-.778-2.45-1.382-7.692-1.9-13.751z"/>
            </g>
            <path fill="#FFB43B" d="M62.21 111.9s-1.858 5.114.95 8.337c0 0-2.808 27.33-.475 42.156 0 0 1.684.602 4.664 1.504 1.728-9.11 3.758-18.22 5.27-27.373 0 0 .216-1.504.26-1.676.042-.473.129-.946.172-1.375.13-1.16.26-2.32.346-3.524a79.72 79.72 0 0 0 .259-7.864c0-2.621-.13-5.2-.346-7.821-.086-1.16-.216-2.32-.345-3.48 0 .171-.13-1.032-.173-1.505-.043-.344-.13-.902-.13-1.031-.777-5.243-2.116-10.4-3.023-15.642-.95-5.544-1.642-11.087-2.203-16.673-.907-9.369-1.382-18.822-2.246-28.19-2.376.085-6.263 2.02-6.263 2.02 2.462 1.847 4.967 40.522 5.14 52.812 0 .086-4.968 3.782-1.858 9.326z"/>
            <path fill="#FF681F" d="M152.052 39.191s-.777-2.621-5.529-.86c0 0-2.03 1.505-5.83 3.567 1.727 5.157 3.196 10.443 4.448 15.728 2.462 10.357 4.147 20.928 5.615 31.456.778 5.587 1.512 11.173 2.29 16.802 0 .13.043.258.043.344 0 .086.043.172.043.344.086.73.216 1.418.302 2.149l.778 5.8c.389 2.837.734 5.63 1.037 8.466a634.984 634.984 0 0 1 2.634 29.91 65.01 65.01 0 0 0 3.456-3.438c.043-.043-1.814-85.73-9.287-110.268z"/>
            <path fill="#B5B5B5" d="M152.052 39.191s-.777-2.621-5.529-.86c0 0-2.03 1.505-5.83 3.567 1.727 5.157 3.196 10.443 4.448 15.728 2.462 10.357 4.147 20.928 5.615 31.456.778 5.587 1.512 11.173 2.29 16.802 0 .13.043.258.043.344 0 .086.043.172.043.344.086.73.216 1.418.302 2.149l.778 5.8c.389 2.837.734 5.63 1.037 8.466a634.984 634.984 0 0 1 2.634 29.91 65.01 65.01 0 0 0 3.456-3.438c.043-.043-1.814-85.73-9.287-110.268z" opacity=".22"/>
            <path fill="#FFC76E" d="M131.578 52.126c10.972-4.383 18.228-8.724 19.913-13.794-.691-.602-2.074-1.118-4.924-.043 0 0-14.989 11.043-40.602 14.74-25.614 3.695-37.708-4.17-39.566-5.115-1.857-.945-7.43 1.848-7.43 1.848s10.238 6.962 25.14 8.81c14.901 1.847 33.475-.86 47.47-6.446z"/>
            <path fill="#FFF" d="M86.657 58.915c2.073.172 4.19.301 6.393.301-.087-1.719-.13-3.438-.173-5.157-1.814 0-3.542-.085-5.183-.171a103.84 103.84 0 0 1-1.037 5.027zM84.41 58.658a63.59 63.59 0 0 0 .994-4.985 21.065 21.065 0 0 1-1.727-.215c-.864 1.375-1.599 2.793-2.376 4.254 0 0 0 .043-.043.043-.043.129-.087.258-.173.387.95.172 1.944.3 2.98.43.13.086.26.086.346.086zM110.025 52.384c-.13.043-.216.043-.346.085.043 1.805.087 3.653.173 5.458.864-.129 1.728-.3 2.592-.43-.821-1.719-1.599-3.395-2.42-5.113zM119.182 50.32c-.648.173-1.296.345-1.987.517.777 1.718 1.598 3.394 2.419 5.07 1.296-.3 2.548-.687 3.8-1.031-1.338-1.547-2.764-3.051-4.232-4.555zM150.109 40.91c.604-.817 1.08-1.676 1.339-2.536-.692-.601-2.074-1.117-4.925-.042 0 0-.388.3-1.123.773 1.555.688 3.11 1.246 4.709 1.805zM141.902 41.21c-.691.387-1.469.817-2.333 1.247 1.685 1.074 3.413 2.191 5.097 3.266 1.08-.688 2.073-1.418 2.894-2.149-1.944-.644-3.844-1.418-5.658-2.363zM131.708 46.11a112.193 112.193 0 0 1-4.751 1.804 195.981 195.981 0 0 1 3.974 4.47c.216-.086.431-.172.69-.258a130.272 130.272 0 0 0 5.789-2.45c-1.944-1.203-3.801-2.406-5.702-3.566zM67.047 48.344c-.302-.172-.518-.3-.691-.387-1.857-.945-7.43 1.848-7.43 1.848s2.204 1.504 6.005 3.266c.647-1.59 1.339-3.18 2.116-4.727z" opacity=".32"/>
            <path fill="#B25D10" d="M84.54 109.58s-13.174-1.504-20.56-10.571c.044 1.375.087 2.578.087 3.61 0 .042 6.047 7.906 20.474 6.961z" opacity=".52"/>
            <path fill="#FFF" d="M61.95 57.927s8.855 6.016 27.947 6.962c0 0-17.71 31.971-2.333 71.807 0 0-16.76 32.874-25.614-78.769z" opacity=".39"/>
            <path fill="#300A05" d="M87.91 123.245c-1.383-3.18-1.555-7.692 1.857-11.99 4.276-5.37 16.111-1.804 21.251-3.265 5.14-1.461 10.15-6.145 16.716-3.782 6.566 2.364 6.782 8.81 2.419 14.095-4.363 5.286-11.317 10.013-21.64 11.646-10.28 1.633-18.487-1.977-20.603-6.704z"/>
            <path fill="#FFF" d="M128.944 115.038c-.605-.688-1.296-1.247-2.03-1.805-.087.043-.173.043-.173.043s-32.568 3.953-34.555 4.899c-1.382.644-2.894 4.125-3.672 6.145 2.808 4.168 10.496 7.133 19.999 5.629 10.323-1.633 17.277-6.36 21.64-11.646.13-.128.216-.3.346-.43-.39-1.03-.864-2.019-1.555-2.835z"/>
            <path fill="#E8ECF3" d="M89.508 125.523c3.369 3.524 10.453 5.801 19.005 4.469 7.084-1.117 12.613-3.696 16.76-6.962-13.089 6.532-30.582 3.567-35.765 2.493zM91.927 117.616s2.72 4.426 12.742 3.137c7.084-.903 22.892-2.364 22.072-7.477-.82-5.114-.432-3.524-.432-3.524s-37.19 1.547-34.382 7.864z"/>
            <path fill="#FFF" d="M104.928 119.12c11.144-1.547 15.982-2.88 21.38-4.727 3.672-1.246 6.091-6.66 5.227-7.692-.864-1.031-2.116-1.89-3.758-2.493-6.565-2.363-11.576 2.321-16.716 3.782-5.14 1.461-16.975-2.106-21.25 3.266a15.784 15.784 0 0 0-1.599 2.45c.95 2.922 4.449 7.133 16.716 5.414z"/>
            <path fill="#E8ECF3" d="M111.796 109.88c5.744-1.46 11.36-6.187 18.703-3.824.216.086.388.13.604.215-.82-.86-1.943-1.547-3.369-2.063-6.565-2.363-11.576 2.321-16.716 3.782-5.14 1.461-16.975-2.106-21.251 3.266-.302.387-.562.73-.82 1.117 5.442-4.082 17.45-1.074 22.849-2.492z"/>
            <path fill="#FFF" d="M128.9 112.674l.39-4.598-.13 4.383 1.252-2.75-.864 2.88 3.542-2.45-3.326 2.793 3.758-.602-3.715.946 2.03.816-2.03-.601 1.512 2.879-1.684-2.837.388 4.684-.777-4.64-2.808 4.21 2.376-4.296-5.01-.13 4.794-.085-3.11-2.536 3.24 2.106-.864-2.407zM88.212 115.381l.648-8.207-.216 7.82 2.246-4.898-1.512 5.113 6.22-4.34-5.874 4.942 6.652-1.031-6.566 1.633 3.585 1.46-3.628-1.117 2.721 5.2-3.023-5.07.734 8.336-1.425-8.25-4.968 7.477 4.19-7.607-8.855-.257 8.51-.13-5.486-4.511 5.701 3.738-1.555-4.297z"/>
            <path fill="#48515E" d="M127.734 104.208c-6.565-2.363-11.576 2.321-16.716 3.782-5.14 1.461-16.975-2.106-21.251 3.266-.086.129-.173.215-.26.344 4.882-3.91 15.464-.946 20.259-2.278 5.14-1.46 10.15-6.145 16.716-3.781 6.565 2.363 6.781 8.809 2.418 14.095-.216.257-.475.558-.69.816a30.14 30.14 0 0 0 1.943-2.149c4.363-5.285 4.147-11.731-2.419-14.095z"/>
            <path fill="#48515E" d="M130.11 117.014c-4.363 5.286-11.317 10.013-21.64 11.646-10.323 1.633-18.53-1.977-20.604-6.747-.432-1.031-.777-2.191-.863-3.438-.044 1.72.302 3.352.907 4.727 2.116 4.77 10.323 8.337 20.603 6.747 10.323-1.633 17.277-6.36 21.64-11.646 2.16-2.62 3.196-5.543 2.894-8.078-.13 2.191-1.123 4.598-2.937 6.79z"/>
            <g transform="translate(82.856 59.732)">
                <path fill="#494949" d="M23.022 15.642c-2.98 1.762-4.708 7.52-2.85 14.138 4.016 14.31 15.42 14.482 19.955 12.075 4.535-2.406 8.12-10.141 3.326-18.005 0-.043-8.077-15.513-20.43-8.208z" opacity=".28"/>
                <path fill="#494949" d="M22.072 25.569s-1.987-11.13-9.503-11.173C5.054 14.353-.259 24.279.907 33.046c1.166 8.766 10.453 12.763 16.284 8.68 5.831-4.082 6.566-11.387 4.881-16.157z" opacity=".28"/>
                <path fill="#FFF" d="M21.64 24.022s-1.987-11.13-9.503-11.173C4.622 12.806-.69 22.732.475 31.499c1.21 8.723 10.453 12.763 16.284 8.68 5.831-4.082 6.566-11.387 4.881-16.157z"/>
                <path fill="#E8ECF3" d="M.475 31.499c-.518-3.825.216-7.907 1.857-11.259-1.036 2.88-1.468 6.06-1.08 9.11 1.167 8.767 10.713 12.677 16.803 8.509 1.166-.817 2.16-1.72 2.98-2.75a13.17 13.17 0 0 1-4.276 5.07c-5.831 4.083-15.074.086-16.284-8.68z"/>
                <path fill="#48515E" d="M12.353 14.396c-5.096.043-9.33 4.254-11.403 9.54 1.555-6.06 5.831-11.087 11.144-11.087 4.881.043 7.43 4.727 8.596 7.993-1.34-3.051-3.888-6.49-8.337-6.446z"/>
                <path fill="#FFF" d="M21.554 13.88c-4.277 3.438-3.067 11.43-1.296 16.76 4.492 13.794 14.47 11.903 18.79 9.582 4.318-2.32 7.73-9.84 3.109-17.532-.043 0-10.626-16.803-20.603-8.81z"/>
                <path fill="#48515E" d="M21.554 15.341c-1.599 1.246-2.506 3.008-2.894 5.028.172-2.664.993-5.028 2.894-6.532 7.86-6.274 16.11 2.793 19.264 6.962-3.801-4.383-11.62-11.302-19.264-5.458z"/>
                <path fill="#E8ECF3" d="M37.578 37.644c4.018-2.149 7.214-8.723 4.018-15.728.345.473.518.774.518.774 4.665 7.649 1.252 15.169-3.11 17.532-3.974 2.106-12.613 3.868-17.537-6.36 5.054 7.306 12.483 5.716 16.111 3.782z"/>
                <ellipse cx="34.069" cy="26.445" fill="#000" rx="2.763" ry="2.751" transform="rotate(-15.564 34.069 26.445)"/>
                <ellipse cx="34.08" cy="26.471" fill="url(#I)" rx="3.326" ry="3.309"/>
                <ellipse cx="16.111" cy="28.104" fill="url(#J)" rx="3.326" ry="3.309"/>
                <ellipse cx="34.069" cy="26.445" fill="#000" rx="2.461" ry="2.45" transform="rotate(-15.564 34.069 26.445)"/>
                <ellipse cx="16.103" cy="28.077" fill="#000" rx="2.461" ry="2.45" transform="rotate(-15.564 16.103 28.077)"/>
                <ellipse cx="35.887" cy="24.124" fill="#FFF" opacity=".8" rx="1.9" ry="1.891" transform="rotate(-15.564 35.887 24.124)"/>
                <ellipse cx="32.733" cy="28.292" fill="#FFF" opacity=".8" rx="1" ry="1" transform="rotate(-15.564 32.733 28.292)"/>
                <ellipse cx="14.765" cy="29.924" fill="#FFF" opacity=".8" rx="1" ry="1" transform="rotate(-15.564 14.765 29.924)"/>
                <ellipse cx="17.578" cy="25.672" fill="#FFF" opacity=".8" rx="1.77" ry="1.762" transform="rotate(-15.564 17.578 25.672)"/>
                <path fill="#48515E" d="M38.831 6.102l-1.684 3.739s-3.24-4.126-11.058-3.739L27.514.215c.044-.043 8.812.601 11.317 5.887z"/>
                <path fill="#161616" d="M28.076 2.363s1.08 1.204.777 2.75c0 0 2.98-.085.216-4.554 0 0 4.06 1.117 3.629 4.941 0 0 1.382-.386-.087-2.965 0 0 2.462.817 1.685 3.266 0 0 1.9-1.289-.087-2.965 0 0 3.154.602 1.858 3.954 0 0 1.382-.387 1.21-1.075 0 0 .388 1.418.301 3.094l-.431.903s-3.24-4.126-11.058-3.739l.043-.258c.432-.215 1.814-1.418 1.944-3.352z" opacity=".28"/>
            </g>
            <g>
                <path fill="#48515E" d="M89.551 60.42l-2.332-5.33s-6.48 2.364-7.603 7.994l1.512 2.45c.043 0 3.326-4.986 8.423-5.115z"/>
                <path fill="#48515E" d="M89.551 60.42l-2.332-5.33s-6.48 2.364-7.603 7.994l1.512 2.45c.043 0 3.326-4.986 8.423-5.115zM81.042 63.04v-.171.172z"/>
                <path fill="#161616" d="M81.042 63.04c0 .216.086.56.561 1.032 0 0-1.123-3.266.087-4.34 0 0-.13 2.277.777 2.75 0 0-.475-4.34 1.642-4.942 0 0-.605 3.137.259 3.653 0 0-.475-4.34 1.641-4.942 0 0-.13 2.278.95 3.48 0 0-.561-2.062-.086-2.964 0 0 1.21 1.976 2.678 3.652-4.147.086-7.084 3.395-8.077 4.641a2.98 2.98 0 0 1-.432-2.02z" opacity=".28"/>
            </g>
            <path fill="#494949" d="M152.441 84.441c.043-.172.086-.344.173-.473.259-.816.475-1.633.648-2.363.043-.129.043-.215.086-.344.13-.516.26-1.031.346-1.547.043-.129.043-.3.086-.43.173-.86.346-1.633.432-2.32.043-.13.043-.258.086-.387.087-.644.173-1.117.216-1.504.13-1.246-.907-1.504-1.339-1.504-.259 0-.561-.043-.734-.043-.13 0-.302 0-.432-.043-.605-.043-1.253-.086-1.857-.129h-.303l-2.073-.129h-.086l-6.134-.258h-.043c-1.296-.043-2.592-.086-3.844-.086a413.138 413.138 0 0 0-16.37.086c-6.264.172-12.268.516-17.84.903h-.043l-1.684.129c-16.328 1.246-28.81 3.137-33.26 3.824-.302.043-.518.086-.734.13h-.043c-.216.042-.389.042-.518.085h-.044c-.13.043-.259.043-.302.043h-.086c0 .172-.043.387-.043.559V80.702c0 .215 0 .43.043.645v.172c0 .172.043.3.043.473v.214c0 .172.043.301.043.473 0 .086 0 .13.043.215.044.172.044.344.087.516v.129c.043.215.086.472.13.687v.043c.042.215.086.43.129.602 0 .043.043.129.043.172l.13.515c0 .043.043.13.043.172.043.172.086.387.13.559 0 .043 0 .086.043.129l.388 1.418c0 .043 0 .043.044.086.043.215.13.43.216.601 0 .043.043.086.043.13.086.214.13.43.216.601 0 .043 0 .043.043.086.259.73.561 1.418.864 2.149 0 0 0 .043.043.043.086.214.216.43.302.687v.043c.432.945.95 1.89 1.469 2.793a29.712 29.712 0 0 0 3.8 5.114 28.059 28.059 0 0 0 2.333 2.192 21.912 21.912 0 0 0 4.363 2.75c.605.258 1.21.516 1.814.73.216.086.432.13.648.215.216.043.432.13.648.172.216.043.432.086.605.13h.043c.216.042.389.085.604.128h.087c.173.043.389.043.561.086h.087c.173.043.345.043.561.043h.13c.173 0 .345.043.561.043h.13c.216 0 .475 0 .691.043.605 0 1.166 0 1.728-.086.259-.043.518-.043.777-.086.087 0 .173-.043.26-.043.172-.043.345-.043.518-.086.086-.043.216-.043.302-.086.13-.043.303-.086.432-.129.13-.043.216-.043.346-.086l.388-.129c.13-.043.216-.086.346-.129l.389-.129c.13-.042.216-.085.302-.128.13-.043.26-.086.389-.172.086-.043.216-.086.302-.13.13-.042.26-.128.346-.171.086-.043.216-.086.302-.172.13-.043.216-.129.346-.172.086-.043.216-.129.302-.172.13-.086.216-.129.345-.215.087-.043.173-.129.303-.172.13-.085.216-.128.302-.214.087-.043.173-.13.26-.172.086-.086.215-.13.302-.215.086-.043.172-.13.259-.172.086-.086.216-.172.302-.215.087-.086.173-.129.26-.215.086-.086.215-.172.302-.258a.941.941 0 0 0 .216-.172c.086-.085.216-.171.302-.257.086-.043.13-.13.216-.172l.389-.387.13-.129c.129-.129.259-.258.431-.387l.173-.172c.086-.085.173-.171.26-.3.042-.086.129-.13.172-.215l.26-.258c.042-.086.129-.129.172-.215.086-.086.13-.172.216-.258.043-.086.13-.129.173-.215.086-.086.13-.172.216-.257.043-.086.13-.13.172-.215.087-.086.13-.172.216-.258.044-.086.13-.13.173-.215.043-.086.13-.172.173-.258.043-.086.086-.129.173-.215a.938.938 0 0 1 .173-.215c.043-.086.086-.128.13-.214a.938.938 0 0 1 .172-.215c.043-.043.086-.13.13-.172.043-.086.129-.172.172-.215.043-.043.087-.129.13-.172.043-.086.086-.172.173-.215.043-.043.086-.086.086-.172.043-.086.086-.172.173-.215.043-.043.043-.086.086-.128.043-.086.13-.172.173-.258 0-.043.043-.043.043-.086.13-.215.26-.387.389-.559a.594.594 0 0 1 .13-.172l.086-.086.086-.086c.043-.043.087-.043.13-.086.043 0 .043-.043.086-.043.043-.043.13-.043.173-.086h.043c.087-.043.13-.043.216-.043s.173-.042.216-.042c.173 0 .302 0 .475.042h.087c.216.086.432.215.604.43.26.301.562.645.821.903.173.172.302.343.475.472.13.13.216.258.346.344.216.215.432.43.604.645l.13.129a34.983 34.983 0 0 0 3.412 3.008c.303.215.562.43.82.644.26.215.52.387.822.559 0 0 .043 0 .043.043l.777.516s.043 0 .043.043c.26.171.519.3.735.472h.043c.26.13.518.301.734.43 2.376 1.29 4.32 1.89 5.702 2.149.13.043.302.043.432.086h.043c.13 0 .26.043.346.043h.043c.13 0 .216.042.302.042H125.79c13.131.774 20.345-7.262 24.232-15.513.13-.3.26-.601.432-.902.82-1.547 1.469-3.266 1.987-4.856z" opacity=".28"/>
            <g>
                <path fill="#264160" d="M64.887 75.718s44.403-7.864 88.03-4.512c0 0-2.463 33.776-28.768 32.229 0 0-7.861.86-17.925-10.571-.173-.172-.346-.344-.605-.43-.648-.258-1.425 0-1.814.559-1.857 2.793-7.343 11.516-16.76 11.344-14.512-.214-23.108-17.92-22.158-28.62z"/>
                <path fill="#264160" d="M64.887 75.718c-.561 6.617 2.462 15.857 8.25 22.045 5.659-8.38 11.274-16.803 16.76-25.311-15.075 1.504-25.01 3.266-25.01 3.266z"/>
                <path fill="#1F2939" d="M99.96 71.55c-1.64.128-3.239.257-4.837.386-.864 1.461-1.771 2.88-2.635 4.34-5.01 8.38-9.286 17.103-14.383 25.483a15.859 15.859 0 0 0 3.585 1.633c4.967-8.25 9.2-16.888 14.167-25.139 1.382-2.192 2.721-4.426 4.104-6.704zM106.958 71.077c-1.555 2.793-3.153 5.629-4.708 8.422a304.158 304.158 0 0 0-8.38 16.244 159.936 159.936 0 0 0-3.844 7.047c-.173.301-.259.645-.302.946 0 .043-.043.043-.043.086-.303.129-.605.3-.907.43 8.336-.86 13.303-8.638 15.03-11.26.39-.558 1.038-.816 1.685-.601 4.579-7.348 9.503-14.525 13.995-21.873-4.276.129-8.509.344-12.526.559zM126.093 70.389a630.34 630.34 0 0 1-10.885 16.974 1029.063 1029.063 0 0 1-5.874 8.724c2.462 2.32 4.751 3.91 6.738 4.984 6.91-10.055 13.476-20.326 19.869-30.682a376.168 376.168 0 0 0-9.848 0zM143.76 70.647c-6.74 10.829-13.477 21.744-19.784 32.788h.173c26.305 1.547 28.767-32.23 28.767-32.23a222.59 222.59 0 0 0-9.157-.558z"/>
                <path fill="#264160" d="M95.123 71.979c-1.814.172-3.542.3-5.226.473a2331.162 2331.162 0 0 1-16.76 25.31 22.22 22.22 0 0 0 4.968 4.04c5.053-8.337 9.373-17.103 14.383-25.483.907-1.46 1.771-2.922 2.635-4.34z"/>
                <path fill="url(#K)" d="M30.408 1.934c-1.814.172-3.542.3-5.226.472a2331.162 2331.162 0 0 1-16.76 25.311 22.22 22.22 0 0 0 4.968 4.04c5.054-8.337 9.373-17.103 14.384-25.483.907-1.461 1.77-2.922 2.634-4.34z" opacity=".3" transform="translate(64.715 70.045)"/>
                <path fill="#264160" d="M89.767 103.779c.043-.344.13-.645.302-.946a159.936 159.936 0 0 1 3.845-7.047c2.634-5.5 5.399-10.872 8.38-16.244 1.554-2.793 3.11-5.63 4.707-8.422-2.375.128-4.708.3-6.997.472-1.382 2.235-2.765 4.47-4.104 6.747-4.967 8.25-9.2 16.888-14.167 25.139 1.684.559 3.499.902 5.4.945.604 0 1.165 0 1.727-.086.302-.129.605-.257.907-.43-.043-.085-.043-.085 0-.128z"/>
                <path fill="url(#L)" d="M25.052 33.733c.044-.343.13-.644.303-.945a159.936 159.936 0 0 1 3.844-7.047c2.635-5.5 5.4-10.872 8.38-16.244 1.554-2.793 3.11-5.63 4.708-8.423-2.376.13-4.709.301-6.998.473-1.382 2.235-2.764 4.47-4.103 6.747-4.967 8.25-9.2 16.888-14.168 25.139 1.685.558 3.499.902 5.4.945.604 0 1.166 0 1.727-.086.303-.129.605-.258.907-.43-.043-.086-.043-.086 0-.129z" opacity=".3" transform="translate(64.715 70.045)"/>
                <path fill="#264160" d="M135.941 70.432c-6.393 10.356-12.958 20.627-19.87 30.682 4.19 2.278 7.128 2.364 7.862 2.364 6.35-11.044 13.045-21.916 19.783-32.788-2.592-.172-5.183-.215-7.775-.258z"/>
                <path fill="url(#M)" d="M71.226.387c-6.392 10.356-12.958 20.627-19.869 30.682 4.19 2.278 7.127 2.364 7.862 2.364C65.568 22.389 72.263 11.517 79 .645 76.41.473 73.818.43 71.226.387z" opacity=".3" transform="translate(64.715 70.045)"/>
                <path fill="#264160" d="M126.093 70.389l-6.566.129c-4.535 7.348-9.459 14.525-13.994 21.873.043 0 .086 0 .13.043.215.086.431.215.604.43a57.137 57.137 0 0 0 3.11 3.223c1.987-2.88 3.93-5.802 5.874-8.724a757.145 757.145 0 0 0 10.842-16.974z"/>
                <path fill="url(#N)" d="M61.378.344l-6.565.129c-4.536 7.348-9.46 14.524-13.995 21.873.043 0 .086 0 .13.043.216.086.432.215.604.43a57.137 57.137 0 0 0 3.11 3.222c1.987-2.879 3.93-5.8 5.875-8.723A757.145 757.145 0 0 0 61.378.344z" opacity=".3" transform="translate(64.715 70.045)"/>
            </g>
            <g>
                <path fill="#48515E" d="M42.97 128.406s-5.824 28.176 3.71 32.808c9.534 4.632 11.572-5.274 11.572-5.274s2.815-.43 6.179-8.212c3.364-7.782-5.312-26.404-5.312-26.404l-16.148 7.082z"/>
                <path fill="#161616" d="M42.97 128.406s-1.499 7.252-1.75 15.046c4.17.442 8.388.637 12.621.496l3.273 9.98s-.355-7.12-1.691-10.067c3.256-.149 6.532-.512 9.77-1.026-.164-8.808-6.074-21.51-6.074-21.51l-16.148 7.08z" opacity=".28"/>
                <path fill="#494949" d="M50.292 111.284s.542-6.254 11.953-1.909c11.382 4.378 6.617 19.56 6.617 19.56l-18.57-17.651z" opacity=".28"/>
                <path fill="#F27F0C" d="M39.677 132.706s-.094 8.517 10.22 7.98c10.342-.568 19.382-7.076 19.444-15.622.094-8.517-5.155-17.138-15.063-13.97-9.818 3.134-14.6 21.612-14.6 21.612z"/>
                <path fill="#E27310" d="M43.191 126.105s-.067 5.984 7.172 5.586c7.24-.398 13.569-4.987 13.608-10.939.068-5.983-3.616-11.974-10.522-9.764-6.905 2.21-10.258 15.117-10.258 15.117z"/>
                <path fill="#FF8A08" d="M54.91 110.908c7.584-1.424 11.392 5.2 11.085 11.9-.311 7.217-8.475 12.944-17.617 13.721-5.985.482-7.898-2.403-8.552-4.503-.13.465-.21.683-.21.683s-.094 8.517 10.22 7.98c10.342-.568 19.382-7.075 19.444-15.622.16-8.399-4.865-16.818-14.37-14.16z"/>
                <path fill="#B76720" d="M46.076 133.177s1.087.398 4.97-.639 10.505-8.327 11.095-12.387c.591-4.06-1.746-7.5-1.746-7.5l-14.32 20.526z"/>
                <path fill="#FF8A08" d="M30.96 86.321c2.909-5.285 9.29-5.178 8.943-1.712-.316 3.435-2.008 4.992-.244 9.777 1.69 4.544 5.066 7.41 7.489 7.673 2.055.223 10.793 5.417 13.682 11.97 2.889 6.554-5.95 15.278-5.95 15.278-1.73 6.288-7.495 5.05-7.495 5.05s-3.855 5.886-5.352 6.457c-1.525.602-3.102.17-5.19-.722-2.12-.92-2.735-3.45-2.735-3.45-3.05 1.205-5.653-.207-7.281-1.674-1.63-1.466-.718-4.598-.718-4.598l-2.068.114c-1.034.057-4.803-3.336-4.906-5.405-.103-2.07 2.222-6.835 2.222-6.835l-2.663-1.41c-2.663-1.409-1.392-7.123.082-8.76 1.474-1.637 6.565-2.924 11.807-1.168 3.816 1.285 5.607.515 6.313-.012 0 0 1.09-1.402-.87-2.759-9.16-6.33-7.975-12.528-5.066-17.814z"/>
                <path fill="#F27F0C" d="M30.96 86.321c-2.909 5.286-4.094 11.484 5.038 17.846 1.99 1.386.87 2.76.87 2.76-.649.462-2.258 1.222-5.54.243.444.342.827.687 1.214 1.093 2.094 2.234 3.059 5.08 4.383 7.783 1.12 2.287 2.89 4.112 4.01 6.4.85 1.753 1.373 3.677 1.258 5.667l4.712-6.453s-7.799-4.697-6.455-11.391c1.344-6.695-5.615-9.241-6.783-13.082-1.167-3.842-2.407-9.143 3.876-10.984.871-.261 1.572-.27 2.129-.117.097-.493.166-.955.231-1.477.346-3.466-6.034-3.573-8.943 1.712z"/>
                <path fill="#E27310" d="M36.29 89.842c-.228.318-.3.718-.339 1.148.072-.401.175-.773.34-1.148zM41.477 97.825c.304 1.204.7 2.433 1.303 3.498 1.067 1.833 2.89 2.312 4.755 3.003 2.175.796 4.394 1.864 6.003 3.545 1.673 1.739 2.515 3.95 3.687 6.052.94 1.718 2.178 3.297 2.098 5.376a7.707 7.707 0 0 1-.625 2.75c.429.037.86.136 1.292.234 1.272-2.633 2.04-5.604.872-8.225-2.889-6.553-11.627-11.747-13.682-11.97-1.78-.207-3.99-1.733-5.703-4.263z"/>
                <path fill="#E27310" d="M30.96 86.321c-2.909 5.286-4.094 11.484 5.038 17.846 1.99 1.386.87 2.76.87 2.76-.706.526-2.498 1.296-6.314.01-.806-.26-1.609-.46-2.348-.602.683.847 1.25 1.823 1.788 2.83 1.63.887 3.177 1.931 4.727 3.036.147-.1.324-.232.564-.306 1.522-.663 3.14-1.881 3.356-3.663.223-2.24-1.363-4.074-2.632-5.682-2.572-3.246-4.927-7.052-5.018-11.318-.09-4.267 3.592-8.1 8.047-7.46.307.044.647.117.957.222-.508-2.84-6.293-2.644-9.035 2.327z"/>
                <g fill="#F27F0C">
                    <path d="M58.697 124.49c-.086.096-.141.221-.228.318.119-.068.174-.193.228-.318zM52.35 129.934c-1.423 2.672-3.514 1.719-3.514 1.719l-1.022 2.74c1.318.142 5.59.151 7.067-5.086 0 0 1.89-1.843 3.62-4.47-1.124 1.312-5.038 2.961-6.151 5.097z"/>
                    <path d="M51.706 104.768l-.055.125c2.851 1.521 5.146 4.11 6.95 7.246.168.326.337.652.445.982 1.044 1.987 1.46 4.222.516 6.684-1.342 3.674-10.49 1.888-10.49 1.888v1.22s9.096-.469 9.69 1.055c.07.179.051.393-.033.55 1.952-3.066 3.644-7.064 2.133-10.46-1.582-3.574-5.532-6.957-9.156-9.29z"/>
                </g>
                <path fill="#F27F0C" d="M24.64 111.9c8.807 1.072 7.619-1.974 10.927 1.993 2.272 2.743 1.17-2.84.258-6.452-1.022.3-2.664.391-5.271-.503-5.242-1.756-10.333-.47-11.807 1.168-.087.096-.173.192-.257.35.652 1.459 2.284 2.986 6.15 3.445z"/>
                <path fill="#FF8A08" d="M41.04 141.082a.596.596 0 0 0-.211.042c.029-.032.118-.068.211-.042zM39.17 140.91c-.124-.054-.245-.047-.37-.102.125.055.278.077.37.102zM41.524 140.994l-.183.01c.093.026.154.022.183-.01zM39.756 141.03c-.092-.025-.246-.047-.339-.072.093.025.247.047.34.072zM40.493 141.112c-.061.003-.154-.022-.215-.019a.594.594 0 0 1 .215.019zM47.567 134.346c-.092-.025-.153-.022-.153-.022s.032.03.153.022zM48.854 134.459l-.365.02c.09-.036.243-.014.365-.02zM48.425 134.421c-.122.007-.214-.018-.336-.012.093.026.214.019.336.012zM48.06 134.441c-.214-.018-.368-.04-.49-.034.122-.006.276.016.49.034zM22.887 129.967c-.064-.057-.189-.111-.253-.169a.835.835 0 0 0 .253.17zM49.37 134.4c-.122.007-.273.045-.426.023l.426-.023zM23.203 130.194c-.064-.057-.125-.054-.189-.112a.386.386 0 0 1 .189.112zM22.506 129.683c-.095-.086-.191-.172-.316-.226.096.086.192.172.316.226zM23.516 130.36c-.032-.029-.093-.025-.156-.083a.323.323 0 0 1 .156.083zM22.094 129.37l-.35-.316.35.316zM38.614 140.758c-.124-.055-.278-.077-.435-.16.157.083.31.105.435.16zM23.795 130.436c-.032-.029-.061.004-.093-.025.032.029.093.025.093.025zM34.14 136.671c-.032-.029-.003-.06-.003-.06s-.029.031.003.06zM21.711 129.025c-1.213-1.092-2.42-2.643-2.567-3.764.18 1.15 1.354 2.672 2.567 3.764zM26.437 134.501l-.2-.355c.035.09.101.208.2.355zM26.827 134.968c-.128-.115-.227-.262-.323-.348.096.086.195.233.323.348zM55.577 128.597l-.202.225c.058-.064.145-.16.202-.225zM54.91 129.275s-.03.032 0 0c-.03.032 0 0 0 0zM55.14 129.018l-.115.128.116-.128zM55.866 128.276l-.26.29.26-.29zM54.996 129.178l-.086.097.086-.097zM55.314 128.825l-.144.16.144-.16zM59.18 123.762l-.338.567.338-.567zM58.784 124.394a3.35 3.35 0 0 1-.37.539c.113-.19.258-.35.37-.54zM58.386 124.965c-.113.189-.258.35-.37.539.144-.16.257-.35.37-.54zM57.987 125.536zM54.88 129.307c-.074.34-.212.622-.319.933.107-.311.245-.594.32-.933zM52.097 133.426c-.148.1-.327.17-.504.302.18-.07.327-.17.504-.302zM51.504 133.764c-.18.07-.327.17-.478.21a1.6 1.6 0 0 0 .478-.21zM52.687 133.028zM50.936 134.009c-.18.07-.33.11-.48.148.182-.01.3-.078.48-.148zM54.535 130.333l-.328.75.328-.75zM54.12 131.18c-.142.22-.254.41-.396.631.145-.16.286-.382.396-.632zM49.853 134.312c-.15.039-.3.078-.454.056.153.022.304-.017.454-.056zM53.67 131.936c-.113.19-.286.382-.43.543.144-.161.288-.321.43-.543zM53.181 132.543c-.144.16-.289.32-.465.452.115-.128.292-.26.465-.452zM50.366 134.193c-.15.038-.301.077-.484.087.154.022.333-.049.484-.087zM18.122 116.378a1.184 1.184 0 0 0 0 0zM18.694 116.835a2.503 2.503 0 0 1-.473-.31c.16.144.316.227.473.31zM17.192 113.622c.02-.215-.021-.426-.002-.64-.02.214-.04.429.002.64zM17.765 115.94l-.2-.355c.098.147.133.236.2.355zM17.345 114.865zM17.225 114.291c-.009-.182-.05-.393-.06-.576.01.183.02.365.06.576zM17.526 115.434c-.067-.118-.105-.269-.143-.419.038.15.076.3.143.42zM29.438 106.572c.37.102.742.203 1.145.334-.371-.102-.774-.232-1.145-.334zM21.218 118.526c.03-.032.026-.093.055-.125-.029.032-.026.093-.055.125zM28.267 106.331c.339.073.739.143 1.078.216-.371-.102-.74-.143-1.078-.216zM41.628 133.3c.81-.899.63-2.048-.024-2.928.425.557.908 1.69.024 2.928zM21.138 118.744c.029-.032.055-.125.083-.157-.057.064-.086.097-.083.157zM21.302 118.37c.029-.033.026-.094.026-.094l-.026.093zM37.275 106.538s-.003-.061.026-.093c-.029.032-.029.032-.026.093z"/>
                <path fill="#F27F0C" d="M51.026 133.973c-.029.032-.06.003-.09.036.032.028.061-.004.09-.036zM53.756 131.84l-.086.096.086-.096zM52.187 133.39l-.058.065.058-.064zM37.3 106.445s.03-.032 0 0c.03-.032.03-.032 0 0zM51.593 133.728c-.029.032-.09.036-.09.036.061-.004.061-.004.09-.036zM53.24 132.479l-.059.064.058-.064zM55.17 128.986c-.03.032-.03.032 0 0-.03.032-.03.032 0 0zM54.207 131.083c-.03.032-.026.093-.055.125-.003-.06.026-.093.055-.125zM59.177 123.7l-.03.033.03-.032zM58.81 124.3l-.058.065c.061-.004.03-.032.058-.064zM55.606 128.565s-.029.032 0 0c-.029.032 0 0 0 0zM58.414 124.933l-.028.032.028-.032zM54.59 130.208c-.029.032-.026.092-.026.092s-.003-.06.026-.092zM55.025 129.146s-.029.032 0 0c-.029.032 0 0 0 0zM29.345 106.547c.032.029.06-.004.093.025-.061.004-.061.004-.093-.025zM55.343 128.793s-.029.032 0 0c-.029.032 0 0 0 0zM54.938 129.243c-.028.032-.028.032 0 0-.028.032-.028.032 0 0zM26.472 134.59c-.032-.028-.064-.057-.067-.117.064.057.064.057.067.118zM18.221 116.525l-.128-.115c.093.025.096.086.128.115zM26.237 134.146c-.032-.029-.032-.029-.035-.09-.03.033.003.061.035.09zM24.04 130.484c-.06.003-.12.006-.214-.019.061-.003.154.022.215.019zM23.702 130.41c-.061.004-.125-.053-.186-.05.093.025.125.054.186.05zM17.864 116.087c-.032-.029-.067-.118-.1-.147.065.057.068.118.1.147zM21.221 118.587c.03-.032.03-.032.026-.093-.029.032-.057.064-.026.093zM22.602 129.77l-.096-.087.096.087zM22.158 129.428l-.064-.058.064.058zM21.743 129.054s-.032-.029 0 0c-.032-.029 0 0 0 0zM21.273 118.401l.03-.032-.03.032zM38.8 140.808c-.061.004-.125-.054-.186-.05.061-.004.125.054.186.05zM23.392 130.306c-.032-.029-.125-.054-.157-.083.06-.003.093.025.157.083zM23.014 130.082c-.032-.028-.124-.054-.156-.082.06-.004.093.025.156.082zM17.166 113.715l-.003-.06s.032.028.003.06zM48.486 134.418l-.06.003c.031.029.031.029.06-.003zM48.121 134.438c-.032-.029-.06.003 0 0-.06.003-.032-.029 0 0zM48.944 134.423l-.061.004s.032.028.06-.004zM50.427 134.19c-.03.031-.061.003-.09.035.06-.004.09-.036.09-.036zM49.43 134.396l-.06.004.06-.004zM40.797 141.095c-.122.007-.215-.018-.336-.012.121-.006.214.019.336.012zM17.383 115.015c-.003-.06-.035-.09-.038-.15.003.06.006.121.038.15zM39.417 140.958c-.092-.026-.153-.023-.246-.048.093.025.154.022.246.048zM40.246 141.064a2.363 2.363 0 0 0-.49-.034c.154.022.34.073.49.034zM17.596 115.614c-.003-.061-.067-.119-.07-.18.003.061.006.122.07.18zM47.6 134.375l-.033-.029zM42.065 140.842c-.18.071-.33.11-.51.181.18-.07.33-.11.51-.18zM41.373 141.033c-.121.007-.211.042-.333.049.09-.036.212-.042.333-.049zM17.231 114.413l-.006-.122.006.122z"/>
                <path fill="#E27310" fill-rule="nonzero" d="M52.92 130.97c-1.885 3.186-3.103.171-2.663-1.409.44-1.58-3.154-.864-1.751-4.541.913-2.491 5.168-2.786 7.883-2.783l-1.834-.082c-2.324-.117-4.628-.447-6.716-1.34a9.285 9.285 0 0 1-1.835-.082 7.676 7.676 0 0 1-4.077-1.637c-.74-.142-1.4-.563-1.93-1.389-1.329-2.184-1.847-4.627-2.027-7.638-.037-.73-.03-1.829-.073-2.68-2.297.43-5.197.377-7.218-.397a3.153 3.153 0 0 1-.563-.274c-.217-.08-.464-.127-.681-.207-.032-.028-.061.004-.093-.025a6.832 6.832 0 0 0-1.078-.215c-2.86.157-6.159.674-6.361 2.119-.388 2.615 5.942 2.328 7.905 3.165 1.557.647 3.64 3.278 2.025 6.357-.18.071-.388.174-.657.28-5.04 2.322-8.808-1.071-10.928-1.992-1.464-.621-2.454-2.733-3.004-3.984-.02.214-.069.461-.057.705l-.029.032a4.72 4.72 0 0 0 .002.64l.003.061c.009.183.018.365.06.577l.005.121c.038.15.047.333.085.484.003.06.035.09.038.15.038.15.105.27.143.42.003.06.035.09.07.179l.2.355c.033.029.068.118.1.147.067.118.162.205.258.29l.128.116c.128.115.316.227.473.31l2.663 1.41s-.03.031-.026.092l-.029.032c-.029.032-.026.093-.055.125s-.029.032-.026.093c-.029.032-.026.093-.083.157 1.061.491 2.3.85 3.56 1.055 2.172.735 9.25 3.214 9.338 4.979-1.885 3.185-6.022 3.412-9.093 3.612-2.068.114-4.451-1.8-5.799-3.129.15 1.182 1.354 2.671 2.567 3.764l.032.029.351.316.064.058c.096.086.192.172.316.226l.096.087c.064.057.16.143.253.169.064.057.095.086.156.083.064.057.157.083.189.111.064.058.125.055.157.083.031.03.092.026.156.083.093.026.125.054.186.051.032.029.06-.003.092.026a.594.594 0 0 0 .215.018l2.068-.114c.657-.28 3.006-.897 5.412-1.578-.205.163-.292.26-.292.26s4.208 1.812 6.687.15c1.062-.729 2.46-.226 3.392.73-.026.092-.204 3.245-5.665 5.07-4.29 1.426-8.123-.804-9.704-1.937.047.333.126.695.263.992.032.029.032.029.035.09l.2.355c.032.029.035.09.067.118.099.147.227.262.323.349 1.628 1.466 4.26 2.847 7.281 1.674 0 0 .032.029.003.06.004.062.035.09.07.18 1.897-.5 3.967-1.194 5.628-2.14.417-.206.74-.437 1.033-.698 1.268-.252 3.91-.49 3.545 1.972-.525 3.537-3.992 4.369-6.24 4.553.125.054.31.105.435.16.061-.004.125.054.186.05.125.054.278.076.371.102.093.025.154.022.246.047.093.026.247.048.34.073.153.022.307.044.49.034.06-.003.153.022.214.019.121-.007.214.019.336.012a.596.596 0 0 0 .211-.042c.122-.007.244-.013.333-.049l.183-.01c.15-.039.362-.08.51-.18 1.525-.603 5.35-6.458 5.35-6.458s.062-.003.155.022c.092.026.275.016.49.034 0 0 .031.03.06-.003.093.025.215.019.336.012l.061-.003.365-.02.06-.004.427-.023.06-.003c.151-.04.273-.046.455-.056l.061-.003c.15-.04.301-.078.452-.117.029-.032.06-.003.09-.035.15-.039.33-.11.48-.149.03-.032.061-.003.09-.035.18-.071.298-.138.478-.21.029-.031.09-.035.09-.035.179-.07.326-.17.503-.302l.058-.064c.176-.132.324-.232.5-.363l.029-.033c.176-.131.321-.292.465-.452l.058-.064c.145-.161.29-.321.43-.543l.087-.096c.113-.19.255-.41.396-.632.029-.032.026-.093.055-.125.11-.25.25-.472.328-.75.03-.033.026-.093.026-.093.107-.311.245-.594.32-.933l.029-.032.086-.097.03-.032.115-.128.029-.032.144-.16.03-.033.202-.225.028-.032.26-.288a27.84 27.84 0 0 0 2.153-2.712l.029-.032c.113-.19.257-.35.37-.54l.029-.031a3.35 3.35 0 0 1 .37-.54l.057-.064.338-.567.029-.032c.112-.19.254-.411.363-.661-.967 1.395-1.854 2.573-2.259 3.023-.88 1.299-2.377 1.87-4.291 5.087zm-11.292 2.33c.884-1.239.4-2.371-.024-2.928.654.88.834 2.03.024 2.928z"/>
                <path fill="#B76720" d="M37.86 109.1c.173 1.027-.152 1.838-.383 2.095-.492.546-3.103.17-4.157-.778-1.054-.95-6.277-1.7-6.277-1.7l2.12.921-3.102.17s3.645.32 5.733 1.211c2.12.92 4.363 4.916 4.415 5.95.051 1.035.154 3.104-2.868 4.277-3.05 1.206-11.47-2.48-11.47-2.48s2.171 1.954 5.294 2.79c3.154.863 6.276 1.699 7.773 1.128 1.526-.602.983-1.091 1.526-.602.542.488 3.173 1.87 2.785 4.484-.388 2.615-4.496 2.81-6.073 2.378-1.577-.432-5.602.827-5.602.827s5.11-.281 5.653.208c.543.488 5.654.207 7.076-2.464 1.422-2.672 4.137-.228 4.157.778.051 1.035-2.765 6.346-6.902 6.573 0 0 3.154.864 6.074-2.378 2.919-3.242 2.376-3.73 3.462-2.753 1.085.978-.257 4.652-.257 4.652l.204.415c.2-.285.312-.474.312-.474s.246.047.582.06l-.066-.12s1.422-2.67.256-4.65c-1.138-2.013-2.663-1.41-2.663-1.41s-.646-2.558-2.191-2.961l.375-.418a4.07 4.07 0 0 1-.564-.915 9.518 9.518 0 0 1-2.106-3.698l-.003-.06c-.58-.64-2.294-5.03-2.394-7.039-.043-.852-.362-2.36-.54-4.089-.057.064-.118.068-.179.071z"/>
                <path fill="#B76720" d="M37.797 115.784s3.482 4.996 6.802 6.125c0 0-2.034 1.424-.428 4.264 0 0-3.176-.07-4.599-4.14-1.423-4.071-1.775-6.249-1.775-6.249z"/>
            </g>
            <path fill="#48515E" d="M142.895 213.144a5.777 5.777 0 0 1-5.27-3.438c-.95-2.192-2.202-4.641-3.585-7.22-5.874-11.344-13.951-26.857-3.369-40.823 2.635-3.438 6.523-6.36 11.576-8.595a5.722 5.722 0 0 1 7.56 2.88c1.295 2.879 0 6.23-2.895 7.52-3.24 1.418-5.701 3.18-7.127 5.027-5.788 7.65-1.857 16.717 4.406 28.749 1.425 2.793 2.808 5.415 3.93 7.993 1.253 2.88-.086 6.23-2.98 7.477-.734.301-1.512.43-2.246.43z"/>
            <path fill="#161616" fill-rule="nonzero" d="M146.955 163.468c2.894-1.29 4.19-4.641 2.894-7.52-1.295-2.88-4.665-4.169-7.559-2.88-5.053 2.235-8.94 5.114-11.575 8.595-10.583 13.923-2.549 29.479 3.369 40.824 1.339 2.578 2.634 5.027 3.585 7.22a5.732 5.732 0 0 0 5.27 3.437c.734 0 1.511-.129 2.245-.473 2.894-1.246 4.233-4.598 2.98-7.477-1.122-2.578-2.461-5.2-3.93-7.993-6.22-11.99-10.194-21.1-4.406-28.749 1.426-1.804 3.888-3.566 7.127-4.984zm-10.625 4.512c-2.505 3.05-2.808 7.477-2.246 11.259 1.295 8.465 4.837 17.103 9.632 24.193 1.857 2.75-2.635 5.329-4.45 2.578-2.763-4.125-4.88-8.68-6.694-13.278-1.728-4.426-3.11-9.024-3.672-13.708-.518-4.47.044-9.583 2.722-13.322 2.98-4.125 7.559-6.36 11.316-9.669 2.506-2.191 6.134 1.461 3.629 3.61-3.24 2.922-7.43 4.942-10.237 8.337z" opacity=".28"/>
            <g>
                <path fill="#ACE63A" d="M151.275 206.784s8.638 6.618 8.638 21.185c0 0-9.632 14.224-48.895 4.985 0 0-1.987-19.853 6.652-23.162 8.639-3.309 13.304 2.664 13.304 2.664s2.678-4.64 6.652-2.664a562.547 562.547 0 0 1 5.312 2.664s6.004-1.375 8.337-5.672z"/>
                <path fill="#494949" d="M149.633 232.524c-.648-.085-1.252-.472-1.598-1.289-.043-.086-.086-.215-.13-.3-8.465 1.289-17.622 1.976-24.836-3.395-6.047-4.512-6.997-12.634-2.98-18.436a13.6 13.6 0 0 0-2.376.731c-8.638 3.309-6.652 23.162-6.652 23.162 19.826 4.684 32.137 3.352 39.393.903-.389-.387-.691-.86-.82-1.376zM151.275 206.784a8.84 8.84 0 0 1-1.944 2.406c4.579 6.704 6.48 14.611 5.226 22.948 3.931-2.063 5.356-4.126 5.356-4.126.044-14.61-8.638-21.228-8.638-21.228z" opacity=".28"/>
                <path fill="#E1E5EA" d="M110.889 225.649c-.173 4.082.13 7.305.13 7.305 39.262 9.282 48.894-4.985 48.894-4.985 0-2.277-.215-4.383-.561-6.274-16.846 10.4-39.047 6.403-48.463 3.954z"/>
                <g fill="#494949" opacity=".1">
                    <path d="M115.813 226.766a133.755 133.755 0 0 1-4.924-1.117c-.173 4.082.13 7.305.13 7.305 1.813.43 3.584.817 5.269 1.16a83.905 83.905 0 0 1-.475-7.348zM149.72 226.036a52.792 52.792 0 0 1-4.967 1.289c.518 2.578 1.08 5.114 1.684 7.649a38.112 38.112 0 0 0 4.32-1.203 75.722 75.722 0 0 0-1.037-7.735zM159.352 221.695c-1.555.989-3.196 1.805-4.838 2.536.519 2.406.864 4.856 1.123 7.305 3.11-1.848 4.276-3.524 4.276-3.524a28.656 28.656 0 0 0-.561-6.317zM135.207 228.442c-3.456.129-6.825 0-9.935-.258.13 2.493.432 4.985.864 7.435 3.974.43 7.559.558 10.712.472-.605-2.578-1.123-5.114-1.641-7.649z"/>
                </g>
                <path d="M131.103 212.241a1.276 1.276 0 0 0-.388-.128c.172.214.259.3.259.3s.043-.043.13-.172z"/>
                <path fill="#494949" d="M137.971 220.707s.605-5.543-4.708-10.657c-1.123.73-1.9 1.805-2.16 2.234 1.296.43 5.227 2.407 6.868 8.423z" opacity=".28"/>
                <path fill="#ACE63A" d="M130.715 212.113l-.044-.043v.043c0-.043 0 0 .044 0z"/>
                <g>
                    <path fill="#E1E5EA" d="M140.563 208.76s7.99-4.812 10.237-2.836c2.246 1.977 2.548 7.821-.778 8.896-3.326 1.074-9.287-3.739-9.287-3.739l.044-.473s7.343 2.579 7.602-.859c.259-3.438-7.473-.129-7.473-.129l-.345-.86z"/>
                    <path fill="#494949" d="M148.38 209.749c.087-1.031-.56-1.461-1.554-1.547 1.425-.129 2.591.172 2.462 1.547-.13 1.504-1.555 1.848-3.153 1.762 1.21-.129 2.16-.559 2.246-1.762z" opacity=".1"/>
                    <path fill="#494949" d="M148.122 213.874c3.11-.988 3.066-6.145 1.209-8.422.605 0 1.123.172 1.469.472 2.246 1.977 2.548 7.821-.778 8.896-1.641.515-3.887-.387-5.788-1.418 1.382.515 2.765.816 3.888.472z" opacity=".1"/>
                    <path fill="#494949" d="M149.374 205.452c.562.043 1.08.172 1.426.472 1.987 1.72 2.462 6.446.259 8.294 1.728-3.137.648-6.575-1.685-8.766z" opacity=".1"/>
                    <path fill="#E1E5EA" d="M139.18 208.33s-7.17-5.37-9.286-2.663c-2.117 2.707-.346 5.672 1.598 6.016 1.9.344 6.781-.43 6.781-.43l.087-.387s-5.572.043-5.702-1.332c-.13-1.375 1.685-2.578 5.27-.73l1.253-.473z"/>
                    <path fill="#494949" d="M135.811 211.081c.087-.086.173-.215.26-.3 1.209.128 2.246.085 2.246.085l-.087.387s-1.468.215-3.066.387c.215-.13.431-.344.647-.559z" opacity=".2"/>
                    <path fill="#494949" d="M136.546 210.823c.993.086 1.77.086 1.77.086l-.086.387s-.777.129-1.814.258c.216-.258.26-.516.13-.73zM137.453 207.17a27.219 27.219 0 0 1 1.728 1.16l-1.21.474a4.37 4.37 0 0 0-.648-.301c.087-.43.13-.903.13-1.332z" opacity=".2"/>
                    <path fill="#494949" d="M130.844 206.57c-1.339 1.718-1.123 3.523-.259 4.726-1.469-.945-2.462-3.395-.691-5.672 2.116-2.708 9.287 2.664 9.287 2.664l-.26.086c-2.116-1.332-6.522-3.782-8.077-1.805z" opacity=".2"/>
                    <path fill="#E1E5EA" d="M139.094 210.866c3.024 2.622 3.283 6.962 3.283 6.962h4.492c-1.123-5.114-6.652-7.09-6.652-7.09l-1.123.128z"/>
                    <path fill="#494949" d="M139.44 210.823l.734-.086s5.529 1.977 6.652 7.09h-.95c-.994-4.554-5.486-6.617-6.436-7.004z" opacity=".2"/>
                    <path fill="#E1E5EA" d="M140.13 211.425s1.901.043 1.47-1.848c-.433-1.934-1.815-2.148-3.5-1.418-1.684.73-1.382 2.621-.734 3.008.735.344 2.765.258 2.765.258z"/>
                    <path fill="#494949" d="M137.885 208.288c-.346.773 1.382 1.633 1.814 1.89.69.388 1.296.345 1.296.345s.302 0 .648-.086c-.173 1.074-1.512 1.03-1.512 1.03s-2.074.087-2.721-.3c-.648-.387-.95-2.106.475-2.879z" opacity=".2"/>
                    <path fill="#494949" d="M137.885 208.288c-.346.773-.475 1.676-.043 1.89.69.388 3.196.302 3.196.302s.302 0 .648-.086c-.173 1.074-1.512 1.031-1.512 1.031s-2.073.086-2.721-.3c-.691-.345-.994-2.064.432-2.837z" opacity=".08"/>
                </g>
            </g>
            <path fill="#FFF" d="M83.763 72.194l.993-12.118-.302 11.602 3.283-7.348-2.246 7.649 9.286-6.489-8.768 7.348 9.891-1.547-9.761 2.45 5.356 2.149-5.4-1.633 4.018 7.692-4.45-7.478 1.08 12.334L84.627 74.6l-7.43 11.044 6.307-11.301-13.131-.344 12.57-.215-8.164-6.704 8.466 5.587-2.246-6.403zM144.105 91.703l.561-7.305-.173 7.005 1.987-4.427-1.339 4.599 5.572-3.911-5.27 4.426 5.961-.945-5.874 1.504 3.196 1.289-3.24-.988 2.463 4.64-2.721-4.511.648 7.434-1.253-7.391-4.492 6.703 3.8-6.832-7.947-.172 7.602-.172-4.924-4.04 5.14 3.352-1.382-3.824z"/>
            <g>
                <path fill="#ACE63A" d="M148.828 121.918s-10.192-5.023-2.93-18.746c7.261-13.722 22.367-6.875 25.13 3.54 2.762 10.416-5.244 12.029-5.244 12.029l-16.956 3.177z"/>
                <path fill="#E27310" d="M145.292 155.402c-.447-.13-3.014-.837-2.011-2.464.755-1.25 3.895-1.137 5.683-.955-2.77-.816-5.11-.984-6.016-.45-2.929 1.617-1.768 4.009-1.768 4.009s1.876-.789 4.112-.14z"/>
                <path fill="#48515E" d="M150.6 153.529s2.182-3.514 2.564-8.099c.415-4.612 3.918-12.6 10.768-11.56 0 0-20.962-8.72-17.54-20.903 3.422-12.183 21.291-.027 25.876 5.438 4.586 5.464 8.92 8.615 9.199 10.962.25 2.314-11.926 19.319-23.495 29.924l-7.373-5.762z"/>
                <g fill="#161616" opacity=".28">
                    <path d="M165.796 112.841c-7.118-4.854-16.995-8.627-19.404.126-.803 2.806-.244 5.422.95 7.785 1.21-5.278 5.277-12.056 18.454-7.91zM152.598 148.654c-.78 2.9-1.999 4.875-1.999 4.875l7.345 5.73a98.662 98.662 0 0 0 4.323-4.19c-2.442-3.111-6.627-5.21-9.669-6.415z"/>
                </g>
                <path fill="#E27310" d="M158.39 164.83c-2.35-4.816-8.173-6.717-8.173-6.717s6.516 4.742 6.352 6.562c-.164 1.82-2.597 3.02-3.703-.314-1.107-3.335-9.532-7.26-11.435-6.505-1.015.403-1.937-.226-2.55-.89-.613.683-.927 1.451-1.125 1.954l.028.033s4.64-1.93 11.156 2.812c2.871 2.078 3.768 5.365 3.837 8.336 3.024-.294 5.444-3.39 5.444-3.39 4.335 3.15 5.192-.935 5.192-.935-.006-.612-.106-1.201-.233-1.824-.666 2.634-3.324 3.968-4.79.878z"/>
                <path fill="#B76720" d="M148.945 161.704c-6.516-4.742-11.156-2.812-11.156-2.812l-.027-.033a4.493 4.493 0 0 1-.165.475s8.92 8.615 12.955 10.334c.768.31 1.524.404 2.23.372-.068-2.971-.965-6.257-3.837-8.336z"/>
                <path fill="#FF8A08" d="M148.937 151.95c-1.822-.154-4.929-.296-5.684.955-1.003 1.627 1.592 2.367 2.011 2.464l.06.005s-.027-.033-.06-.005c-2.208-.616-4.111.14-4.111.14-1.032.249-1.788.826-2.333 1.453.64.696 1.535 1.292 2.55.889 1.903-.756 10.356 3.203 11.435 6.505 1.107 3.334 3.506 2.162 3.703.314.164-1.82-6.352-6.562-6.352-6.562s5.857 1.873 8.174 6.717c1.498 3.062 4.124 1.756 4.762-.91-1.363-6.262-8.64-10.365-14.155-11.964z"/>
                <path fill="#494949" d="M122.2 186.277c-4.174-3.228-3.986-8.38-3.786-13.651.06-1.34.224-2.488.66-3.246 1.685-3.098 3.256-5.258 3.256-5.258s-10.388-8.28-3.095-11.82c4.126-2.003 12.956 10.334 12.956 10.334l5.743-2.295-.912 5.029 3.543 12.285 6.806 1.862c.745.217 1.38.637 1.878 1.23 1.127 1.41 1.007 3.418-.272 4.716l-5.255 5.363a4.875 4.875 0 0 1-4.138 1.452 43.342 43.342 0 0 1-15.28-4.905l-2.103-1.096z" opacity=".28"/>
                <path fill="#FF8A08" d="M120.833 181.086c-1.067-1.742-.817-6.551-.952-9.803-.196-3.258 5.771-7.368 5.771-7.368s-6.603-3.77-7.595-8.043c-1.024-4.245 3.808-6.617 5.69-6.458 1.821.155 1.853 5.233 3.538 7.241 1.685 2.008 4.335 3.15 8.093 2.522 3.758-.63 5.11-.025 5.11-.025 7.22 2.02 11.145 9.72 11.145 9.72s1.19 2.425-.911 5.03c-2.1 2.603-7.43 5.391-7.43 5.391.415.494-.66 2.237-.66 2.237 2.019-1.693 4.75-1.461 5.94.963 1.188 2.425-4.78 6.535-4.78 6.535s-1.074 1.743-4.336 1.955c-3.261.212-4.417-2.24-4.417-2.24-5.246 1.878-6.227-2.852-6.227-2.852s-3.382 1.547-4.82-3.192c-.095.023-1.927.326-3.159-1.613z"/>
                <g fill="#F27F0C">
                    <path d="M125.127 169.405c3.174.758 4.4 1.413 5.306 1.887.933.507 3.283.218 4.112 1.205.829.988-1.738-6.17-6.02-5.158-4.254 1.045-2.928-3.49-2.928-3.49s-5.907 4.116-5.771 7.368c0 .336.028.705.028 1.042 1.29-1.42 3.264-3.3 5.273-2.854zM121.918 153.417c2.236.649 2.567 7.158 7.677 7.134 1.53.007 2.649-.54 3.443-1.206-2.594-.068-4.548-1.12-5.874-2.7-1.685-2.008-1.656-7.081-3.538-7.24-1.822-.156-6.682 2.183-5.69 6.456.017.155.094.314.11.468.612-1.018 2.084-3.43 3.872-2.912zM145.916 162.059c6.135 11.007-8.912 14.377-8.912 14.377l6.388 2.774c.9-.474 5.373-2.937 7.269-5.314 2.1-2.604.912-5.028.912-5.028s-1.98-3.837-5.657-6.81zM145.314 181.3c2.678 1.175-1.904 5.86-5.275 6.95-3.344 1.123-6.295-4.478-6.295-4.478l.545 5.152c.188-.045.408-.118.629-.191 0 0 1.189 2.424 4.417 2.24 3.261-.212 4.336-1.956 4.336-1.956s5.907-4.115 4.779-6.534c-.802-1.627-2.364-2.28-3.892-1.951.005.276.226.539.756.767z"/>
                </g>
                <path fill="#F27F0C" d="M128.14 182.134c-2.678 3.931-4.197-3.994-4.197-3.994-1.868 3.418-3.261.548-3.93-1.526.078 1.84.262 3.538.825 4.411 1.2 1.967 3.092 1.67 3.092 1.67 1.44 4.738 4.821 3.19 4.821 3.19s.959 4.638 6.134 2.876c-1.095-2.448-.898-4.296-.898-4.296-3.594 4.25-5.846-2.33-5.846-2.33z"/>
                <g fill="#E27310">
                    <path d="M135.9 188.358c-1.521-3.829-1.92-6.186-1.92-6.186l-.954 1.08s.235 3.506-1.2 3.812c-1.407.34-3.424-3.073-3.593-6.298 0 0-1.326 4.535-2.182 3.515-.829-.988-2.294-3.742-2.141-6.113 0 0-.787 2.623-2.112 2.052-1.148-.495-2.7-8.392.21-13.19-1.22 1.303-2.277 2.864-2.188 4.247.196 3.258-.114 8.062.952 9.804 1.2 1.967 3.092 1.669 3.092 1.669 1.44 4.738 4.82 3.191 4.82 3.191s.954 4.698 6.228 2.853c0 0 1.19 2.424 4.417 2.24 1.998-.106 3.162-.802 3.79-1.33-2.72.992-6.345.837-7.22-1.346zM140.367 159.142s-1.325-.572-5.11.024c-3.758.629-6.436-.546-8.093-2.521-1.658-1.975-1.656-7.081-3.538-7.24-1.761-.15-6.301 2.032-5.74 5.993.887-1.698 3.091-5.118 4.997-2.847 2.514 2.996 4.782 8.722 9.002 7.705 4.255-1.045 15.77 2.867 16.32 7.959.524 5.058-6.872 10.423-11.736 7.717 0 0 .748 3.916 4.032 4.806 0 0 .362 2.782-.885 3.716 0 0 5.604-3.132 6.601 1.08.111.468.1.926-.06 1.34 1.44-1.376 2.79-3.126 2.172-4.401-1.19-2.425-3.921-2.657-5.94-.963 0 0 1.075-1.743.66-2.237 0 0 5.33-2.789 7.43-5.392 2.1-2.604.912-5.029.912-5.029s-3.77-7.719-11.024-9.71z"/>
                </g>
                <path fill="#B76720" d="M123.235 169.702s3.261-.212 4.532 1.302c0 0 2.732.232 4.117.809 1.325.57 3.01 2.579 3.01 2.579s.993-.833 2.236.648c0 0-.332-1.404-1.685-2.008 0 0-2.1-2.502-3.424-3.073-1.325-.57-3.262.212-3.262.212s-3.539-2.134-5.524-.469z"/>
                <g fill="#B76720">
                    <path d="M129.009 177.591s-2.867 3.976-1.102 8.498c.496-.08.816-.236.816-.236l.044-.486c-.005.06-1.002-4.151.242-7.776zM118.34 156.813c1.437 3.393 5.949 6.283 7.02 6.955l5.135-2.682s-6.222 2.865-12.155-4.273zM124.973 175.873s-1.863 3.022-2.047 6.766c.568.14.971.083.971.083s.029-5.073 1.076-6.849zM133.941 189.047c.315-.095.657-.158 1.005-.281 0 0-1.521-3.829-1.024-9.351 0 0-2.005 3.927.02 9.632zM139.447 179.884s1.685 2.008 2.18 1.592c0 0-1.189 2.68-2.596 3.02 0 0 1.74 1.065 2.847-.706.893-1.422 4.876-3.194 6.572-1.307-1.161-2.392-3.92-2.657-5.94-.963 0 0 1.076-1.743.661-2.237.033-.028-1.985 1.666-3.724.601z"/>
                </g>
                <path d="M153.69 160.976c-.646-.972-1.281-1.73-1.281-1.73s.182.016.447.13c-1.513-.862-2.672-1.235-2.672-1.235s1.839 1.318 3.507 2.835z"/>
                <path fill="#F27F0C" d="M155.173 164.557c-.579 1.326-2.1-2.502-7.345-5.73-4.29-2.626-7.364-1.787-8.351-1.35.574.415 1.226.654 1.954.38 1.903-.757 10.356 3.202 11.435 6.504 1.106 3.335 3.506 2.162 3.703.314.077-.85-1.315-2.374-2.845-3.727.834 1.263 1.763 2.84 1.449 3.609zM158.069 162.968c-1.26-2.308-4.11-3.284-5.213-3.592 1.833 1.043 4.213 2.804 5.501 5.482 1.499 3.062 4.124 1.756 4.762-.91a9.445 9.445 0 0 0-.99-2.592c.455 2.76-2.982 3.569-4.06 1.612z"/>
                <path fill="#9AC121" d="M146.185 110.167s7.758-14.139 15.715-9.764c7.956 4.375 7.097 13.566 7.097 13.566s-5.61-9.71-10.687-9.712c-5.077-.003-12.125 5.91-12.125 5.91z"/>
            </g>
        </g>
    </g>
</svg>
