<svg xmlns="http://www.w3.org/2000/svg" xmlns:xlink="http://www.w3.org/1999/xlink" width="181" height="59" viewBox="0 0 181 59">
    <defs>
        <linearGradient id="a" x1="0%" y1="50%" y2="50%">
            <stop offset="0%" stop-color="#B8440D"/>
            <stop offset="100%" stop-color="#B77922"/>
        </linearGradient>
        <linearGradient id="b" x1="0%" y1="50%" y2="50%">
            <stop offset="0%" stop-color="#FF5404"/>
            <stop offset="100%" stop-color="#FFA424"/>
        </linearGradient>
        <path id="d" d="M11.302 1.184c.83.671 1.085 1.695.83 3.007-.255 1.375-.958 2.43-2.107 3.135-1.15.703-2.65 1.055-4.502 1.023L4.15 8.317l-.862 4.575-3.16-.064L2.586 0l4.789.096c1.788.032 3.097.416 3.927 1.088zM7.886 5.662c.542-.32.894-.8.99-1.44.127-.64 0-1.119-.352-1.439-.35-.32-.958-.48-1.82-.48l-1.436-.032-.734 3.807 1.053.032c.99.032 1.756-.096 2.299-.448z"/>
        <filter id="c" width="124.8%" height="123.3%" x="-12.4%" y="-11.6%" filterUnits="objectBoundingBox">
            <feOffset in="SourceAlpha" result="shadowOffsetOuter1"/>
            <feGaussianBlur in="shadowOffsetOuter1" result="shadowBlurOuter1" stdDeviation=".5"/>
            <feColorMatrix in="shadowBlurOuter1" values="0 0 0 0 0 0 0 0 0 0 0 0 0 0 0 0 0 0 0.5 0"/>
        </filter>
        <path id="f" d="M64.012 1.088l-.415 2.239-5.46-.096-.542 2.815 5.076.096-.415 2.24-5.076-.097-.639 3.295 5.46.096-.447 2.271-8.62-.16L55.392.96z"/>
        <filter id="e" width="127.1%" height="123.1%" x="-13.5%" y="-11.5%" filterUnits="objectBoundingBox">
            <feOffset in="SourceAlpha" result="shadowOffsetOuter1"/>
            <feGaussianBlur in="shadowOffsetOuter1" result="shadowBlurOuter1" stdDeviation=".5"/>
            <feColorMatrix in="shadowBlurOuter1" values="0 0 0 0 0 0 0 0 0 0 0 0 0 0 0 0 0 0 0.5 0"/>
        </filter>
        <path id="h" d="M95.46 8.925c1.691 2.911 2.809 4.83 3.32 5.662l-3.512-.064-2.618-4.99-1.692-.032L90 14.427l-3.16-.064 2.457-12.828 4.374.064c2.044.032 3.48.384 4.342 1.024.862.64 1.15 1.632.894 2.911-.16.768-.51 1.408-1.117 2.015-.607.608-1.405 1.056-2.33 1.376zm-.767-2.015c.543-.288.862-.736.99-1.344.127-.608-.032-1.056-.48-1.311-.446-.256-1.18-.416-2.202-.416l-.958-.032-.67 3.455 1.021.032c.99.032 1.756-.096 2.299-.384z"/>
        <filter id="g" width="124.7%" height="123%" x="-12.3%" y="-11.5%" filterUnits="objectBoundingBox">
            <feOffset in="SourceAlpha" result="shadowOffsetOuter1"/>
            <feGaussianBlur in="shadowOffsetOuter1" result="shadowBlurOuter1" stdDeviation=".5"/>
            <feColorMatrix in="shadowBlurOuter1" values="0 0 0 0 0 0 0 0 0 0 0 0 0 0 0 0 0 0 0.5 0"/>
        </filter>
        <path id="j" d="M136.548 9.629c1.692 2.91 2.81 4.83 3.32 5.662l-3.512-.064-2.617-4.99-1.693-.032-.957 4.926-3.161-.064 2.458-12.828 4.374.064c2.043.032 3.48.384 4.342 1.024.862.64 1.15 1.631.894 2.91-.16.769-.51 1.408-1.117 2.016-.607.608-1.373 1.056-2.331 1.376zm-.734-1.984c.542-.287.862-.735.99-1.343.127-.608-.032-1.056-.48-1.312-.446-.256-1.18-.416-2.202-.416l-.958-.032-.67 3.455 1.021.032c.99.032 1.756-.128 2.299-.384z"/>
        <filter id="i" width="124.7%" height="123%" x="-12.3%" y="-11.5%" filterUnits="objectBoundingBox">
            <feOffset in="SourceAlpha" result="shadowOffsetOuter1"/>
            <feGaussianBlur in="shadowOffsetOuter1" result="shadowBlurOuter1" stdDeviation=".5"/>
            <feColorMatrix in="shadowBlurOuter1" values="0 0 0 0 0 0 0 0 0 0 0 0 0 0 0 0 0 0 0.5 0"/>
        </filter>
        <path id="l" d="M18.9.32l-2.043 10.588 6.066.096-.415 2.24-9.259-.16L15.74.256z"/>
        <filter id="k" width="131%" height="123.1%" x="-15.5%" y="-11.5%" filterUnits="objectBoundingBox">
            <feOffset in="SourceAlpha" result="shadowOffsetOuter1"/>
            <feGaussianBlur in="shadowOffsetOuter1" result="shadowBlurOuter1" stdDeviation=".5"/>
            <feColorMatrix in="shadowBlurOuter1" values="0 0 0 0 0 0 0 0 0 0 0 0 0 0 0 0 0 0 0.5 0"/>
        </filter>
        <path id="n" d="M34.863.544l2.842 12.987-3.416-.064-.511-3.07-5.46-.096-1.66 3.039-3.416-.064L31 .48l3.863.064zm-5.3 7.485l3.896.064c-.48-2.783-.735-4.35-.799-4.734a5.04 5.04 0 0 1-.095-.864c-.383.736-1.373 2.591-3.001 5.534z"/>
        <filter id="m" width="120.7%" height="123%" x="-10.4%" y="-11.5%" filterUnits="objectBoundingBox">
            <feOffset in="SourceAlpha" result="shadowOffsetOuter1"/>
            <feGaussianBlur in="shadowOffsetOuter1" result="shadowBlurOuter1" stdDeviation=".5"/>
            <feColorMatrix in="shadowBlurOuter1" values="0 0 0 0 0 0 0 0 0 0 0 0 0 0 0 0 0 0 0.5 0"/>
        </filter>
        <path id="p" d="M48.432.64c1.469.032 2.841.352 4.214.991L51.21 3.84a32.164 32.164 0 0 0-1.564-.64 4.856 4.856 0 0 0-1.628-.288c-1.181-.032-2.203.352-3.001 1.12-.798.767-1.341 1.823-1.596 3.199-.543 2.847.415 4.318 2.937 4.35 1.053.032 2.362-.192 3.959-.608l-.447 2.272c-1.31.415-2.714.607-4.247.575-2.17-.032-3.735-.64-4.66-1.791-.927-1.152-1.214-2.783-.799-4.894.255-1.344.766-2.496 1.533-3.487a7.398 7.398 0 0 1 2.873-2.271c1.15-.512 2.426-.768 3.863-.736z"/>
        <filter id="o" width="123.7%" height="122.8%" x="-11.8%" y="-11.4%" filterUnits="objectBoundingBox">
            <feOffset in="SourceAlpha" result="shadowOffsetOuter1"/>
            <feGaussianBlur in="shadowOffsetOuter1" result="shadowBlurOuter1" stdDeviation=".5"/>
            <feColorMatrix in="shadowBlurOuter1" values="0 0 0 0 0 0 0 0 0 0 0 0 0 0 0 0 0 0 0.5 0"/>
        </filter>
        <path id="r" d="M84.061 2.943c.99 1.152 1.31 2.815.894 4.926-.415 2.112-1.34 3.743-2.777 4.863-1.437 1.12-3.32 1.663-5.62 1.631-2.298-.032-3.958-.64-4.948-1.791-.99-1.152-1.309-2.815-.894-4.959.415-2.143 1.341-3.742 2.778-4.862s3.32-1.631 5.619-1.6c2.299.033 3.959.64 4.948 1.792zm-7.055 9.149c2.522.032 4.086-1.376 4.63-4.255.542-2.879-.416-4.35-2.938-4.414-1.277-.032-2.299.32-3.065 1.055-.766.704-1.309 1.792-1.596 3.231-.288 1.44-.16 2.528.319 3.263.479.704 1.373 1.088 2.65 1.12z"/>
        <filter id="q" width="120.6%" height="122.7%" x="-10.3%" y="-11.4%" filterUnits="objectBoundingBox">
            <feOffset in="SourceAlpha" result="shadowOffsetOuter1"/>
            <feGaussianBlur in="shadowOffsetOuter1" result="shadowBlurOuter1" stdDeviation=".5"/>
            <feColorMatrix in="shadowBlurOuter1" values="0 0 0 0 0 0 0 0 0 0 0 0 0 0 0 0 0 0 0.5 0"/>
        </filter>
        <path id="t" d="M113.21 3.615c1.15 1.12 1.5 2.687 1.15 4.67-.416 2.112-1.405 3.711-3.034 4.83-1.628 1.088-3.767 1.632-6.417 1.568l-4.246-.064 2.458-12.828 4.694.096c2.458.032 4.246.608 5.395 1.728zm-7.598 8.829c3.065.064 4.852-1.312 5.395-4.159.543-2.75-.638-4.158-3.48-4.222l-1.692-.032-1.596 8.349 1.373.064z"/>
        <filter id="s" width="121.7%" height="123.3%" x="-10.8%" y="-11.6%" filterUnits="objectBoundingBox">
            <feOffset in="SourceAlpha" result="shadowOffsetOuter1"/>
            <feGaussianBlur in="shadowOffsetOuter1" result="shadowBlurOuter1" stdDeviation=".5"/>
            <feColorMatrix in="shadowBlurOuter1" values="0 0 0 0 0 0 0 0 0 0 0 0 0 0 0 0 0 0 0.5 0"/>
        </filter>
        <path id="v" d="M127.258 2.207l-.416 2.24-5.459-.096-.543 2.815 5.077.064-.415 2.239-5.077-.096-.638 3.327 5.46.096-.448 2.239-8.62-.16 2.458-12.828z"/>
        <filter id="u" width="127.1%" height="123.1%" x="-13.5%" y="-11.5%" filterUnits="objectBoundingBox">
            <feOffset in="SourceAlpha" result="shadowOffsetOuter1"/>
            <feGaussianBlur in="shadowOffsetOuter1" result="shadowBlurOuter1" stdDeviation=".5"/>
            <feColorMatrix in="shadowBlurOuter1" values="0 0 0 0 0 0 0 0 0 0 0 0 0 0 0 0 0 0 0.5 0"/>
        </filter>
    </defs>
    <g fill="none" fill-rule="evenodd">
        <path fill="url(#a)" d="M180.542 19.59l.031.086c0 .767-.064 1.576-.224 2.375l-4.628 24.046-1.979-5.407 4.622-24.017-.007-.018c.16-.8.235-1.622.235-2.39l.003.007a11.426 11.426 0 0 0-.143-1.725l-.049-.135a6.506 6.506 0 0 0-.383-1.504l1.948 5.407c.147.441.266.91.36 1.382l.055.153c.09.571.151 1.142.159 1.74zM15.803 57.1c-6.385-.095-11.27-3.39-12.962-8.06L.894 43.633c1.692 4.67 6.577 7.966 12.962 8.062l141.21 2.463c.702.032 1.372 0 2.042-.064.83-.064 1.629-.192 2.427-.352l1.947 5.406c-.798.16-1.596.288-2.426.352a14.54 14.54 0 0 1-2.043.064l-141.21-2.463zm145.68 2.016l-1.948-5.406a13.41 13.41 0 0 0 1.947-.512 11.17 11.17 0 0 0 1.724-.64c.575-.224 1.086-.48 1.629-.767l.01.026c.538-.318 1.046-.604 1.554-.922l1.947 5.406c-.51.32-1.021.64-1.564.928l-.01-.027c-.508.286-1.047.54-1.618.763a37.59 37.59 0 0 1-1.724.64c-.639.191-1.277.383-1.948.511zm8.14-10.876a16.625 16.625 0 0 0 2.044-2.495c.919-1.398 1.586-2.89 1.97-4.445l-.023-.066c.064-.16.096-.352.128-.544l1.947 5.407c-.03.181-.06.335-.118.514l.023.061a14.03 14.03 0 0 1-1.98 4.479c-.574.896-1.277 1.727-2.043 2.495a25.13 25.13 0 0 1-1.66 1.503c-.511.416-1.022.768-1.565 1.12l-1.947-5.406c.543-.352 1.085-.704 1.564-1.12.607-.48 1.15-.96 1.66-1.503z" transform="rotate(-1.3 76.424 33.957)"/>
        <path fill="url(#b)" d="M164.994 2.623c8.844.16 14.846 6.43 13.377 14.011l-4.629 24.056c-1.469 7.582-9.833 13.628-18.677 13.468l-141.21-2.463C5.013 51.535-.99 45.265.48 37.65l4.63-24.056C6.576 6.014 14.94-.032 23.784.128l141.21 2.495z" transform="rotate(-1.3 76.424 33.957)"/>
        <g fill-rule="nonzero" transform="rotate(-1.3 927.318 -777.813)">
            <use fill="#000" filter="url(#c)" xlink:href="#d"/>
            <use fill="#FFF" xlink:href="#d"/>
        </g>
        <g transform="rotate(-1.3 927.318 -777.813)">
            <use fill="#000" filter="url(#e)" xlink:href="#f"/>
            <use fill="#FFF" xlink:href="#f"/>
        </g>
        <g fill-rule="nonzero" transform="rotate(-1.3 927.318 -777.813)">
            <use fill="#000" filter="url(#g)" xlink:href="#h"/>
            <use fill="#FFF" xlink:href="#h"/>
        </g>
        <g fill-rule="nonzero" transform="rotate(-1.3 927.318 -777.813)">
            <use fill="#000" filter="url(#i)" xlink:href="#j"/>
            <use fill="#FFF" xlink:href="#j"/>
        </g>
        <g transform="rotate(-1.3 927.318 -777.813)">
            <use fill="#000" filter="url(#k)" xlink:href="#l"/>
            <use fill="#FFF" xlink:href="#l"/>
        </g>
        <g fill-rule="nonzero" transform="rotate(-1.3 927.318 -777.813)">
            <use fill="#000" filter="url(#m)" xlink:href="#n"/>
            <use fill="#FFF" xlink:href="#n"/>
        </g>
        <g transform="rotate(-1.3 927.318 -777.813)">
            <use fill="#000" filter="url(#o)" xlink:href="#p"/>
            <use fill="#FFF" xlink:href="#p"/>
        </g>
        <g fill-rule="nonzero" transform="rotate(-1.3 927.318 -777.813)">
            <use fill="#000" filter="url(#q)" xlink:href="#r"/>
            <use fill="#FFF" xlink:href="#r"/>
        </g>
        <g fill-rule="nonzero" transform="rotate(-1.3 927.318 -777.813)">
            <use fill="#000" filter="url(#s)" xlink:href="#t"/>
            <use fill="#FFF" xlink:href="#t"/>
        </g>
        <g transform="rotate(-1.3 927.318 -777.813)">
            <use fill="#000" filter="url(#u)" xlink:href="#v"/>
            <use fill="#FFF" xlink:href="#v"/>
        </g>
    </g>
</svg>
