<svg xmlns="http://www.w3.org/2000/svg" width="242" height="180" viewBox="0 0 242 180">
    <defs>
        <linearGradient id="a" x1="100.766%" x2=".876%" y1="52.504%" y2="52.504%">
            <stop offset="0%" stop-color="#FF8604"/>
            <stop offset="100%" stop-color="#FFA424"/>
        </linearGradient>
        <linearGradient id="b" x1="100.089%" x2=".06%" y1="50.042%" y2="50.042%">
            <stop offset="0%" stop-color="#FF8604"/>
            <stop offset="100%" stop-color="#FFA424"/>
        </linearGradient>
        <linearGradient id="c" x1="101.455%" x2="1.457%" y1="50.445%" y2="50.445%">
            <stop offset="0%" stop-color="#FF8604"/>
            <stop offset="100%" stop-color="#FFA424"/>
        </linearGradient>
        <linearGradient id="d" x1="99.834%" x2=".031%" y1="49.704%" y2="49.704%">
            <stop offset="0%" stop-color="#6A0500"/>
            <stop offset="100%" stop-color="#FFA424"/>
        </linearGradient>
        <linearGradient id="e" x1="100.1%" x2=".296%" y1="50.041%" y2="50.041%">
            <stop offset="0%" stop-color="#6A0500"/>
            <stop offset="100%" stop-color="#FFA424"/>
        </linearGradient>
    </defs>
    <g fill="none" fill-rule="evenodd" transform="matrix(-1 0 0 1 242 0)">
        <path fill="#A9DB2E" d="M170.88 91.841s5.793-15.13 20.189-23.224c14.396-8.093 13.693-38.707-9.48-46.097 0 0-11.236 21.817-38.624 11.964 0 0 24.93 38.356 14.747 50.32-10.182 11.963 13.167 7.037 13.167 7.037z"/>
        <path fill="#494949" d="M160.135 77.45c.21-.423.421-.88.632-1.338 2.528-5.454 5.864-10.31 8.848-15.518 2.599-4.504 4.424-8.832 3.828-13.934-.492-4.329-1.967-8.833-3.898-12.703-6.18 3.167-14.922 4.715-26.58.527 0 0 17.662 27.2 17.17 42.965z" opacity=".09"/>
        <path fill="#ACE63A" d="M181.589 22.52v.106a37.201 37.201 0 0 1 4.178 4.962c3.616 5.137 6.706 7.846 8.427 13.934 3.827 13.301-6.39 24.42-10.534 29.206-7.584 8.797-15.168 10.486-17.802 21.887 2.774-.281 4.986-.774 4.986-.774s5.794-15.13 20.19-23.224c14.396-8.093 13.728-38.707-9.445-46.097z"/>
        <path fill="#494949" d="M185.556 82.446c0 .176.035.352.07.528.036.316.14.668.211.985-.105-.528-.175-1.02-.28-1.513z"/>
        <path fill="#494949" d="M171.511 86.493c-2.071-6.405-.667-12.95.106-19.424.526-4.61.526-9.22.562-13.83-6.18.986-14.08.106-23.63-5.031l6.32 35.892s6.776 13.3 21.98 10.345c-2.529-1.795-4.32-4.786-5.338-7.952z" opacity=".09"/>
        <path fill="#ACE63A" d="M131.73 149.902s-3.16 3.167 1.053 5.982c0 0-2.107 1.407-.702 3.167 1.404 1.759 2.458 1.055 2.458 1.055s-5.267 5.278 0 10.205c5.266 4.926 13.342-.352 14.395-5.63 1.054-5.279-1.755-8.446-2.106-12.316-.351-3.87-2.458-10.205-7.023-10.205-4.564 0-9.129 2.112-8.075 7.742z"/>
        <path fill="#494949" d="M146.828 152.365c-.351-3.87-2.458-10.205-7.023-10.205-1.018 0-2.036.106-2.984.317 1.018-.07 2.071.176 3.16.915 5.267 3.519.702 9.852.702 9.852s2.458.352 3.511 2.816c1.054 2.463-1.755 3.518-1.755 3.518 2.458.352 5.618 9.853-3.16 9.15-4.565-.353-6.39-2.077-7.058-3.625-.105 1.619.421 3.413 2.318 5.208 5.266 4.926 13.342-.352 14.395-5.63 1.054-5.279-1.755-8.446-2.106-12.316z" opacity=".28"/>
        <path fill="#E1E5EA" d="M146.828 152.365c-.316-3.449-2.037-8.868-5.618-9.994 1.123 1.478 2.703 3.977 3.335 7.003 1.054 4.926.352 4.926 1.756 9.852 1.3 4.61 1.405 12.915-9.55 12.527 5.056 2.077 11.27-2.498 12.183-7.072 1.054-5.279-1.755-8.446-2.106-12.316z"/>
        <g fill="#FFF" opacity=".59">
            <path d="M144.335 144.94c-.808-1.196-1.861-2.146-3.16-2.533a17.98 17.98 0 0 1 1.826 2.885 6.236 6.236 0 0 1 1.334-.352zM149.005 164.118c.14-.81.175-1.584.14-2.288a28.733 28.733 0 0 0-2.528-1.302c.14.704.246 1.478.28 2.252.703.458 1.405.88 2.108 1.338zM146.196 169.29a9.287 9.287 0 0 0 1.229-1.407c-.387-.247-.808-.493-1.23-.774a5.999 5.999 0 0 1-.666 1.231c.21.352.42.669.667.95zM142.369 170.909c-1.44.598-3.266.915-5.618.844 1.966.81 4.108.599 6.039-.21l-.421-.634zM145.458 155.743c.843.246 1.686.563 2.458.915-.491-1.443-.983-2.815-1.123-4.293a20.197 20.197 0 0 0-.738-3.695c-.562.106-1.088.211-1.615.352.035.105.07.246.07.352.738 3.378.632 4.433.948 6.369z"/>
        </g>
        <g fill="#C4C8CC">
            <path d="M143.808 144.201c-.737-.844-1.58-1.513-2.598-1.83.386.493.807 1.126 1.264 1.865.421 0 .878 0 1.334-.035zM146.863 162.393c.772.247 1.545.599 2.247.986.14-1.513-.035-2.85-.351-4.082-.878-.246-1.79-.493-2.669-.74.07.212.14.458.211.705.246.915.456 1.97.562 3.131zM144.686 170.522c1.299-.88 2.423-2.041 3.195-3.308a11.113 11.113 0 0 0-1.44-.739 7.205 7.205 0 0 1-2.141 3.308c.14.246.245.493.386.739zM140.648 171.472c-1.124.246-2.388.352-3.897.281 1.369.563 2.844.634 4.248.352-.14-.21-.246-.422-.351-.633zM145.248 154.019c.667.21 1.334.422 2.036.598-.21-.74-.386-1.478-.456-2.252-.106-1.267-.422-2.815-.948-4.293-.562 0-1.124.035-1.686.035.14.422.246.81.316 1.267.527 2.287.632 3.519.738 4.645z"/>
        </g>
        <path fill="#494949" d="M142.439 159.578s2.809-1.055 1.755-3.518c-1.053-2.464-3.51-2.816-3.51-2.816 4.213 4.223 1.052 6.334 1.052 6.334s2.81 6.686-2.808 7.39c-3.863.493-5.548-2.182-6.25-3.906a6.417 6.417 0 0 0-.457 2.04c.667 1.55 2.493 3.273 7.058 3.625 8.778.704 5.618-8.797 3.16-9.149z" opacity=".08"/>
        <path fill="#494949" d="M144.019 156.165c-1.44-.317-1.756-.14-1.756-.14l1.615 1.407s-3.792 1.407-4.95.88c-.948-.423-1.475-.247-1.65-.176l-.282-.141c-4.564 1.76-3.51-2.111-3.51-2.111s-2.459 1.759-1.054 3.167c1.123 1.126 3.335.246 4.213-.176l.035.035c-.667.528-2.212 1.76-2.493 2.569-.35 1.055 3.16 3.166 3.16 1.055 0-1.478.668-2.393 1.054-2.815.632.774 1.194 2.287 1.053 2.991-.21.985 2.528.07 2.528.07s.808-1.337.14-1.759c0 0 .843.704 2.143-.528 1.299-1.161 1.193-4.011-.246-4.328z" opacity=".28"/>
        <path fill="#E1E5EA" d="M138.471 157.362s4.143-2.675 5.372-1.654c1.23 1.02 1.475 4.117-.28 4.715-1.756.598-4.951-1.83-4.951-1.83l.035-.246s3.897 1.267 4.002-.563c.106-1.83-3.932.035-3.932.035l-.246-.457z"/>
        <path fill="#494949" d="M142.65 157.784c.035-.563-.317-.774-.843-.81.737-.105 1.37.036 1.334.775-.035.774-.808.985-1.65.985.632-.07 1.123-.317 1.158-.95z" opacity=".1"/>
        <path fill="#494949" d="M142.544 159.965c1.615-.563 1.51-3.307.527-4.504.316 0 .597.07.772.211 1.23 1.02 1.475 4.117-.28 4.716-.843.281-2.072-.141-3.09-.669.772.317 1.51.458 2.071.246z" opacity=".1"/>
        <path fill="#494949" d="M143.106 155.497c.316 0 .562.07.737.21 1.089.88 1.405 3.414.281 4.4.843-1.69.21-3.484-1.018-4.61z" opacity=".1"/>
        <path fill="#E1E5EA" d="M137.734 157.15s-3.863-2.744-4.916-1.266c-1.088 1.478-.105 3.026.913 3.167 1.018.175 3.581-.317 3.581-.317l.035-.211s-2.949.105-3.02-.634c-.07-.739.844-1.407 2.775-.457l.632-.282z"/>
        <path fill="#494949" d="M133.345 156.341c-.667.915-.527 1.9-.07 2.534-.808-.493-1.335-1.76-.457-2.991 1.089-1.478 4.916 1.266 4.916 1.266l-.14.07c-1.124-.703-3.477-1.97-4.25-.879z" opacity=".2"/>
        <path fill="#E1E5EA" d="M137.734 158.488c1.615 1.337 1.826 3.66 1.826 3.66l2.352-.071c-.667-2.71-3.616-3.66-3.616-3.66l-.562.07z"/>
        <path fill="#494949" d="M137.944 158.488l.387-.07s2.949.984 3.616 3.659h-.491c-.597-2.358-3.02-3.414-3.512-3.59z" opacity=".2"/>
        <path fill="#E1E5EA" d="M138.471 158.558c-1.404 1.161-1.615 3.202-1.615 3.202l-2.072-.07c.562-2.358 3.16-3.202 3.16-3.202l.527.07z"/>
        <path fill="#494949" d="M138.296 158.523l-.352-.035s-2.563.844-3.16 3.202h.422c.561-2.076 2.633-2.991 3.09-3.167z" opacity=".2"/>
        <path fill="#E1E5EA" d="M138.296 158.804s1.018 0 .737-1.02c-.246-1.02-.983-1.126-1.861-.704-.878.422-.702 1.408-.351 1.619.421.176 1.475.105 1.475.105z"/>
        <path fill="#494949" d="M137.067 157.15c-.176.423.772.845.983.986.35.176.702.14.702.14s.176 0 .351-.07c-.07.598-.772.598-.772.598s-1.089.07-1.44-.105c-.386-.211-.562-1.091.176-1.549z" opacity=".2"/>
        <path fill="#494949" d="M137.067 157.15c-.176.423-.246.88 0 1.02.35.177 1.685.106 1.685.106s.176 0 .351-.07c-.07.598-.772.598-.772.598s-1.089.07-1.44-.105c-.386-.211-.562-1.091.176-1.549z" opacity=".08"/>
        <path fill="#48515E" d="M85.698 140.049a4.196 4.196 0 0 1-4.179-3.8c-.035-.176-.456-4.61-.596-9.396-.246-9.325.807-12.35 2.493-14.04 2.598-2.604 13.869-9.747 17.24-11.858a4.202 4.202 0 0 1 5.793 1.337 4.222 4.222 0 0 1-1.334 5.806c-6.145 3.836-13.413 8.656-15.414 10.345-.597 2.182-.527 9.818.175 16.961.246 2.323-1.475 4.399-3.757 4.61-.105.035-.28.035-.421.035z"/>
        <path fill="#161616" fill-rule="nonzero" d="M106.484 102.257a4.202 4.202 0 0 0-5.793-1.337c-3.406 2.111-14.642 9.254-17.24 11.858-1.686 1.69-2.774 4.75-2.493 14.04.14 4.786.561 9.22.597 9.395a4.196 4.196 0 0 0 4.178 3.8c.14 0 .28 0 .421-.034 2.318-.247 4.003-2.288 3.757-4.61-.702-7.143-.772-14.78-.175-16.96 2.001-1.69 9.304-6.51 15.414-10.346 1.966-1.197 2.598-3.8 1.334-5.806zm-8.076 7.46c-3.51 2.85-8.462 5.032-10.955 8.973-1.264 1.97-.526 4.996-.772 7.248-.316 2.78-.421 5.279.421 7.988.773 2.534-3.16 3.59-3.932 1.091-.948-3.026-.913-5.982-.562-9.079.316-2.78-.316-5.77.843-8.374 2.212-4.962 8.075-7.46 12.078-10.733 2.002-1.618 4.916 1.232 2.88 2.886z" opacity=".28"/>
        <path fill="#FF681F" d="M106.063 39.235s-3.687 3.026-10.815 1.724c0 0 1.44-5.384 5.513-5.208 4.108.176 5.302 3.484 5.302 3.484z"/>
        <path fill="#48515E" d="M101.709 34.308c1.053 6.334 6.671 13.372 8.427 15.483 1.755 2.112-.351 7.038-.351 7.038 14.747 2.463 12.464 12.492 12.464 12.492l-6.32 4.222c-21.418-13.02-17.556-39.059-17.556-39.059l3.336-.176z"/>
        <path fill="#161616" d="M98.584 39.481a28.061 28.061 0 0 1 4.354-.95 19.31 19.31 0 0 1-1.264-4.223l-3.336.176s-.28 2.006-.28 5.173c.21-.07.385-.105.526-.176zM117.018 59.222c-1.335 3.589-2.95 7.073-5.478 9.993-.21.246-.421.458-.632.669a36.919 36.919 0 0 0 5.021 3.66l6.32-4.223s1.405-6.229-5.231-10.1z" opacity=".28"/>
        <path fill="#E8ECF3" d="M144.16 118.655s13.131-7.53 18.89-23.858c5.758-16.327 3.265-27.376 3.265-27.376s-6.18 2.603-11.798 2.463c0 0-10.78 11.049-19.206 12.034 0 0-5.829-7.425-6.285-14.533l-7.514-.457s-2.914 3.835-2.142 7.53c0 0-5.126 1.584-2.739 3.836 0 0-7.76 1.513-10.393 6.404 0 0 5.408 1.689 11.025 5.524l4.705-6.122 7.866 17.523s17.766-9.782 21.523-14.286c0 0-3.827 14.005-14.958 20.937-.035 0 5.653 6.088 7.76 10.38z"/>
        <path fill="#F4F7FC" d="M171.476 53.838s1.51.352 1.58 1.161c.07.81 1.791 25.336-4.95 45.322-6.742 19.987-30.794 33.992-33.497 33.922-2.704-.07-12.009-2.85-24.614-15.377-12.57-12.527-16.221-23.26-14.045-26.743 2.177-3.449 6.215-11.93 16.187-14.85 0 0 .035-2.287.597-2.674.562-.387 2.633-.528 2.633-.528s-.632-1.794-.316-2.182c.316-.387 1.616-2.005 4.003-2.885 0 0 .21-12.351-.562-14.427 0 0-.035-1.126.632-1.443 0 0 8.041-16.222 10.464-20.866 2.387-4.645 4.354-13.055 10.78-12.844 6.425.211 28.861 30.543 31.108 34.414z"/>
        <path fill="#FFC76E" d="M156.238 59.996c0 .704.035 1.724.035 1.724s-17.626 2.815-31.671-2.745c0 0-.457-1.689-1.018-1.689-.562 0-1.054.211-1.054.211s-2.703-.985-3.967-2.885c0 0-.036-1.056.561-1.372 3.196 2.815 9.375 6.158 21.208 7.248 6.285.599 11.587.247 15.906-.492z"/>
        <path fill="#FFF" d="M153.007 62.107c-.21.035-.42.035-.632.07a25.628 25.628 0 0 0-1.229-1.513c.211 0 .387-.035.597-.035.422.458.843.95 1.264 1.478zM154.939 60.207c.456-.07.877-.14 1.299-.211 0 .563 0 1.302.035 1.583a48.509 48.509 0 0 1-1.334-1.372zM155.711 61.79c-.456.07-1.124.141-2.036.247-.422-.528-.843-1.02-1.264-1.513.632-.07 1.264-.141 1.86-.211.492.492.948.985 1.44 1.477zM150.48 60.664c.42.493.842 1.02 1.263 1.549-.28.035-.526.035-.807.07-.457-.528-.948-1.02-1.44-1.548.316-.035.667-.035.983-.07zM149.461 62.353c-.316 0-.667.036-1.018.036a18.045 18.045 0 0 0-1.159-1.162c-.175-.14-.35-.316-.527-.457h1.16a32.457 32.457 0 0 1 1.544 1.583z" opacity=".32"/>
        <path fill="#494949" d="M139.7 60.418c.21.035.386.035.597.07.527.036 1.053.07 1.545.106.948.563 1.931 1.126 2.809 1.83a60.28 60.28 0 0 1-3.511-.106c-.492-.633-.984-1.267-1.44-1.9zM127.095 57.744a38.239 38.239 0 0 0 5.267 1.513c.35.668.667 1.372.877 2.111a47.191 47.191 0 0 1-6.566-1.654c.281-.598.387-1.302.422-1.97z" opacity=".32"/>
        <path fill="#FFF" d="M121.968 57.286c-.28-.844-.561-1.654-.807-2.463.421.282.878.563 1.37.845.175.563.385 1.126.596 1.689-.351.07-.632.176-.632.176s-.21-.106-.527-.247z" opacity=".32"/>
        <path fill="#FFC76E" d="M170.528 57.497c-.21.07-1.404-1.301-1.86-1.055-.246.14-.668 0-1.054-.07 2.598-1.338 3.862-2.499 3.862-2.499s1.51.352 1.58 1.161c0 0-2.317 2.393-2.528 2.463z"/>
        <path fill="#494949" d="M169.124 55.668c-.14.281-.351.528-.632.739-.035.035-.07.035-.106.07-.245 0-.491-.07-.772-.14a28.92 28.92 0 0 0 1.58-.88c0 .07-.035.14-.07.21z" opacity=".32"/>
        <path fill="#FFF" d="M171.757 53.943c.422.141 1.23.493 1.3 1.091 0 0-.773.81-1.475 1.513.35-.88.35-1.724.175-2.604z" opacity=".32"/>
        <path fill="#FFC76E" d="M158.555 57.99c.492-.281 2.458.458 2.88.493.07 0 .175.105.28.21-1.615.494-3.44.951-5.477 1.303 0-.317 0-.563.035-.669.035-.246 1.79-1.055 2.282-1.337z"/>
        <path fill="#FFF" d="M157.326 59.785c-.35.07-.737.14-1.123.21 0-.316 0-.562.035-.668.035-.176.737-.563 1.37-.88-.141.458-.212.915-.282 1.338zM160.346 58.73c.07-.142.175-.318.246-.458.386.105.702.21.842.246.07 0 .176.105.281.211-.491.14-.983.282-1.51.422 0-.14.07-.281.14-.422z" opacity=".32"/>
        <path fill="url(#a)" d="M166.877 56.301c.175-.105.456-.035.737.035-.316.176-.667.317-1.018.493.07-.246.175-.458.28-.528z"/>
        <path fill="#FFC76E" d="M166.245 59.08s-1.861 1.408-3.582 1.338c0 0-.562-1.196-.948-1.689 1.931-.598 3.582-1.232 4.916-1.865-.246.774-.386 2.217-.386 2.217z"/>
        <path fill="#FFF" d="M166.07 59.187c-.176-.282-.352-.564-.457-.88-.106-.317-.106-.634-.14-.95.385-.176.772-.317 1.123-.493-.21.81-.351 2.217-.351 2.217s-.07.035-.176.106z" opacity=".32"/>
        <path fill="#494949" d="M162.593 59.468c.246.282.421.598.597.95-.176.035-.351.035-.562.035 0 0-.562-1.196-.948-1.689.035 0 .07-.035.105-.035.316.176.597.422.808.739z" opacity=".32"/>
        <path fill="url(#b)" d="M112.137 77.273s.035-2.287.597-2.674c.562-.387 2.633-.528 2.633-.528s-.632-1.794-.316-2.182c.316-.387 1.616-2.005 4.003-2.885 0 0 .21-12.351-.562-14.427 1.264 1.9 3.968 2.885 3.968 2.885s.492-.21 1.053-.21c.562 0 1.019 1.688 1.019 1.688 14.044 5.56 31.67 2.745 31.67 2.745s-.034-.985-.034-1.724a45.012 45.012 0 0 0 5.477-1.302c.421.492.948 1.689.948 1.689 1.756.07 3.581-1.337 3.581-1.337s.14-1.408.352-2.217a26.01 26.01 0 0 1 1.018-.493c.386.106.807.211 1.053.07.457-.21 1.615 1.126 1.861 1.056.21-.07 2.528-2.463 2.528-2.463.07.81 1.79 25.335-4.95 45.322-4.811 14.287-18.505 25.512-26.861 30.755-.351-5.595-3.617-16.01-19.312-29.875-9.656-8.55-17.415-12.14-23.28-13.372 2.6-3.8 6.672-8.48 13.554-10.52z"/>
        <path fill="#F27F0C" d="M162.909 68.582c-2.282.668-5.407 1.372-8.392 1.302 0 0-.597.598-1.58 1.513a85.65 85.65 0 0 0 2.177-9.536c.737-.106 1.124-.14 1.124-.14s4.178-1.83 5.793-2.323c.422.492.632 1.02.632 1.02.176 0 .386 0 .562-.035.035 2.111 0 4.891-.316 8.199z"/>
        <path fill="#FFB43B" d="M116.596 78.329s-.983.176-2.317.633c.175-1.865 2.458-2.744 2.844-4.258.246-.985 1.018-1.02 2.107-1.372 0 .387.035.774.14 1.161-.035 0-5.161 1.584-2.774 3.836z"/>
        <path fill="#FF8A08" d="M135.311 81.918s-3.336-4.258-5.161-9.395c1.018-3.695 1.158-8.093 1.018-11.577 3.967.88 7.97 1.302 11.587 1.407-1.545 4.856-4.003 12.07-7.339 19.53-.07.035-.105.035-.105.035z"/>
        <path fill="#F4870F" d="M123.76 67.104l-2.283-.14s-2.353 3.06-2.247 6.403c-1.089.352-1.861.387-2.107 1.373-.386 1.513-2.669 2.392-2.844 4.257-2.493.845-6.355 2.604-8.076 5.771 0 0 .738.247 1.966.74-1.369 1.02-2.879 2.286-4.353 3.94a33.735 33.735 0 0 0-5.162-1.583c2.563-3.836 6.636-8.516 13.518-10.557 0 0 .035-2.287.597-2.674.562-.387 2.634-.528 2.634-.528s-.632-1.794-.316-2.181 1.615-2.006 4.002-2.886c0 0 .21-12.35-.562-14.427 1.265 1.9 3.968 2.885 3.968 2.885s.492-.21 1.053-.21c.14 0 .281.105.422.28.14 2.921.175 6.651-.21 9.537z"/>
        <path fill="#FFAA4D" d="M130.114 72.523c-.596-1.654-1.018-3.378-1.123-5.102l-5.232-.317c.386-2.886.316-6.616.176-9.536.35.492.597 1.407.597 1.407a44.07 44.07 0 0 0 6.566 2.006c.175 3.449.07 7.847-.984 11.542z"/>
        <path fill="#F98C32" d="M135.381 81.918c3.336-7.495 5.794-14.673 7.339-19.53a81.736 81.736 0 0 0 12.394-.492 85.65 85.65 0 0 1-2.177 9.536c-3.3 3.026-11.095 9.677-17.556 10.486z"/>
        <path fill="#FF8A08" d="M117.193 90.258l4.705-6.123 5.653 12.597c-1.299 2.076-2.703 4.012-4.143 5.842-.492-.458-.983-.915-1.51-1.373-2.95-2.604-5.723-4.75-8.321-6.51a62.042 62.042 0 0 1 2.633-5.032c.351.176.667.388.983.599z"/>
        <path fill="#FF681F" d="M168.106 56.442c.21.035.42.035.561-.035.457-.211 1.616 1.126 1.861 1.055.211-.07 2.528-2.463 2.528-2.463.07.81 1.791 25.336-4.95 45.322-4.81 14.287-18.504 25.512-26.861 30.755a24.816 24.816 0 0 0-.386-2.85c31.25-24.808 28.756-61.122 27.247-71.784z"/>
        <path fill="#F98C32" d="M129.798 101.623s6.988-3.87 13.132-7.847c-3.3 5.279-7.479 10.592-12.675 15.66-1.931-2.182-4.178-4.47-6.777-6.898 1.44-1.83 2.844-3.765 4.143-5.84l2.177 4.925z"/>
        <path fill="#FFB43B" d="M108.17 85.472c1.896.739 4.88 2.111 8.075 4.152-.948 1.619-1.86 3.308-2.633 5.032-3.617-2.428-6.847-4.117-9.796-5.278a28.605 28.605 0 0 1 4.353-3.906z"/>
        <path fill="#F27F0C" d="M142.93 93.776c3.652-2.357 6.988-4.785 8.392-6.439 0 0-3.827 14.005-14.958 20.937 0 0 2.774 2.956 5.162 6.193-1.405 1.443-2.914 2.85-4.495 4.258-1.615-2.815-3.827-5.912-6.811-9.29 5.231-5.032 9.375-10.38 12.71-15.659z"/>
        <path fill="#FF8A08" d="M141.526 114.502c1.053 1.408 2.001 2.85 2.633 4.153 0 0 13.132-7.53 18.89-23.858 5.759-16.327 3.266-27.376 3.266-27.376s-1.37.563-3.406 1.16c.316-3.307.351-6.087.316-8.198 1.545-.211 3.055-1.337 3.055-1.337s.14-1.408.35-2.217a26.01 26.01 0 0 1 1.02-.493c.175.035.315.07.49.106 1.51 10.662 4.003 46.976-27.281 71.784-.527-2.569-1.65-5.736-3.792-9.501a102.959 102.959 0 0 0 4.459-4.223z"/>
        <path fill="#E6EAED" d="M152.937 71.397c-1.86 6.404-4.95 14.321-10.007 22.38-6.144 3.976-13.132 7.846-13.132 7.846l-2.212-4.926c2.95-4.645 5.583-9.782 7.795-14.779 6.46-.81 14.256-7.46 17.556-10.521z"/>
        <path fill="#DDE2E8" d="M154.517 69.884c2.985.07 6.11-.634 8.392-1.302-1.124 11.682-5.618 29.84-21.383 45.92-2.388-3.237-5.162-6.193-5.162-6.193 11.13-6.932 14.958-20.937 14.958-20.937-1.404 1.69-4.74 4.082-8.392 6.44 5.056-8.058 8.146-15.976 10.007-22.38.983-.95 1.58-1.548 1.58-1.548z"/>
        <path fill="#F4F7FC" d="M166.315 67.42s2.458 11.05-3.266 27.377c-5.723 16.327-18.89 23.858-18.89 23.858-.632-1.302-1.615-2.745-2.633-4.153 15.765-16.08 20.26-34.238 21.383-45.92a38.194 38.194 0 0 0 3.406-1.161z"/>
        <path fill="#FFF" d="M114.384 80.123c-.14-.422-.175-.809-.14-1.16 1.37-.458 2.317-.634 2.317-.634-2.352-2.252 2.739-3.836 2.739-3.836-.07-.387-.105-.774-.14-1.16.912-.282 2.036-.81 3.265-2.218.667-.774 1.053-2.252 1.3-4.011l5.23.317c.106 1.724.527 3.483 1.124 5.102-.807 2.92-2.212 5.419-4.494 6.72-3.441 1.9-6.706 5.842-9.41 10.381-3.195-2.04-6.18-3.413-8.076-4.152 3.863-2.815 6.812-3.765 6.285-5.349z"/>
        <path fill="#DDE2E8" d="M114.244 78.962c-.035.352 0 .74.14 1.161.527 1.584-2.422 2.534-6.215 5.35-1.228-.494-1.966-.74-1.966-.74 1.686-3.167 5.548-4.926 8.04-5.77zM119.23 73.332c-.07-3.308 2.247-6.404 2.247-6.404l2.282.14c-.246 1.795-.632 3.273-1.299 4.012-1.194 1.478-2.317 1.97-3.23 2.252z"/>
        <path fill="#F4F7FC" d="M125.62 79.244c2.282-1.267 3.687-3.765 4.494-6.721 1.826 5.137 5.162 9.395 5.162 9.395h.07c-2.212 4.997-4.845 10.134-7.795 14.78L121.898 84.1l-4.705 6.122-.948-.633c2.704-4.504 5.97-8.445 9.375-10.345z"/>
        <g fill="#FFF" opacity=".2">
            <path d="M198.877 126.997l22.029-24.631-4.79-3.84zM210.69 136.914l26.179-12.796-2.874-4.158zM213.882 149.39l28.095-.96-.639-3.839zM218.99 169.223l17.24 4.479-2.554 5.438z"/>
        </g>
        <g fill="#FFF" opacity=".2">
            <path d="M58.082 123.478L50.42 91.49l-6.704 1.6zM40.523 125.398l-28.734-22.393-4.15 4.799zM27.114 134.675l-25.86-9.597-.958 5.438zM23.921 143.952l-21.71 3.518 1.278 6.078z"/>
        </g>
        <path fill="#E8ECF3" d="M141.245 131.076c-2.247 1.407-4.108 2.358-5.302 2.85.035-.035.105-.07.14-.105 2.423-2.428-4.67-13.442-15.8-24.632-11.13-11.19-22.156-18.263-24.578-15.835-.07.07-.14.176-.211.282.105-.598.246-1.091.527-1.478.667-1.056 1.51-2.604 2.668-4.328 5.864 1.231 13.659 4.82 23.28 13.371 15.624 13.864 18.89 24.28 19.276 29.875z"/>
        <path fill="#D7DCE2" d="M136.189 130.618a62.434 62.434 0 0 0 4.53-2.955c.315 1.302.456 2.428.526 3.413-2.247 1.407-4.108 2.358-5.302 2.85.035-.035.105-.07.14-.105.562-.599.562-1.725.106-3.203zM95.95 92.158c.668-1.056 1.51-2.604 2.669-4.328 1.72.352 3.617.915 5.653 1.76a25.216 25.216 0 0 0-1.756 2.427 22.798 22.798 0 0 0-1.193 2.217c-2.774-1.372-4.776-1.76-5.653-.88-.07.07-.14.176-.211.282.07-.598.246-1.091.491-1.478zM115.719 96.17a77.984 77.984 0 0 1 6.18 5.031c.385.317.737.669 1.088.985a54.275 54.275 0 0 1-5.092 4.75 153.613 153.613 0 0 0-5.337-4.82 159.08 159.08 0 0 1 3.16-5.947z"/>
        <path fill="#E1E5EA" d="M129.658 108.802c3.3 3.695 5.723 7.037 7.444 10.064-1.686 1.372-3.511 2.568-5.408 3.66-1.93-2.745-4.389-5.772-7.233-8.903 1.826-1.513 3.582-3.097 5.197-4.821z"/>
        <path fill="#FFF" d="M170.142 62.107s-7.198 5.42-19.768 4.504c0 0 13.343 19.811 2.844 47.75-.035 0 21.84-16.221 16.924-52.254z" opacity=".39"/>
        <path fill="#E8ECF3" d="M95.459 93.636c.07-.106.14-.211.21-.282 2.423-2.428 13.413 4.68 24.579 15.835 11.166 11.155 18.223 22.204 15.8 24.632-.035.035-.105.07-.14.105-.597.247-1.053.352-1.3.352-.315 0-.772-.07-1.298-.176-3.757-.739-12.29-4.222-23.315-15.236-8.918-8.903-13.342-16.89-14.396-22.028-.245-1.232-.28-2.323-.14-3.202z"/>
        <path fill="#494949" d="M119.405 121.54c-1.826-6.37-5.231-12.773-8.672-18.403a68.225 68.225 0 0 0-3.512-5.244c3.933 2.816 8.462 6.721 13.027 11.296 11.166 11.19 18.223 22.204 15.8 24.632-.035.035-.105.07-.14.105-.597.247-1.053.352-1.3.352-.315 0-.772-.07-1.298-.176-2.458-.493-7.023-2.182-12.992-6.404a23.562 23.562 0 0 0-.913-6.158z" opacity=".1"/>
        <path fill="#494949" d="M107.221 97.893c3.933 2.816 8.462 6.721 13.027 11.296 11.166 11.19 18.223 22.204 15.8 24.632-.035.035-.105.07-.14.105-.597.247-1.053.352-1.3.352-.315 0-.772-.07-1.298-.176-1.616-.317-4.108-1.126-7.304-2.85-.667-.352 5.864-1.584-.877-12.386-5.583-9.009-17.135-19.917-17.908-20.973z" opacity=".1"/>
        <path fill="url(#c)" d="M1.685 5.384l-1.334.035S.316 4.434.316 3.695c.421-.07.843-.141 1.264-.247l.28 1.162-.175.774z" transform="translate(155.887 56.301)"/>
        <path fill="#F27F0C" d="M168.316 57.392c-.316.035-.526-.528-.667-1.02.386.105.773.21 1.018.07.07-.035.176-.035.316 0-.14.422-.35.915-.667.95z"/>
        <path d="M139.876 19.46h-.07M139.946 19.46c-.035 0-.035 0 0 0M139.91 19.46s-.034 0 0 0"/>
        <path fill="#C7CDD3" d="M149.145 27.975c6.285 7.213 14.326 17.664 19.979 27.552-.422.246-.913.528-1.475.81-.316-.071-.597-.141-.737-.036-.106.07-.176.246-.281.528a33.06 33.06 0 0 1-4.916 1.865c-.105-.106-.21-.211-.28-.211-.387-.07-2.283-.774-2.845-.528-3.616-9.712-8.392-19.53-12.184-26.813a8.778 8.778 0 0 0 2.74-3.167z"/>
        <path fill="#E1E5EA" d="M141.42 32.9c.457-.034.913-.14 1.335-.21 1.229 6.404 2.633 15.483 3.406 28.08-1.861 0-3.792-.106-5.9-.282a68.257 68.257 0 0 1-5.336-.703c1.194-9.325 2.598-19.424 2.914-27.271 1.159.352 2.317.528 3.581.387z"/>
        <path fill="#D7DCE2" d="M146.371 31.177c3.827 7.284 8.603 17.101 12.184 26.813h-.035c-.492.282-2.247 1.056-2.317 1.337 0 .07-.035.352-.035.669-2.915.492-6.25.81-10.043.774-.772-12.597-2.212-21.676-3.405-28.08 1.51-.317 2.703-.845 3.651-1.513zM149.742 26.497c8.918 9.254 20.154 24.631 21.734 27.34 0 0-.772.705-2.387 1.655-5.653-9.853-13.694-20.339-19.979-27.553a7.23 7.23 0 0 0 .632-1.442zM119.16 53.17s8.04-16.222 10.463-20.867c.667-1.302 1.299-2.886 2.001-4.504.667.809 1.44 1.654 2.318 2.392-3.336 7.284-7.409 17.137-10.288 26.04-1.966-.986-3.476-2.041-4.565-3.026 0 0 .035 0 .07-.036z"/>
        <path fill="#E8ECF3" d="M137.874 32.514c-.316 7.847-1.72 17.946-2.914 27.27-4.916-.844-8.567-2.146-11.306-3.518 2.844-8.903 6.952-18.755 10.288-26.04 1.158.986 2.457 1.795 3.932 2.288z"/>
        <path fill="#616E7A" d="M138.857 22.485c.316-1.83.878-2.815 1.019-2.99h.035c.035.21.21 1.477.948 3.94.491 1.654.842 3.906 1.474 6.897.14.74.316 1.548.457 2.393a7.565 7.565 0 0 1-1.334.211c-1.264.14-2.458-.035-3.547-.387.035-.422.035-.844.035-1.267.07-3.73.562-6.72.913-8.797z"/>
        <path fill="#454F59" d="M143.492 21.781c1.264 1.408 3.546 3.8 5.302 5.807.105.105.21.246.316.351-.562 1.091-1.404 2.252-2.739 3.203-.28-.563-.597-1.091-.842-1.62-1.44-2.744-2.423-5.313-3.406-7.037-1.054-1.9-2.002-2.85-2.177-3.026h.456c.106 0 .246.035.351.035.703.423 1.686 1.161 2.74 2.287z"/>
        <path fill="#535E6B" d="M140.824 23.4c-.738-2.463-.913-3.73-.948-3.94h.035c.175.175 1.123 1.125 2.177 3.025.983 1.724 1.966 4.293 3.405 7.038.281.528.562 1.056.843 1.619-.948.668-2.142 1.196-3.616 1.513-.176-.845-.316-1.619-.457-2.393-.562-2.92-.948-5.173-1.44-6.862z"/>
        <path fill="#768893" d="M137.699 21.817c-.808 1.654-1.826 4.222-3.09 6.967-.21.457-.422.95-.667 1.443-.878-.74-1.65-1.584-2.318-2.393 1.756-4.012 3.933-8.129 8.216-8.34-.316.141-1.44.845-2.141 2.323z"/>
        <path fill="#535E6B" d="M148.83 27.623c-1.792-2.006-4.039-4.434-5.303-5.806-1.053-1.162-2.036-1.865-2.739-2.288 2.002.388 5.302 3.132 8.99 6.968a8.48 8.48 0 0 1-.633 1.478c-.105-.106-.21-.247-.316-.352z"/>
        <path fill="#6A7984" d="M138.857 22.485c-.35 2.076-.842 5.067-.948 8.762 0 .422-.035.845-.035 1.267-1.475-.493-2.809-1.302-3.932-2.287.21-.493.456-.95.667-1.443 1.264-2.71 2.282-5.313 3.09-6.967.737-1.513 1.825-2.182 2.141-2.358h.07c-.175.211-.737 1.161-1.053 3.026z"/>
        <path fill="#494949" d="M142.017 19.952c2.002.985 4.74 3.413 7.76 6.545 8.919 9.254 20.154 24.631 21.734 27.34 0 0-.772.705-2.387 1.655-.422.246-.913.528-1.475.81-.316-.071-.597-.142-.737-.036-.106.07-.176.246-.281.528a33.06 33.06 0 0 1-4.916 1.865c-.105-.106-.21-.211-.28-.211-.387-.07-2.283-.775-2.845-.528h-.035c-.491.281-2.247 1.055-2.317 1.337 0 .07-.035.352-.035.668-.492.07-1.019.176-1.545.247-1.967-13.935-6.18-27.658-12.64-40.22z" opacity=".1"/>
        <path fill="#FFF" d="M131.027 32.373c1.335 20.269 10.71 28.221 9.27 28.115-1.931-.175-3.687-.387-5.337-.668-3.546-.598-6.46-1.372-8.848-2.287-.035-9.396.632-16.75 4.915-25.16z" opacity=".32"/>
        <path d="M158.555 57.99s.035 0 0 0c.562-.246 2.493.458 2.88.493.034 0 .034 0 .07.035-1.37.422-3.898.422-5.232.844v-.035c.035-.246 1.79-1.055 2.282-1.337z"/>
        <path fill="#494949" d="M166.07 56.723s0-.915 1.333-.915c.808 0 2.458-1.477 3.617-2.639.175.282.316.528.421.704 0 0-.772.704-2.387 1.654-.422.246-.913.528-1.475.81-.316-.071-.597-.141-.737-.036-.106.07-.176.246-.281.528a33.06 33.06 0 0 1-4.916 1.865c-.07-.07-.14-.14-.21-.176.034 0 .07-.035.105-.035 1.404-.423 4.53-1.76 4.53-1.76zM119.546 52.395c10.709 10.064 35.322 7.46 36.657 7.003h.035c0 .105-.035.352-.035.598-2.915.492-6.25.81-10.042.774-1.861 0-3.792-.106-5.9-.282a68.257 68.257 0 0 1-5.336-.703c-4.916-.845-8.568-2.147-11.306-3.52-1.967-.984-3.476-2.04-4.565-3.025.035 0 .035-.035.07-.035.035-.036.176-.317.422-.81z" opacity=".28"/>
        <path fill="#494949" d="M135.206 60.735c-2.107.563-4.073 3.73-4.073 8.058 0 9.325 6.811 11.295 9.936 10.627 3.125-.704 6.566-4.786 5.021-10.31 0 0-2.247-10.733-10.884-8.375z" opacity=".28"/>
        <path fill="#494949" d="M132.958 66.576s.668-7.073-3.827-8.34c-4.494-1.266-9.375 3.836-10.112 9.325-.737 5.49 4.108 9.466 8.322 7.953 4.213-1.513 5.863-5.771 5.617-8.938z" opacity=".28"/>
        <path fill="#FFF" d="M132.958 65.556s.668-7.073-3.827-8.34c-4.494-1.267-9.375 3.835-10.112 9.325-.737 5.49 4.108 9.465 8.322 7.952 4.213-1.513 5.863-5.77 5.617-8.937z"/>
        <path fill="#E8ECF3" d="M119.054 66.54c.316-2.392 1.44-4.75 2.985-6.509a12.207 12.207 0 0 0-2.177 5.313c-.773 5.49 4.283 9.466 8.672 7.953a8.001 8.001 0 0 0 2.248-1.161c-.878.985-2.002 1.83-3.406 2.322-4.214 1.548-9.094-2.428-8.322-7.917z"/>
        <path fill="#48515E" d="M129.026 58.201c-3.055-.81-6.285.986-8.427 3.87 1.966-3.412 5.337-5.735 8.567-4.82 2.915.845 3.652 4.082 3.828 6.264-.352-2.076-1.3-4.61-3.968-5.314z"/>
        <path fill="#FFF" d="M134.609 59.398c-3.16 1.337-3.757 6.369-3.582 9.923.387 9.078 6.672 9.606 9.656 8.937 2.985-.668 6.285-4.644 4.81-10.063 0 0-3.546-11.93-10.884-8.797z"/>
        <path fill="#48515E" d="M134.398 60.313c-1.159.457-2.001 1.407-2.598 2.568.562-1.583 1.44-2.85 2.809-3.448 5.758-2.463 9.2 4.398 10.393 7.425-1.545-3.308-5.056-8.798-10.604-6.545z"/>
        <path fill="#E8ECF3" d="M140.227 76.464c2.774-.633 5.793-4.047 5.056-8.832.14.352.175.563.175.563 1.51 5.419-1.79 9.395-4.81 10.063-2.739.634-8.216.212-9.445-6.79 1.826 5.277 6.566 5.559 9.024 4.996z"/>
        <ellipse cx="140.016" cy="69.145" fill="#000" rx="1.72" ry="1.724"/>
        <ellipse cx="140.016" cy="69.145" fill="url(#d)" rx="2.072" ry="2.076"/>
        <ellipse cx="128.956" cy="67.104" fill="url(#e)" rx="2.072" ry="2.076"/>
        <ellipse cx="140.016" cy="69.145" fill="#000" rx="1.545" ry="1.548"/>
        <ellipse cx="128.956" cy="67.104" fill="#000" rx="1.545" ry="1.548"/>
        <ellipse cx="141.491" cy="68.019" fill="#FFF" opacity=".8" rx="1.194" ry="1.196"/>
        <ellipse cx="138.892" cy="70.024" fill="#FFF" opacity=".8" rx="1" ry="1"/>
        <ellipse cx="127.832" cy="67.984" fill="#FFF" opacity=".8" rx="1" ry="1"/>
        <ellipse cx="130.255" cy="65.872" fill="#FFF" opacity=".8" rx="1.088" ry="1.091"/>
        <path fill="#FFF" d="M139.068 20.339s-3.581 0-4.95 7.319c0 0 1.895 3.941 6.81 4.293 0 0-2.913-3.941-1.79-7.32 1.089-3.413-.07-4.292-.07-4.292z" opacity=".31"/>
        <path fill="#48515E" d="M146.301 57.603l-1.615 1.97s-1.229-3.026-6.004-4.116l1.86-3.308c-.034 0 5.162 1.865 5.759 5.454zM128.886 54.4l-.492-3.588s-4.284.352-5.899 3.554l.492 1.76c0-.036 2.809-2.5 5.899-1.725z"/>
        <path fill="#48515E" d="M128.886 54.4l-.492-3.588s-4.284.352-5.899 3.554l.492 1.76c0-.036 2.809-2.5 5.899-1.725z"/>
        <g>
            <path fill="#48515E" d="M123.338 54.542c0-.07.035-.106.035-.106 0 .035 0 .07-.035.106z"/>
            <path fill="#161616" d="M123.338 54.542c-.035.105-.035.352.175.703 0 0-.14-2.146.773-2.603 0 0-.457 1.337 0 1.794 0 0 .456-2.71 1.79-2.71 0 0-.912 1.795-.456 2.253 0 0 .457-2.71 1.79-2.71 0 0-.456 1.337 0 2.252 0 0 0-1.337.457-1.794 0 0 .386 1.407 1.019 2.639-2.493-.634-4.846.88-5.618 1.478a1.889 1.889 0 0 1 .07-1.302z" opacity=".28"/>
        </g>
        <g fill="#161616" opacity=".28">
            <path d="M140.472 53.556s.457.915 0 1.795c0 0 1.791.457.913-2.71 0 0 2.248 1.338 1.335 3.59 0 0 .913 0 .456-1.795 0 0 1.334.915.457 2.252 0 0 1.334-.457.456-1.794 0 0 1.79.914.456 2.709 0 0 .913 0 .913-.457 0 0 0 .914-.316 1.935l-.386.493s-1.229-3.027-6.004-4.117l.07-.141c.21-.106 1.264-.598 1.65-1.76z"/>
        </g>
        <path fill="#FFF" d="M160.908 58.73s-4.951.457-4.495.914c.457.457 4.495-.915 4.495-.915z" opacity=".39"/>
        <g>
            <path fill="#A9DB2E" d="M166.842 102.398s-8.076-.704-7.374-10.557c.702-9.853 13.343-8.797 14.045-2.815.702 5.982-1.405 13.02-6.671 13.372z"/>
            <path fill="#494949" d="M168.035 94.938c-1.685.809-3.546 1.548-5.407.809-1.51-.598-2.528-1.724-3.195-3.061-.21 9.043 7.409 9.712 7.409 9.712 4.529-.317 6.706-5.56 6.811-10.803a39.427 39.427 0 0 1-5.618 3.343z" opacity=".09"/>
            <path fill="#FF681F" d="M195.633 73.156s1.756 4.434 8.638 6.721c0 0 1.334-5.419-2.353-7.213-3.686-1.865-6.285.492-6.285.492z"/>
            <path fill="#48515E" d="M171.09 101.623c5.583-1.759 25.632-9.113 32.233-26.32l-3.862-3.52s-3.336 4.751-6.145 6.159c-2.809 1.407-6.32 2.111-8.427 4.926-2.107 2.815-1.404 4.575-1.404 4.575s-6.637-1.408-13.343 1.759c-5.407 2.569-9.656 11.155-2.984 12.633 1.334.281 2.668.176 3.932-.212z"/>
            <path fill="#161616" d="M201.813 78.68a36.8 36.8 0 0 0 1.545-3.377l-3.862-3.52s-.703.986-1.686 2.183c1.615 1.266 2.95 2.885 4.003 4.715zM167.86 96.275c-.351-2.041-.106-4.082.562-6.017-4.46 3.307-7.163 10.275-1.23 11.577 1.265.281 2.599.176 3.863-.212-1.685-1.196-2.809-3.06-3.195-5.348z" opacity=".28"/>
            <path fill="#FF8A08" d="M195.633 73.156s6.18-1.9 8.638 6.721c0 0 1.123.598 1.755-.14.632-.775 2.845-4.118 5.654-3.977 2.844.106-4.74-10.556-12.43-9.923 0 0-3.125.598-2.247 2.64.878 2.005-3.336 2.357-1.37 4.68z"/>
            <path fill="#FF8A08" d="M202.445 68.16s-1.966-3.977-.983-8.27c.772-3.343-1.194-7.882-1.931-9.29-.246-.457-.21-1.055.105-1.442.527-.669 1.51-1.443 3.16-.845 2.634.986 2.318 4.293 2.318 5.63 0 1.338.316 2.956 1.334 2.64.983-.317 2.142-4.117 2.809-7.425.667-3.308 1.334-7.284 2.633-7.6 1.3-.317 2.318 1.336 1.334 4.96-.983 3.625-1.334 6.616-.667 6.616s3.968-4.293 4.951-6.932c.983-2.639 2.528-4.082 3.617-3.624 1.65.668 1.966 1.654-1.335 7.284-3.3 5.63-1.65 6.263-1.65 6.263s.316.669 2.95-1.654c2.633-2.322 6.917-5.278 7.9-3.976.983 1.337-3.3 4.61-4.284 5.278-.983.669-3.616 2.323-3.3 3.308.316.985 6.706-3.378 8.883-2.64 1.475.493 1.334 2.323-4.284 4.61-5.618 2.323-7.584 4.962-9.55 6.933-1.967 1.97-4.6 4.61-7.584 3.624-2.985-.985-6.426-3.449-6.426-3.449z"/>
            <path fill="#F27F0C" d="M217.894 61.087c3.3.915-1.896 7.53-6.811 7.53-4.916 0-2.74-6.017-2.74-6.017-4.142 3.483-5.02-2.78-4.318-4.54.702-1.759-1.404-4.574-2.107-5.63-.702-1.055-.35-2.463 1.054-2.815.737-.176 1.37.387 1.826 1.02-.281-.95-.878-1.864-2.037-2.286-1.615-.599-2.633.14-3.16.844a1.345 1.345 0 0 0-.105 1.443c.772 1.407 2.703 5.947 1.93 9.29-.982 4.292.984 8.269.984 8.269s3.476 2.463 6.425 3.483c2.95.986 5.618-1.654 7.585-3.624 1.264-1.267 2.563-2.815 4.81-4.399-.176-4.433-3.336-2.568-3.336-2.568z"/>
            <g fill="#F27F0C">
                <path d="M215.472 52.606c.35-.703 1.404-1.76 1.404-1.76 0-2.11 2.107-3.518 2.107-3.518-.351-1.407 1.404-3.519 2.458-3.167.526.176.632.704.561 1.197.632-1.83.14-2.393-.948-2.816-1.088-.457-2.633.986-3.616 3.625-.913 2.428-3.792 6.263-4.74 6.862.421.95 2.422.246 2.774-.423zM227.76 51.55c0 1.056-1.053 2.112-2.106 2.464 0 0-.351.704-1.756 1.76-1.404 1.055-1.404.703-1.404.703s-2.001 1.337-1.124 2.393c.036-.985 2.388-2.463 3.336-3.097.983-.668 5.267-3.976 4.284-5.278-.527-.704-2.002-.176-3.617.81.983-.247 2.388-.423 2.388.246zM208.625 54.19c.702-1.408 1.755-1.408 1.755-1.408-1.755-2.111.773-4.75.773-4.75-.983-2.287.28-5.102 1.685-4.75.316.07.527.175.702.316-.105-1.583-.807-2.252-1.72-2.006-1.334.317-1.966 4.293-2.633 7.601-.668 3.308-1.826 7.108-2.81 7.425-.175.07-.315.035-.456 0 .773 1.126 2.037-1.126 2.704-2.428z"/>
            </g>
            <path fill="#F27F0C" d="M210.03 55.808s1.72 1.549 2.773 1.9c0 0 1.053 1.408 2.107 1.76 1.053.352 1.404.352 1.404.352s.667.81 1.194 1.09c0 0-2.598-.034-4.003-1.09-1.404-1.056-3.476-4.012-3.476-4.012z"/>
            <path fill="#E27310" d="M220.844 62.213c.105 2.568-7.83 6.932-10.64 6.932-2.808 0-3.16-4.223-3.16-4.223-2.808 1.056-4.564-1.76-3.51-5.982 1.053-4.222-3.16-7.39-2.107-9.149.597-.985 1.755-.88 2.633-.563a2.68 2.68 0 0 0-1.299-.88c-1.615-.598-2.633.141-3.16.845a1.345 1.345 0 0 0-.105 1.443c.772 1.407 2.703 5.947 1.93 9.29-.982 4.292.984 8.269.984 8.269s3.476 2.463 6.425 3.483c2.95.986 5.618-1.654 7.585-3.624 1.966-1.97 3.967-4.61 9.55-6.932.246-.106.457-.211.702-.282-.842-.14-1.404-.422-1.404-.422-1.37 2.393-4.424 1.795-4.424 1.795z"/>
            <path fill="#E27310" d="M210.556 56.477s2.633 3.343 8.251 4.75c0 0-8.251-1.583-11.411 2.64 0 0 3.687-4.399 3.16-7.39zM208.45 53.662c.35-1.056 1.404-1.056 1.404-1.056s-1.054-1.055-.351-3.167c.702-2.11 1.755-1.407 1.755-1.407l-.702-.704c-.702-.704 0-3.167 1.053-4.574.492-.634.878-.915 1.194-1.02-.28-.212-.597-.247-.948-.177-1.334.317-1.966 4.293-2.633 7.6-.667 3.309-1.826 7.109-2.81 7.426-.14.035-.28.035-.386.035.387 1.407 2.072-1.936 2.423-2.956zM215.472 51.55c.702-1.759 2.809-4.222 2.809-4.222s.35-2.815 2.106-3.87c.597-.352 1.089-.493 1.475-.458a2.316 2.316 0 0 0-.772-.422c-1.089-.458-2.634.985-3.617 3.624-.878 2.358-3.581 6.017-4.635 6.791.457.036 2.037.036 2.634-1.442zM224.6 52.958c2.248-2.533 3.793-2.146 4.495-1.724.07-.282.035-.528-.105-.739-.983-1.337-5.267 1.654-7.9 3.976-1.686 1.478-2.423 1.725-2.74 1.725 1.44 1.548 6.25-3.238 6.25-3.238zM230.289 56.442c-2.353-.845-8.567 3.624-8.883 2.639v-.07c-.14.246-.492.985.386.985 1.053 0 2.809-.704 4.213-1.408 1.405-.703 4.038-1.583 4.74-.528.703-1.055-.105-1.513-.456-1.618z"/>
            <path fill="#B76720" d="M207.993 54.049c.35-.704.632-1.443.737-2.182.105-.739.176-1.442.386-2.181.457-1.69.667-3.343 1.23-4.997.385-1.161.666-2.498 1.79-3.132-.105 0-.21 0-.316.035-1.334.317-1.966 4.293-2.633 7.601-.422 2.041-1.019 4.258-1.616 5.736.14-.282.281-.598.422-.88zM215.085 51.128c.773-1.126 1.791-2.216 2.493-3.413.703-1.161.667-2.569 1.65-3.624.527-.563 1.265-1.091 2.037-1.478-.07-.035-.14-.07-.21-.07-1.09-.458-2.634.985-3.617 3.624-.737 1.935-2.669 4.75-3.933 6.123.632-.212 1.194-.563 1.58-1.162zM219.755 55.562c.422-.176.808-.563 1.23-.774.631-.352 1.474-.563 2.036-.985.35-.247.561-.704.842-1.02 1.405-1.584 3.125-2.394 5.127-2.288v-.035c-.983-1.337-5.267 1.654-7.9 3.976a18.87 18.87 0 0 1-1.44 1.161c0-.035.07-.035.105-.035zM230.991 57.11c-.105-.387-.491-.598-.702-.703-2.353-.845-8.567 3.624-8.883 2.639v-.07a1.04 1.04 0 0 0-.176.527c.878.141 1.58-.528 2.423-.774.702-.211 1.44-.246 2.142-.211.912-1.619 3.546-2.358 5.196-1.408zM209.432 70.095c-3.23-.458-2.387-5.173-2.387-5.173s-1.405 1.76-3.511 0c-2.107-1.76-.703-5.63-1.054-8.093-.35-2.463-1.404-5.278-2.107-6.334-.491-.739.527-1.795 1.23-2.393-.949.035-1.58.563-1.932 1.056a1.345 1.345 0 0 0-.105 1.443c.772 1.407 2.703 5.946 1.931 9.29-.983 4.292.983 8.268.983 8.268s3.476 2.464 6.426 3.484c2.95.985 5.618-1.654 7.584-3.624l.632-.634c-2.353 1.619-5.442 3.027-7.69 2.71z"/>
            <path fill="#B76720" d="M209.678 55.597s1.405.352 1.405 2.463c0 2.147-3.23 5.244-3.23 5.244s3.23-4.54 1.825-7.707z"/>
            <path fill="#E27310" d="M214.067 54.014s2.107 1.055 2.81 2.463c0 0-1.054-3.167-2.81-2.463zM218.983 57.885s1.053 1.055 1.404 2.11c0 0 0-2.11-1.404-2.11zM220.738 61.403s.352 1.056 0 1.76c0 0 .703-1.408 0-1.76z"/>
            <path fill="#B76720" d="M211.89 57.85s3.37 2.674 5.829 3.026c0 0-3.16 0-4.565-1.408-1.404-1.408-1.264-1.619-1.264-1.619z"/>
            <path fill="#FF8A08" d="M195.633 73.156s6.18-1.9 8.638 6.721c0 0 1.123.598 1.755-.14.632-.775 2.845-4.118 5.654-3.977 2.844.106-4.74-10.556-12.43-9.923 0 0-3.125.598-2.247 2.64.878 2.005-3.336 2.357-1.37 4.68z"/>
            <path fill="#F27F0C" d="M200.725 70.975c2.738-.212 6.495-.775 10.182 4.785.246-.035.492-.07.773-.035 2.844.106-4.74-10.557-12.43-9.923 0 0-3.125.598-2.247 2.639.878 2.04-3.336 2.393-1.37 4.715 0 0 1.019-.316 2.388-.105.386-.986 1.194-1.97 2.704-2.076z"/>
            <path fill="#E27310" d="M197.81 72.206c1.054-.915 1.756-2.04 3.055-2.71 2.669-1.337 5.829-.316 8.251 1.091.281.176.527.317.808.493-2.458-2.745-6.53-5.665-10.674-5.313 0 0-3.125.598-2.247 2.639.842 1.97-3.02 2.357-1.58 4.469.842.105 1.65 0 2.387-.669z"/>
            <path fill="#B76720" d="M195.844 71.925c.527-.95 1.65-1.549 2.037-2.534.316-.88.175-1.583.948-2.252.632-.528 1.404-.739 2.212-.844.632-.07 1.299-.036 1.93.035-1.228-.423-2.492-.634-3.756-.528 0 0-3.125.598-2.247 2.639.842 2.006-3.125 2.358-1.51 4.54.105-.353.21-.704.386-1.056zM200.9 70.376s4.916 1.408 5.97 6.334c0 0 1.053-5.982-5.97-6.334z"/>
            <path fill="#494949" d="M162.277 98.175s-1.756-2.463.351-7.39c2.107-4.926 8.076-2.815 8.076-2.815s-4.916-3.167-8.427 1.056c-3.511 4.223 0 9.149 0 9.149z" opacity=".3"/>
            <path fill="#494949" d="M168.948 89.378c-5.618 1.76-6.671 7.038-6.671 7.038s0-3.52 2.107-5.279c2.106-1.759 4.564-1.759 4.564-1.759z" opacity=".3"/>
        </g>
        <g>
            <path fill="#FF8A08" d="M106.063 39.235s-4.495-4.68-10.815 1.724c0 0-1.264 0-1.474-.985-.211-.986-.527-4.962-3.055-6.229-2.528-1.266 9.234-6.967 15.66-2.709 0 0 2.458 2.04.702 3.413-1.72 1.373 1.79 3.695-1.018 4.786z"/>
            <path fill="#FF8A08" d="M102.446 31.564s3.652-2.534 4.846-6.756c.913-3.308 4.81-6.334 6.144-7.214.457-.281.667-.81.597-1.337-.14-.845-.632-2.006-2.352-2.252-2.774-.387-4.073 2.639-4.705 3.8-.632 1.161-1.72 2.463-2.423 1.69-.702-.775.105-4.646 1.124-7.883 1.018-3.202 2.317-7.002 1.334-7.917-.983-.915-2.669.035-3.547 3.695-.877 3.66-2 6.439-2.598 6.122-.562-.316-1.404-5.665-1.018-8.48.386-2.78-.246-4.786-1.44-4.926-1.755-.212-2.528.492-2.317 7.002.21 6.51-1.58 6.299-1.58 6.299s-.597.422-1.79-2.886c-1.195-3.307-3.547-7.952-5.022-7.284-1.51.669.667 5.63 1.23 6.686.56 1.056 2.07 3.765 1.298 4.469-.772.704-4.248-6.193-6.53-6.615-1.546-.282-2.283 1.407 1.544 6.122 3.792 4.716 4.284 7.988 5.056 10.698.773 2.674 1.826 6.263 4.916 6.826 3.09.563 7.233.14 7.233.14z"/>
            <path fill="#F27F0C" d="M92.299 17.91c-3.336-.773-1.931 7.531 2.387 9.889 4.32 2.357 5.267-3.977 5.267-3.977 1.967 5.032 5.724-.035 5.934-1.9.246-1.865 3.441-3.343 4.565-3.906 1.123-.563 1.474-2.005.421-2.99-.562-.528-1.404-.317-2.072 0 .703-.704 1.65-1.197 2.88-1.021 1.72.246 2.212 1.407 2.352 2.252.07.528-.14 1.056-.597 1.337-1.334.88-5.231 3.906-6.144 7.214-1.194 4.257-4.846 6.756-4.846 6.756s-4.213.492-7.303-.07c-3.09-.564-4.108-4.153-4.916-6.827-.491-1.724-.878-3.695-2.106-6.158 2.317-3.73 4.178-.598 4.178-.598z"/>
            <g fill="#F27F0C">
                <path d="M98.514 11.647c.035-.774-.387-2.217-.387-2.217 1.019-1.865-.175-4.117-.175-4.117.983-1.055.456-3.765-.632-3.976-.562-.105-.878.317-1.089.774.316-1.9 1.054-2.146 2.177-2.005 1.194.14 1.826 2.146 1.44 4.926-.386 2.569.316 7.319.878 8.304-.843.634-2.247-.915-2.212-1.689zM88.226 4.82c-.492.916-.105 2.358.667 3.168 0 0-.035.774.702 2.393.738 1.618.878 1.301.878 1.301s1.124 2.147-.176 2.64c.457-.88-.912-3.343-1.44-4.329-.56-1.055-2.703-6.017-1.228-6.685.808-.352 1.826.774 2.809 2.463-.737-.74-1.861-1.548-2.212-.95zM103.745 16.363c.07-1.584-.877-2.077-.877-2.077 2.563-1.02 1.615-4.539 1.615-4.539 1.966-1.513 2.177-4.61.807-4.997-.316-.07-.562-.105-.772-.07.843-1.337 1.79-1.583 2.458-.95.983.915-.316 4.715-1.335 7.917-1.018 3.202-1.825 7.108-1.123 7.882.105.141.246.212.386.212-1.159.633-1.194-1.936-1.159-3.378z"/>
            </g>
            <path fill="#F27F0C" d="M101.744 17.066s-2.282.528-3.37.317c0 0-1.616.739-2.704.528-1.089-.211-1.405-.352-1.405-.352s-.948.387-1.58.387c0 0 2.317 1.232 4.038.985 1.756-.281 5.021-1.865 5.021-1.865z"/>
            <path fill="#E27310" d="M89.174 17.489c-1.334 2.216 3.546 9.852 6.004 11.19 2.458 1.337 4.81-2.182 4.81-2.182 1.967 2.287 4.846.668 5.934-3.554 1.089-4.223 6.32-4.962 6.25-7.003-.035-1.161-1.123-1.618-2.036-1.76.456-.175.983-.245 1.58-.175 1.72.246 2.212 1.407 2.352 2.252.07.528-.14 1.056-.597 1.337-1.334.88-5.231 3.906-6.144 7.214-1.194 4.257-4.846 6.756-4.846 6.756s-4.213.492-7.303-.07c-3.09-.564-4.108-4.153-4.916-6.827-.772-2.674-1.264-5.947-5.056-10.697a6.763 6.763 0 0 1-.456-.598c.807.281 1.44.316 1.44.316.034 2.85 2.984 3.8 2.984 3.8z"/>
            <path fill="#E27310" d="M100.972 17.418s-3.898 1.654-9.516.176c0 0 8.006 2.604 8.743 7.812 0 0-1.124-5.63.773-7.988zM104.167 15.975c.21-1.09-.738-1.618-.738-1.618s1.44-.422 1.826-2.604c.386-2.182-.878-2.076-.878-2.076l.948-.282c.948-.281 1.51-2.78 1.264-4.504-.105-.81-.35-1.231-.561-1.478.316-.035.632.07.913.317.983.915-.316 4.715-1.335 7.917-1.018 3.202-1.826 7.108-1.123 7.882.105.106.21.176.316.212-.983 1.02-.843-2.71-.632-3.766zM99.005 10.732c.246-1.865-.421-5.067-.421-5.067s1.053-2.639 0-4.398C98.233.633 97.847.317 97.53.14c.245-.07.561-.035.877 0 1.194.14 1.826 2.146 1.44 4.926-.351 2.498.246 7.003.807 8.199-.456-.211-1.825-.95-1.65-2.534zM90.333 7.565c-.773-3.307-2.318-3.73-3.125-3.694.07-.282.21-.493.456-.599 1.51-.668 3.827 3.977 5.021 7.284.773 2.112 1.3 2.675 1.58 2.85-2.036.67-3.932-5.84-3.932-5.84zM83.661 7.847c2.458.422 5.759 7.32 6.531 6.615l.035-.035c0 .282-.035 1.091-.807.669-.913-.493-2.142-1.97-3.02-3.273-.878-1.302-2.774-3.343-3.897-2.744-.106-1.267.807-1.267 1.158-1.232z"/>
            <path fill="#B76720" d="M104.342 16.538c.035-.774.14-1.583.386-2.287s.527-1.372.703-2.111c.421-1.69 1.018-3.273 1.334-4.962.21-1.196.632-2.498-.07-3.624.105.035.175.106.28.176.984.915-.315 4.715-1.334 7.917-.632 1.97-1.158 4.223-1.334 5.842.035-.317.035-.634.035-.95zM99.532 10.556c-.14-1.372-.492-2.815-.527-4.187-.035-1.337.632-2.569.316-3.941-.175-.739-.597-1.583-1.088-2.287.07 0 .14 0 .21.035 1.194.14 1.826 2.146 1.44 4.926-.28 2.041.07 5.454.527 7.284-.492-.563-.808-1.126-.878-1.83zM93.352 12.175c-.28-.352-.456-.88-.702-1.267-.386-.598-1.018-1.196-1.3-1.83-.175-.387-.175-.88-.245-1.301-.456-2.077-1.58-3.59-3.406-4.47h.035c1.51-.668 3.828 3.977 5.021 7.285.281.739.527 1.302.738 1.689-.106-.036-.14-.07-.14-.106zM82.713 8.128c.281-.316.703-.316.948-.281 2.458.422 5.759 7.32 6.531 6.615l.035-.035c0 .106 0 .352-.07.528-.843-.317-1.124-1.232-1.756-1.865a5.519 5.519 0 0 0-1.79-1.196c0-1.9-2.002-3.836-3.898-3.766zM95.424 29.875c3.055 1.126 4.564-3.378 4.564-3.378s.387 2.217 3.09 1.689c2.704-.528 3.3-4.61 4.81-6.58 1.475-2.006 3.758-3.942 4.881-4.54.773-.387.386-1.83.07-2.674.808.457 1.089 1.232 1.194 1.865.07.528-.14 1.056-.597 1.337-1.334.88-5.231 3.906-6.144 7.214-1.194 4.257-4.846 6.756-4.846 6.756s-4.213.492-7.303-.07c-3.09-.564-4.108-4.153-4.916-6.827-.07-.282-.175-.563-.246-.845 1.264 2.57 3.301 5.279 5.443 6.053z"/>
            <path fill="#B76720" d="M102.165 17.066s-1.404-.352-2.422 1.478c-1.019 1.865.316 6.158.316 6.158s-.668-5.524 2.106-7.636z"/>
            <path fill="#E27310" d="M99.075 13.583s-2.352-.106-3.651.809c0 0 2.458-2.287 3.651-.81zM92.896 14.603s-1.44.422-2.247 1.161c0 0 1.018-1.865 2.247-1.16zM89.665 16.82s-.807.739-.842 1.548c0 0 .07-1.583.842-1.548z"/>
            <path fill="#B76720" d="M99.11 17.946s-4.248.739-6.565-.14c0 0 2.773 1.512 4.67.95 1.896-.529 1.896-.81 1.896-.81z"/>
            <path fill="#FF8A08" d="M106.063 39.235s-4.495-4.68-10.815 1.724c0 0-1.264 0-1.474-.985-.211-.986-.527-4.962-3.055-6.229-2.528-1.266 9.234-6.967 15.66-2.709 0 0 2.458 2.04.702 3.413-1.72 1.373 1.79 3.695-1.018 4.786z"/>
            <path fill="#F27F0C" d="M102.622 34.836c-2.283-1.513-5.302-3.835-11.236-.703l-.632-.423c-2.528-1.267 9.234-6.967 15.66-2.71 0 0 2.458 2.042.702 3.414-1.755 1.372 1.756 3.695-1.053 4.786 0 0-.738-.775-2.037-1.232.106-1.056-.14-2.287-1.404-3.132z"/>
            <path fill="#E27310" d="M104.553 37.335c-.457-1.337-.562-2.64-1.37-3.836-1.685-2.428-4.95-3.096-7.76-3.026-.315 0-.631.035-.947.07 3.476-1.231 8.462-1.794 11.903.493 0 0 2.458 2.04.702 3.413-1.685 1.337 1.51 3.519-.772 4.645-.738-.317-1.405-.81-1.756-1.76z"/>
            <path fill="#B76720" d="M106.414 38.038c0-1.09-.702-2.146-.562-3.202.14-.95.597-1.478.246-2.463-.281-.774-.878-1.337-1.545-1.794a8.896 8.896 0 0 0-1.72-.915c1.263.21 2.492.668 3.546 1.372 0 0 2.458 2.04.702 3.413-1.685 1.337 1.58 3.59-.843 4.715.106-.351.176-.739.176-1.126zM102.762 34.273s-4.986-1.126-8.286 2.675c0 0 1.966-5.771 8.286-2.675z"/>
        </g>
        <g transform="translate(115.859 77.414)">
            <path fill="#702B28" d="M10.85 19.67c4.95 1.161 14.747 2.604 19.065-4.54 1.264-2.075 1.58-8.62-4.213-8.796-8.11-.246-8.602 1.231-12.29-1.056C10.675 3.554 7.269-1.583 3.407.528.42 2.146-1.088 8.586 2.633 14.11c1.896 2.85 4.881 4.75 8.217 5.56z"/>
            <path fill="#300A05" d="M6.074 9.29c2.915-2.956 8.392-1.9 12.15-2.745-1.792.106-2.845-.07-4.811-1.267C10.674 3.554 7.268-1.583 3.406.528.42 2.146-1.088 8.586 2.633 14.11c.527.775 1.124 1.443 1.756 2.077-.456-2.428-.105-5.068 1.685-6.897z"/>
            <path fill="#D37999" d="M22.015 9.325c-10.569 1.196-13.342 7.354-14.15 9.29.948.457 1.966.809 2.985 1.055 4.95 1.161 14.747 2.604 19.065-4.54.703-1.195 1.124-3.764.316-5.84-2.212-.282-4.915-.352-8.216.035z"/>
            <path fill="#FFC0DA" d="M12.956 18.966a15.058 15.058 0 0 1-2.984-1.055c.632-1.513 2.458-5.56 8.18-7.847-7.408 2.04-9.585 6.862-10.287 8.55.948.458 1.966.81 2.985 1.056 3.51.845 9.41 1.795 14.115-.246-4.249 1.056-9.024.246-12.009-.458z"/>
            <path fill="#B76780" d="M30.196 9.29c-2.177-.282-4.88-.352-8.216.035-2.388.281-4.354.81-6.004 1.478a13.79 13.79 0 0 1 6.074 2.217c1.861 1.266 3.687 3.343 4.354 5.665a10.3 10.3 0 0 0 3.511-3.554c.703-1.196 1.124-3.765.281-5.841z"/>
            <path fill="#935269" d="M30.196 9.29a34.289 34.289 0 0 0-2.914-.211c.386 2.357.351 4.75-.421 7.072a9.889 9.889 0 0 1-.773 1.76c.106.246.21.528.281.81a10.3 10.3 0 0 0 3.511-3.555c.738-1.231 1.159-3.8.316-5.876z"/>
            <path fill="#FFF" d="M5.548 4.715c1.334 1.548 4.459 4.399 10.463 5.666 4.6.95 7.97.563 10.042 0a6.414 6.414 0 0 0 3.406-2.323c-.773-.985-2.001-1.654-3.827-1.724-8.111-.246-8.603 1.231-12.29-1.056C10.99 3.836 8.217-.106 5.057.035l-.21 2.604c-.036.74.21 1.513.702 2.076z"/>
            <path fill="#E8ECF3" d="M12.71 6.475c2.985 1.97 5.864 2.744 9.375 1.83 1.932-.493 3.828-1.021 5.724-1.549a5.476 5.476 0 0 0-2.107-.422c-8.11-.246-8.602 1.231-12.29-1.056C11.307 3.976 8.814.598 6.005.106c1.861 2.428 4.143 4.68 6.707 6.369z"/>
            <path fill="#FFF" d="M6.566 11.436c-1.053-2.463 5.267-3.519 5.267-3.519S2.949 5.63.983 10.627a13.662 13.662 0 0 0 1.65 3.483c1.896 2.85 4.916 4.75 8.217 5.56 3.967.95 11.06 2.041 15.94-1.231-13.377.985-19.24-4.716-20.224-7.003z"/>
            <path fill="#E8ECF3" d="M15.484 19.6c-2.071-.387-4.248-.774-6.18-1.584-2.949-1.196-6.355-4.469-5.617-7.987.21-.986.667-1.76 1.264-2.393-1.72.387-3.3 1.231-3.968 2.99a13.662 13.662 0 0 0 1.65 3.484c1.896 2.85 4.916 4.75 8.217 5.56 2.633.634 6.67 1.337 10.498.74-1.966-.106-3.932-.458-5.864-.81z"/>
            <ellipse cx="22.015" cy="14.075" fill="#B76780" rx="1" ry="1"/>
            <ellipse cx="23.771" cy="16.714" fill="#B76780" rx="1" ry="1"/>
            <ellipse cx="24.473" cy="14.779" fill="#B76780" rx="1" ry="1"/>
            <path fill="#FFF" d="M27.598 9.818l.351-3.379-.175 3.238.983-2.006-.703 2.111 2.634-1.724-2.493 1.97 2.774-.351-2.739.598 1.475.633-1.51-.492 1.053 2.181-1.158-2.146.175 3.484-.456-3.449-2.177 3.026 1.86-3.096-3.651-.211 3.511.035-2.212-1.936 2.282 1.654-.561-1.83zM4.073 7.354l.351-3.378-.175 3.238.983-2.006-.703 2.111 2.634-1.724-2.493 1.97 2.774-.351-2.739.598 1.475.633-1.51-.492 1.053 2.181-1.158-2.146.175 3.483-.456-3.448-2.177 3.026 1.86-3.096L.317 7.74l3.511.036L1.615 5.84l2.282 1.654-.561-1.83z"/>
            <path fill="#48515E" d="M3.406 1.232c3.862-2.112 7.268 3.026 10.007 4.75 3.687 2.287 4.178.81 12.289 1.056 3.616.105 4.845 2.71 4.95 5.137.106-2.604-.982-5.736-4.95-5.841-8.11-.246-8.602 1.231-12.29-1.056C10.675 3.554 7.269-1.583 3.407.528 1.616 1.513.35 4.223.456 7.46c.07-2.92 1.264-5.314 2.95-6.228z"/>
            <path fill="#48515E" d="M28.827 7.354c1.685 2.147 1.264 5.63.386 7.073-4.284 7.143-14.08 5.7-19.066 4.54-2.387-.564-4.6-1.725-6.355-3.343 1.861 2.04 4.354 3.413 7.058 4.046 4.95 1.161 14.747 2.604 19.065-4.54.948-1.618 1.37-5.805-1.088-7.776z"/>
        </g>
        <path stroke="#48515E" stroke-linecap="round" stroke-width="8.448" d="M134.082 118.795s-16.187 19.037-15.309 22.415c.843 3.378 16.994 7.953 16.994 7.953"/>
        <path fill="#ACE63A" d="M68.88 153.772s-5.268-6.685-1.405-11.964c3.862-5.278 9.48-1.407 9.48-1.407s.702-2.111 2.107-2.815c1.404-.704 2.809 0 2.809 0s5.969-.704 8.075-2.815c2.107-2.112 5.97 6.685 6.32 9.852 0 0-2.106 2.815-14.044 6.686-11.938 3.87-13.343 2.463-13.343 2.463z"/>
        <g fill="#494949" opacity=".08">
            <path d="M81.87 137.586s.527-.07 1.3-.211c-.808.035-1.3.21-1.3.21zM74.989 139.45c-2.002-.668-5.092-.95-7.514 2.358-3.863 5.279 1.404 11.964 1.404 11.964s1.089 1.091 9.586-1.302c-.702-.352-1.405-.739-2.212-1.16-10.78-5.56-3.933-10.381-1.264-11.86zM96.267 144.623c-.352-3.167-4.214-11.964-6.32-9.852-1.475 1.478-4.916 2.287-6.777 2.604 1.474-.07 3.897.387 5.723 3.378 1.86 3.026-.14 6.685-1.685 8.797 7.549-2.92 9.059-4.927 9.059-4.927z"/>
        </g>
        <g fill="#494949" opacity=".28">
            <path d="M89.946 134.77a4.21 4.21 0 0 1-.737.599c.843 1.302 2.247 3.8 2.493 6.44.351 3.87-8.427 3.87-10.885 5.278-2.458 1.407-5.267 0-5.267 0s-4.213 4.574-6.67-.352c-1.862-3.73 2.738-6.475 5.055-7.566-1.93-.387-4.424-.14-6.46 2.64-3.863 5.278 1.404 11.963 1.404 11.963s1.405 1.408 13.343-2.463c11.938-3.87 14.045-6.686 14.045-6.686-.352-3.167-4.214-11.964-6.32-9.852z"/>
        </g>
        <path fill="#E1E5EA" d="M67.545 151.661c.667 1.302 1.3 2.111 1.3 2.111s1.404 1.408 13.342-2.463c11.938-3.87 14.044-6.686 14.044-6.686-.07-.703-.316-1.653-.667-2.674-9.304 5.912-22.787 8.797-28.02 9.712z"/>
        <path fill="#494949" d="M79.062 137.938s0 .703.702 1.055.351 3.167-.351 3.871c-.702.704 2.106 1.408 2.106 1.408s1.405-.704 1.054-1.408c0 0 .351 1.056 2.107.704 1.755-.352 3.16-2.815 2.106-3.871-1.053-1.056-1.404-1.056-1.404-1.056l.632 2.041s-3.968-.809-4.67-1.865c-.702-1.055-1.37-1.02-1.37-1.02l-.912.14z" opacity=".28"/>
        <g fill="#FFF" opacity=".59">
            <path d="M71.197 153.702c.035.105.105.176.175.281.597-.07 1.37-.176 2.282-.351a75.79 75.79 0 0 1-1.755-2.815c-.667.14-1.3.281-1.861.387.316.844.702 1.689 1.159 2.498zM77.095 151.731c.14.317.281.634.457.95.527-.14 1.088-.316 1.685-.492a40.766 40.766 0 0 1-2.177-2.71c-.246.07-.526.141-.772.211.246.704.526 1.373.807 2.041zM83.24 150.957c.667-.21 1.3-.457 1.896-.668a98.147 98.147 0 0 1-.702-3.097c-.667.246-1.37.493-2.037.704.246 1.056.527 2.076.843 3.061zM89.63 148.53c.808-.353 1.51-.67 2.142-.986a19.965 19.965 0 0 1-.456-3.237 33.76 33.76 0 0 1-2.318 1.055c.176 1.091.387 2.147.632 3.167z"/>
        </g>
        <g fill="#C4C8CC">
            <path d="M70.424 151.098c-1.123.246-2.107.422-2.88.563.668 1.302 1.3 2.111 1.3 2.111s.492.493 3.336.106a24.802 24.802 0 0 1-1.756-2.78zM76.885 149.585a93.089 93.089 0 0 1-3.336.844c.316.528.667 1.056 1.053 1.584.316.422.668.81 1.019 1.231.842-.21 1.79-.457 2.844-.738a81.63 81.63 0 0 1-1.58-2.921zM84.083 147.333c-1.405.493-2.844.95-4.214 1.372.492.95 1.018 1.9 1.545 2.85.246-.07.492-.175.773-.246.948-.317 1.86-.598 2.703-.915-.246-1.02-.526-2.04-.807-3.061zM90.754 144.588a51.51 51.51 0 0 1-3.792 1.654c.28 1.02.562 2.041.807 3.061a61.79 61.79 0 0 0 3.687-1.618 32.732 32.732 0 0 0-.702-3.097zM94.23 146.207c1.58-.985 2.001-1.584 2.001-1.584-.07-.703-.316-1.653-.667-2.674-.667.422-1.37.845-2.071 1.232.28.985.526 2.005.737 3.026z"/>
        </g>
        <path fill="#E1E5EA" d="M81.45 137.762s4.915-.035 5.442 1.442c.491 1.513-.948 4.258-2.74 3.871-1.79-.422-3.23-4.187-3.23-4.187l.141-.211s2.633 3.167 3.687 1.653c1.053-1.513-3.371-2.076-3.371-2.076l.07-.492z"/>
        <g fill="#494949" opacity=".1">
            <path d="M84.75 140.33c.316-.457.14-.809-.281-1.126.702.317 1.123.775.702 1.373-.456.633-1.194.422-1.896-.035.562.281 1.089.316 1.475-.212z"/>
        </g>
        <g fill="#494949" opacity=".1">
            <path d="M84.75 140.33c.316-.457.14-.809-.281-1.126.702.317 1.123.775.702 1.373-.456.633-1.194.422-1.896-.035.562.281 1.089.316 1.475-.212z"/>
        </g>
        <path fill="#D7DCE2" d="M82.538 138.5c-.632-.14-1.159-.21-1.159-.21l.07-.493s.738 0 1.686.07a2.044 2.044 0 0 0-.597.634zM81.835 140.788c-.561-.985-.912-1.9-.912-1.9l.14-.211s.386.457.913.95a4.38 4.38 0 0 0-.14 1.16z"/>
        <path fill="#494949" d="M82.011 138.395c-.386-.07-.632-.105-.632-.105l.07-.493s.386 0 .983.035c-.175.14-.316.352-.42.563zM81.555 140.295c-.387-.774-.632-1.407-.632-1.407l.14-.211s.246.281.597.633a4.46 4.46 0 0 0-.105.985z" opacity=".1"/>
        <g fill="#494949" opacity=".1">
            <path d="M83.52 142.16c1.686.387 3.056-2.006 2.81-3.554.28.176.456.352.527.598.491 1.513-.949 4.258-2.74 3.871-.877-.211-1.685-1.231-2.246-2.217.491.634 1.053 1.161 1.65 1.302z"/>
        </g>
        <g fill="#494949" opacity=".1">
            <path d="M86.365 138.641c.246.176.456.352.527.599.456 1.337-.632 3.624-2.107 3.87 1.58-.985 2.036-2.85 1.58-4.469z"/>
        </g>
        <path fill="#E1E5EA" d="M80.923 137.199s-1.826-4.399-3.512-3.73c-1.685.668-1.685 2.498-.913 3.202.773.704 3.196 1.619 3.196 1.619l.14-.141s-2.563-1.478-2.212-2.147c.316-.668 1.475-.739 2.598 1.091l.703.106z"/>
        <path fill="#494949" d="M78.675 137.586c.07-.035.14-.035.211-.07.527.386 1.018.668 1.018.668l-.14.14s-.737-.28-1.51-.668c.105 0 .246-.035.421-.07z" opacity=".2"/>
        <path fill="#494949" d="M79.062 137.656c.421.282.807.493.807.493l-.14.14s-.386-.14-.878-.387c.14-.035.21-.105.21-.246z" opacity=".2"/>
        <g fill="#494949" opacity=".2">
            <path d="M77.622 134.172c-1.053.423-1.44 1.338-1.404 2.112-.422-.845-.211-2.217 1.228-2.78 1.686-.669 3.512 3.73 3.512 3.73l-.14-.035c-.633-1.232-1.932-3.52-3.196-3.027z"/>
        </g>
        <path fill="#E1E5EA" d="M80.22 138.36c.667 2.006-.386 4.082-.386 4.082l2.037 1.196c.877-2.639-1.089-5.032-1.089-5.032l-.562-.246z"/>
        <path fill="#494949" d="M80.396 138.43l.351.176s1.966 2.393 1.088 5.032l-.42-.246c.807-2.393-.703-4.54-1.02-4.962z" opacity=".2"/>
        <path fill="#E1E5EA" d="M80.536 138.888s.843.528 1.159-.458c.316-.985-.246-1.478-1.194-1.583-.983-.106-1.334.81-1.123 1.161.21.387 1.158.88 1.158.88z"/>
        <path fill="#494949" d="M80.36 136.847c-.35.281.176 1.126.317 1.337.21.352.491.493.491.493s.14.07.316.14c-.386.458-.983.07-.983.07s-.948-.527-1.158-.879c-.176-.317.175-1.196 1.018-1.161z" opacity=".2"/>
        <path fill="#494949" d="M80.36 136.847c-.35.281-.666.633-.526.844.21.352 1.37.986 1.37.986s.14.07.315.14c-.386.458-.983.07-.983.07s-.948-.527-1.158-.879c-.211-.317.14-1.196.983-1.161z" opacity=".08"/>
    </g>
</svg>
