<svg xmlns="http://www.w3.org/2000/svg" width="142" height="181" viewBox="0 0 142 181">
    <g fill="none" fill-rule="evenodd" transform="translate(0 -6)">
        <ellipse cx="66.112" cy="181.44" fill="#494949" opacity=".28" rx="63.84" ry="5.44"/>
        <path fill="#F4F4F4" d="M20.512 15.68h121.28v151.04H20.512z"/>
        <g fill="#8C8C8C">
            <path d="M74.592 25.28h56.96v2.88h-56.96zM74.592 31.68h56.96v2.88h-56.96zM74.592 38.08h56.96v2.88h-56.96zM74.592 44.48h56.96v2.88h-56.96zM74.592 50.88h56.96v2.88h-56.96z"/>
        </g>
        <g fill="#8C8C8C">
            <path d="M26.592 60.8h104.96v2.88H26.592zM26.592 67.2h104.96v2.88H26.592zM26.592 73.6h104.96v2.88H26.592zM26.592 80h104.96v2.88H26.592zM26.592 86.4h104.96v2.88H26.592zM26.592 92.8h104.96v2.88H26.592zM26.592 99.2h104.96v2.88H26.592zM26.592 105.6h104.96v2.88H26.592zM26.592 112h104.96v2.88H26.592zM26.592 118.4h104.96v2.88H26.592zM26.592 124.8h104.96v2.88H26.592zM26.592 131.2h104.96v2.88H26.592zM26.592 137.6h104.96v2.88H26.592zM26.592 144h104.96v2.88H26.592zM26.592 150.4h104.96v2.88H26.592z"/>
        </g>
        <path fill="#161616" d="M108.064 140.8c-.448-10.56-19.68-51.36-19.68-51.36s13.088 4.64 20.768 7.52c7.68 2.88 6.08-7.04 5.632-13.76-.448-6.72-3.712-9.28-5.312-10.56-1.6-1.28-5.12-17.92-5.12-17.92s6.72-7.68-.64-19.2c-7.36-11.52-19.52-2.24-24 7.68s16.96 14.08 16.96 14.08 5.76 10.56 6.112 16.8c.352 6.24-10.912 4-16.8-1.92-5.92-5.92-24.832-17.44-30.272-13.6-5.44 3.84-16.96 28.8-10.048 39.52 6.176 9.568 12.384 58.336 13.664 68.64H74.56l-1.856-5.76 12.832-3.36 2.656 9.12h9.984l-5.92-11.52c-.064 0 16.256-3.84 15.808-14.4z" opacity=".28"/>
        <path d="M25.632 54.56c.032 0 .032 0 .064-.032M25.568 54.592h.032M25.6 54.56h.032"/>
        <path fill="#C7CDD3" d="M18.4 99.936c2.208-.128 4.384-.416 6.56-.8-.512-10.048-.448-19.968-.224-27.904-1.92-.448-3.424-1.408-4.576-2.4-2.272 8.64-4.608 19.936-6.016 31.104 1.408.096 2.848.096 4.256 0z"/>
        <path fill="#E1E5EA" d="M40.768 95.328c2.304-1.024 4.544-2.144 6.848-3.168-4.832-8.128-9.664-16.384-13.088-23.36a9.024 9.024 0 0 1-3.584 2.144c-.512.16-1.024.288-1.536.384 1.6 6.368 3.936 14.784 7.712 25.504 1.216-.48 2.432-.992 3.648-1.504z"/>
        <path fill="#D7DCE2" d="M33.664 97.568c.928-.16 1.856-.32 2.752-.48.224-.096.448-.16.672-.256-3.744-10.72-6.08-19.136-7.712-25.504-1.76.352-3.296.288-4.672-.064-.224 7.904-.288 17.824.224 27.904 2.976-.512 5.856-1.12 8.736-1.6zM11.584 99.712c.832.128 1.696.192 2.528.256 1.408-11.136 3.776-22.464 6.016-31.104a12.199 12.199 0 0 1-1.44-1.44c-3.072 9.76-5.856 23.072-7.52 32.224.192.032.32.032.416.064zM59.232 86.464c1.792-.96 3.68-1.92 5.344-3.104-3.168-2.784-16.928-14.976-21.312-18.752-1.376-1.184-2.88-2.752-4.48-4.288a23.005 23.005 0 0 1-1.248 3.904c6.496 6.08 14.624 14.24 21.696 22.24z"/>
        <path fill="#E8ECF3" d="M48.8 91.584c2.848-1.248 5.696-2.496 8.416-4.032.64-.352 1.312-.736 2.016-1.088-7.104-8-15.2-16.16-21.696-22.24-.736 1.696-1.696 3.296-3.008 4.544 3.424 6.976 8.224 15.2 13.088 23.36.384-.16.8-.352 1.184-.544z"/>
        <path fill="#616E7A" d="M28.288 57.568c-1.28-1.984-2.4-2.848-2.624-3.008h-.032c.096.256.544 1.824 1.056 5.024.352 2.176 1.12 4.96 2.016 8.736.224.928.48 1.952.736 2.976.48-.096.992-.224 1.536-.384 1.408-.448 2.592-1.216 3.584-2.144-.256-.48-.48-.992-.704-1.472-2.048-4.224-4.128-7.488-5.568-9.728z"/>
        <path fill="#454F59" d="M22.976 58.976c-.64 2.24-1.824 6.112-2.656 9.312-.064.192-.096.384-.16.576 1.152.992 2.688 1.952 4.576 2.4.032-.8.032-1.568.064-2.304.128-3.872-.16-7.36 0-9.824.16-2.72.64-4.256.768-4.576-.16.064-.32.128-.48.224-.128.064-.256.128-.352.224-.544.832-1.216 2.112-1.76 3.968z"/>
        <path fill="#535E6B" d="M26.656 59.584c-.48-3.2-.96-4.768-1.056-5.024h-.032c-.096.32-.608 1.856-.768 4.576-.16 2.464.16 5.952 0 9.824a52.43 52.43 0 0 0-.064 2.304c1.344.32 2.912.384 4.672.064-.256-1.056-.512-2.048-.736-2.976-.896-3.776-1.696-6.592-2.016-8.768z"/>
        <path fill="#768893" d="M29.216 56.256c1.696 1.536 4.128 4.064 6.912 6.624l1.44 1.344c.544-1.28.96-2.624 1.248-3.904-3.936-3.84-8.416-7.616-13.088-5.792.384.064 1.92.32 3.488 1.728z"/>
        <path fill="#535E6B" d="M20.32 68.288c.832-3.2 2.016-7.072 2.656-9.312.544-1.856 1.216-3.136 1.76-3.968-1.952 1.376-4.032 6.176-5.984 12.416.384.448.864.96 1.44 1.44a3.72 3.72 0 0 1 .128-.576z"/>
        <path fill="#6A7984" d="M28.288 57.568c1.44 2.24 3.52 5.504 5.536 9.76.224.48.48.96.704 1.472 1.312-1.248 2.304-2.848 3.008-4.544-.48-.448-.992-.928-1.44-1.344-2.784-2.56-5.184-5.088-6.912-6.624-1.568-1.408-3.104-1.664-3.488-1.728-.032 0-.032 0-.064.032.256.128 1.344.992 2.656 2.976z"/>
        <path fill="#494949" d="M11.584 99.712c2.24.32 4.544.352 6.816.256 3.264-.16 6.528-.768 9.792-1.376-3.264-13.984-4.896-28.32-4.576-42.432-1.632 2.112-3.296 6.24-4.896 11.296-3.072 9.76-5.856 23.072-7.52 32.224.16 0 .288 0 .384.032z" opacity=".1"/>
        <path fill="#FFF" d="M46.976 92.416a46.02 46.02 0 0 1 1.824-.832c2.848-1.248 5.696-2.496 8.416-4.032.16-.096.352-.192.512-.288-4.064-8.544-8.48-15.424-15.968-21.888 4.352 11.552 5.28 20.704 5.216 27.04z" opacity=".32"/>
        <path fill="#FFF" d="M26.944 55.168s3.84-1.696 9.088 6.176c0 0 0 5.504-5.056 8.224 0 0 1.088-5.984-1.888-9.376-2.912-3.424-2.144-5.024-2.144-5.024z" opacity=".31"/>
        <path fill="#48515E" d="M18.048 110.624S3.232 120.96 2.272 125.44c-.96 4.48 14.72 14.08 14.72 14.08l2.24-2.56s-5.6-10.08-6.88-11.36c0 0 8.64-1.28 11.84-4.8 3.2-3.52-6.144-10.176-6.144-10.176z"/>
        <path fill="#161616" d="M14.56 128.896c-.32.16-.704.128-1.024-.096-.8 1.92-1.664 3.84-2.944 5.504-.128.192-.288.352-.448.544a99.865 99.865 0 0 0 6.816 4.672l2.24-2.56c.032 0-2.56-4.672-4.64-8.064zM18.048 110.624s-6.08 4.224-10.688 8.448c2.688 1.44 4.672 3.84 6.56 6.24 2.656-.544 7.904-1.92 10.272-4.512 3.2-3.52-6.144-10.176-6.144-10.176z" opacity=".28"/>
        <path fill="#494949" d="M59.36 78.752C38.016 92.768 19.104 95.2 11.968 95.616c-.256 1.408-.512 2.752-.736 4.032.128.032.256.032.352.064.384.064.736.096 1.12.128.096 0 .192.032.288.032l1.12.096c.32.032.672.032.992.032h2.336c.32 0 .64-.032.96-.032l1.504-.096c.128 0 .288-.032.416-.032.384-.032.768-.064 1.12-.128.128 0 .256-.032.384-.032a97.41 97.41 0 0 0 3.008-.448c.032 0 .064 0 .128-.032.064 0 .096-.032.16-.032.672-.128 1.344-.224 2.016-.352.352-.064.672-.128 1.024-.192 1.824-.352 3.68-.704 5.504-.992.928-.16 1.856-.32 2.752-.48.224-.096.448-.16.672-.256a73.154 73.154 0 0 0 3.648-1.536c2.304-1.024 4.544-2.144 6.848-3.168.384-.192.8-.352 1.184-.544 2.848-1.248 5.696-2.496 8.416-4.032.64-.352 1.312-.736 2.016-1.088 1.792-.96 3.68-1.92 5.344-3.104-.896-.896-2.848-2.592-5.184-4.672z" opacity=".55"/>
        <path fill="#F98C32" d="M11.552 96.64l-1.92 3.2s13.44 23.36 15.36 54.72c0 0 24.96 11.52 58.88-5.12 0 0 1.12-35.04-19.04-69.6l-4.48-.32s-28.48 17.6-48.8 17.12z"/>
        <path fill="#F98C32" d="M11.552 96.64l-1.92 3.2s13.44 23.36 15.36 54.72c0 0 24.96 11.52 58.88-5.12 0 0 1.12-35.04-19.04-69.6l-4.48-.32s-28.48 17.6-48.8 17.12z"/>
        <path fill="#FFF" d="M36.96 145.664a138.92 138.92 0 0 0-.416-3.616c-.096-.8-.064-1.824-.32-2.592.16 1.184.192 1.344.064.48a2.8 2.8 0 0 1-.064-.512c-.064-.512-.16-1.056-.224-1.568-.128-.864-.256-1.728-.384-2.624-.672-4.192-1.44-8.384-2.368-12.544-1.76-7.968-4.064-15.872-7.072-23.456-.224-.608-.448-1.28-.736-1.856-.032-.096-.096-.16-.096-.224l-.96-2.112c-4.384 1.056-8.768 1.664-12.8 1.568l-1.92 3.2s13.44 23.36 15.36 54.72c0 0 4.832 2.24 13.12 3.296-.384-4.032-.736-8.096-1.184-12.16zM61.088 94.24C72 110.336 78.624 129.056 83.136 147.872c.128.576.256 1.184.416 1.76.096-.064.224-.096.32-.16 0 0 1.12-35.04-19.04-69.6l-4.48-.32s-2.816 1.76-7.328 4.128c2.88 3.328 5.568 6.88 8.064 10.56zM59.072 122.688a12.493 12.493 0 0 0-.288-.64c-.224-.48-.416-.992-.64-1.472-.48-1.056-.96-2.08-1.44-3.104a157.288 157.288 0 0 0-3.136-6.112 114.689 114.689 0 0 0-7.296-11.648c-.704-.992-1.472-1.984-2.208-2.976 1.376 1.856.064.128-.224-.256-.352-.416-.672-.832-1.024-1.248a133.238 133.238 0 0 0-3.456-3.968 132.934 132.934 0 0 1 2.368 5.888c6.112 16.192 9.088 33.408 10.816 50.56.352 3.488.672 6.944.96 10.432 4.768-.416 9.984-1.312 15.616-2.944-2.56-11.04-5.728-21.952-10.048-32.512z" opacity=".27"/>
        <path fill="#E8ECF3" d="M25.728 154.88c-.064-.032-.096-.032-.16-.064.064.032.128.032.16.064zM26.048 154.976c-.064-.032-.16-.064-.224-.096a.29.29 0 0 0 .224.096zM25.056 154.592c-.032 0-.032-.032-.064-.032a.1.1 0 0 0 .064.032zM25.184 154.656c-.032 0-.064-.032-.064-.032s.032 0 .064.032zM26.784 155.264c-.256-.096-.48-.16-.672-.256.192.096.416.16.672.256zM25.312 154.688c-.032 0-.064-.032-.096-.032.032.032.064.032.096.032zM25.504 154.784c-.032-.032-.096-.032-.128-.064.032.032.096.032.128.064zM27.168 155.392c-.096-.032-.192-.064-.32-.096.128.032.224.064.32.096zM29.792 156.192c-.16-.032-.32-.096-.448-.128.16.064.288.096.448.128zM30.56 156.416c-.224-.064-.416-.128-.64-.16.224.032.416.096.64.16zM29.152 156.032l-.384-.096c.128 0 .256.064.384.096zM28.608 155.872c-.128-.032-.224-.064-.32-.096.096 0 .192.032.32.096zM27.616 155.552l-.288-.096.288.096zM28.096 155.712c-.096-.032-.224-.064-.32-.096.096 0 .192.064.32.096zM29.792 151.04c.288 1.792.544 3.584.768 5.376a59.877 59.877 0 0 0 8.768 1.6c-.192-2.08-.448-4.16-.704-6.24a138.28 138.28 0 0 1-8.832-.736zM24.992 154.56c-.032-.64-.096-1.28-.128-1.92.032.64.096 1.28.128 1.92zM24.8 152.192c-.064-.64-.096-1.248-.16-1.888.064.608.128 1.248.16 1.888z"/>
        <path fill="#E8ECF3" d="M76.96 146.624a71.05 71.05 0 0 1-8.288 2.624c.288 1.952.608 3.872.896 5.824a76.068 76.068 0 0 1-6.816 1.728 412.279 412.279 0 0 0-1.312-6.08c-2.944.48-5.888.8-8.736.992.48 2.144.96 4.288 1.44 6.4-5.632.544-10.624.384-14.816-.096 10.272 1.152 25.376.416 42.976-7.84a130.35 130.35 0 0 1-4.512 1.984c-.256-1.856-.544-3.68-.832-5.536z"/>
        <path fill="#515151" d="M27.776 155.584c-.064-.032-.096-.032-.16-.064.064.032.096.064.16.064zM29.92 156.256c-.032 0-.096-.032-.128-.032.064 0 .096 0 .128.032zM27.328 155.456c-.032 0-.096-.032-.128-.032.032 0 .064 0 .128.032zM29.344 156.064c-.064-.032-.128-.032-.192-.064a.455.455 0 0 0 .192.064zM25.088 154.624c0-.032 0-.032 0 0 0-.032 0-.032 0 0zM28.8 155.904c-.064-.032-.128-.032-.192-.064a.455.455 0 0 0 .192.064zM28.256 155.744c-.064-.032-.128-.032-.192-.064a.455.455 0 0 0 .192.064zM26.88 155.296c-.032 0-.064-.032-.096-.032.032 0 .064.032.096.032z" opacity=".07"/>
        <path fill="#F27F0C" d="M29.792 151.04c-1.6-9.632-4.448-18.976-7.648-28.224-3.072-8.8-5.664-18.112-10.4-26.176h-.192l-1.92 3.2s12.224 21.28 15.04 50.464c1.376.224 3.104.48 5.12.736z"/>
        <path fill="#515151" d="M25.568 154.816c-.032 0-.064-.032-.064-.032.032 0 .064.032.064.032zM25.376 154.72c-.032 0-.032-.032-.064-.032a.1.1 0 0 0 .064.032zM24.864 152.64c0-.16-.032-.288-.032-.448 0 .128 0 .288.032.448zM25.824 154.912c-.032 0-.064-.032-.064-.032s.032 0 .064.032zM26.112 155.008c-.032 0-.032-.032-.064-.032 0 .032.032.032.064.032zM25.216 154.656s-.032 0-.032-.032c0 .032.032.032.032.032z" opacity=".07"/>
        <path fill="#D7DCE2" d="M24.64 150.304c.064.64.128 1.248.16 1.888 0 .16.032.288.032.448.064.64.096 1.28.128 1.92h.032s.032 0 .064.032h.032c.032 0 .032.032.064.032 0 0 .032 0 .032.032.032 0 .064.032.096.032s.032.032.064.032.096.032.128.064c.032 0 .064.032.064.032.064.032.096.032.16.064.032 0 .064.032.064.032.064.032.128.064.224.096.032 0 .032.032.064.032.192.064.416.16.672.256.032 0 .064.032.096.032.096.032.192.064.32.096.032 0 .096.032.128.032l.288.096c.064.032.096.032.16.064.096.032.192.064.32.096.064.032.128.032.192.064.096.032.224.064.32.096.064.032.128.032.192.064l.384.096c.064.032.128.032.192.064.16.032.288.096.448.128.032 0 .096.032.128.032.192.064.416.128.64.16-.192-1.792-.48-3.584-.768-5.376a176.148 176.148 0 0 1-5.12-.736z"/>
        <path fill="#F4870F" d="M52.736 151.712C48.032 131.296 41.92 110.656 30.24 93.44c-3.04.96-6.112 1.76-9.12 2.336 1.76 3.552 3.2 7.232 4.544 10.944 4.064 11.264 8.288 22.56 11.008 34.24.832 3.584 1.472 7.232 1.984 10.848 4.224.192 9.024.224 14.08-.096z"/>
        <path fill="#E1E5EA" d="M54.176 158.112c-.48-2.144-.96-4.256-1.44-6.4-5.056.352-9.824.32-14.08.096.288 2.08.512 4.16.704 6.24 4.16.448 9.152.576 14.816.064z"/>
        <path fill="#F27F0C" d="M68.224 146.496c-1.888-12-3.712-24.192-7.552-35.776-2.912-8.768-6.816-17.152-10.88-25.408-3.296 1.632-7.136 3.456-11.296 5.12 2.304 3.584 4.416 7.264 6.304 11.104 6.4 12.8 11.104 26.56 14.592 40.416a268.214 268.214 0 0 1 2.048 8.768c2.4-.384 4.8-.864 7.2-1.472a81.616 81.616 0 0 0-.416-2.752z"/>
        <path fill="#D7DCE2" d="M69.568 155.072c-.288-1.952-.608-3.872-.896-5.824a84.532 84.532 0 0 1-7.2 1.472c.448 2.016.896 4.064 1.312 6.08 2.176-.48 4.448-1.024 6.784-1.728z"/>
        <path fill="#515151" d="M82.336 150.176c.512-.224 1.024-.48 1.536-.736-.512.256-1.024.512-1.536.736z" opacity=".07"/>
        <path fill="#F27F0C" d="M83.872 149.44s1.12-35.04-19.04-69.6l-4.48-.32s-1.088.672-2.944 1.728c1.888 3.872 3.776 7.744 5.504 11.68 2.464 5.504 4.704 11.136 6.56 16.896 1.856 5.888 3.168 11.904 4.32 17.952 1.184 6.272 2.208 12.576 3.2 18.88a61.522 61.522 0 0 0 6.784-3.104c.16 3.744.096 5.888.096 5.888z" opacity=".26"/>
        <path fill="#F4F7FC" d="M60.192 93.216s11.2 20.064 13.44 44.704c0 0 2.976 0 9.28-3.456-1.408-11.296-4.768-27.68-12.928-44.8-.128.128-.224.288-.384.448-1.568 1.888-9.408 3.104-9.408 3.104z"/>
        <path fill="#FF681F" d="M64.832 79.84l-1.28-.096c2.752 4.544 4.96 9.408 6.848 14.368 1.92 5.056 3.488 10.24 4.864 15.488.672 2.624 1.344 5.216 1.952 7.84.64 2.72 1.664 5.312 2.4 8 .8 2.848.544 5.76.672 8.672.064 1.248.096 1.536.416 2.816.256 1.088.544 2.176.832 3.264.352 1.28.672 2.624.896 4 .416-.224.864-.448 1.28-.672.192 3.776.128 5.92.128 5.92s1.152-35.04-19.008-69.6z" opacity=".3"/>
        <path fill="#D7DCE2" d="M83.744 143.52a61.522 61.522 0 0 1-6.784 3.104c.288 1.856.576 3.68.864 5.536a88.582 88.582 0 0 0 4.512-1.984c.512-.224 1.024-.48 1.536-.736 0 0 .064-2.144-.128-5.92z"/>
        <path fill="#512503" d="M62.272 91.008c2.496 5.376 4.672 10.88 6.848 16.384 2.048 5.216 4.096 10.4 5.696 15.776 2.656 8.96 4.512 18.176 7.328 27.072.576-.256 1.152-.544 1.728-.832 0 0 1.12-35.04-19.04-69.6l-4.48-.32s-1.248.768-3.392 1.984c2.048 3.04 3.776 6.24 5.312 9.536z" opacity=".13"/>
        <path fill="#FFC76E" d="M60.352 79.52s-28.48 17.6-48.8 17.12l-1.824 3.04c2.88-.032 30.272-.768 55.104-19.84l-4.48-.32z"/>
        <path fill="#512503" d="M16.576 96.416c-1.696.16-3.392.256-5.024.224l-1.824 3.04c.736 0 2.976-.064 6.336-.416.16-.96.32-1.888.512-2.848zM60.8 82.752a105.957 105.957 0 0 0 4.032-2.912l-4.48-.32s-.864.544-2.368 1.408c.928.608 1.856 1.216 2.816 1.824zM56.16 81.952c-.704.384-1.472.8-2.304 1.248 1.152.608 2.304 1.216 3.488 1.824.608-.384 1.184-.736 1.792-1.152-1.024-.64-2.016-1.28-2.976-1.92zM49.664 85.344c-1.632.8-3.36 1.664-5.216 2.496a48.94 48.94 0 0 1 2.208 2.88 101.178 101.178 0 0 0 6.688-3.392 68.96 68.96 0 0 1-3.68-1.984z" opacity=".13"/>
        <path fill="#ACE63A" d="M31.392 171.84s-4.8 2.88-.64 11.84c0 0 16.96.64 20.16-5.12 0 0 .8-5.92-1.76-8.16s-7.36-2.24-9.92 3.2c0 0-1.28-3.84-4.16-1.6-2.88 2.24-3.68-.16-3.68-.16z"/>
        <path fill="#494949" d="M49.152 170.4c-.416-.352-.864-.672-1.376-.896-.096 1.216-.544 2.464-1.248 3.584-.832 1.312-1.984 2.72-3.552 3.072-1.408.32-2.464-.224-3.52-.896-1.248 1.664-2.656 3.168-5.024 2.432-2.144-.672-3.392-2.72-4.128-4.8-1.12 1.504-2.368 4.768.448 10.784 0 0 16.96.64 20.16-5.12 0 0 .8-5.92-1.76-8.16z" opacity=".08"/>
        <path fill="#494949" d="M49.152 170.4a5.842 5.842 0 0 0-2.336-1.216 6.114 6.114 0 0 1 .896 3.904c-.192 1.888-1.344 3.52-3.072 4.384-1.728.864-3.072.224-4.672-.192-.192.256-.384.544-.608.8-.576.64-1.312 1.056-2.176 1.28-1.568.416-3.296.032-4.64-.864-1.76-1.248-2.528-3.2-2.496-5.216-1.056 1.632-1.952 4.864.64 10.464 0 0 16.96.64 20.16-5.12.064-.064.864-5.984-1.696-8.224z" opacity=".28"/>
        <path fill="#E1E5EA" d="M29.76 181.152c.256.768.576 1.632.992 2.528 0 0 16.96.64 20.16-5.12 0 0 .128-.832.128-2.016-7.008 4.96-17.024 4.896-21.28 4.608z"/>
        <g fill="#494949" opacity=".15">
            <path d="M39.744 180.768c-.896.128-1.76.256-2.592.32.128.8.32 1.6.48 2.4.8-.064 1.632-.16 2.496-.256-.128-.832-.256-1.664-.384-2.464zM47.68 178.464c.16.864.256 1.728.352 2.624 1.28-.672 2.304-1.472 2.88-2.528 0 0 .128-.832.128-2.016a23.331 23.331 0 0 1-3.36 1.92zM44.96 182.24c.416-.128.8-.256 1.216-.384-.064-.896-.16-1.76-.32-2.656l-.864.288c0 .928 0 1.856-.032 2.752zM43.744 179.904c-.384.096-.736.192-1.12.288.128.864.256 1.696.384 2.528.224-.032.448-.096.672-.16.032-.864.064-1.76.064-2.656zM32.64 181.248c-1.12 0-2.112-.064-2.88-.096.256.768.576 1.632.992 2.528 0 0 .896.032 2.336 0-.16-.8-.32-1.6-.448-2.432z"/>
        </g>
        <path fill="#494949" d="M37.248 171.136s0 .576.576.864c.576.288.288 2.592-.288 3.168-.576.576 1.728 1.152 1.728 1.152s1.152-.576.864-1.152c0 0 .288.864 1.728.576 1.44-.288 2.592-2.304 1.728-3.168-.864-.864-1.152-.864-1.152-.864l.512 1.664s-3.232-.672-3.808-1.536c-.576-.864-1.12-.832-1.12-.832l-.768.128z" opacity=".28"/>
        <path fill="#E1E5EA" d="M39.2 171.008s4.032-.032 4.448 1.184c.416 1.216-.768 3.488-2.24 3.136-1.472-.352-2.624-3.424-2.624-3.424l.128-.16s2.144 2.56 3.008 1.344c.864-1.216-2.752-1.696-2.752-1.696l.032-.384z"/>
        <path fill="#494949" d="M41.92 173.088c.256-.384.096-.672-.224-.928.576.256.928.64.576 1.12-.384.544-.992.352-1.568-.032.448.224.896.256 1.216-.16z" opacity=".1"/>
        <path fill="#494949" d="M41.92 173.088c.256-.384.096-.672-.224-.928.576.256.928.64.576 1.12-.384.544-.992.352-1.568-.032.448.224.896.256 1.216-.16z" opacity=".1"/>
        <path fill="#D7DCE2" d="M40.096 171.584c-.512-.128-.928-.16-.928-.16l.064-.416s.608 0 1.376.064c-.224.128-.384.32-.512.512zM39.52 173.472c-.48-.8-.736-1.568-.736-1.568l.128-.16s.32.384.736.768c-.096.32-.128.64-.128.96z"/>
        <path fill="#494949" d="M39.68 171.488c-.32-.064-.512-.096-.512-.096l.064-.416s.32 0 .8.032c-.16.16-.256.32-.352.48zM39.296 173.056c-.32-.64-.512-1.152-.512-1.152l.128-.16s.192.224.48.512a3.224 3.224 0 0 0-.096.8zM40.896 174.56c1.376.32 2.496-1.632 2.304-2.88.224.128.384.288.448.512.416 1.216-.768 3.488-2.24 3.136-.736-.16-1.376-.992-1.856-1.792.416.512.864.928 1.344 1.024z" opacity=".1"/>
        <path fill="#494949" d="M43.232 171.712c.192.128.352.288.416.48.352 1.088-.512 2.944-1.728 3.168 1.312-.8 1.664-2.336 1.312-3.648z" opacity=".1"/>
        <path fill="#E1E5EA" d="M36.736 170.496c0 .16.032.32.032.48.576.256 1.056.448 1.056.448l.128-.128c-.032.032-.672-.352-1.216-.8zM36.928 167.712c-.064.416-.128.864-.192 1.28v.192c.416.032.96.352 1.504 1.248l.576.096c-.032 0-.896-2.048-1.888-2.816z"/>
        <path fill="#494949" d="M37.12 170.784c-.064.032-.096.032-.16.064s-.128.032-.192.032v.128c.576.256 1.056.448 1.056.448l.128-.128c-.032 0-.416-.256-.832-.544z" opacity=".2"/>
        <path fill="#494949" d="M37.28 170.912c.352.256.64.416.64.416l-.128.128s-.32-.128-.736-.288c.128-.096.224-.16.224-.256zM36.928 167.712c-.032.128-.032.288-.064.416.768.416 1.44 1.632 1.824 2.368l.096.032s-.864-2.048-1.856-2.816z" opacity=".2"/>
        <path fill="#E1E5EA" d="M38.208 171.456c.544 1.632-.32 3.328-.32 3.328l1.664.992c.704-2.144-.896-4.096-.896-4.096l-.448-.224z"/>
        <path fill="#494949" d="M38.368 171.52l.288.128s1.6 1.952.896 4.096l-.352-.192c.64-1.92-.576-3.68-.832-4.032z" opacity=".2"/>
        <path fill="#E1E5EA" d="M38.464 171.904s.704.448.96-.384c.256-.832-.192-1.184-.992-1.28-.8-.096-1.088.672-.928.96.192.288.96.704.96.704z"/>
        <path fill="#494949" d="M38.336 170.24c-.288.224.16.928.256 1.088.16.288.416.416.416.416s.096.064.256.096c-.32.352-.8.064-.8.064s-.8-.416-.96-.704c-.16-.256.128-.992.832-.96z" opacity=".2"/>
        <path fill="#494949" d="M38.336 170.24c-.288.224-.544.512-.448.704.16.288 1.12.8 1.12.8s.096.064.256.096c-.32.352-.8.064-.8.064s-.8-.416-.96-.704c-.16-.256.128-.992.832-.96z" opacity=".08"/>
        <path fill="#512503" d="M40.736 89.504c-.832.352-1.664.704-2.528 1.056a92.116 92.116 0 0 1 1.568 3.072c1.088-.384 2.176-.832 3.264-1.28a40.634 40.634 0 0 0-2.304-2.848zM30.464 93.344a84.687 84.687 0 0 1-5.376 1.536c-.192 1.024-.352 2.016-.544 3.04 2.272-.448 4.768-1.056 7.392-1.792-.48-.928-.992-1.856-1.472-2.784z" opacity=".13"/>
        <path fill="#48515E" d="M33.696 175.616c-.128 0-.224 0-.352-.032a2.538 2.538 0 0 1-2.176-2.88c2.624-18.912-3.648-31.52-3.712-31.648-.64-1.248-.128-2.784 1.12-3.456 1.248-.64 2.784-.16 3.456 1.12.288.576 7.104 14.08 4.224 34.688-.224 1.28-1.312 2.208-2.56 2.208z"/>
        <path fill="#161616" fill-rule="nonzero" d="M32 138.72a2.58 2.58 0 0 0-3.456-1.12 2.58 2.58 0 0 0-1.12 3.456c.064.128 6.336 12.736 3.712 31.648a2.538 2.538 0 0 0 2.176 2.88c.128.032.224.032.352.032 1.248 0 2.368-.928 2.528-2.208C39.104 152.8 32.288 139.296 32 138.72zm2.976 30.176c-.128 1.536.192 3.008-.224 4.512-.416 1.504-2.752.864-2.336-.64.384-1.408.064-2.976.192-4.416.16-1.536.384-3.04.224-4.608-.16-1.568 2.272-1.536 2.432 0 .192 1.728-.128 3.424-.288 5.152z" opacity=".28"/>
        <path fill="#FF681F" d="M78.016 84.832S84.8 88.32 88.288 86.08c3.488-2.24-2.912-6.08-5.536-5.44-2.624.64-4.736 4.192-4.736 4.192z"/>
        <path fill="#E27310" d="M83.616 86.528c-1.824-.768-4.736-1.92-2.304-3.328.16-.096 1.216-1.024 1.344-.96.48-.352 1.12-.512 1.664-.64a6.94 6.94 0 0 1 2.144-.16c-1.312-.672-2.752-1.024-3.712-.8-2.624.64-4.736 4.192-4.736 4.192s3.232 1.664 6.368 1.952a4.318 4.318 0 0 1-.768-.256z"/>
        <path fill="#8C8C8C" d="M51.872 48.64l9.92-7.04 8.64 12.064V25.28h-45.76v17.152l11.84-8.192z"/>
        <circle cx="53.952" cy="34.08" r="4" fill="#F4F4F4"/>
        <g>
            <path fill="#A9DB2E" d="M14.656 111.84s33.248 4.736 50.4-9.856c0 0 11.232 36 1.792 48.16-9.44 12.16-45.984 17.024-66.752 3.296 0 0 18.912-2.496 13.696-33.952-.128-.8-1.024-2.08-1.44-4.288-.48-2.496 2.4-2.784 2.304-3.36z"/>
            <path d="M.736 153.888a1.297 1.297 0 0 1 0 0zM10.72 158.528c-3.392-1.12-6.624-2.592-9.536-4.384a41.105 41.105 0 0 0 9.536 4.384z"/>
            <path fill="#A9DB2E" d="M1.184 154.144c-.16-.096-.288-.192-.448-.288.16.096.288.192.448.288zM.064 153.44c.128.096.256.16.384.256-.096-.064-.224-.16-.384-.256.032 0 0 0 0 0zM66.016 146.56c7.2-15.52-1.056-35.68-4.192-42.176-.576.384-1.152.736-1.76 1.088-.736 2.784-3.808 6.624-12.96 11.072-18.208 8.832-22.592 5.632-22.72 5.536.096.064 6.432 4.992 4 5.76-2.464.768-6.688-1.024-6.688-1.024s3.008 14.4-6.56 20.736c0 0 15.712 17.92 43.744-1.12 0 0-17.632 20.704-47.712 7.712 0 0 8.128 6.944 17.376 5.888 0 0-7.808 1.632-17.76-1.504 10.56 3.52 22.752 3.968 33.28 2.208 9.696-2.656 18.624-7.04 21.952-14.176z"/>
            <path fill="#9AC121" d="M65.056 101.984a33.793 33.793 0 0 1-3.232 2.4c3.136 6.496 11.392 26.656 4.192 42.176-3.328 7.136-12.256 11.488-22.016 14.176 10.24-1.728 18.912-5.504 22.848-10.592 9.44-12.16-1.792-48.16-1.792-48.16z"/>
            <path fill="#ACE63A" d="M28.48 160.064c-9.248 1.056-17.376-5.888-17.376-5.888 30.08 12.96 47.712-7.712 47.712-7.712-28.032 19.04-43.744 1.12-43.744 1.12 9.568-6.336 6.56-20.736 6.56-20.736s4.256 1.824 6.688 1.024c2.432-.768-3.904-5.696-4-5.76.16.096 4.544 3.296 22.72-5.536 9.152-4.448 13.952-10.432 14.688-13.216-17.888 10.272-47.136 8.48-47.136 8.48.128.544-2.784.832-2.304 3.36.416 2.208 1.312 3.488 1.44 4.288 5.184 31.2-13.376 33.92-13.696 33.952.128.096.256.16.384.256.096.064.192.128.288.16.16.096.288.192.448.288a46.176 46.176 0 0 0 9.536 4.384c9.984 3.168 17.792 1.536 17.792 1.536z"/>
            <path d="M.736 153.888a1.297 1.297 0 0 1 0 0zM10.72 158.528c-3.392-1.12-6.624-2.592-9.536-4.384a41.105 41.105 0 0 0 9.536 4.384z"/>
            <path fill="#A9DB2E" d="M1.184 154.144c-.16-.096-.288-.192-.448-.288.16.096.288.192.448.288zM.064 153.44c.128.096.256.16.384.256-.096-.064-.224-.16-.384-.256.032 0 0 0 0 0zM66.016 146.56c7.2-15.52-1.056-35.68-4.192-42.176-.576.384-1.152.736-1.76 1.088-.736 2.784-3.808 6.624-12.96 11.072-18.208 8.832-22.592 5.632-22.72 5.536.096.064 6.432 4.992 4 5.76-2.464.768-6.688-1.024-6.688-1.024s3.008 14.4-6.56 20.736c0 0 15.712 17.92 43.744-1.12 0 0-17.632 20.704-47.712 7.712 0 0 8.128 6.944 17.376 5.888 0 0-7.808 1.632-17.76-1.504 10.56 3.52 22.752 3.968 33.28 2.208 9.696-2.656 18.624-7.04 21.952-14.176z"/>
            <path fill="#9AC121" d="M65.056 101.984a33.793 33.793 0 0 1-3.232 2.4c3.136 6.496 11.392 26.656 4.192 42.176-3.328 7.136-12.256 11.488-22.016 14.176 10.24-1.728 18.912-5.504 22.848-10.592 9.44-12.16-1.792-48.16-1.792-48.16z"/>
            <path fill="#ACE63A" d="M28.48 160.064c-9.248 1.056-17.376-5.888-17.376-5.888 30.08 12.96 47.712-7.712 47.712-7.712-28.032 19.04-43.744 1.12-43.744 1.12 9.568-6.336 6.56-20.736 6.56-20.736s4.256 1.824 6.688 1.024c2.432-.768-3.904-5.696-4-5.76.16.096 4.544 3.296 22.72-5.536 9.152-4.448 13.312-12.672 14.048-15.456-16.96 12.8-46.496 10.72-46.496 10.72.128.544-2.784.832-2.304 3.36.416 2.208 1.312 3.488 1.44 4.288 5.184 31.2-13.376 33.92-13.696 33.952.128.096.256.16.384.256.096.064.192.128.288.16.16.096.288.192.448.288a46.176 46.176 0 0 0 9.536 4.384c9.984 3.168 17.792 1.536 17.792 1.536z"/>
            <path fill="#9AC121" d="M23.168 148.992s25.12 8.992 35.68-7.616c10.592-16.608-9.792 13.888-35.68 7.616zM20.448 118.592s5.824 5.088 15.392 3.968 21.568-11.808 21.568-11.808-25.696 15.84-36.96 7.84z"/>
            <path fill="#9AC121" d="M23.52 114.112s8.736 4.896 20.576.416c0 0-14.144 7.84-20.576-.416z"/>
            <path fill="#ACE63A" d="M60 105.536s6.144 22.624-6.112 33.696c0 0 12.288-7.488 10.56-18.56C62.72 109.6 60 105.536 60 105.536z"/>
            <path fill="#ACE63A" d="M29.312 146.56c-.288.064 16.512.032 23.392-12 6.88-12.032 7.168-28.032 7.168-28.032s-4.384 35.008-30.56 40.032z"/>
            <path fill="#9AC121" d="M25.728 147.04s10.08 1.632 16.832-8.192c6.784-9.856-7.712 8.864-16.832 8.192z"/>
        </g>
        <path fill="#ACE63A" d="M70.624 95.488s-7.008-5.024-10.976 1.568c-3.968 6.624 5.888 17.6 12.096 12.224 6.24-5.376-1.12-13.792-1.12-13.792z"/>
        <path fill="#9AC121" d="M66.656 107.616c-5.6-.96-6.624-5.184-5.952-8.64.672-3.424 5.696-4.192 5.696-4.192s-5.088 1.568-4.736 6.624c.288 4.608 4.992 6.208 4.992 6.208z"/>
        <path fill="#164D7A" d="M87.904 50.208l8.8 30.88c.864 2.976-.896 6.112-3.872 6.944-2.976.864-6.112-.896-6.976-3.872a7.62 7.62 0 0 1-.16-.832l-4-31.872a3.175 3.175 0 0 1 6.208-1.248z"/>
        <path fill="#1F65AA" d="M88.256 55.456l7.04 25.184c.64 2.304-.672 4.704-2.976 5.344-2.304.64-4.704-.672-5.344-2.976-.064-.192-.096-.448-.128-.64l-3.36-25.952c-.16-1.344.768-2.56 2.112-2.72 1.216-.16 2.304.608 2.656 1.76z"/>
        <path fill="#2E8BD8" d="M92.448 82.112c-.672 0-1.28-.448-1.44-1.12L84.64 54.624c-.192-.8.288-1.6 1.088-1.792.8-.192 1.6.288 1.792 1.088l6.368 26.368c.192.8-.288 1.6-1.088 1.792-.128 0-.256.032-.352.032z"/>
        <path fill="#C7BFBF" d="M79.392 48.096l1.504 7.328c.192.864 1.024 1.44 1.888 1.248l6.176-1.248c.864-.192 1.44-1.024 1.248-1.888l-1.504-7.328c-.192-.864-1.024-1.44-1.888-1.248l-6.176 1.248c-.864.192-1.44 1.024-1.248 1.888z"/>
        <path fill="#A19A9A" d="M89.568 50.432l-.8-3.84c-.192-.864-1.024-1.44-1.888-1.248l-6.176 1.248c-.864.192-1.44 1.024-1.248 1.888l.8 3.84c1.568.16 3.2.064 4.8-.256a16.13 16.13 0 0 0 4.512-1.632z"/>
        <path fill="#706E6E" d="M89.376 49.472l-.8-3.84c-.192-.864-1.024-1.44-1.888-1.248l-6.176 1.248c-.864.192-1.44 1.024-1.248 1.888l.8 3.84c1.568.16 3.2.064 4.8-.256a16.13 16.13 0 0 0 4.512-1.632z"/>
        <path fill="#164D7A" d="M73.216 46.816a1.357 1.357 0 0 0 .48 1.952c3.264 1.76 7.104 2.4 11.008 1.632 3.904-.8 7.2-2.912 9.504-5.792.512-.608.352-1.536-.32-1.984L81.44 34.4l-8.224 12.416z"/>
        <path fill="#706E6E" d="M84.928 45.088c.352-.064.704.16.768.512l.48 2.272a17.52 17.52 0 0 1-1.856.48c-.64.128-1.28.224-1.92.288l-.48-2.272c-.064-.352.16-.704.512-.768l2.496-.512z"/>
        <circle cx="80.095" cy="27.75" r="21.024" fill="#1F65AA" transform="rotate(-11.537 80.095 27.75)"/>
        <circle cx="80.108" cy="27.741" r="19.841" fill="#164D7A" transform="rotate(-56.539 80.108 27.74)"/>
        <circle cx="80.108" cy="27.741" r="18.849" fill="#EDE8E8" transform="rotate(-56.539 80.108 27.74)"/>
        <circle cx="80.108" cy="27.741" r="18.369" fill="#E8ECEF" transform="rotate(-56.539 80.108 27.74)"/>
        <path stroke="#FFF" stroke-linecap="round" stroke-linejoin="round" stroke-width="3.2" d="M87.52 52.032l.448 2.144"/>
        <ellipse cx="91.271" cy="20.392" fill="#E0E5E8" opacity=".62" rx="2.592" ry="5.6" transform="rotate(-32.479 91.27 20.392)"/>
        <path fill="#48515E" d="M87.232 82.08c.192.256 4.16 14.4 3.84 18.88-.32 4.48-1.28 4.8-1.92 5.12-.64.32-13.44 3.68-21.44-.736-8-4.416-2.88-8.896-.96-9.216 1.92-.32 9.28-1.92 14.72 1.6 0 0-1.92-1.6-.96-4.48.96-2.88 1.92-8.96.96-11.84 0 .032 4.16-1.248 5.76.672z"/>
        <text fill="#8C8C8C" font-family="Helvetica" font-size="36.493">
            <tspan x="67.438" y="36.484">A</tspan>
        </text>
        <g>
            <path fill="#FF8A08" d="M78.592 72.16l-.256-2.656s-.384-2.496.896-4.096.32-4.8.32-4.8h3.2l1.92 2.56-.64 2.56-5.44 6.432z"/>
            <path fill="#F27F0C" d="M82.304 64.864c-1.152-1.152-1.152-2.976-2.016-4.224h-.736s.96 3.2-.32 4.8c-1.28 1.6-.896 4.096-.896 4.096l.256 2.656 5.344-6.304c-.576-.224-1.152-.544-1.632-1.024z"/>
            <path fill="#E27310" d="M80.928 65.76c-.672-1.728-.448-3.456-1.088-5.12h-.32s.96 3.2-.32 4.8c-1.28 1.6-.896 4.096-.896 4.096l.256 2.656 3.744-4.384c-.544-.608-1.056-1.248-1.376-2.048z"/>
        </g>
        <path fill="#161616" d="M88.16 85.216c-.48-1.824-.864-3.072-.928-3.136-1.6-1.92-5.76-.64-5.76-.64.256.736.384 1.728.384 2.784 2.112-.064 4.352.384 6.304.992zM67.456 96.032c-.288.064-.512.096-.704.128-1.92.32-7.04 4.8.96 9.216.8.448 1.664.8 2.56 1.12-2.752-2.752-3.808-6.912-2.816-10.464z" opacity=".28"/>
        <g>
            <path fill="#FF8A08" d="M93.632 62.24c3.52 1.92 1.28 4.16 1.28 4.16 2.88 1.6.8 4 .8 4 1.92.64.96 3.2.96 3.2-1.6 3.52-8 3.52-8 3.52l-10.56-2.56s.16-1.12.16-4.64c0-3.52 7.68-7.36 7.68-7.36-.96-2.24 4.48-4.8 5.44-4.48.96.32 1.6.64 2.24 1.6.64.96.224 2.24.224 2.24l-.224.32z"/>
            <path fill="#FF8A08" d="M93.632 62.24c3.52 1.92 1.28 4.16 1.28 4.16 2.88 1.6.8 4 .8 4 1.92.64.96 3.2.96 3.2-1.6 3.52-8 3.52-8 3.52l-10.56-2.56s.16-1.12.16-4.64c0-3.52 7.68-7.36 7.68-7.36-.96-2.24 4.48-4.8 5.44-4.48.96.32 1.6.64 2.24 1.6.64.96.224 2.24.224 2.24l-.224.32z"/>
            <path fill="#F27F0C" d="M93.184 59.712c0 2.176-1.696 3.392-2.688 5.12 1.28-.256 2.56-1.408 3.712-2.208a3.77 3.77 0 0 0-.608-.352l.224-.32s.416-1.28-.224-2.24c-.16-.256-.352-.448-.512-.64.064.192.096.416.096.64z"/>
            <g fill="#F27F0C">
                <path d="M94.912 66.4s0-.032.032-.032l-.032.032zM93.312 72.48s1.376-.448 2.752-1.92a1.183 1.183 0 0 0-.352-.16s1.504-1.76.16-3.264c-.384 1.664-1.152 4.128-2.56 5.344zM95.36 65.76c-.128.224-.288.416-.416.608.064-.064.256-.288.416-.608z"/>
                <path d="M92.672 68.96s1.184-1.088 2.24-2.56l.032-.032c.128-.192.288-.416.416-.608.352-.704.576-1.92-1.024-3.072.064.928.064 3.328-1.664 6.272zM85.632 70.56c-3.68-.992-5.696 2.592-6.4 4.256l9.44 2.304s6.4 0 8-3.52c0 0 .16-.48.224-1.056-.64.64-1.504 1.28-2.624 1.856-3.84 1.92-3.84-2.56-8.64-3.84z"/>
            </g>
            <path fill="#E27310" fill-rule="nonzero" d="M90.4 60.16c.16-.064.32-.096.48-.16.384-.16.896-.704.672-1.056-.704-.096-1.184.352-1.728.736-.448.32-.864-.416-.448-.736.352-.256.672-.512 1.056-.736-1.824.544-5.28 2.56-4.48 4.384 0 0-3.264 1.632-5.536 3.744 2.112-1.44 4.8-2.496 6.944-3.264.32-.224.576-.544.896-.8.832-.672 1.728-.128 2.624-.544.032-.032.064-.032.096-.032.032-.032.064-.032.096-.064-.416.096-.864.064-1.152-.288-.384-.512-.032-.992.48-1.184zm-2.592.576l-.384.48v.064c-.032.384-.224.672-.544.896-.32.224-.736-.128-.64-.48.16-.608.512-1.088.928-1.536.384-.448 1.024.16.64.576z"/>
            <path fill="#E27310" d="M92.352 75.68c-3.2.32-4.16-2.88-8.32-4.16-3.072-.96-4.928.384-5.792 1.248-.032 1.312-.128 1.792-.128 1.792l10.56 2.56s6.4 0 8-3.52c0 0 .096-.288.192-.704-.928 1.312-2.464 2.592-4.512 2.784z"/>
            <path fill="#B76720" d="M85.856 74.848c-2.016-.96-4.288-1.056-6.496-.8-.384.16-.8.352-1.152.544L88.64 77.12h.288c-.864-.928-1.824-1.696-3.072-2.272z"/>
            <g fill="#B76720">
                <path d="M94.336 62.688a4.09 4.09 0 0 0-.736-.448s-1.92 1.92-3.2 2.88c.032 0 2.464-.736 3.936-2.432zM95.968 67.264c-.224-.288-.576-.576-1.056-.864 0 0-1.28 1.6-2.24 2.56 0 0 2.08-.704 3.296-1.696zM95.712 70.4s.096-.096.192-.288l-.352.128s-.64 1.28-1.92 2.24c0 0 1.728-.576 2.944-1.44-.192-.256-.448-.512-.864-.64z"/>
            </g>
            <path fill="#B76720" d="M87.232 62.88s.64-2.88 1.92-3.52c0 0-.64.96-.64 1.28 0 0 1.28-1.28 2.24-1.28 0 0-1.6.96-1.92 1.92 0 0 .96-.32 1.6.32 0 0-2.56-.32-3.2 1.28zM88.192 65.44s2.88 4.48 3.52 7.68c0 0-.96-6.72-3.52-7.68z"/>
        </g>
        <path fill="#FF8A08" d="M78.752 74.24s-1.6-.32-2.24 1.28c-.64 1.6.32 3.2.32 3.84 0 .64-1.6 3.52.32 5.12 1.92 1.6 4.16-2.56 7.36-1.92 3.2.64 3.2 4.16 5.12 3.84 1.92-.32 1.28-5.12 1.28-5.12s.32-.32.64-1.28-5.76-6.4-12.8-5.76z"/>
        <path fill="#F27F0C" d="M88.672 82.688c-1.44-1.632-3.712-1.824-5.344-3.2-1.28-1.12-2.048-2.752-.64-4.128.288-.256.576-.48.928-.64-1.536-.416-3.2-.64-4.928-.48 0 0-1.6-.32-2.24 1.28-.64 1.6.32 3.2.32 3.84 0 .64-1.6 3.52.32 5.12 1.92 1.6 4.16-2.56 7.36-1.92 3.2.64 3.2 4.16 5.12 3.84.32-.064.576-.224.768-.48-.32-1.184-.832-2.304-1.664-3.232z"/>
        <path fill="#E27310" d="M88.352 83.84c-1.92-2.56-4.8-2.56-6.72-2.048s-2.56.128-1.6-1.792-1.6-1.28-.64-3.52c.736-1.696 5.536-.864 7.744-.384-2.272-1.216-5.248-2.144-8.384-1.856 0 0-1.6-.32-2.24 1.28-.64 1.6.32 3.2.32 3.84 0 .64-1.6 3.52.32 5.12 1.92 1.6 4.16-2.56 7.36-1.92 3.2.64 3.2 4.16 5.12 3.84 1.92-.32 1.28-5.12 1.28-5.12s-.64 5.12-2.56 2.56z"/>
        <path fill="#48515E" d="M84.064 176.416c-1.6 0-2.944-1.248-3.04-2.848-1.056-17.12-8.192-27.104-8.288-27.2-.992-1.344-.672-3.264.672-4.256 1.344-.992 3.264-.672 4.256.672.352.448 8.256 11.552 9.44 30.4.096 1.664-1.184 3.104-2.848 3.232h-.192z"/>
        <path fill="#161616" fill-rule="nonzero" d="M87.104 173.184c-1.184-18.848-9.088-29.952-9.44-30.4a3.058 3.058 0 0 0-4.256-.672 3.058 3.058 0 0 0-.672 4.256c.064.096 7.2 10.112 8.288 27.2.096 1.6 1.44 2.848 3.04 2.848h.192c1.664-.128 2.944-1.568 2.848-3.232zm-2.496-1.568c0 2.176-3.392 2.176-3.392 0 .032-4.832.288-9.568-1.28-14.208-1.344-4.032-3.04-8.096-5.824-11.36-1.408-1.664.992-4.064 2.4-2.4 3.072 3.584 4.992 7.936 6.528 12.384 1.76 5.12 1.568 10.24 1.568 15.584z" opacity=".28"/>
        <g>
            <path fill="#ACE63A" d="M101.792 170.88c-5.44-1.376-8.512 2.368-8.512 2.368s-1.696-1.024-2.72-1.024c-1.024 0-2.048 1.376-2.048 1.376s-.64-.736-1.472-1.344c-.16 1.28-1.088 2.432-2.752 2.432-.512 0-.96-.128-1.344-.32-.704-.224-1.216-.736-1.504-1.344a2.109 2.109 0 0 1-.352-.768c-.032-.096-.064-.192-.096-.256-.832.096-1.44.224-1.504.416 0 0-1.696 3.392 1.024 11.232 0 0 17.184 2.56 25.344-2.88.032-.032 1.376-8.512-4.064-9.888z"/>
            <path fill="#494949" d="M101.792 170.88c-.896-.224-1.728-.32-2.496-.288 1.12 1.984 1.536 4.256.064 6.24a4.154 4.154 0 0 1-3.68 1.728c-.832-.064-1.6-.384-2.272-.864a9.825 9.825 0 0 1-1.024-.864c-.096.064-.16.096-.224.128-.768.48-1.536.832-2.432.928-1.44.16-2.848-.352-4-1.184-.832-.576-1.536-1.312-2.176-2.112a3.412 3.412 0 0 1-.608-.224 2.55 2.55 0 0 1-1.472-1.344 2.109 2.109 0 0 1-.352-.768c-.032-.096-.064-.192-.096-.256-.832.096-1.44.224-1.504.416 0 0-1.696 3.392 1.024 11.232 0 0 17.184 2.56 25.344-2.88 0-.032 1.344-8.512-4.096-9.888z" opacity=".08"/>
            <path fill="#494949" d="M101.792 170.88c-.288-.064-.608-.128-.896-.192 1.76 1.44 2.784 3.584 1.952 6.08-.704 2.176-2.816 4.16-5.216 4.096-1.632-.032-2.912-.96-4-2.048-2.272 1.696-4.896 2.208-7.808.576-2.784-1.568-4.896-4.256-5.824-7.264-.32.064-.512.16-.544.288 0 0-1.696 3.392 1.024 11.232 0 0 17.184 2.56 25.344-2.88.064-.032 1.408-8.512-4.032-9.888z" opacity=".28"/>
            <path fill="#E1E5EA" d="M79.712 180.928c.224.832.48 1.728.832 2.72 0 0 17.184 2.56 25.344-2.88 0 0 .16-.992.16-2.368-9.824 4.928-21.056 3.648-26.336 2.528z"/>
            <g fill="#494949" opacity=".23">
                <path d="M82.656 181.44c-1.12-.16-2.112-.352-2.976-.512.224.832.48 1.728.832 2.72 0 0 1.12.16 2.912.32-.256-.832-.512-1.664-.768-2.528zM89.152 181.952c-1.248 0-2.432-.064-3.584-.16.224.8.48 1.568.704 2.368 1.12.064 2.336.096 3.648.064-.224-.736-.512-1.504-.768-2.272zM101.984 180.064c-.704.224-1.408.448-2.144.64.032.832.096 1.664.096 2.464.704-.16 1.376-.384 2.048-.608a32.46 32.46 0 0 0 0-2.496zM104.672 179.04c.032.8.064 1.6.064 2.4.416-.224.8-.448 1.152-.672 0 0 .16-.992.16-2.368-.48.224-.928.416-1.376.64zM97.216 181.28c-1.792.32-3.52.512-5.216.608.256.768.512 1.504.768 2.272a43.675 43.675 0 0 0 4.544-.448l-.096-2.432z"/>
            </g>
            <path d="M88.576 173.504c-.128-.032-.192-.064-.224-.064l.16.16s.032-.032.064-.096z"/>
            <path fill="#494949" d="M92.416 176.832s-.608-3.104-2.144-4.544c-.768.16-1.472.96-1.696 1.216.704.256 2.752 1.088 3.84 3.328z" opacity=".28"/>
            <g>
                <path fill="#494949" d="M88 173.088s0 .672.672 1.024.352 3.072-.352 3.744c-.704.672 2.048 1.376 2.048 1.376s1.376-.672 1.024-1.376c0 0 .352 1.024 2.048.672 1.696-.352 3.072-2.72 2.048-3.744s-1.376-1.024-1.376-1.024l.608 1.984s-3.84-.8-4.512-1.824c-.672-1.024-1.344-.992-1.344-.992l-.864.16z" opacity=".28"/>
                <path fill="#E1E5EA" d="M90.336 172.928s4.768-.064 5.248 1.408c.48 1.44-.928 4.128-2.656 3.744-1.728-.416-3.136-4.064-3.136-4.064l.16-.192s2.56 3.04 3.584 1.6-3.264-1.984-3.264-1.984l.064-.512z"/>
                <path fill="#494949" d="M93.536 175.424c.32-.448.128-.8-.288-1.088.672.32 1.088.736.704 1.312-.448.64-1.184.416-1.856-.032.544.256 1.088.288 1.44-.192z" opacity=".1"/>
                <path fill="#494949" d="M93.536 175.424c.32-.448.128-.8-.288-1.088.672.32 1.088.736.704 1.312-.448.64-1.184.416-1.856-.032.544.256 1.088.288 1.44-.192z" opacity=".1"/>
                <path fill="#D7DCE2" d="M91.36 173.632c-.608-.128-1.12-.192-1.12-.192l.064-.48s.704 0 1.632.064c-.224.16-.384.384-.576.608zM90.688 175.84c-.544-.96-.896-1.856-.896-1.856l.16-.192s.384.448.896.928c-.096.384-.16.736-.16 1.12z"/>
                <path fill="#494949" d="M90.88 173.536a12.302 12.302 0 0 0-.608-.096l.064-.48s.384 0 .928.032c-.16.16-.288.32-.384.544zM90.432 175.36a12.838 12.838 0 0 1-.608-1.344l.16-.192s.224.288.576.608a2.959 2.959 0 0 0-.128.928zM92.32 177.184c1.632.384 2.944-1.92 2.72-3.424.256.16.448.352.512.576.48 1.44-.928 4.128-2.656 3.744-.864-.192-1.632-1.184-2.176-2.144.48.608 1.024 1.12 1.6 1.248z" opacity=".1"/>
                <path fill="#494949" d="M95.104 173.76c.256.16.416.352.512.576.416 1.28-.608 3.488-2.048 3.744 1.536-.928 1.952-2.72 1.536-4.32z" opacity=".1"/>
                <path fill="#E1E5EA" d="M87.04 172.032v.16c0 .192.032.384.032.576.8.384 1.6.704 1.6.704l.128-.16s-1.12-.64-1.76-1.28zM86.784 168.736c.032.736.096 1.44.16 2.176v.032c.48-.288 1.344-.064 2.24 1.344l.672.096c-.032 0-1.568-3.68-3.072-3.648z"/>
                <path fill="#494949" d="M87.648 172.736c.064-.032.128-.032.192-.064.512.352.96.64.96.64l-.128.16s-.704-.288-1.472-.64c.16-.032.288-.064.448-.096z" opacity=".2"/>
                <path fill="#494949" d="M88.032 172.832c.416.288.768.48.768.48l-.128.16s-.384-.16-.864-.352c.128-.096.224-.16.224-.288zM86.784 168.736c0 .224.032.448.032.672 1.152-.192 2.336 1.856 2.88 2.976l.128.032c0-.032-1.536-3.712-3.04-3.68z" opacity=".2"/>
                <path fill="#E1E5EA" d="M89.152 173.472c.64 1.952-.384 3.936-.384 3.936l1.984 1.152c.832-2.56-1.056-4.864-1.056-4.864l-.544-.224z"/>
                <path fill="#494949" d="M89.312 173.568l.352.16s1.92 2.336 1.056 4.864l-.416-.256c.768-2.272-.672-4.352-.992-4.768z" opacity=".2"/>
                <path fill="#E1E5EA" d="M89.472 174.016s.832.512 1.12-.448c.288-.96-.224-1.408-1.184-1.536-.928-.128-1.312.8-1.088 1.152.224.352 1.152.832 1.152.832z"/>
                <path fill="#494949" d="M89.28 172.032c-.352.256.192 1.088.32 1.312.192.352.48.48.48.48a.8.8 0 0 0 .32.128c-.384.416-.928.064-.928.064s-.928-.48-1.12-.832c-.224-.32.096-1.184.928-1.152z" opacity=".2"/>
                <path fill="#494949" d="M89.28 172.032c-.352.256-.64.608-.512.832.192.352 1.312.96 1.312.96a.8.8 0 0 0 .32.128c-.384.416-.928.064-.928.064s-.928-.48-1.12-.832c-.224-.32.096-1.184.928-1.152z" opacity=".08"/>
            </g>
        </g>
        <path fill="#E0E5E8" d="M66.528 30.976c-1.056 1.632-1.856 3.36-2.336 5.12a18.203 18.203 0 0 0 5.984 6.624c8.288 5.472 19.424 3.2 24.896-5.088 1.056-1.632 1.856-3.36 2.336-5.12a18.203 18.203 0 0 0-5.984-6.624C83.136 20.448 72 22.72 66.528 30.976z" opacity=".2"/>
    </g>
</svg>
