<svg xmlns="http://www.w3.org/2000/svg" width="140" height="168" viewBox="0 0 140 168">
    <defs>
        <linearGradient id="a" x1="-95.653%" x2="91.318%" y1="190.524%" y2="-54.041%">
            <stop offset="0%" stop-color="#FFF"/>
            <stop offset="100%" stop-color="#FFF" stop-opacity="0"/>
        </linearGradient>
        <linearGradient id="b" x1="-12.364%" x2="59.234%" y1="109.447%" y2="25.3%">
            <stop offset="0%" stop-color="#FFF"/>
            <stop offset="100%" stop-color="#FFF" stop-opacity="0"/>
        </linearGradient>
        <linearGradient id="c" x1="8.988%" x2="80.586%" y1="92.142%" y2="21.599%">
            <stop offset="0%" stop-color="#FFF"/>
            <stop offset="100%" stop-color="#FFF" stop-opacity="0"/>
        </linearGradient>
        <linearGradient id="d" x1="-10.634%" x2="101.873%" y1="148.094%" y2="2.883%">
            <stop offset="0%" stop-color="#FFF"/>
            <stop offset="100%" stop-color="#FFF" stop-opacity="0"/>
        </linearGradient>
    </defs>
    <g fill="none" fill-rule="evenodd">
        <path fill="#15E815" d="M51.051 20.777L53.954 6.1a4.253 4.253 0 0 1 2.286-2.986C66.847-2.323 76.17 1.2 79.946 3.14a4.3 4.3 0 0 1 2.21 2.858l3.39 14.804H51.05v-.025z"/>
        <path fill="#0CC60C" d="M59.04 11.563c2.62-2.17 5.778-3.14 8.732-4.722.282-.154.565-.332.822-.51.077-.052.308-.256.36-.282.128-.102.23-.204.359-.332.283-.28.54-.561.796-.842l.077-.076.231-.307c.848-1.2 1.49-2.527 2.132-3.828-4.469-.817-10.17-.69-16.335 2.476-1.182.612-2.03 1.71-2.286 2.986l-2.902 14.676h3.647c.18-3.496 1.695-7.044 4.366-9.24z"/>
        <path fill="#ABFFAB" d="M60.837 20.777l1.259-6.33c.102-.562.462-1.021.976-1.302 4.572-2.348 8.604-.842 10.248 0 .488.255.822.69.95 1.225l1.464 6.407H60.837z"/>
        <path fill="#FFF" d="M82.155 5.973a4.3 4.3 0 0 0-2.209-2.859c-.436-.23-.95-.46-1.515-.715-.41.817-.822 1.634-1.233 2.45-1.464 2.86-3.467 5.59-6.344 7.148-1.31.714-2.722 1.276-4.084 1.888-.693.307-1.361.638-2.029 1.021-.308.179-.616.358-.899.536-.128.077-.257.179-.385.256-.026.025-.051.025-.051.05-.309.281-.617.537-.9.817-.18.18-.59.843-.256.281-.18.306-.385.613-.565.945-.129.23-.231.433-.334.663 0 .026-.026.077-.052.128-.154.46-.308.919-.385 1.378 0-.025-.051.332-.077.485 0 .102-.026.255-.026.332h24.76L82.155 5.973z" opacity=".43"/>
        <path fill="#5288E8" d="M48.978 21.425l-1.798 7.887c-.411 1.812.976 3.548 2.85 3.548h36.19c1.952 0 3.365-1.863 2.8-3.727l-2.389-7.887c-.36-1.225-1.515-2.067-2.8-2.067H51.83a2.91 2.91 0 0 0-2.851 2.246z"/>
        <path fill="#2E63A3" d="M74.328 32.86c.18-1.863.309-3.727.488-5.59.231-2.68.514-5.411.925-8.091h-4.443c-.437.485-.874.97-1.285 1.48a7.097 7.097 0 0 0-.205.28c-.231.307-.437.613-.642.894a39.004 39.004 0 0 0-1.105 1.71 50.928 50.928 0 0 0-2.209 4.008 75.02 75.02 0 0 0-.976 2.067c-.154.332-.308.69-.462 1.021-.051.128-.128.28-.18.409.026-.077.077-.154.103-.205 0-.025.026-.025.026-.05.102-.256.334-.74-.026.05-.283.664-.54 1.353-.796 2.017h10.787zM89.046 29.133l-2.39-7.887c-.359-1.225-1.515-2.067-2.799-2.067h-2.003c-.103.612-.206 1.225-.308 1.812-.026.204-.052.383-.077.587 0 .025-.026.153-.026.23a7.322 7.322 0 0 1-.103.74l-.231 2.067c-.154 1.379-.257 2.757-.385 4.135-.129 1.379-.231 2.757-.36 4.135h5.856c1.978-.025 3.39-1.888 2.826-3.752z"/>
        <path fill="#70A4EF" d="M59.431 21.96c.514-.944 1.028-1.888 1.593-2.807h-9.195a2.932 2.932 0 0 0-2.851 2.272l-1.798 7.887c-.411 1.812.976 3.548 2.85 3.548h4.675a78.986 78.986 0 0 1 4.726-10.9z"/>
        <g fill="#235384" opacity=".45">
            <path d="M87.941 25.483c-7.192.051-14.409.358-21.6.23-3.545-.077-7.09-.179-10.634-.102-2.62.076-5.188.408-7.808.561l-.72 3.14c-.41 1.812.977 3.548 2.852 3.548h36.19c1.951 0 3.364-1.863 2.799-3.727l-1.079-3.65z"/>
            <path d="M66.803 25.713c-.334.613-.642 1.225-.95 1.838-.334.689-.668 1.378-.977 2.067-.154.332-.308.69-.462 1.021-.051.128-.128.28-.18.409.026-.077.077-.154.103-.205 0-.025.026-.025.026-.05.102-.256.334-.74-.026.05-.283.664-.54 1.353-.796 2.017h10.813c.18-1.863.308-3.727.488-5.59l.154-1.557c-2.748.025-5.47.025-8.193 0zM87.941 25.483a614.47 614.47 0 0 0-6.91.102 120.845 120.845 0 0 0-.282 3.165c-.128 1.379-.23 2.757-.36 4.135h5.857c1.952 0 3.365-1.863 2.8-3.726l-1.105-3.676zM55.707 25.61c-2.62.077-5.188.41-7.808.562l-.72 3.14c-.41 1.812.977 3.548 2.852 3.548h4.674c.874-2.476 1.824-4.926 2.928-7.3-.642.025-1.284.025-1.926.05z"/>
        </g>
        <path fill="#3C71BF" d="M108 29h8.733c12.765 0 23.141 10.286 23.141 22.998v91.964c0 12.686-10.35 22.998-23.141 22.998h-7.552L108 29z"/>
        <path fill="#2E63A3" d="M124.027 61.824c5.214-3.828 10.505-7.58 15.796-11.332C139.053 38.495 129.01 29 116.733 29H108l.385 44.719c5.111-4.084 10.351-8.015 15.642-11.895zM130.215 135.103c-6.498 6.79-13.715 12.839-21.215 18.505l.103 12.967h7.551c12.765 0 23.142-10.287 23.142-22.998V124a141.856 141.856 0 0 1-9.58 11.103z"/>
        <path fill="#313233" d="M9 39h111.676v119.863H9z"/>
        <path fill="#CFD1CF" d="M93.523 98.647s3.442 4.288 3.621 5.82c0 0 3.108-.332 2.749 1.71-.334 2.067-2.594.51-2.594.51s-1.208 1.889-2.415 1.2c-1.207-.69 0-2.578 0-2.578l-3.442-5.641s-2.08 1.889-2.414-.69c-.334-2.577 2.414-.688 2.414-.688s.514-4.62 2.08-2.91c1.542 1.735 0 3.267 0 3.267zM97.989 110.96s-.694-2.4-2.08-1.889c-1.388.51.18 2.91.18 2.91v5.998s-2.235.332-2.081 1.379c.18 1.02.334 2.578 2.594.867 0 0 1.207 2.732 2.414.332 1.207-2.399-1.387-2.22-1.387-2.22l1.207-5.999s1.901.332 2.235-1.71c.36-2.067-3.082.332-3.082.332zM30.785 104.02l3.955-4.442s-1.54-1.532-.18-2.4c1.388-.867 2.415 1.71 2.415 1.71s1.387-.688 1.9.69c.514 1.378-.873 2.731-2.08 1.889l-4.469 4.44s.693 3.421-.693 3.09c-1.387-.332-1.721-2.221-1.721-2.221s-2.08.178-1.901-1.2c.18-1.378 2.774-1.557 2.774-1.557zM28.032 110.099s-.334-2.4-1.541-2.068c-1.207.332-.18 3.089-.18 3.089l-.513 5.64s-2.235-.331-1.721 1.532c.513 1.89 1.9.51 1.9.51s1.028 2.221 2.415 1.711 0-3.42 0-3.42l.693-5.488s1.721.332 1.9-.332c.155-.664-2.953-1.174-2.953-1.174zM47.995 127l-2.44 4.492s-3.262-1.02-2.414 2.22c.873 3.243 2.748 0 2.748 0s1.027 2.4 2.928 1.022c1.9-1.378-1.028-2.731-1.028-2.731l2.903-4.314-2.697-.689zM47.046 137.732s-2.235-2.221-2.928-.69c-.694 1.532 1.9 2.221 1.9 2.221l3.262 3.42s-1.54 0-.513 1.532c1.027 1.531 2.594-.69 2.594-.69s2.234 1.532 2.748.511c.514-1.02-1.9-2.22-1.9-2.22l-2.929-3.217s1.208-.867.514-2.22c-.693-1.353-2.748 1.353-2.748 1.353zM71 129.536l2.62-.536 1.027 3.088s2.08-.689 3.108.69c1.027 1.378-2.594 1.888-2.594 1.888s.18 2.068-1.721 1.71c-1.9-.331-.334-2.73-.334-2.73L71 129.535zM74.885 139.242s-1.72-2.067-2.414-.868c-.694 1.2.18 2.068.18 2.068l-1.901 3.599s-1.028-.868-2.235-.179c-1.207.69-.18 3.42 1.901 2.578 0 0 .18 2.068 1.9 1.2 1.721-.868.335-2.91.335-2.91l2.234-3.42s2.748 1.378 3.108-.332c.334-1.736-3.108-1.736-3.108-1.736zM92.466 122s-3.802 1.378-3.442 2.4c.36 1.02 3.288-.69 3.442-2.4zM93.642 124s-4.65 6.509-3.442 7.351c1.207.868 3.442-7.351 3.442-7.351zM95.17 124s-2.08 7.351-.693 7.351.693-7.351.693-7.351zM98.01 125s-.18 6.177 1.027 6.33c1.233.179-1.028-6.33-1.028-6.33zM99 125s1.541 5.488 2.748 4.977C102.955 129.441 99 125 99 125zM30 121s3.801 1.378 3.442 2.4c-.334 1.02-3.262-.69-3.442-2.4zM28 123s4.649 6.509 3.442 7.351C30.235 131.193 28 123 28 123zM27.173 123s2.08 7.351.694 7.351c-1.387 0-.694-7.351-.694-7.351zM24.385 124s.18 6.177-1.027 6.33c-1.207.179 1.027-6.33 1.027-6.33zM22.985 123s-1.541 5.488-2.748 4.977c-1.233-.536 2.748-4.977 2.748-4.977zM48.621 146.525s-5.676-1.378-6.55.332c-.873 1.735 6.55-.332 6.55-.332zM51.637 147s-6.73 5.31-7.577 4.11c-.848-1.2 7.577-4.11 7.577-4.11zM54.203 146s0 3.242-1.721 4.11c-1.721.842 1.72-4.11 1.72-4.11zM74 148s8.784.179 8.27 1.021C81.757 149.863 74 148 74 148zM71 149s5.008 3.93 6.883 3.242C79.784 151.578 71 149 71 149zM68 148s1.387 5.13 3.108 5.31C72.828 153.487 68 148 68 148z"/>
        <path fill="#CFD1CF" fill-rule="nonzero" d="M87.422 81.392c-.18-3.088-18.62-32.876-24.297-33.386-5.676-.51-20.496 31.855-21.036 34.432-.436 2.17.848 30.4 1.259 38.976.077 1.762 1.104 3.319 2.697 4.11 2.825 1.404 8.219 3.241 17.594 3.675 11.095.485 18.852-3.752 22.37-6.228 1.31-.919 2.107-2.424 2.081-4.033-.128-8.218-.54-34.943-.668-37.546zM67.003 53.468s-1.207 2.731-3.955 3.242c-2.748.51-5.342-1.532-5.342-1.532 6.37 2.4 9.297-1.71 9.297-1.71zM49.41 97.218c-.333-1.532-2.234-1.89-3.621-3.09-1.387-1.199 0-5.308 2.08-7.197 2.08-1.889 7.243-.51 8.964 1.2 1.13 1.123 1.978 4.951 2.415 7.402.256 1.48-.463 2.96-1.824 3.598-4.34 2.145-7.705-.587-8.014-1.914zm2.774-13.784s4.65-1.2 6.73 1.378 2.08 8.22 2.08 8.22-1.72-6.178-2.594-7.53c-.873-1.379-6.216-2.068-6.216-2.068zM59.94 99.36s-1.027 5.13-8.45 2.731c0 .026 6.704.179 8.45-2.73zm7.063 21.926c-5.342.868-9.297-3.42-9.297-3.42s9.477 3.93 16.9-1.022c-.026 0-2.26 3.6-7.603 4.442zM77.15 111.28c-.514 2.4-6.036 6.688-12.92 5.641-6.883-1.02-10.35-2.578-11.712-5.998-1.387-3.42 1.207-2.4 1.207-2.4s2.415 3.242 9.658 3.6c7.243.357 9.143-.868 10.864-2.221 1.721-1.378 3.442-1.021 2.903 1.378zM65.437 89.79s-1.208-2.732 1.207-5.13c2.414-2.4 8.45-1.38 8.45-1.38-8.09-.178-9.657 6.51-9.657 6.51zm1.027 11.46s.334 2.068 3.262 2.22c2.928.18 7.397-.689 7.397-.689s-7.937 3.931-9.657 2.068c-1.67-1.889-1.002-3.599-1.002-3.599zm12.072-5.743c-1.387.51-.18 3.599-1.721 3.599-1.541 0-9.992 2.22-9.812-1.378 0 0 .18-8.908 3.442-10.619 3.262-1.71 8.784-2.067 9.811 1.2 1.028 3.267-.333 6.688-1.72 7.198zM46.147 80.524s5.857-2.067 16.207-3.777c10.351-1.71 20.856 3.42 20.856 3.42-18.8-4.595-37.063.357-37.063.357z"/>
        <path fill="url(#a)" d="M30.678 51.966C37.74 47.678 44.778 43.39 51.765 39H9v26.188a3773.283 3773.283 0 0 1 21.678-13.222z" opacity=".72"/>
        <path fill="url(#b)" d="M26.003 103.883c11.84-7.785 23.733-15.493 35.65-23.176 11.97-7.708 23.964-15.391 35.933-23.1 7.705-4.951 15.41-9.903 23.09-14.855V39h-30.23c-6.704 4.671-13.51 9.163-20.368 13.579-10.762 6.892-21.704 13.554-32.645 20.19A2016.962 2016.962 0 0 0 9 90.279v24.835c5.65-3.778 11.327-7.504 17.003-11.23z" opacity=".72"/>
        <path fill="url(#c)" d="M33.246 143.935c11.481-7.172 23.04-14.242 34.571-21.313 11.507-7.044 22.988-14.115 34.366-21.338a993.817 993.817 0 0 0 18.493-11.997V68c-5.6 3.599-11.173 7.172-16.772 10.771a10702.892 10702.892 0 0 0-35.932 23.1 4721.42 4721.42 0 0 0-35.625 23.202A2841.202 2841.202 0 0 0 9 140.592v18.199h.95a1995.557 1995.557 0 0 1 23.296-14.856z" opacity=".72"/>
        <path fill="url(#d)" d="M100.778 147.207c6.704-5.513 13.485-10.95 20.291-16.386V114c-3.57 2.323-7.166 4.594-10.788 6.892-11.095 6.993-22.268 13.86-33.44 20.7-8.965 5.488-17.928 10.975-26.841 16.514h37.833c4.264-3.675 8.605-7.3 12.945-10.899z" opacity=".72"/>
        <path fill="#5288E8" fill-rule="nonzero" d="M106.794 29H22.37C10.58 29 1 38.495 1 50.236V145.8c0 11.716 9.555 21.236 21.37 21.236h84.45c11.79 0 21.37-9.495 21.37-21.236V50.236C128.164 38.521 118.61 29 106.794 29zm9.786 113.176c0 6.764-5.522 12.251-12.328 12.251H24.938c-6.806 0-12.329-5.487-12.329-12.251V53.86c0-6.764 5.523-12.252 12.329-12.252h79.314c6.806 0 12.328 5.488 12.328 12.252v88.315z"/>
        <g fill="#70A4EF">
            <path d="M8.296 49.394a1463.748 1463.748 0 0 1 29.409-20.343H21.626c-11.789 0-21.37 9.495-21.37 21.236v4.85c2.672-1.914 5.343-3.829 8.04-5.743zM115.837 53.912v30.425c.026-.025.051-.025.077-.051 3.827-2.578 7.68-5.13 11.507-7.683v-26.29c0-6.203-2.671-11.767-6.935-15.672-3.981 2.706-7.988 5.386-11.995 8.066 4.315 1.888 7.346 6.202 7.346 11.205zM16.618 151.926c-2.902-2.246-4.777-5.743-4.777-9.674v-31.089c-3.879 3.038-7.731 6.075-11.61 9.113v25.575c0 5.31 1.952 10.133 5.188 13.86 3.75-2.604 7.475-5.207 11.199-7.785zM67.216 167.087c5.702-4.211 11.43-8.397 17.158-12.583H34.777c-5.83 4.033-11.661 8.091-17.491 12.15 1.412.28 2.85.433 4.34.433h45.59zM126.496 123.338c.308-.23.617-.485.925-.714V91.612c-3.34 2.246-6.704 4.466-10.043 6.712-.514.358-1.027.69-1.541 1.047v32.033a777.926 777.926 0 0 0 10.66-8.066zM114.399 147.97a12.25 12.25 0 0 1-8.605 6.304c-3.827 2.808-7.68 5.616-11.532 8.398a904.99 904.99 0 0 0-6.036 4.415h17.825c11.79 0 21.37-9.495 21.37-21.236v-7.606a1229.048 1229.048 0 0 1-13.022 9.725zM106.41 29.077H60.36A1506.269 1506.269 0 0 0 41.48 41.584c-.05.025-.077.05-.128.076h46.104a3473.421 3473.421 0 0 0 18.955-12.583zM6.704 99.397c1.72-1.353 3.441-2.68 5.137-4.033V62.156c-2.826 2.017-5.651 4.059-8.476 6.1-1.053.766-2.08 1.507-3.134 2.272v33.922c2.183-1.684 4.315-3.369 6.473-5.053z"/>
        </g>
        <path fill="#3C71BF" d="M16.803 146.676V58.36c0-6.764 5.522-12.252 12.329-12.252h79.313c1.927 0 3.724.434 5.343 1.2A12.354 12.354 0 0 0 103.617 42H24.329C17.522 42 12 47.488 12 54.252v88.34c0 4.875 2.851 9.061 6.986 11.052a12.135 12.135 0 0 1-2.183-6.968z"/>
        <path fill="#235384" d="M103.496 42H68c1.053 1.378 2.132 2.731 3.185 4.11h37.14c1.926 0 3.724.433 5.342 1.2-2.209-3.217-5.933-5.31-10.171-5.31zM16.829 94.47C15.21 91.33 13.592 88.165 12 85v56.843c0 4.875 2.851 9.061 6.986 11.052a12.164 12.164 0 0 1-2.157-6.943V94.47z"/>
    </g>
</svg>
