<svg xmlns="http://www.w3.org/2000/svg" xmlns:xlink="http://www.w3.org/1999/xlink" width="200" height="168" viewBox="0 0 200 168">
    <defs>
        <linearGradient id="c" x1="22.974%" x2="22.974%" y1="74.517%" y2="-71.551%">
            <stop offset="0%" stop-color="#FFF" stop-opacity=".5"/>
            <stop offset="100%" stop-opacity=".5"/>
        </linearGradient>
        <path id="b" d="M69.852 57.6h45.08l83.953 79.57H0z"/>
        <filter id="a" width="118.5%" height="177.9%" x="-9.7%" y="-19.5%" filterUnits="objectBoundingBox">
            <feMorphology in="SourceAlpha" radius="3" result="shadowSpreadOuter1"/>
            <feOffset dy="20" in="shadowSpreadOuter1" result="shadowOffsetOuter1"/>
            <feGaussianBlur in="shadowOffsetOuter1" result="shadowBlurOuter1" stdDeviation="8.5"/>
            <feColorMatrix in="shadowBlurOuter1" values="0 0 0 0 0.121568627 0 0 0 0 0.160784314 0 0 0 0 0.223529412 0 0 0 0.2 0"/>
        </filter>
        <filter id="d" width="110.9%" height="187.9%" x="-5.5%" y="-44%" filterUnits="objectBoundingBox">
            <feGaussianBlur in="SourceGraphic" stdDeviation="2.074"/>
        </filter>
        <linearGradient id="e" x1="94.69%" x2="5.166%" y1="27.247%" y2="72.712%">
            <stop offset="0%" stop-color="#6A0500"/>
            <stop offset="100%" stop-color="#FFA424"/>
        </linearGradient>
        <linearGradient id="f" x1="94.461%" x2="4.936%" y1="27.261%" y2="72.727%">
            <stop offset="0%" stop-color="#6A0500"/>
            <stop offset="100%" stop-color="#FFA424"/>
        </linearGradient>
    </defs>
    <g fill="none" fill-rule="evenodd">
        <g transform="translate(1)">
            <use fill="#000" filter="url(#a)" xlink:href="#b"/>
            <use fill="#FFF" xlink:href="#b"/>
            <use fill="url(#c)" xlink:href="#b"/>
        </g>
        <path fill="#9E9E9E" d="M92.172 68.572c7.22-.508 14.465-.693 21.686-.416 3.438.116 6.877.37 10.315.694l-13.525-16.397H77.501L64.09 71.995c9.306-1.457 18.66-2.752 28.08-3.423z" opacity=".29"/>
        <path fill="#8C8C8C" d="M110.878 59.923l-1.422-1.735 1.261 1.735zM76.026 58.188l-1.42 1.735h.3l1.174-1.735z"/>
        <path fill="#FFF" d="M111.406 58.188H76.08l-1.174 1.735h38.001zM116.975 65.01h-45.29l-1.42 2.105h48.539zM122.353 71.556H67.481l-1.556 2.313h58.42zM127.704 78.795H63.277l-1.693 2.497h68.276zM133.082 84.669h-74.01l-1.828 2.683h78.158zM138.733 90.52h-84.11l-1.938 2.891h88.532z" opacity=".3"/>
        <path fill="#E6ECF3" d="M144.11 96.048H50.42L48.344 99.1h98.415z"/>
        <path fill="#FFF" d="M43.594 105.507h.41l1.91-2.822zM149.543 102.246h-.082l2.812 3.26h.464z"/>
        <path fill="#E6ECF3" d="M46.27 102.246l-.356.44-1.91 2.82h108.27l-2.813-3.26zM42.53 108.467l-2.813 3.446H157.68l-3.386-3.446zM38.74 115.2l-2.975 3.654h126.806l-3.576-3.654zM63.876 122.4l-1.737 6.054h74.059l-2.089-6.054z"/>
        <g transform="translate(41.763)">
            <path fill="#ACE63A" d="M40.437 79.268s4.663 3.62 4.663 11.568c0 0-5.2 7.78-26.367 2.704 0 0-1.073-10.86 3.59-12.67 4.663-1.81 7.18 1.456 7.18 1.456s1.444-2.538 3.59-1.456c2.145 1.082 2.867 1.456 2.867 1.456s3.219-.707 4.477-3.058z"/>
            <path fill="#494949" d="M39.55 93.312c-.35-.042-.68-.25-.866-.708-.02-.062-.042-.125-.062-.166-4.56.707-9.49 1.082-13.39-1.873-3.26-2.455-3.775-6.907-1.61-10.09a6.417 6.417 0 0 0-1.278.395c-4.663 1.81-3.59 12.67-3.59 12.67 10.687 2.56 17.31 1.831 21.25.5a1.23 1.23 0 0 1-.454-.728zM40.437 79.268c-.268.5-.64.936-1.052 1.31 2.455 3.662 3.487 7.97 2.827 12.526 2.125-1.124 2.888-2.268 2.888-2.268 0-7.948-4.663-11.568-4.663-11.568z" opacity=".28"/>
            <path fill="#E1E5EA" d="M18.671 89.567a29.091 29.091 0 0 0 .083 3.973c21.168 5.056 26.367-2.704 26.367-2.704 0-1.249-.124-2.393-.31-3.433-9.098 5.68-21.085 3.495-26.14 2.164z"/>
            <g fill="#494949" opacity=".1">
                <path d="M21.312 90.19a63.306 63.306 0 0 1-2.661-.603 29.091 29.091 0 0 0 .082 3.974c.99.23 1.94.437 2.847.624a43.282 43.282 0 0 1-.268-3.994zM39.591 89.775c-.887.27-1.794.52-2.682.707.269 1.394.578 2.788.908 4.182a17.63 17.63 0 0 0 2.332-.666 36.395 36.395 0 0 0-.558-4.223zM44.79 87.403c-.845.54-1.712.978-2.599 1.394.289 1.31.475 2.642.598 3.994 1.692-.998 2.311-1.934 2.311-1.934 0-1.27-.103-2.414-.31-3.454zM31.772 91.085c-1.857.084-3.672 0-5.343-.145.062 1.352.227 2.725.454 4.057a44.21 44.21 0 0 0 5.776.25 93.023 93.023 0 0 1-.887-4.162z"/>
            </g>
            <path d="M29.565 82.243c-.104-.041-.186-.062-.207-.083.103.104.145.166.145.166s.02-.02.062-.083z"/>
            <path fill="#494949" d="M33.278 86.862s.33-3.017-2.537-5.826c-.62.396-1.032.978-1.176 1.207.701.27 2.806 1.332 3.713 4.619z" opacity=".28"/>
            <path fill="#ACE63A" d="M29.358 82.16l-.04-.042v.021c0 .021.02.021.04.021z"/>
            <path fill="#E1E5EA" d="M34.66 80.33s4.313-2.622 5.53-1.561c1.217 1.06 1.382 4.286-.413 4.847-1.795.562-5.013-2.039-5.013-2.039l.02-.25s3.962 1.416 4.106-.457c.144-1.872-4.023-.062-4.023-.062l-.206-.479z"/>
            <path fill="#494949" d="M38.89 80.87c.041-.562-.31-.79-.825-.832.763-.063 1.403.083 1.34.832-.061.811-.845.999-1.712.957.64-.042 1.135-.291 1.197-.957z" opacity=".1"/>
            <path fill="#494949" d="M38.746 83.138c1.67-.541 1.65-3.37.64-4.619.33 0 .597.083.783.25 1.217 1.06 1.382 4.286-.412 4.847-.888.27-2.105-.208-3.116-.77.743.313 1.506.48 2.105.292z" opacity=".1"/>
            <path fill="#494949" d="M39.426 78.519c.31.02.578.083.764.25 1.073.936 1.32 3.537.144 4.535.908-1.685.33-3.578-.908-4.785z" opacity=".1"/>
            <path fill="#E1E5EA" d="M33.918 80.1s-3.858-2.933-4.993-1.456c-1.135 1.477-.186 3.1.867 3.287 1.031.187 3.651-.229 3.651-.229l.042-.208s-3.013.021-3.074-.728c-.062-.749.907-1.415 2.847-.395l.66-.27z"/>
            <path fill="#494949" d="M32.102 81.619c.062-.062.103-.104.145-.166.66.062 1.217.062 1.217.062l-.041.208s-.784.125-1.671.208c.123-.104.247-.208.35-.312z" opacity=".2"/>
            <path fill="#494949" d="M32.515 81.473c.536.042.97.042.97.042l-.042.208s-.412.062-.97.125c.063-.125.104-.25.042-.375zM32.969 79.476c.557.354.928.645.928.645l-.66.27c-.124-.062-.227-.124-.35-.166.082-.27.102-.52.082-.749z" opacity=".2"/>
            <path fill="#494949" d="M29.42 79.143c-.722.936-.598 1.935-.144 2.6-.805-.52-1.32-1.85-.372-3.1 1.135-1.476 4.993 1.457 4.993 1.457l-.124.063c-1.155-.77-3.507-2.102-4.353-1.02z" opacity=".2"/>
            <path fill="#E1E5EA" d="M33.856 81.473c1.63 1.436 1.774 3.808 1.774 3.808h2.414c-.598-2.788-3.57-3.87-3.57-3.87l-.618.062z"/>
            <path fill="#494949" d="M34.062 81.453l.413-.042s2.991 1.082 3.57 3.87h-.517c-.536-2.476-2.95-3.6-3.466-3.828z" opacity=".2"/>
            <path fill="#E1E5EA" d="M34.434 81.785s1.031.042.784-1.019c-.248-1.061-.97-1.165-1.878-.77-.908.396-.763 1.436-.392 1.644.392.208 1.486.145 1.486.145z"/>
            <path fill="#494949" d="M33.216 80.08c-.185.436.743.894.99 1.019.372.208.702.187.702.187s.165 0 .35-.062c-.102.603-.804.582-.804.582s-1.114.042-1.485-.145c-.35-.208-.516-1.165.247-1.582z" opacity=".2"/>
            <path fill="#494949" d="M33.216 80.08c-.185.436-.268.915-.02 1.04.371.208 1.712.166 1.712.166s.165 0 .35-.062c-.102.603-.804.582-.804.582s-1.114.042-1.485-.145c-.35-.208-.516-1.165.247-1.582z" opacity=".08"/>
            <path fill="#48515E" d="M29.977 88.38s-2.207-3.037-7.22-3.245c0 0 5.219-8.488 2.207-14.147-3.012-5.66-4.415-2.83-4.415-2.83s-4.003 11.11-2.6 21.013c0 0 4.436 1.81 11.038 2.518l.99-3.308z"/>
            <path fill="#161616" d="M22.9 76.022c.743 1.582 1.321 3.225 1.858 4.869 1.072-2.934 1.856-6.845.227-9.924-3.013-5.66-4.416-2.83-4.416-2.83s-.433 1.186-.97 3.142a16.965 16.965 0 0 1 3.302 4.743zM27.894 86.591c-.537.708-.99 1.478-1.342 2.29a8.148 8.148 0 0 0-.598 2.392c.95.166 1.96.312 3.033.416l.99-3.33c0 .022-.66-.894-2.083-1.768z" opacity=".28"/>
            <path fill="#FF8A08" d="M72.58 70.155l-.33-1.165L57.48 16.81v-.02a4.65 4.65 0 0 0-.372-1.02c-3.074-6.2-18.176-4.847-33.752 2.996C7.778 26.61-2.373 37.99.7 44.19c.207.416.475.791.784 1.145l.908 1.186 31.463 41.693.887 1.165c3.26 2.872 12.544 1.644 22.076-3.162 9.655-4.868 16.236-11.713 15.762-16.062z"/>
            <ellipse cx="56.942" cy="95.42" fill="#494949" filter="url(#d)" opacity=".2" rx="56.844" ry="7.074"/>
            <path fill="#FF8A08" d="M72.58 70.155l-.33-1.165-14.152-50.057c1.3 8.239-7.778 19.453-21.89 26.34-13.864 6.782-27.935 7.115-33.753 1.33l31.401 41.611.887 1.165c3.26 2.872 12.544 1.644 22.076-3.162 9.655-4.868 16.236-11.713 15.762-16.062z"/>
            <path fill="#FFC76E" d="M36.208 45.293c14.112-6.907 23.19-18.1 21.89-26.34l-.599-2.122v-.02-.021c-.061-.146-.123-.27-.185-.416A9.088 9.088 0 0 0 55.6 13.94c-5.034-3.953-18.444-2.102-32.226 4.826C7.8 26.61-2.352 37.99.722 44.19c.206.416.475.791.784 1.145l.908 1.186.062.062c5.777 5.825 19.868 5.472 33.732-1.29z"/>
            <path fill="#CE9646" d="M34.186 17.352c.763.041 1.506.166 2.208.332.33-.104.66-.187.99-.27 1.98-.458 4.002-.707 6.024-.895 3.404-.312 6.747-.208 10.13.375a18.14 18.14 0 0 1 4.374 1.352l-.413-1.435v-.021-.021c-.061-.146-.123-.27-.185-.416a9.088 9.088 0 0 0-1.713-2.434c-5.034-3.953-18.444-2.102-32.226 4.827C7.8 26.589-2.352 37.97.722 44.17c.124.25.268.478.433.707.413-1.02.887-1.997 1.32-2.954a37.333 37.333 0 0 1 4.25-7.157c1.693-2.247 3.426-4.432 5.406-6.43 2.063-2.08 4.353-3.931 6.726-5.68 4.27-3.14 9.903-5.658 15.33-5.304z"/>
            <path fill="#FFF" d="M37.714 32.623a87.96 87.96 0 0 0-2.042-.916c-.33-.145-.681-.291-1.032-.458-.062-.02-.144-.062-.206-.083a149.265 149.265 0 0 0-4.23-1.685c-2.723-1.02-4.27-3.454-3.61-6.408.577-2.58 3.817-4.577 6.354-3.64.846.311 1.692.644 2.517.977.103-1.31 1.32-2.746 2.724-2.56.97.126 1.96.25 2.93.396.226-.957.99-1.727 1.96-2.101 1.608-.645 3.548-1.977 5.178-3.038a83.445 83.445 0 0 1 1.795-1.102c-6.561-.729-16.526 1.622-26.718 6.761C13.39 23.78 5.653 30.23 2.166 35.868c1.795.416 3.57.957 5.344 1.519.68.229 1.01.77 1.031 1.332.743-.437 1.733-.021 2.105.749.742.686.722 2.226-.537 2.642a1 1 0 0 0-.227.083c-1.196 2.33-2.31 4.681-3.569 6.949 2.352.999 5.22 1.498 8.418 1.54-.557-3.808-1.135-7.615-1.65-11.443-.186-1.436 1.36-2.663 2.64-2.663 1.568 0 2.455 1.248 2.64 2.663.496 3.703 1.053 7.406 1.59 11.11 3.032-.396 6.25-1.165 9.531-2.289a43.348 43.348 0 0 0-1.919-2.871c-.619-.853-1.774-2.164-2.537-3.246a12.055 12.055 0 0 1-1.176-1.997c-.31-.291-.62-.582-.95-.874-2.145-1.935-1.794-5.388 0-7.365 1.96-2.164 5.282-1.81 7.304 0 3.776 3.391 6.83 7.448 9.986 11.422 2.868-1.685 5.467-3.537 7.757-5.492l-1.98-.999a275.507 275.507 0 0 0-8.253-4.015z" opacity=".32"/>
            <path fill="#FFF" d="M57.5 16.81v-.02c-.062-.146-.124-.27-.186-.416a10.318 10.318 0 0 0-.764-1.311c-.268.083-.557.187-.825.27-1.919.666-3.652 1.894-5.364 2.996-.578.375-1.135.729-1.712 1.061 3.197.52 6.375 1.062 9.573 1.54.02-.686-.021-1.352-.104-1.997L57.5 16.81zM44.09 24.217c3.692 1.748 7.344 3.6 11.016 5.43a23.499 23.499 0 0 0 1.816-3.37c-4.292-.666-8.562-1.415-12.833-2.06z" opacity=".32"/>
            <path stroke="#48515E" stroke-linecap="round" stroke-width="5.391" d="M67.67 74.628s15.64-18.6 21.25-14.75c5.613 3.849-4.002 21.22-4.002 21.22"/>
            <path fill="#C7CDD3" d="M54.735 17.393a3.643 3.643 0 0 0-.35-.936c-.125-.27-.29-.5-.455-.749-.124-.146-.247-.312-.392-.437-.144-.146-.289-.27-.433-.395-.165-.125-.33-.27-.516-.375C36.56 1.997 21.622.312 15.432.208a4.86 4.86 0 0 0-4.415 2.684C2.992 18.746 2.971 39.488 2.971 39.488c0 .125-.02.23-.02.354-.021.832.144 1.602.494 2.31.042.103.104.187.145.27.103.187.227.354.35.52.062.083.124.166.207.25 1.485 1.664 4.27 2.476 7.86 2.476 5.84 0 13.803-2.123 21.91-6.221 13.329-6.72 22.241-16.29 20.818-22.054z"/>
            <g>
                <path fill="#D7DCE2" d="M10.646 15.583a12.941 12.941 0 0 1-3.94-1.519C2.97 27.047 2.95 39.488 2.95 39.488c0 .125-.02.23-.02.354-.021.832.144 1.602.495 2.31.041.103.103.187.144.27.103.187.227.354.35.52.063.083.125.166.207.25 1.238 1.394 3.384 2.184 6.148 2.413-1.361-7.76-.64-20.14.372-30.022z"/>
                <path fill="#C7CDD3" d="M13.122 15.833c-.846 0-1.692-.083-2.497-.25-.99 9.883-1.733 22.262-.35 30.001.556.042 1.134.063 1.732.063 3.28 0 7.221-.666 11.492-1.977-3.322-6.616-6.127-18.288-8.067-28.045-.743.125-1.506.208-2.31.208z"/>
                <path fill="#E8ECF3" d="M25.397 6.242c-.598 2.371-1.877 4.473-3.59 6.116 5.963 7.823 12.874 17.768 15.721 25.133 6.293-3.64 11.327-7.844 14.318-11.755C47.35 18.163 35.341 11.09 25.397 6.242z"/>
                <path fill="#D7DCE2" d="M54.735 17.393a3.643 3.643 0 0 0-.35-.936c-.125-.27-.29-.5-.455-.749-.124-.146-.247-.312-.392-.437-.144-.146-.289-.27-.433-.395-.165-.125-.33-.27-.516-.375C42.583 6.7 33.01 3.1 25.727 1.498c.062.52.103 1.04.103 1.56a13.62 13.62 0 0 1-.392 3.204c9.945 4.848 21.952 11.922 26.45 19.474 2.331-3.12 3.404-6.033 2.847-8.343zM15.432 15.604c1.94 9.758 4.745 21.45 8.067 28.045 3.342-1.019 6.87-2.434 10.419-4.244a59.683 59.683 0 0 0 3.61-1.956c-2.847-7.365-9.758-17.31-15.72-25.132a12.175 12.175 0 0 1-6.376 3.287z"/>
                <path fill="#535E6B" d="M12.42 1.186a5.112 5.112 0 0 0-1.424 1.685c-1.815 3.579-3.218 7.407-4.29 11.193a12.739 12.739 0 0 0 3.94 1.52A313.843 313.843 0 0 1 12.42 1.185z"/>
                <path fill="#C7CDD3" d="M12.915 1.207c-.02-.104-.041-.208-.041-.312-.041.02-.103.062-.144.083a.906.906 0 0 0 .185.229z"/>
                <path fill="#454F59" d="M12.709.978a1.465 1.465 0 0 0-.289.208c-.33 2.226-1.114 7.76-1.774 14.397.804.167 1.63.25 2.496.25.784 0 1.568-.083 2.31-.208-1.216-6.159-2.083-11.547-2.537-14.397-.082-.105-.144-.167-.206-.25z"/>
                <path fill="#535E6B" d="M15.432 15.604a12.693 12.693 0 0 0 6.375-3.266 307.981 307.981 0 0 0-8.912-11.152c.453 2.892 1.32 8.28 2.537 14.418z"/>
                <path fill="#616E7A" d="M12.853.895c.02.104.042.208.042.312 1.733 2.08 5.137 6.179 8.912 11.151a12.668 12.668 0 0 0 3.59-6.116A187.416 187.416 0 0 0 13.06.79a.96.96 0 0 0-.207.104z"/>
                <path fill="#768893" d="M13.06.79a182.664 182.664 0 0 1 12.337 5.452c.268-1.02.392-2.102.392-3.204 0-.52-.041-1.062-.103-1.56C21.292.498 17.722.25 15.391.207a4.622 4.622 0 0 0-2.331.583z"/>
            </g>
            <path fill="#FF681F" d="M72.58 70.155l-.33-1.165-14.152-50.057c.577 3.662-.887 7.906-3.94 12.108l13.513 47.77c3.321-3.142 5.178-6.263 4.91-8.656z"/>
            <path fill="#48515E" d="M36.208 76.439s2.001 2.434-.392 3.245c-.02 0 1.176-1.83.392-3.245z"/>
            <g>
                <path fill="#FFB43B" d="M36.806 86.758S22.653 68.366 14.793 55.009c-1.114-1.54-2.187-3.08-3.26-4.535-3.838-.479-6.994-1.769-9.099-3.85l31.422 41.59.887 1.165c1.052.916 2.703 1.415 4.807 1.52-.763-1.208-1.65-2.601-2.661-4.141h-.083z"/>
                <path fill="#F27F0C" d="M35.795 58.047l4.622-10.32s1.279-.624 2.785-1.685l-1.527-3.807a57.347 57.347 0 0 1-5.467 3.037 57.295 57.295 0 0 1-9.717 3.724l3.486 6.908 5.818 2.143zM56.055 81.494s-7.613-22.24-10.027-24.259l-5.611 11.922-4.519-1.498L47.101 89.92c3.054-.79 6.375-2.039 9.738-3.724.722-.374 1.444-.749 2.146-1.144l-1.713-4.224c-.412.25-.804.479-1.217.666z"/>
                <path fill="#F98C32" d="M31.195 66.12s8.83 15.374 12.626 19.806c0 0-3.9.915-6.932.811 1.01 1.54 1.918 2.934 2.661 4.14 2.146.104 4.725-.228 7.551-.957L35.898 67.66l-4.703-1.54zM14.793 55.01s4.58.602 8.789-1.416l6.395 2.33-3.486-6.907c-5.468 1.519-10.626 1.997-14.937 1.457a550.874 550.874 0 0 0 3.239 4.535z"/>
                <path fill="#B5B5B5" d="M72.58 70.155l-.33-1.165-14.152-50.057c.577 3.662-.887 7.906-3.94 12.108l13.513 47.77c3.321-3.142 5.178-6.263 4.91-8.656z" opacity=".22"/>
                <path fill="#F98C32" d="M41.675 42.255l1.527 3.808c1.341-.957 2.868-2.247 3.817-3.787 0 0 11.037 21.242 14.627 34.974 0 0-1.939 2.101-4.415 3.6l1.713 4.223c3.445-1.935 6.437-4.099 8.706-6.263L54.116 31.041c-2.847 3.953-7.139 7.865-12.44 11.214z"/>
                <path fill="#F4F4F4" d="M36.806 86.758h.083c-5.447-8.26-14.236-20.743-22.096-31.749 7.86 13.357 22.013 31.749 22.013 31.749z"/>
                <path fill="#D3D3D3" d="M35.795 58.047l-5.838-2.122 5.92 11.755 4.52 1.497 5.61-11.92c2.415 2.017 10.028 24.258 10.028 24.258.412-.187.825-.416 1.217-.645l-14.05-34.807c-1.506 1.06-2.785 1.685-2.785 1.685l-4.622 10.299z"/>
                <path fill="#E6EAED" d="M23.56 53.594c-4.208 2.018-8.788 1.415-8.788 1.415 7.86 11.006 16.65 23.468 22.096 31.749 3.033.104 6.932-.811 6.932-.811-3.817-4.453-12.626-19.807-12.626-19.807l4.704 1.54-5.921-11.755-6.396-2.33zM61.667 77.25c-3.61-13.752-14.628-34.974-14.628-34.974-.949 1.52-2.475 2.83-3.816 3.787l14.05 34.807c2.455-1.519 4.394-3.62 4.394-3.62z"/>
            </g>
            <g>
                <path fill="#494949" d="M38.87 59.004c-1.218 1.04-1.61 3.495-.351 5.93 2.682 5.221 7.736 3.994 9.614 2.517 1.857-1.478 2.95-4.931.31-7.511 0 0-4.58-5.222-9.574-.936z" opacity=".28"/>
                <path fill="#494949" d="M39.076 63.06s-1.589-4.181-4.91-3.349c-3.322.832-5.055 5.368-3.962 8.697 1.094 3.329 5.447 3.87 7.778 1.58 2.332-2.288 2.167-5.242 1.094-6.927z" opacity=".28"/>
                <path fill="#FFF" d="M38.787 62.499s-1.589-4.182-4.91-3.35c-3.322.833-5.055 5.368-3.962 8.697 1.094 3.329 5.447 3.87 7.778 1.581 2.332-2.288 2.167-5.243 1.094-6.928z"/>
                <path fill="#E8ECF3" d="M29.915 67.846c-.474-1.456-.412-3.162.104-4.681-.269 1.248-.269 2.559.103 3.724 1.073 3.35 5.55 3.828 7.984 1.477a6.963 6.963 0 0 0 1.135-1.415 6.257 6.257 0 0 1-1.568 2.476c-2.332 2.31-6.685 1.748-7.758-1.581z"/>
                <path fill="#48515E" d="M34.062 59.732c-2.249.603-3.858 2.725-4.435 5.076.309-2.58 1.856-5.055 4.229-5.659 2.166-.54 3.59 1.02 4.333 2.206-.805-1.061-2.167-2.143-4.127-1.623z"/>
                <path fill="#FFF" d="M38.106 58.484c-1.671 1.851-.619 4.868.495 6.782 2.868 4.952 7.16 3.08 8.934 1.665 1.774-1.415 2.785-4.786.247-7.282 0 0-5.777-5.451-9.676-1.165z"/>
                <path fill="#48515E" d="M38.21 59.066c-.64.666-.909 1.477-.97 2.33-.083-1.06.123-2.101.845-2.912 3.074-3.37 7.304-.708 8.975.582-1.96-1.31-5.839-3.183-8.85 0z"/>
                <path fill="#E8ECF3" d="M46.71 66.098c1.63-1.31 2.62-4.265.783-6.678.186.145.29.25.29.25 2.537 2.517 1.526 5.887-.248 7.281-1.63 1.29-5.344 2.955-8.17-.54 2.682 2.33 5.88.852 7.344-.313z"/>
                <g transform="translate(40.231 63.664)">
                    <ellipse cx="1.795" cy="2.568" fill="#000" rx="1.281" ry="1.288" transform="rotate(-26.924 1.795 2.568)"/>
                    <ellipse cx="1.795" cy="2.559" fill="url(#e)" rx="1.527" ry="1.54"/>
                    <ellipse cx="1.795" cy="2.568" fill="#000" rx="1.137" ry="1.142" transform="rotate(-26.924 1.795 2.568)"/>
                    <ellipse cx="2.408" cy="1.315" fill="#FFF" opacity=".8" rx="1" ry="1" transform="rotate(-26.924 2.408 1.315)"/>
                    <circle cx="1.357" cy="3.523" r="1" fill="#FFF" opacity=".8" transform="rotate(-26.924 1.357 3.523)"/>
                </g>
                <g transform="translate(35.486 65.537)">
                    <ellipse cx="1.692" cy="2.413" fill="url(#f)" rx="1.527" ry="1.54"/>
                    <ellipse cx="1.69" cy="2.419" fill="#000" rx="1.137" ry="1.142" transform="rotate(-26.924 1.69 2.419)"/>
                    <circle cx="1.251" cy="3.375" r="1" fill="#FFF" opacity=".8" transform="rotate(-26.924 1.25 3.375)"/>
                    <ellipse cx="2.144" cy="1.167" fill="#FFF" opacity=".8" rx="1" ry="1" transform="rotate(-26.924 2.144 1.167)"/>
                </g>
                <g>
                    <path fill="#48515E" d="M46.792 48.31l-.97 2.184s-1.857-2.434-6.416-2.184l.825-3.454c.02 0 5.117.375 6.56 3.454z"/>
                    <path fill="#161616" d="M40.561 46.125s.62.708.454 1.623c0 0 1.733-.042.124-2.663 0 0 2.352.645 2.104 2.913 0 0 .805-.23-.041-1.748 0 0 1.424.479.97 1.914 0 0 1.093-.749-.042-1.747 0 0 1.837.353 1.073 2.33 0 0 .805-.23.702-.624 0 0 .227.832.185 1.83l-.247.541s-1.857-2.434-6.417-2.184l.042-.146c.227-.187 1.031-.894 1.093-2.039z" opacity=".28"/>
                </g>
                <g>
                    <path fill="#48515E" d="M32 55.259l-1.342-3.121s-3.734 1.373-4.394 4.681l.887 1.457c-.02 0 1.877-2.955 4.848-3.017z"/>
                    <path fill="#48515E" d="M32 55.259l-1.342-3.121s-3.734 1.373-4.394 4.681l.887 1.457c-.02 0 1.877-2.955 4.848-3.017zM27.068 56.798v-.104.104z"/>
                    <path fill="#161616" d="M27.068 56.798c0 .125.042.333.33.604 0 0-.66-1.914.042-2.539 0 0-.062 1.332.454 1.623 0 0-.269-2.559.928-2.892 0 0-.35 1.852.165 2.143 0 0-.268-2.559.928-2.892 0 0-.062 1.332.557 2.04 0 0-.33-1.228-.04-1.748 0 0 .68 1.165 1.567 2.122-2.414.062-4.105 1.997-4.663 2.725-.165-.208-.35-.624-.268-1.186z" opacity=".28"/>
                </g>
                <path fill="#48515E" d="M54.652 69.573s1.176 6.616-6.024 9.903c-6.623 3.038-12.234-1.207-12.234-1.207s7.22 1.81 11.43-.395c4.208-2.247 6.828-8.301 6.828-8.301z"/>
                <path fill="#48515E" d="M53.25 68.553s-.063 1.186 1.464 1.394c1.527.208 2.538-.998 2.538-.998s-3.012.624-4.003-.396z"/>
                <path fill="#BC610F" d="M44.027 82.909s3.404 1.207 6.623-.603c3.218-1.81 4.002-5.66 4.002-5.66s-.206 5.264-3.816 6.68c-3.61 1.414-6.809-.417-6.809-.417zM55.849 65.516c2.847 1.269 4.621 0 4.621 0s-1.403 2.621-4.415 1.623c-3.012-1-2.806-3.641-2.806-3.641s.805 1.206 2.6 2.018zM34 74.42s1.011 1.415.805 3.641c-.206 2.226-3.61 2.226-3.61 2.226s2.6-.603 2.805-3.037c.186-2.434 0-2.83 0-2.83z"/>
            </g>
            <g transform="translate(45.183 49.517)">
                <ellipse cx="17.372" cy="7.573" fill="#ACE63A" rx="7.386" ry="7.448"/>
                <path fill="#1F49CC" d="M3.528 44.96v9.05l1.527-9.195c-.495.083-1.011.124-1.527.145z"/>
                <path fill="#48515E" d="M22.612 17.601s-4.642-2.31-6.87-5.742C14.483 9.924 15.06 7.303 17 6.054a4.168 4.168 0 0 1 5.591.999c1.506 2.018 4.519 7.157 5.55 11.36 0 0-5.343 11.38-9.428 14.272l-2.25-1.456s1.239-3.308 1.651-7.032c.413-3.725 4.498-6.596 4.498-6.596z"/>
                <path fill="#161616" d="M20.549 8.468c1.32.25 2.579.686 3.775 1.269-.66-1.103-1.258-2.04-1.733-2.663a4.127 4.127 0 0 0-5.59-.999c-1.012.645-1.651 1.685-1.858 2.788 1.63-.853 3.673-.728 5.406-.395zM17.392 28.066c-.454 1.894-.949 3.204-.949 3.204l2.249 1.457c.825-.583 1.692-1.498 2.538-2.58-1.114-.999-2.394-1.727-3.838-2.08z" opacity=".28"/>
                <path fill="#9AC121" d="M12.234 11.09s-1.836-5.577 2.25-8.073c4.105-2.476 7.591 1.04 7.591 1.04s-5.529-2.06-8.21.832c-2.683 2.892-1.63 6.2-1.63 6.2z"/>
                <path fill="#FF8A08" d="M13.06 33.642l-4.725 2.684s-1.238-.208-2.868.832c-1.65 1.04-1.65 4.348-1.65 4.348s-1.444 1.249-2.043 2.268c-.598 1.02-1.836 3.724-1.65 4.765.206 1.04 1.836.208 2.455-1.249.619-1.456 1.031-1.851 1.031-1.851s-.206 1.456-.206 3.1c0 1.664.413 3.1 1.444 3.1 1.032 0 1.238-.625 1.238-.625s2.249 1.04 2.868.209c0 0 2.042.832 3.074.624 1.032-.208 2.661-1.665 2.661-1.665s.207-.416-.618-.832c-.826-.416-1.837.208-1.837.208s.413-.624.207-1.04c0 0 1.444-2.268 1.444-3.1 0 0 3.074-2.06 3.693-4.14.619-2.04-.206-8.26-4.518-7.636z"/>
                <path fill="#F27F0C" d="M2.517 47.103c-.722.208-1.527.104-2.084-.333-.227.708-.371 1.353-.289 1.748.207 1.04 1.837.208 2.456-1.228-.042-.041-.062-.124-.083-.187zM13.142 33.642c1.754.458 3.095 2.06 3.755 3.703.66 1.665.619 3.641-.557 5.056-.68.832-1.712 1.124-2.27 2.08-.453.77-.7 1.644-1.072 2.456-.557 1.227-1.96 3.224-3.404 1.747-.392-.416-.557-.894-.557-1.435-.702.686-1.486 1.02-2.352.54a1.393 1.393 0 0 1-.454-.395c-.475.77-1.527 1.165-2.373.916a2.1 2.1 0 0 1-.433-.167v.396c0 1.664.412 3.1 1.444 3.1s1.238-.625 1.238-.625 2.249 1.04 2.868.209c0 0 2.042.832 3.074.624 1.031-.208 2.661-1.665 2.661-1.665s.206-.416-.619-.832-1.836.208-1.836.208.413-.624.206-1.04c0 0 1.444-2.268 1.444-3.1 0 0 3.075-2.06 3.694-4.14.598-2.04-.227-8.177-4.457-7.636z"/>
                <path fill="#F27F0C" d="M.763 48.455c-.454-1.664.702-3.141 1.775-4.244 1.691-1.727 3.404-5.763 5.694-6.74-.02 0-1.63.207-1.65.207-1.094-.25-.826 1.394-1.96 1.686a2.36 2.36 0 0 1-.537.062c-.268 1.082-.268 2.08-.268 2.08s-1.444 1.249-2.043 2.268c-.598 1.02-1.836 3.724-1.65 4.765.082.437.412.54.825.416a2.452 2.452 0 0 1-.186-.5zM13.06 33.642l-2.95 1.685c.886.312 1.732.79 2.475 1.436 1.465 1.29 2.373 3.287 1.774 5.243-.268.874-.825 1.685-1.506 2.31 0 .062.02.124.02.166 0 .499-.123.998-.37 1.435-.248.479-.62.936-.99 1.31-.228.25-.496.438-.764.625l.062.125c.412.77.557 1.456.66 2.31 1.238-.625 2.249-.625 2.661.311l.516-.416s.207-.416-.619-.832c-.825-.416-1.836.208-1.836.208s.413-.624.206-1.04c0 0 1.445-2.268 1.445-3.1 0 0 3.074-2.06 3.693-4.14.66-2.04-.165-8.26-4.477-7.636z"/>
                <path fill="#E27310" d="M13.06 33.642l-4.725 2.684s-1.238-.208-2.868.832c-.64.416-1.031 1.165-1.279 1.956h.02a.491.491 0 0 1 .248 0 5.151 5.151 0 0 1 1.506-1.56c1.011-.687 2.208-.625 3.24-1.207 1.588-.874 3.197-1.727 4.869-.5 1.279.958 1.918 2.684 1.856 4.245-.04.894-.31 1.81-.846 2.538-.557.77-1.176.978-2 1.123.164.625.37 1.166.309 1.894-.083.749-.268 1.56-.722 2.163l-.104.105c0 .104-.02.208-.02.29h.062c.392-.665 1.238-2.142 1.238-2.766 0 0 3.074-2.06 3.693-4.14.66-2.06-.165-8.281-4.477-7.657z"/>
                <path fill="#E27310" d="M8.933 42.755s-1.815 1.02-2.434 2.06c-.62 1.04-2.043 1.248-2.249.416 0 0-.206 1.248.825 1.456 1.032.208 2.662-2.268 2.662-2.268l1.196-1.664zM10.522 45.397s-1.774 2.518-2.6 2.33c-.825-.208-.619-1.248-.619-1.248s.207.832 1.032.416c.825-.416 2.187-1.498 2.187-1.498zM10.192 47.915s1.774.748 3.033-3.558c0 0 .866.458-.165 2.725-1.032 2.289-2.868.833-2.868.833zM7.716 39.863s2.785.104 3.61 1.123c.826 1.04.62 2.06.62 2.06s-1.28-2.663-4.23-3.183z"/>
                <g fill="#E27310">
                    <path d="M13.472 50.598c-1.238.416-1.65-.208-1.65-.208s.206 1.04-1.238.833c-1.444-.209-1.919-2.518-1.919-2.518s.289 2.101-1.155 2.101-1.589-3.183-1.589-3.183c-.144.125-.247 2.996-1.279 2.996-.619 0-1.01-.957-1.217-1.747.062 1.518.474 2.767 1.423 2.767 1.032 0 1.238-.625 1.238-.625s2.249 1.04 2.868.209c0 0 2.042.832 3.074.624 1.032-.208 2.661-1.665 2.661-1.665s.207-.416-.618-.832c-.042-.02-.083-.042-.124-.042.35.417.392 1-.475 1.29zM4.353 44.086c.413 0 .289-.998.289-.998A5.708 5.708 0 0 1 2.93 44.71s-.62 3.1-1.837 3.309c-.515.083-.701-.333-.763-.853-.165.54-.227 1.04-.165 1.373.206 1.04 1.836.208 2.455-1.249.537-1.248.908-1.726 1.011-1.83.227-.687.516-1.374.722-1.374z"/>
                </g>
                <path fill="#B76720" d="M7.118 41.298s-1.65.417-2.662 2.06a17.747 17.747 0 0 0-1.588 3.35c.474-.978.763-1.29.763-1.29s1.836-3.08 3.487-4.12zM11.017 48.539s.186.041.413.02c-.248-.104-.413-.02-.413-.02zM12.234 49.579l.062-.02c-.041 0-.062.02-.062.02z"/>
                <path fill="#B76720" d="M13.06 33.642l-.496.27c2.6.313 3.467 1.748 4.189 5.514.825 4.348-3.693 4.764-3.693 4.764s.206 0 .412.833c.207.832-.825 2.475-1.238 3.1-.227.332-.557.416-.804.436a.882.882 0 0 1 .392.396c.412.624-.207 1.248-.207 1.248l.62-.624s.412-.624.206-1.04c0 0 1.444-2.268 1.444-3.1 0 0 3.074-2.06 3.693-4.14.619-2.06-.206-8.281-4.518-7.657zM6.293 47.498c.412-1.248 2.867-4.972 2.867-4.972S7.324 44.19 6.911 45.21c-.392 1.02-1.382 1.435-1.052 6.096.186-.146.227-.312.227-.312s-.206-2.247.207-3.496zM8.954 48.33c.206-.832 2.042-3.724 2.042-3.724s-2.042 1.852-2.248 3.1c-.165.957-.083 2.872-.021 3.704a.646.646 0 0 0 .227-.187s-.206-2.06 0-2.892z"/>
                <path fill="#B76720" d="M7.53 39.842s1.238.416 2.043 1.04c.825.624 2.455 2.268 2.455 2.268s-1.424-3.308-4.498-3.308z"/>
                <g transform="translate(3.714 30.792)">
                    <path fill="#1F49CC" d="M.248.583L.227 9.55v1.04a31.966 31.966 0 0 1 2.538-2.538l.123-.708L3.9 1.186.248.583z"/>
                    <path fill="#3768E2" d="M1.052.707L.248.583.227 9.55v1.04c.041-.042.082-.104.144-.167.248-3.245.681-6.45.681-9.716z"/>
                    <path fill="#1540AD" d="M1.96.874c.392 2.538.371 5.097.268 7.656.165-.166.35-.312.516-.478l.124-.708 1.01-6.158L1.96.874z"/>
                    <ellipse cx="2.073" cy=".891" fill="#7D9FF4" rx="1" ry="1.837" transform="rotate(-80.578 2.073 .89)"/>
                    <path fill="#6189DB" d="M3.095.707c-.33.27-.887.27-1.28.25C1.342.937.702.853.249.583v.02C.206.833.99 1.144 2 1.311c1.011.166 1.857.125 1.898-.104.02-.167-.31-.354-.804-.5z"/>
                </g>
                <path fill="#FF8A08" d="M12.234 34.266s-1.65-.832-.619-2.684c1.032-1.851 3.074-.624 3.074-.624s.207-1.851 2.043-1.248c1.836.624 4.725 3.724 4.518 5.388-.206 1.665-1.444 1.852-1.444 1.852s.578 3.475-2.084 3.391c.042 0 .062-6.075-5.488-6.075z"/>
                <path fill="#F27F0C" d="M16.753 29.71c-.66-.229-1.114-.125-1.424.104.289.166.578.312.846.5.598.415 1.114.977 1.733 1.352.66.395.66 1.123.31 1.622.123.084.247.188.35.27 1.135.916-.474 2.518-1.588 1.603-1.63-1.332-3.652-1.79-5.653-2.101.165.811.907 1.185.907 1.185 5.53 0 5.509 6.076 5.509 6.076 2.64.083 2.084-3.392 2.084-3.392s1.238-.208 1.444-1.851c.206-1.644-2.662-4.744-4.518-5.368z"/>
                <path fill="#E27310" d="M16.753 29.71c-.083-.02-.145-.042-.227-.063.02.021.04.042.062.042.804.687 1.485 1.498 2.145 2.31.66.79 1.3 1.54 1.403 2.6.062.728-.041 1.56-.619 2.08-.784.687-1.795.292-2.434-.395-.372-.416-.64-.894-1.052-1.269-.454-.416-.99-.749-1.507-1.102-.97-.645-2-.645-3.032-.333.288.478.722.686.722.686 5.529 0 5.508 6.075 5.508 6.075 2.641.084 2.084-3.39 2.084-3.39s1.238-.209 1.444-1.853c.227-1.664-2.64-4.764-4.497-5.388z"/>
                <g fill="#B76720">
                    <path d="M15.927 31.998s-.31-1.248-.928-1.851c-.248.374-.31.811-.31.811s.846.416 1.238 1.04zM18.197 33.434c1.031.832 1.65 3.516 1.65 3.516s.454-.083.867-.52c-.887-2.621-2.517-2.996-2.517-2.996z"/>
                </g>
                <path fill="#B76720" d="M3.92 40.341c-.103.666-.103 1.165-.103 1.165s.041-.041.103-.124v-1.04c.02 0 0 0 0 0zM8.541 37.366s-1.01.23-1.96.77l-.123.707c.701-.582 1.423-1.144 2.083-1.477z"/>
            </g>
            <g>
                <path fill="#FF8A08" d="M34.29 86.404s-1.032-.77-2.064-.25c0 0-.247-1.04-1.547-.77-1.28.25-5.137 6.222-2.58 9.592 0 0 1.28 1.04 1.796-1.04 0 0 2.31.52 3.094-1.04.784-1.56 1.3-6.492 1.3-6.492z"/>
                <path fill="#E27310" d="M30.968 87.153c.103-.145.68-1.04-.021-1.269-.536-.187-1.465.645-1.96 1.165.64-.957 1.3-1.602 1.712-1.685 1.28-.25 1.548.77 1.548.77s-.764.27-1.28 1.02z"/>
                <path fill="#FF8A08" d="M30.968 87.153c0 .021-.021.021-.021.021s.02 0 .02-.02z"/>
                <path fill="#E27310" d="M29.4 93.416c-.516-2.08.763-4.161.763-4.161s-.763 3.12-.248 3.64c.516.52 1.548.25 1.032-1.04s1.032-4.66 1.795-4.93c.413-.146.516-.562.557-.937.35.063.66.208.825.312v.021s-1.877.603-2.661 3.724c-.351 1.373.227 2.6.949 3.537-.99.687-2.497.354-2.497.354-.515 2.08-1.795 1.04-1.795 1.04a4.577 4.577 0 0 1-.392-.624c.867.645 2.002.374 1.672-.936z"/>
                <path fill="#B76720" d="M31.463 90.045c.763-3.12 2.661-3.724 2.661-3.724v-.02c.103.062.165.103.165.103s-.516 4.931-1.279 6.491c-.144.292-.35.52-.578.687-.742-.936-1.3-2.164-.97-3.537z"/>
                <path fill="#FF8A08" d="M28.987 87.05c.495-.52 1.424-1.353 1.96-1.166.701.229.124 1.124.02 1.27l-.02.02.02-.02c.516-.77 1.28-1.02 1.28-1.02a1.657 1.657 0 0 1 1.073-.146c-.021.375-.145.79-.557.936-.764.25-2.311 3.641-1.795 4.931.515 1.29-.516 1.56-1.032 1.04s.248-3.64.248-3.64-1.28 2.08-.764 4.16c.33 1.332-.804 1.582-1.67.937-1.177-2.289-.022-5.389 1.237-7.303z"/>
                <path fill="#FF8A08" d="M44.852 88.734c-.123-.811-1.423-2.205-2.186-3.245-.764-1.04-3.61-.77-3.61-.77s1.03-2.85.247-4.41c-.764-1.561-2.827-1.041-3.343-.52-.515.52.764 2.08.764 3.12s-.516 2.08-1.795 2.85c-1.28.77-1.548 1.29-1.548 1.29-1.67 2.455-.907 5.846-.907 5.846s.247 1.04 1.547 1.29c1.3.25 3.61-.25 3.61-.25 0 .25.764.52.764.52-1.032 0-1.795.77-1.547 1.81.247 1.041 3.094.77 3.094.77s.764.25 1.795-.52c1.032-.77.763-1.81.763-1.81 2.064-.77 1.156-2.454 1.156-2.454s1.423-.396.64-2.206c.04 0 .68-.395.556-1.31z"/>
                <g fill="#F27F0C">
                    <path d="M40.602 86.28c-.763 1.04-.97 1.56-1.134 1.955-.165.395-.929.916-.929 1.436 0 .52-1.031-2.33.516-3.121 1.547-.77 0-1.81 0-1.81s2.827-.25 3.61.77c.083.104.166.208.248.332-.743-.145-1.836-.208-2.31.437zM37.508 80.558c-.516.77 1.031 2.85-.516 4.161a2 2 0 0 1-1.341.52c.763-.686 1.093-1.519 1.093-2.33 0-1.04-1.279-2.6-.763-3.12.516-.521 2.579-1.041 3.342.52.02.062.062.124.083.187-.433-.188-1.486-.541-1.898.062zM32.474 89.359c.928 4.93 6.333 2.1 6.333 2.1l-1.237 2.477c-.392.083-2.373.478-3.528.25-1.28-.25-1.548-1.29-1.548-1.29s-.392-1.686-.02-3.537zM37.508 95.1c-.516 1.041 2.063 1.29 3.342.77 1.28-.52.763-2.975.763-2.975l1.135 1.727c-.082.042-.144.063-.227.104 0 0 .248 1.04-.763 1.81-1.032.77-1.795.52-1.795.52s-2.827.25-3.095-.77c-.186-.707.124-1.29.681-1.601.062.062.062.187-.041.416z"/>
                </g>
                <path fill="#F27F0C" d="M42.913 90.94c1.795.52.248-2.289.248-2.289 1.423.562 1.114-.666.804-1.477.454.583.805 1.144.867 1.56.124.916-.516 1.29-.516 1.29.763 1.81-.64 2.206-.64 2.206s.888 1.664-1.134 2.455c-.29-1.02-.826-1.54-.826-1.54 2.187.395 1.197-2.205 1.197-2.205z"/>
                <g fill="#E27310">
                    <path d="M42.15 94.83c-.516-1.56-.99-2.371-.99-2.371l.556.083s.805 1.123 1.32.874c.517-.25.248-1.81-.515-2.85 0 0 1.547 1.04 1.547.52s-.247-1.727-.907-2.414c0 0 .907.603 1.155.083.227-.457-1.3-3.266-3.404-3.974.701.084 1.403.292 1.733.75.763 1.04 2.063 2.434 2.187 3.245.124.915-.516 1.29-.516 1.29.763 1.81-.64 2.205-.64 2.205s.908 1.686-1.155 2.455c0 0 .248 1.04-.763 1.81-.62.479-1.156.562-1.465.562 1.093-.395 2.146-1.373 1.857-2.268zM33.402 87.05s.248-.52 1.547-1.29c1.28-.77 1.795-1.81 1.795-2.851 0-1.04-1.279-2.6-.763-3.12.495-.5 2.414-1 3.26.353-.702-.291-2.228-.77-2.228.416 0 1.56.763 3.89-.764 4.66-1.547.77-4.023 4.931-2.909 6.616 1.114 1.686 4.725 1.436 5.488-.645 0 0 .763 1.394 0 2.518 0 0 .598.957 1.197.915 0 0-2.497.479-1.713 2.04a.935.935 0 0 0 .351.395c-.784-.063-1.63-.23-1.774-.791-.248-1.04.516-1.81 1.547-1.81 0 0-.763-.25-.763-.52 0 0-2.31.52-3.61.25-1.3-.271-1.548-1.29-1.548-1.29s-.784-3.371.887-5.847z"/>
                </g>
                <path fill="#B76720" d="M41.242 85.884s-1.032.77-1.032 1.56c0 0-.763.77-1.031 1.29-.248.52-.248 1.56-.248 1.56s-.516 0-.516.77c0 0-.247-.52 0-1.04 0 0 0-1.29.248-1.81s1.032-.77 1.032-.77.515-1.56 1.547-1.56z"/>
                <g fill="#B76720">
                    <path d="M41.49 89.775s1.877.478 2.496 2.33c-.165.104-.31.146-.31.146l-.123-.125c0-.021-.764-1.56-2.063-2.351zM39.447 80.683c.413 1.394-.206 3.433-.371 3.932l-2.228.5c.02 0 2.62-.729 2.599-4.432zM42.274 88.214s1.32.437 2.33 1.54c-.144.187-.288.27-.288.27s-1.28-1.54-2.042-1.81zM42.892 94.54a1.542 1.542 0 0 1-.37.166s-.517-1.56-2.064-3.121c.02 0 1.61.707 2.434 2.954zM38.931 93.145s0 1.04-.247 1.04c0 0 1.031.52 1.547.25 0 0-.248.77-1.032.52-.618-.208-2.29.27-2.31 1.29-.248-1.04.516-1.81 1.547-1.81 0 0-.763-.25-.763-.52-.042.02.99.02 1.258-.77z"/>
                </g>
                <path d="M29.833 91.023c-.041-.458-.041-.853-.041-.853s-.042.062-.104.146a7.618 7.618 0 0 1 .496-1.061s-.227.873-.351 1.768z"/>
                <path fill="#F27F0C" d="M30.307 92.5c.516.25 0-1.29.764-3.64.64-1.915 1.774-2.435 2.166-2.56-.062.27-.206.52-.495.604-.763.25-2.31 3.64-1.795 4.93.516 1.29-.516 1.56-1.032 1.04-.247-.249-.206-1.06-.082-1.872.062.624.186 1.353.474 1.498zM29.028 92.77c-.206-1.04.413-2.06.66-2.434-.288.791-.557 1.935-.268 3.1.33 1.332-.804 1.582-1.67.937a3.867 3.867 0 0 1-.352-1.04c.557.936 1.795.311 1.63-.562z"/>
            </g>
            <g>
                <path fill="#ACE63A" d="M81.39 80.287s-5.013 3.891-5.013 12.442c0 0 5.591 8.343 28.306 2.913 0 0 1.156-11.651-3.858-13.607-5.013-1.935-7.695 1.56-7.695 1.56s-1.548-2.725-3.858-1.56c-2.311 1.165-3.074 1.56-3.074 1.56s-3.446-.79-4.808-3.308z"/>
                <path fill="#494949" d="M82.36 95.371c.372-.041.722-.27.929-.749a.742.742 0 0 1 .082-.187c4.91.77 10.192 1.165 14.38-1.997 3.487-2.643 4.044-7.407 1.733-10.819.433.104.908.229 1.382.416 5.014 1.935 3.858 13.607 3.858 13.607-11.491 2.746-18.588 1.976-22.818.54.207-.228.392-.478.454-.81zM81.39 80.287c.29.541.681 1 1.115 1.394-2.641 3.933-3.735 8.572-3.033 13.461-2.29-1.206-3.095-2.434-3.095-2.434.02-8.53 5.013-12.42 5.013-12.42z" opacity=".28"/>
                <path fill="#E1E5EA" d="M104.786 91.356c.104 2.392-.082 4.286-.082 4.286-22.736 5.43-28.306-2.913-28.306-2.913 0-1.352.124-2.58.33-3.703 9.738 6.116 22.612 3.745 28.058 2.33z"/>
                <g fill="#494949" opacity=".1">
                    <path d="M101.94 92.022a62.292 62.292 0 0 0 2.846-.666c.104 2.392-.082 4.286-.082 4.286-1.052.25-2.084.478-3.054.666a43.13 43.13 0 0 0 .29-4.286zM82.319 91.585c.949.291 1.919.561 2.888.749a107.615 107.615 0 0 1-.97 4.473c-.928-.208-1.774-.437-2.516-.708.103-1.518.31-3.016.598-4.514zM76.728 89.026a24.24 24.24 0 0 0 2.806 1.498 37.725 37.725 0 0 0-.66 4.286c-1.816-1.082-2.476-2.081-2.476-2.081 0-1.352.124-2.58.33-3.703zM90.716 92.979c2.001.083 3.94 0 5.756-.167-.062 1.457-.248 2.913-.495 4.37-2.31.249-4.374.311-6.19.27.33-1.477.64-2.975.929-4.473z"/>
                </g>
                <path d="M93.088 83.47c.104-.04.186-.062.227-.083a1.951 1.951 0 0 0-.165.188s-.02-.021-.062-.104z"/>
                <path fill="#494949" d="M89.107 88.443s-.351-3.245 2.723-6.262c.66.437 1.093 1.06 1.258 1.29-.763.291-3.032 1.435-3.981 4.972z" opacity=".28"/>
                <path fill="#ACE63A" d="M93.315 83.408l.042-.041v.02c-.021 0-.021 0-.042.021z"/>
                <g>
                    <path fill="#E1E5EA" d="M87.621 81.432S83 78.623 81.68 79.767c-1.32 1.145-1.485 4.598.454 5.202 1.94.603 5.385-2.185 5.385-2.185l-.02-.27s-4.25 1.518-4.395-.5c-.165-2.018 4.332-.062 4.332-.062l.186-.52z"/>
                    <path fill="#494949" d="M83.082 82.014c-.041-.603.33-.853.887-.894-.825-.084-1.506.104-1.444.894.062.874.908 1.082 1.836 1.04-.68-.062-1.237-.332-1.279-1.04z" opacity=".1"/>
                    <path fill="#494949" d="M83.227 84.449c-1.795-.562-1.775-3.62-.702-4.952-.35 0-.64.083-.846.27-1.32 1.145-1.485 4.598.454 5.202.95.29 2.27-.23 3.342-.833-.784.333-1.609.52-2.248.313z" opacity=".1"/>
                    <path fill="#494949" d="M82.505 79.497c-.33.02-.62.083-.826.27-1.155.999-1.423 3.787-.165 4.869-.99-1.831-.35-3.85.99-5.14z" opacity=".1"/>
                    <path fill="#E1E5EA" d="M88.426 81.182s4.147-3.141 5.364-1.56c1.217 1.58.186 3.329-.929 3.537-1.114.208-3.92-.25-3.92-.25l-.04-.229s3.238.02 3.3-.79c.062-.812-.97-1.52-3.053-.417l-.722-.29z"/>
                    <path fill="#494949" d="M90.365 82.805c-.062-.062-.103-.125-.165-.187-.701.062-1.32.062-1.32.062l.04.229s.847.146 1.796.229c-.103-.104-.227-.208-.35-.333z" opacity=".2"/>
                    <path fill="#494949" d="M89.932 82.66c-.578.04-1.032.04-1.032.04l.042.23s.433.062 1.052.145c-.103-.145-.145-.29-.062-.416zM89.416 80.516c-.598.375-1.01.687-1.01.687l.7.291.372-.187a5.31 5.31 0 0 1-.062-.79z" opacity=".2"/>
                    <path fill="#494949" d="M93.233 80.163c.784.998.64 2.08.144 2.788.867-.562 1.424-1.998.392-3.33-1.217-1.58-5.364 1.561-5.364 1.561l.145.063c1.237-.812 3.775-2.247 4.683-1.082z" opacity=".2"/>
                    <path fill="#E1E5EA" d="M88.467 82.66c-1.733 1.539-1.898 4.098-1.898 4.098H83.99c.64-2.996 3.837-4.161 3.837-4.161l.64.062z"/>
                    <path fill="#494949" d="M88.26 82.638l-.433-.062s-3.197 1.165-3.837 4.161h.557c.557-2.642 3.157-3.87 3.714-4.099z" opacity=".2"/>
                    <path fill="#E1E5EA" d="M87.848 83.013s-1.114.042-.846-1.103c.248-1.123 1.032-1.248 2.022-.832.99.437.805 1.54.413 1.748-.392.229-1.589.187-1.589.187z"/>
                    <path fill="#494949" d="M89.168 81.161c.186.458-.804.957-1.052 1.103-.392.208-.742.187-.742.187s-.186 0-.372-.062c.103.645.867.624.867.624s1.196.062 1.588-.166c.351-.209.516-1.228-.289-1.686z" opacity=".2"/>
                    <path fill="#494949" d="M89.168 81.161c.186.458.29.978.021 1.124-.392.208-1.836.187-1.836.187s-.186 0-.371-.062c.103.645.866.624.866.624s1.197.062 1.589-.167c.371-.229.536-1.248-.269-1.706z" opacity=".08"/>
                </g>
            </g>
        </g>
    </g>
</svg>
